<?xml version="1.0" standalone="no"?>
<!DOCTYPE svg PUBLIC "-//W3C//DTD SVG 20010904//EN"
 "http://www.w3.org/TR/2001/REC-SVG-20010904/DTD/svg10.dtd">
<svg version="1.0" xmlns="http://www.w3.org/2000/svg"
 width="72.000000pt" height="72.000000pt" viewBox="0 0 72.000000 72.000000"
 preserveAspectRatio="xMidYMid meet">
<metadata>
Created by potrace 1.12, written by Peter Selinger 2001-2015
</metadata>
<g transform="translate(0.000000,72.000000) scale(0.100000,-0.100000)"
fill="#000000" stroke="none">
<path d="M403 652 c-7 -4 -19 -24 -27 -44 -16 -38 -68 -88 -92 -88 -26 0 -91
-38 -113 -66 -11 -14 -23 -42 -26 -63 -4 -20 -11 -59 -17 -88 -9 -45 -8 -56 9
-89 20 -38 31 -45 183 -118 89 -43 103 -44 136 -11 13 13 33 29 44 35 11 6 23
23 26 38 4 15 15 37 26 49 13 14 19 33 17 55 -1 18 4 46 11 61 12 25 12 33 0
54 -18 31 -30 38 -92 53 l-47 12 31 39 c22 28 32 52 36 87 6 68 -9 92 -56 92
-20 0 -42 -4 -49 -8z m77 -33 c22 -40 -16 -133 -64 -159 -28 -14 -25 -27 8
-40 19 -8 19 -9 -6 -9 -41 -1 -42 -2 -59 -42 -9 -20 -27 -44 -40 -53 -13 -9
-18 -16 -11 -16 7 0 24 11 37 25 13 15 26 22 29 17 3 -6 -1 -13 -10 -16 -11
-4 -15 -15 -12 -34 2 -17 -3 -33 -14 -44 -16 -16 -17 -15 -21 5 -3 12 -3 5 -2
-15 2 -21 -1 -41 -7 -44 -5 -4 -8 -17 -5 -30 6 -31 -5 -30 -73 4 -65 33 -83
61 -75 117 4 22 10 61 14 87 9 61 39 92 110 119 68 25 96 50 121 106 15 34 24
43 44 43 15 0 30 -8 36 -21z m58 -235 c50 -35 16 -80 -54 -70 -65 8 -84 21
-84 56 0 30 0 30 58 30 36 0 66 -6 80 -16z m-61 -86 c59 -12 78 -28 68 -57
-10 -31 -45 -35 -100 -11 -65 28 -73 36 -67 66 4 21 9 24 26 20 11 -4 45 -12
73 -18z m-35 -80 c46 -18 58 -28 58 -45 0 -53 -78 -46 -135 11 -22 22 -24 28
-13 46 7 11 17 18 23 16 5 -3 36 -15 67 -28z m-83 -51 c6 -8 29 -22 51 -32 32
-14 38 -21 29 -32 -24 -28 -86 -7 -109 38 -18 32 6 53 29 26z"/>
</g>
</svg>
