<?xml version="1.0" standalone="no"?>
<!DOCTYPE svg PUBLIC "-//W3C//DTD SVG 20010904//EN"
 "http://www.w3.org/TR/2001/REC-SVG-20010904/DTD/svg10.dtd">
<svg version="1.0" xmlns="http://www.w3.org/2000/svg"
 width="72.000000pt" height="72.000000pt" viewBox="0 0 72.000000 72.000000"
 preserveAspectRatio="xMidYMid meet">
<metadata>
Created by potrace 1.12, written by Peter Selinger 2001-2015
</metadata>
<g transform="translate(0.000000,72.000000) scale(0.100000,-0.100000)"
fill="#000000" stroke="none">
<path d="M282 655 c-16 -20 -21 -48 -27 -155 -4 -72 -11 -132 -15 -135 -4 -2
-15 11 -25 29 -32 59 -90 81 -133 50 -40 -28 -30 -69 33 -135 38 -40 55 -66
55 -84 0 -64 56 -135 109 -135 14 -1 37 -7 51 -15 14 -8 43 -14 64 -15 59 0
115 62 151 167 41 120 41 118 9 150 -16 15 -34 37 -39 48 -6 11 -25 25 -42 30
-17 6 -40 18 -51 28 -10 9 -25 17 -33 17 -13 0 -14 10 -6 63 8 54 7 67 -8 90
-23 36 -66 36 -93 2z m72 -60 c-1 -78 -14 -165 -28 -177 -7 -7 -10 -28 -6 -57
5 -43 7 -46 38 -49 20 -2 32 -9 32 -18 0 -13 4 -16 33 -18 6 -1 18 -9 26 -19
10 -14 21 -17 42 -13 36 7 37 -4 4 -71 -32 -64 -65 -87 -114 -80 -132 19 -164
41 -182 126 -10 45 -21 64 -54 96 -72 69 -82 115 -23 115 32 0 68 -33 88 -80
14 -33 34 -44 49 -26 6 7 15 76 20 152 12 165 15 176 50 172 24 -3 26 -6 25
-53z m64 -153 c2 -13 -5 -43 -15 -68 -14 -34 -23 -44 -41 -44 -12 0 -25 7 -29
16 -6 17 13 92 30 112 16 20 52 10 55 -16z m72 -32 c9 -17 6 -29 -12 -63 -40
-73 -94 -56 -63 20 28 66 55 81 75 43z m58 -76 c3 -23 -33 -74 -53 -74 -7 0
-18 7 -25 15 -18 22 24 87 54 83 12 -2 22 -11 24 -24z"/>
<path d="M310 282 c12 -16 26 -45 30 -63 7 -28 8 -30 9 -9 1 29 -30 92 -49 98
-7 3 -2 -9 10 -26z"/>
<path d="M380 230 c-18 -12 -2 -12 25 0 13 6 15 9 5 9 -8 0 -22 -4 -30 -9z"/>
</g>
</svg>
