<?xml version="1.0" encoding="utf-8"?>
<svg width="72.000000pt" height="72.000000pt" viewBox="0 0 72.000000 72.000000" preserveAspectRatio="xMidYMid meet" xmlns="http://www.w3.org/2000/svg">
  <g transform="translate(0.000000,72.000000) scale(0.100000,-0.100000)" fill="#000000" stroke="none">
    <path d="M386 665 c-9 -9 -17 -11 -21 -5 -10 17 -71 11 -88 -8 -14 -15 -17&#10;-42 -17 -148 0 -71 -4 -134 -8 -141 -5 -8 -14 -1 -27 23 -35 65 -108 84 -144&#10;37 -29 -35 -20 -58 45 -119 36 -34 54 -59 54 -75 1 -66 67 -149 119 -149 14&#10;-1 37 -7 51 -15 58 -33 129 -4 167 68 24 46 63 167 63 194 0 25 -87 123 -109&#10;123 -16 0 -14 19 9 85 24 70 25 94 4 123 -18 26 -74 30 -98 7z m73 -24 c19&#10;-19 19 -21 1 -83 -10 -35 -24 -82 -30 -105 -10 -38 -14 -43 -40 -43 -27 0 -30&#10;3 -30 33 1 69 29 189 47 203 24 18 30 17 52 -5z m-105 -16 c10 -27 -7 -196&#10;-21 -211 -12 -12 -10 -14 21 -14 19 0 38 -4 41 -10 3 -6 -4 -10 -17 -10 -21&#10;-1 -22 -1 -5 -11 15 -9 17 -18 13 -44 -8 -38 16 -70 45 -62 12 3 19 0 19 -9 0&#10;-24 34 -35 58 -18 17 12 22 12 22 2 0 -26 -59 -137 -79 -147 -27 -15 -71 -13&#10;-101 4 -14 8 -37 14 -51 15 -40 0 -80 52 -93 120 -3 20 -18 47 -32 60 -77 74&#10;-85 84 -82 104 2 16 11 22 36 24 40 4 57 -9 83 -60 22 -43 46 -58 60 -37 5 8&#10;9 72 9 144 0 72 3 140 6 152 9 33 56 38 68 8z m130 -211 c20 -19 20 -23 2 -66&#10;-25 -58 -80 -87 -84 -44 -3 44 35 126 59 126 4 0 15 -7 23 -16z m66 -69 c22&#10;-27 -20 -89 -65 -97 -17 -2 -19 2 -16 27 4 35 37 85 55 85 8 0 19 -7 26 -15z"/>
    <path d="M310 283 c0 -6 9 -18 20 -28 11 -10 20 -28 20 -41 0 -13 5 -26 10&#10;-29 15 -9 12 22 -4 54 -16 30 -46 59 -46 44z"/>
    <path d="M396 221 c-3 -4 6 -6 19 -3 14 2 25 6 25 8 0 8 -39 4 -44 -5z"/>
  </g>
  <path d="M 47.815 69.784 Z" style="fill: none; stroke: rgb(255, 255, 255);"/>
  <path d="M 49.292 36.923 Z" style="fill: none; stroke: rgb(255, 255, 255);"/>
  <path d="M 54.277 57.23 Z" style="fill: none; stroke: rgb(255, 255, 255);"/>
  <path d="M 54.277 24.554 Z" style="stroke: black; fill: none;"/>
</svg>