<?xml version="1.0" standalone="no"?>
<!DOCTYPE svg PUBLIC "-//W3C//DTD SVG 20010904//EN"
 "http://www.w3.org/TR/2001/REC-SVG-20010904/DTD/svg10.dtd">
<svg version="1.0" xmlns="http://www.w3.org/2000/svg"
 width="72.000000pt" height="72.000000pt" viewBox="0 0 72.000000 72.000000"
 preserveAspectRatio="xMidYMid meet">
<metadata>
Created by potrace 1.12, written by Peter Selinger 2001-2015
</metadata>
<g transform="translate(0.000000,72.000000) scale(0.100000,-0.100000)"
fill="#000000" stroke="none">
<path d="M403 670 c-13 -5 -23 -14 -23 -20 0 -6 -12 -10 -27 -9 -84 6 -93 -11
-93 -184 l0 -121 -29 46 c-46 72 -120 86 -151 28 -18 -34 -11 -52 50 -110 37
-36 60 -66 60 -79 0 -64 62 -141 114 -141 17 0 40 -7 50 -15 11 -8 35 -15 54
-15 65 0 114 57 149 173 8 28 23 66 34 86 10 20 19 44 19 53 0 19 -28 52 -50
60 -9 3 -3 22 19 66 37 73 37 81 10 117 -18 22 -28 26 -55 23 -26 -3 -35 0
-40 15 -3 10 -17 22 -31 28 -29 11 -31 11 -60 -1z m61 -36 c19 -19 20 -9 -3
-85 -10 -35 -23 -82 -30 -105 -10 -38 -13 -40 -41 -36 -16 2 -30 6 -30 8 0 2
7 50 15 107 11 70 21 106 32 115 22 16 38 15 57 -4z m-114 -19 c14 -17 7 -145
-10 -190 -8 -21 -6 -24 28 -30 59 -10 112 -28 112 -36 0 -4 -16 -1 -36 7 -20
8 -43 13 -52 11 -10 -2 2 -9 26 -16 42 -12 42 -12 36 -50 -5 -34 -3 -41 16
-51 17 -9 29 -9 46 -1 30 13 30 7 2 -66 -27 -74 -65 -113 -110 -113 -19 0 -43
7 -54 15 -10 8 -32 15 -47 15 -16 0 -38 10 -52 24 -21 21 -45 81 -45 113 0 15
-49 73 -62 73 -14 0 -47 42 -48 61 0 9 7 22 16 29 23 20 64 1 91 -40 65 -104
76 -91 83 96 4 114 8 147 20 154 20 13 26 12 40 -5z m218 -27 c7 -7 12 -19 12
-27 0 -25 -82 -181 -95 -181 -6 0 -19 6 -28 13 -16 11 -15 18 14 97 17 47 35
90 41 97 13 16 40 17 56 1z m10 -227 c5 -30 -40 -78 -78 -83 -20 -3 -27 -1
-23 9 3 7 0 13 -7 13 -6 0 3 20 21 45 26 37 38 45 59 43 18 -2 26 -10 28 -27z"/>
<path d="M332 263 c14 -16 31 -41 37 -58 l11 -30 -5 35 c-5 34 -39 80 -59 80
-5 0 2 -12 16 -27z"/>
<path d="M413 233 c9 -2 23 -2 30 0 6 3 -1 5 -18 5 -16 0 -22 -2 -12 -5z"/>
</g>
</svg>
