<?xml version="1.0" standalone="no"?>
<!DOCTYPE svg PUBLIC "-//W3C//DTD SVG 20010904//EN"
 "http://www.w3.org/TR/2001/REC-SVG-20010904/DTD/svg10.dtd">
<svg version="1.0" xmlns="http://www.w3.org/2000/svg"
 width="72.000000pt" height="72.000000pt" viewBox="0 0 72.000000 72.000000"
 preserveAspectRatio="xMidYMid meet">
<metadata>
Created by potrace 1.12, written by Peter Selinger 2001-2015
</metadata>
<g transform="translate(0.000000,72.000000) scale(0.100000,-0.100000)"
fill="#000000" stroke="none">
<path d="M400 660 c-13 -13 -33 -20 -59 -20 -60 0 -71 -23 -72 -145 -1 -55 -4
-113 -8 -129 l-6 -29 -25 39 c-44 68 -112 81 -146 29 -14 -22 -14 -27 0 -57 9
-18 34 -45 56 -61 31 -22 42 -39 55 -82 21 -72 66 -125 109 -125 17 -1 42 -7
56 -15 77 -44 153 11 191 138 13 39 42 102 65 139 24 37 46 79 50 93 8 31 -19
75 -45 75 -16 0 -18 6 -14 39 6 46 -21 81 -63 81 -16 0 -36 11 -50 25 -28 30
-67 32 -94 5z m64 -16 c22 -9 20 -40 -11 -150 -26 -92 -28 -95 -52 -89 -14 4
-28 8 -30 11 -2 2 4 51 14 109 20 116 33 136 79 119z m-102 -98 c-1 -39 -6
-86 -11 -107 l-8 -37 61 -16 c33 -10 72 -23 85 -30 24 -13 25 -12 57 54 33 69
56 89 80 69 23 -19 16 -46 -36 -130 -27 -44 -50 -84 -50 -88 0 -31 -36 -118
-61 -146 -35 -39 -70 -45 -118 -20 -16 8 -31 12 -34 8 -4 -3 -20 0 -37 7 -31
13 -70 72 -70 107 0 27 -33 71 -73 99 -40 27 -54 58 -37 79 15 18 49 19 70 2
8 -7 27 -31 43 -54 51 -80 60 -62 72 147 7 110 15 133 49 128 19 -3 21 -9 18
-72z m218 20 c0 -13 -18 -62 -40 -109 l-40 -86 -30 10 -29 11 34 96 c19 53 42
102 51 109 23 17 54 -1 54 -31z"/>
<path d="M406 356 c23 -7 46 -16 53 -20 6 -4 11 -3 11 2 0 13 -47 32 -78 31
-23 0 -21 -2 14 -13z"/>
<path d="M329 273 c12 -10 28 -36 36 -58 12 -35 14 -36 15 -13 0 27 -43 88
-62 88 -6 0 -1 -8 11 -17z"/>
<path d="M413 243 c9 -2 23 -2 30 0 6 3 -1 5 -18 5 -16 0 -22 -2 -12 -5z"/>
<path d="M308 33 c7 -3 16 -2 19 1 4 3 -2 6 -13 5 -11 0 -14 -3 -6 -6z"/>
</g>
</svg>
