<?xml version="1.0" standalone="no"?>
<!DOCTYPE svg PUBLIC "-//W3C//DTD SVG 20010904//EN"
 "http://www.w3.org/TR/2001/REC-SVG-20010904/DTD/svg10.dtd">
<svg version="1.0" xmlns="http://www.w3.org/2000/svg"
 width="72.000000pt" height="72.000000pt" viewBox="0 0 72.000000 72.000000"
 preserveAspectRatio="xMidYMid meet">
<metadata>
Created by potrace 1.12, written by Peter Selinger 2001-2015
</metadata>
<g transform="translate(0.000000,72.000000) scale(0.100000,-0.100000)"
fill="#000000" stroke="none">
<path d="M300 618 c-14 -7 -32 -28 -40 -45 -13 -29 -20 -33 -57 -33 -33 0 -46
-5 -62 -26 -25 -32 -27 -71 -5 -96 13 -14 14 -21 5 -32 -16 -19 -4 -64 20 -79
11 -7 19 -22 19 -35 0 -25 41 -72 63 -72 8 0 17 -7 21 -15 10 -28 55 -37 90
-19 17 10 65 34 107 54 41 21 88 53 103 71 25 29 28 39 23 84 -16 141 -42 190
-122 225 -56 25 -134 33 -165 18z m157 -43 c44 -19 83 -62 83 -94 0 -14 7 -46
15 -70 18 -50 13 -75 -22 -112 -34 -37 -105 -68 -111 -50 -2 7 -14 23 -26 35
-11 11 -20 25 -18 29 5 15 -19 47 -34 47 -10 0 -14 6 -11 18 3 9 8 34 12 56
l6 38 22 -20 c12 -11 33 -25 47 -32 16 -8 10 1 -17 24 -25 22 -45 49 -49 69
-8 31 -8 30 -15 -23 -5 -34 -14 -59 -26 -67 -11 -9 -19 -10 -21 -3 -2 5 -10
10 -18 10 -29 0 -7 126 27 153 19 15 33 18 73 12 27 -3 64 -12 83 -20z m-219
-64 c9 -5 11 -19 7 -43 -6 -30 -12 -37 -37 -42 -18 -3 -37 -1 -44 5 -45 37 24
112 74 80z m44 -113 c16 -7 28 -18 28 -24 0 -12 -83 -54 -108 -54 -40 0 -55
45 -24 72 31 29 55 30 104 6z m63 -70 c15 -22 14 -24 -19 -55 -59 -55 -116
-53 -116 3 0 25 7 32 65 56 52 22 51 22 70 -4z m45 -63 c17 -20 7 -41 -32 -65
-40 -24 -42 -24 -62 -4 -22 21 -20 25 22 56 43 31 55 33 72 13z"/>
<path d="M402 365 c0 -16 2 -22 5 -12 2 9 2 23 0 30 -3 6 -5 -1 -5 -18z"/>
</g>
</svg>
