<?xml version="1.0" standalone="no"?>
<!DOCTYPE svg PUBLIC "-//W3C//DTD SVG 20010904//EN"
 "http://www.w3.org/TR/2001/REC-SVG-20010904/DTD/svg10.dtd">
<svg version="1.0" xmlns="http://www.w3.org/2000/svg"
 width="72.000000pt" height="72.000000pt" viewBox="0 0 72.000000 72.000000"
 preserveAspectRatio="xMidYMid meet">
<metadata>
Created by potrace 1.12, written by Peter Selinger 2001-2015
</metadata>
<g transform="translate(0.000000,72.000000) scale(0.100000,-0.100000)"
fill="#000000" stroke="none">
<path d="M219 639 c-20 -38 -6 -115 29 -158 l31 -39 -47 -12 c-62 -15 -74 -22
-92 -53 -12 -21 -12 -29 0 -54 7 -15 12 -43 11 -61 -2 -22 4 -41 17 -55 11
-12 22 -34 26 -49 3 -15 15 -32 26 -38 11 -6 31 -22 44 -35 33 -33 47 -32 136
11 152 73 163 80 183 118 17 33 18 44 9 89 -6 29 -13 68 -17 88 -3 21 -15 49
-26 63 -22 28 -87 66 -113 66 -24 0 -76 50 -92 88 -18 44 -29 52 -76 52 -28 0
-40 -5 -49 -21z m101 -42 c25 -56 53 -81 121 -106 71 -27 101 -58 110 -119 4
-26 10 -65 14 -87 8 -56 -10 -84 -75 -117 -68 -34 -79 -35 -73 -4 3 13 0 26
-5 30 -6 3 -9 23 -7 44 1 20 1 27 -2 15 -4 -20 -5 -21 -21 -5 -11 11 -16 27
-14 44 3 19 -1 30 -12 34 -9 3 -13 10 -10 16 3 5 16 -2 29 -17 13 -14 30 -25
37 -25 7 0 2 7 -11 16 -13 9 -31 33 -40 53 -17 40 -18 41 -58 42 -26 0 -26 1
-7 9 33 13 36 26 8 40 -48 26 -86 119 -64 159 6 13 21 21 36 21 20 0 29 -9 44
-43z m0 -227 c0 -35 -19 -48 -84 -56 -50 -7 -76 6 -76 37 0 30 39 49 102 49
58 0 58 0 58 -30z m22 -75 c6 -29 -2 -37 -67 -65 -56 -24 -90 -20 -100 11 -10
29 6 42 78 60 85 22 84 22 89 -6z m26 -65 c11 -18 9 -24 -13 -46 -37 -37 -91
-57 -115 -44 -22 12 -28 60 -7 60 6 0 35 11 62 24 62 30 58 30 73 6z m30 -68
c2 -7 -10 -25 -26 -42 -32 -32 -72 -39 -91 -17 -9 11 -3 18 29 32 22 10 45 24
52 32 12 15 30 13 36 -5z"/>
</g>
</svg>
