<?xml version="1.0" standalone="no"?>
<!DOCTYPE svg PUBLIC "-//W3C//DTD SVG 20010904//EN"
 "http://www.w3.org/TR/2001/REC-SVG-20010904/DTD/svg10.dtd">
<svg version="1.0" xmlns="http://www.w3.org/2000/svg"
 width="72.000000pt" height="72.000000pt" viewBox="0 0 72.000000 72.000000"
 preserveAspectRatio="xMidYMid meet">
<metadata>
Created by potrace 1.12, written by Peter Selinger 2001-2015
</metadata>
<g transform="translate(0.000000,72.000000) scale(0.100000,-0.100000)"
fill="#000000" stroke="none">
<path d="M345 653 c-15 -23 -16 -36 -8 -90 8 -53 7 -63 -6 -63 -8 0 -23 -8
-33 -17 -11 -10 -34 -22 -51 -28 -17 -5 -36 -19 -42 -30 -5 -11 -23 -33 -39
-48 -32 -32 -32 -30 9 -150 36 -105 92 -167 151 -167 21 1 50 7 64 15 14 8 37
14 51 15 53 0 109 71 109 135 0 18 17 44 55 84 63 66 73 107 33 135 -43 31
-101 9 -133 -50 -10 -18 -21 -31 -25 -29 -4 3 -11 63 -15 135 -6 107 -11 135
-27 155 -27 34 -70 34 -93 -2z m80 -20 c3 -10 10 -80 16 -157 5 -76 14 -145
20 -152 15 -18 35 -7 49 26 20 47 56 80 88 80 59 0 49 -46 -23 -115 -33 -32
-44 -51 -54 -96 -18 -85 -50 -107 -182 -126 -49 -7 -82 16 -114 80 -33 67 -32
78 4 71 21 -4 32 -1 42 13 8 10 20 18 27 19 28 2 32 5 32 18 0 9 12 16 33 18
30 3 32 6 37 51 3 26 3 47 -1 47 -4 0 -10 7 -13 15 -11 28 -29 194 -23 210 9
21 53 19 62 -2z m-56 -198 c8 -16 15 -45 15 -65 1 -30 -2 -35 -24 -38 -21 -2
-28 4 -42 40 -19 45 -23 80 -11 92 15 15 48 0 62 -29z m-71 -56 c41 -83 -11
-113 -56 -32 -19 34 -21 46 -12 63 17 32 42 20 68 -31z m-57 -55 c20 -33 20
-37 5 -52 -20 -20 -43 -9 -65 30 -34 59 23 81 60 22z"/>
<path d="M395 284 c-9 -14 -18 -42 -21 -62 l-4 -37 9 34 c5 18 19 46 30 62 12
16 17 29 12 29 -5 0 -16 -12 -26 -26z"/>
<path d="M315 230 c27 -12 43 -12 25 0 -8 5 -22 9 -30 9 -10 0 -8 -3 5 -9z"/>
</g>
</svg>
