<?xml version="1.0" standalone="no"?>
<!DOCTYPE svg PUBLIC "-//W3C//DTD SVG 20010904//EN"
 "http://www.w3.org/TR/2001/REC-SVG-20010904/DTD/svg10.dtd">
<svg version="1.0" xmlns="http://www.w3.org/2000/svg"
 width="72.000000pt" height="72.000000pt" viewBox="0 0 72.000000 72.000000"
 preserveAspectRatio="xMidYMid meet">
<metadata>
Created by potrace 1.12, written by Peter Selinger 2001-2015
</metadata>
<g transform="translate(0.000000,72.000000) scale(0.100000,-0.100000)"
fill="#000000" stroke="none">
<path d="M236 658 c-21 -29 -20 -53 4 -123 23 -66 25 -85 9 -85 -22 0 -109
-98 -109 -123 0 -27 39 -148 63 -194 38 -72 109 -101 167 -68 14 8 37 14 51
15 52 0 118 83 119 149 0 16 18 41 54 75 65 61 74 84 45 119 -36 47 -109 28
-144 -37 -13 -24 -22 -31 -27 -23 -4 7 -8 71 -8 143 0 114 -2 133 -18 147 -20
19 -77 23 -87 7 -4 -6 -12 -4 -21 5 -24 23 -80 19 -98 -7z m77 -12 c18 -14 46
-134 47 -203 0 -30 -3 -33 -30 -33 -26 0 -30 5 -40 43 -6 23 -20 70 -30 105
-18 62 -18 64 1 83 22 22 28 23 52 5z m121 -29 c3 -12 6 -80 6 -152 0 -72 4
-136 9 -144 14 -21 38 -6 60 37 26 51 43 64 83 60 25 -2 34 -8 36 -24 3 -20
-5 -30 -82 -104 -14 -13 -29 -40 -32 -60 -13 -68 -53 -120 -93 -120 -14 -1
-37 -7 -51 -15 -30 -17 -74 -19 -101 -4 -20 10 -79 121 -79 147 0 10 5 10 22
-2 24 -17 58 -6 58 18 0 9 7 12 19 9 29 -8 53 24 45 62 -4 26 -2 35 13 44 17
10 16 10 -5 11 -13 0 -20 4 -17 10 3 6 22 10 41 10 32 0 34 1 20 16 -10 10
-16 33 -16 63 0 27 -3 68 -6 93 -5 33 -2 48 10 60 20 21 52 12 60 -15z m-152
-204 c19 -22 38 -81 36 -109 -4 -43 -59 -14 -84 44 -18 43 -18 47 2 66 20 20
27 20 46 -1z m-54 -81 c11 -15 22 -41 23 -57 3 -25 1 -29 -16 -27 -45 8 -87
70 -65 97 18 22 36 18 58 -13z"/>
<path d="M388 273 c-32 -37 -53 -104 -28 -88 6 3 10 16 10 27 0 12 10 32 22
45 12 13 19 25 16 28 -2 3 -12 -3 -20 -12z"/>
<path d="M280 226 c0 -2 11 -6 25 -8 13 -3 22 -1 19 3 -5 9 -44 13 -44 5z"/>
<path d="M12 380 c0 -14 2 -19 5 -12 2 6 2 18 0 25 -3 6 -5 1 -5 -13z"/>
</g>
</svg>
