<?xml version="1.0" standalone="no"?>
<!DOCTYPE svg PUBLIC "-//W3C//DTD SVG 20010904//EN"
 "http://www.w3.org/TR/2001/REC-SVG-20010904/DTD/svg10.dtd">
<svg version="1.0" xmlns="http://www.w3.org/2000/svg"
 width="72.000000pt" height="72.000000pt" viewBox="0 0 72.000000 72.000000"
 preserveAspectRatio="xMidYMid meet">
<metadata>
Created by potrace 1.12, written by Peter Selinger 2001-2015
</metadata>
<g transform="translate(0.000000,72.000000) scale(0.100000,-0.100000)"
fill="#000000" stroke="none">
<path d="M253 670 c-12 -5 -24 -17 -27 -27 -5 -15 -14 -18 -40 -15 -27 3 -37
-1 -55 -23 -27 -36 -27 -44 10 -117 22 -44 28 -63 19 -66 -22 -8 -50 -41 -50
-60 0 -9 9 -33 19 -53 11 -20 26 -58 34 -86 35 -116 84 -173 149 -173 19 0 43
7 54 15 10 8 33 15 50 15 52 0 114 77 114 141 0 13 23 43 60 79 61 58 68 76
50 110 -31 58 -105 44 -151 -28 l-29 -46 0 121 c0 171 -9 191 -89 184 -12 -1
-28 5 -35 13 -15 19 -55 27 -83 16z m60 -32 c11 -9 21 -45 32 -115 8 -57 15
-105 15 -107 0 -2 -14 -6 -30 -8 -28 -4 -31 -2 -41 36 -7 23 -20 70 -30 105
-23 76 -22 66 -3 85 19 19 35 20 57 4z m97 -18 c12 -7 16 -40 20 -154 7 -187
18 -200 83 -96 27 41 68 60 91 40 9 -7 16 -20 16 -29 -1 -19 -34 -61 -48 -61
-13 0 -62 -58 -62 -73 0 -32 -24 -92 -45 -113 -14 -14 -36 -24 -52 -24 -15 0
-37 -7 -47 -15 -11 -8 -35 -15 -54 -15 -45 0 -83 39 -110 113 -28 73 -28 81
-1 66 16 -8 28 -8 46 0 23 10 25 16 19 51 -6 39 -6 39 36 51 24 7 36 14 26 16
-9 2 -32 -3 -52 -11 -20 -8 -36 -11 -36 -7 0 8 53 26 112 36 34 6 36 9 28 30
-17 45 -24 173 -10 190 14 17 20 18 40 5z m-202 -33 c6 -7 24 -50 41 -97 29
-79 30 -86 14 -97 -9 -7 -22 -13 -28 -13 -13 0 -95 156 -95 181 0 34 47 52 68
26z m21 -242 c18 -25 27 -45 21 -45 -7 0 -10 -6 -7 -13 9 -23 -45 -8 -75 21
-26 24 -36 60 -21 75 19 19 52 4 82 -38z"/>
<path d="M372 267 c-12 -13 -24 -38 -27 -57 l-5 -35 11 30 c6 17 23 42 37 58
14 15 21 27 16 27 -6 0 -20 -10 -32 -23z"/>
<path d="M283 233 c9 -2 23 -2 30 0 6 3 -1 5 -18 5 -16 0 -22 -2 -12 -5z"/>
</g>
</svg>
