<?xml version="1.0" standalone="no"?>
<!DOCTYPE svg PUBLIC "-//W3C//DTD SVG 20010904//EN"
 "http://www.w3.org/TR/2001/REC-SVG-20010904/DTD/svg10.dtd">
<svg version="1.0" xmlns="http://www.w3.org/2000/svg"
 width="72.000000pt" height="72.000000pt" viewBox="0 0 72.000000 72.000000"
 preserveAspectRatio="xMidYMid meet">
<metadata>
Created by potrace 1.12, written by Peter Selinger 2001-2015
</metadata>
<g transform="translate(0.000000,72.000000) scale(0.100000,-0.100000)"
fill="#000000" stroke="none">
<path d="M226 655 c-14 -14 -34 -25 -50 -25 -42 0 -69 -35 -63 -81 4 -33 2
-39 -14 -39 -26 0 -53 -44 -45 -75 4 -14 26 -56 50 -93 23 -37 52 -100 65
-139 38 -127 114 -182 191 -138 14 8 39 14 56 15 43 0 88 53 109 125 13 43 24
60 55 82 22 16 47 43 56 61 14 30 14 35 0 57 -34 52 -102 39 -146 -29 l-25
-39 -6 29 c-4 16 -7 74 -8 129 -1 122 -12 145 -72 145 -26 0 -46 7 -59 20 -27
27 -66 25 -94 -5z m73 -15 c14 -7 23 -36 36 -115 10 -58 16 -107 14 -109 -2
-3 -16 -7 -30 -11 -24 -6 -26 -3 -52 89 -15 53 -27 107 -27 120 0 32 26 44 59
26z m109 -33 c6 -7 13 -60 17 -117 9 -157 14 -190 30 -190 8 0 27 19 42 43 16
23 35 47 43 54 21 17 55 16 70 -2 17 -21 3 -52 -37 -79 -40 -28 -73 -72 -73
-99 0 -35 -39 -94 -70 -107 -17 -7 -33 -10 -37 -7 -3 4 -18 0 -34 -8 -48 -25
-83 -19 -118 20 -25 28 -61 115 -61 146 0 4 -22 44 -50 88 -52 84 -59 111 -36
130 24 20 47 0 80 -69 32 -66 33 -67 57 -54 13 7 52 20 86 30 34 9 61 20 58
23 -8 14 -27 182 -21 196 7 18 40 20 54 2z m-198 -20 c0 -1 16 -46 35 -99 l34
-96 -29 -11 -30 -10 -40 86 c-44 94 -49 127 -23 142 14 8 53 -1 53 -12z"/>
<path d="M273 358 c-13 -6 -23 -15 -23 -20 0 -5 5 -6 11 -2 7 4 30 13 53 20
38 12 39 13 11 13 -16 0 -40 -5 -52 -11z"/>
<path d="M366 259 c-14 -17 -26 -43 -26 -57 1 -23 3 -22 15 13 8 22 24 48 36
58 12 9 17 17 11 17 -6 0 -22 -14 -36 -31z"/>
<path d="M283 243 c9 -2 23 -2 30 0 6 3 -1 5 -18 5 -16 0 -22 -2 -12 -5z"/>
<path d="M398 33 c7 -3 16 -2 19 1 4 3 -2 6 -13 5 -11 0 -14 -3 -6 -6z"/>
</g>
</svg>
