<?xml version="1.0" encoding="UTF-8" standalone="no"?>
<svg
   xmlns:dc="http://purl.org/dc/elements/1.1/"
   xmlns:cc="http://creativecommons.org/ns#"
   xmlns:rdf="http://www.w3.org/1999/02/22-rdf-syntax-ns#"
   xmlns:svg="http://www.w3.org/2000/svg"
   xmlns="http://www.w3.org/2000/svg"
   xmlns:sodipodi="http://sodipodi.sourceforge.net/DTD/sodipodi-0.dtd"
   xmlns:inkscape="http://www.inkscape.org/namespaces/inkscape"
   version="1.1"
   x="0px"
   y="0px"
   viewBox="0 0 100 100"
   enable-background="new 0 0 100 100"
   xml:space="preserve"
   id="svg3037"
   inkscape:version="0.48.5 r10040"
   width="100%"
   height="100%"
   sodipodi:docname="rh0.svg"><metadata
     id="metadata3049"><rdf:RDF><cc:Work
         rdf:about=""><dc:format>image/svg+xml</dc:format><dc:type
           rdf:resource="http://purl.org/dc/dcmitype/StillImage" /><dc:title></dc:title></cc:Work></rdf:RDF></metadata><defs
     id="defs3047" /><sodipodi:namedview
     pagecolor="#ffffff"
     bordercolor="#666666"
     borderopacity="1"
     objecttolerance="10"
     gridtolerance="10"
     guidetolerance="10"
     inkscape:pageopacity="0"
     inkscape:pageshadow="2"
     inkscape:window-width="1600"
     inkscape:window-height="846"
     id="namedview3045"
     showgrid="false"
     inkscape:zoom="6.63"
     inkscape:cx="50"
     inkscape:cy="50"
     inkscape:window-x="0"
     inkscape:window-y="0"
     inkscape:window-maximized="1"
     inkscape:current-layer="svg3037" /><path
     d="m 50.554817,79.258 c 2.858,0 5.457,-0.156 7.455,-0.275 10.978,-0.656 21.154,-13.612 23.419,-24.83 l 0.026,-0.165 c 0.176,-1.505 -2.688,-15.322 -5.127,-17.15 -1.909,-1.432 -5.465,-1.746 -7.386,-1.806 0.045,-1.558 0.104,-2.487 0.105,-2.5 0.2,-5.494 -3.116,-8.383 -6.281,-8.767 -2.956,-0.359 -5.551,1.238 -6.744,3.994 -0.023,-2.444 -1.184,-4.57 -3.223,-5.852 -2.234,-1.404 -5.134,-1.541 -7.387,-0.347 -2.091,1.107 -3.343,3.219 -3.434,5.794 l -0.029,0.901 -0.006,-0.029 c -0.823,-4.057 -4.344,-5.634 -7.392,-5.078 -3.006,0.548 -5.706,3.213 -5.335,7.307 -1.385,-1.699 -3.535,-2.422 -5.767,-1.823 -2.704,0.726 -5.367,3.588 -4.826,8.158 l 0.167,1.848 c 0.041,0.902 1.25,24.197 10.212,34.102 4.948,5.467 14.126,6.518 21.553,6.518 z m 26.918,-25.725 c -2.454,11.766 -12.394,21.02 -19.702,21.457 -6.058,0.363 -20.24,1.213 -25.802,-4.934 -8.011,-8.854 -9.178,-31.466 -9.189,-31.693 l -0.178,-1.988 c -0.269,-2.276 0.754,-3.576 1.885,-3.879 0.408,-0.111 1.417,-0.226 1.97,1.061 0.245,0.568 0.622,1.279 0.622,1.279 l 0.811,1.529 5.9,-2.114 -0.54,-3.772 c -0.353,-2.177 0.813,-3.175 2.019,-3.396 1.049,-0.19 2.403,0.21 2.761,1.971 l 0.987,4.486 6.798,-1.045 0.161,-5.006 c 0.041,-1.148 0.481,-1.956 1.308,-2.394 0.981,-0.521 2.373,-0.438 3.387,0.199 0.647,0.406 1.406,1.208 1.348,2.722 l -0.112,4.579 6.946,0.894 0.593,-3.373 c 0.405,-1.946 1.784,-2.506 2.839,-2.381 1.454,0.176 2.873,1.665 2.767,4.595 -0.002,0.022 -0.121,1.89 -0.153,4.791 -0.053,4.79 0.215,11.466 3.138,14.793 0.729,0.83 1.992,0.913 2.822,0.183 0.83,-0.729 0.912,-1.993 0.183,-2.822 -0.943,-1.074 -2.037,-3.728 -2.14,-10.243 2.117,0.074 4.128,0.449 4.914,0.931 1.131,1.698 3.574,11.609 3.657,13.57 z"
     id="path3039"
     inkscape:connector-curvature="0" /><text
     x="0"
     y="115"
     fill="#000000"
     font-size="5px"
     font-weight="bold"
     font-family="'Helvetica Neue', Helvetica, Arial-Unicode, Arial, Sans-serif"
     id="text3041">Created by Herbert Spencer</text>
<text
     x="0"
     y="120"
     fill="#000000"
     font-size="5px"
     font-weight="bold"
     font-family="'Helvetica Neue', Helvetica, Arial-Unicode, Arial, Sans-serif"
     id="text3043">from the Noun Project</text>
</svg>