<?xml version="1.0" encoding="UTF-8" standalone="no"?>
<svg
   xmlns:dc="http://purl.org/dc/elements/1.1/"
   xmlns:cc="http://creativecommons.org/ns#"
   xmlns:rdf="http://www.w3.org/1999/02/22-rdf-syntax-ns#"
   xmlns:svg="http://www.w3.org/2000/svg"
   xmlns="http://www.w3.org/2000/svg"
   xmlns:sodipodi="http://sodipodi.sourceforge.net/DTD/sodipodi-0.dtd"
   xmlns:inkscape="http://www.inkscape.org/namespaces/inkscape"
   version="1.1"
   x="0px"
   y="0px"
   viewBox="0 0 100 100"
   enable-background="new 0 0 100 100"
   xml:space="preserve"
   id="svg3025"
   inkscape:version="0.48.5 r10040"
   width="100%"
   height="100%"
   sodipodi:docname="rh1.svg"><metadata
     id="metadata3037"><rdf:RDF><cc:Work
         rdf:about=""><dc:format>image/svg+xml</dc:format><dc:type
           rdf:resource="http://purl.org/dc/dcmitype/StillImage" /><dc:title></dc:title></cc:Work></rdf:RDF></metadata><defs
     id="defs3035" /><sodipodi:namedview
     pagecolor="#ffffff"
     bordercolor="#666666"
     borderopacity="1"
     objecttolerance="10"
     gridtolerance="10"
     guidetolerance="10"
     inkscape:pageopacity="0"
     inkscape:pageshadow="2"
     inkscape:window-width="1600"
     inkscape:window-height="846"
     id="namedview3033"
     showgrid="false"
     inkscape:zoom="6.63"
     inkscape:cx="50"
     inkscape:cy="50"
     inkscape:window-x="0"
     inkscape:window-y="0"
     inkscape:window-maximized="1"
     inkscape:current-layer="svg3025" /><path
     d="m 50.562809,92.454 c 2.855,0 5.451,-0.155 7.447,-0.274 10.979,-0.658 21.154,-13.615 23.419,-24.831 l 0.026,-0.163 c 0.176,-1.504 -2.685,-15.319 -5.127,-17.151 -1.908,-1.432 -5.464,-1.746 -7.385,-1.807 0.183,-7.931 0.857,-32.858 0.864,-33.144 -0.109,-4.951 -3.508,-7.508 -6.808,-7.526 -3.173,0 -6.501,2.38 -6.657,6.999 l -1.246,23.405 c -1.375,-2.428 -4.09,-3.678 -6.527,-3.654 -3.069,0.049 -6.445,2.175 -6.606,6.728 l -0.013,0.416 -0.007,-0.03 c -0.823,-4.057 -4.343,-5.634 -7.392,-5.078 -3.006,0.548 -5.706,3.213 -5.335,7.307 -1.385,-1.699 -3.535,-2.422 -5.766,-1.823 -2.704,0.726 -5.367,3.588 -4.826,8.159 l 0.167,1.847 c 0.041,0.902 1.25,24.197 10.212,34.102 4.947,5.466 14.131,6.518 21.56,6.518 z m 26.911,-25.726 c -2.454,11.765 -12.394,21.02 -19.702,21.458 -6.058,0.363 -20.242,1.209 -25.802,-4.934 -8,-8.843 -9.177,-31.467 -9.188,-31.694 l -0.178,-1.987 c -0.269,-2.276 0.754,-3.577 1.885,-3.88 0.408,-0.11 1.416,-0.224 1.969,1.061 0.245,0.569 0.621,1.279 0.621,1.279 l 0.811,1.53 5.901,-2.114 -0.54,-3.772 c -0.353,-2.178 0.813,-3.176 2.019,-3.396 1.05,-0.193 2.403,0.21 2.761,1.971 l 0.987,4.486 6.8,-1.045 0.144,-4.52 c 0.09,-2.545 1.899,-2.85 2.672,-2.862 1.508,-0.017 3.242,0.939 3.389,3.115 l 0.46,4.442 6.158,0.791 1.698,-31.927 c 0.08,-2.354 1.46,-3.173 2.625,-3.173 0.004,0 0.009,0 0.014,0 1.37,0.007 2.777,1.098 2.832,3.517 -0.036,1.225 -0.877,32.378 -0.91,35.242 -0.054,4.787 0.214,11.466 3.138,14.794 0.729,0.831 1.992,0.911 2.823,0.182 0.83,-0.729 0.911,-1.993 0.182,-2.823 -0.944,-1.074 -2.038,-3.728 -2.141,-10.243 2.117,0.074 4.128,0.449 4.914,0.931 1.131,1.699 3.575,11.611 3.658,13.571 z"
     id="path3027"
     inkscape:connector-curvature="0" /><text
     x="0"
     y="115"
     fill="#000000"
     font-size="5px"
     font-weight="bold"
     font-family="'Helvetica Neue', Helvetica, Arial-Unicode, Arial, Sans-serif"
     id="text3029">Created by Herbert Spencer</text>
<text
     x="0"
     y="120"
     fill="#000000"
     font-size="5px"
     font-weight="bold"
     font-family="'Helvetica Neue', Helvetica, Arial-Unicode, Arial, Sans-serif"
     id="text3031">from the Noun Project</text>
</svg>