<?xml version="1.0" encoding="UTF-8" standalone="no"?>
<svg
   xmlns:dc="http://purl.org/dc/elements/1.1/"
   xmlns:cc="http://creativecommons.org/ns#"
   xmlns:rdf="http://www.w3.org/1999/02/22-rdf-syntax-ns#"
   xmlns:svg="http://www.w3.org/2000/svg"
   xmlns="http://www.w3.org/2000/svg"
   xmlns:sodipodi="http://sodipodi.sourceforge.net/DTD/sodipodi-0.dtd"
   xmlns:inkscape="http://www.inkscape.org/namespaces/inkscape"
   version="1.1"
   x="0px"
   y="0px"
   viewBox="0 0 100 100"
   enable-background="new 0 0 100 100"
   xml:space="preserve"
   id="svg3171"
   inkscape:version="0.48.5 r10040"
   width="100%"
   height="100%"
   sodipodi:docname="lh3.svg"><metadata
     id="metadata3183"><rdf:RDF><cc:Work
         rdf:about=""><dc:format>image/svg+xml</dc:format><dc:type
           rdf:resource="http://purl.org/dc/dcmitype/StillImage" /><dc:title></dc:title></cc:Work></rdf:RDF></metadata><defs
     id="defs3181" /><sodipodi:namedview
     pagecolor="#ffffff"
     bordercolor="#666666"
     borderopacity="1"
     objecttolerance="10"
     gridtolerance="10"
     guidetolerance="10"
     inkscape:pageopacity="0"
     inkscape:pageshadow="2"
     inkscape:window-width="640"
     inkscape:window-height="480"
     id="namedview3179"
     showgrid="false"
     inkscape:zoom="2.36"
     inkscape:cx="50"
     inkscape:cy="50"
     inkscape:window-x="0"
     inkscape:window-y="0"
     inkscape:window-maximized="0"
     inkscape:current-layer="svg3171" /><path
     d="m 42.938806,95.878 c 0,0 0,0 0,0 2.698,0 5.102,-0.13 7.333,-0.264 10.255,-0.614 22.252,-12.532 22.758,-13.039 l 0.242,-0.294 16.57,-24.576 -1.321,-1.162 c -2.088,-1.834 -4.243,-2.765 -6.407,-2.765 -4.423,0 -7.803,3.79 -10.785,7.133 -2.177,2.441 -4.429,4.965 -6.21,4.964 -0.243,0 -0.483,-0.046 -0.733,-0.142 -5.843,-2.234 -3.501,-13.769 -3.476,-13.884 l 5.354,-28.195 c 0.432,-3.302 -0.596,-5.269 -1.534,-6.337 -1.061,-1.208 -2.528,-1.874 -4.135,-1.874 -2.602,0 -5.606,1.833 -6.456,5.929 l -6.164,24.312 -0.123,-0.016 0.241,-34.788 c -0.107,-4.662 -3.428,-6.757 -6.468,-6.757 -3.116,0 -6.526,2.256 -6.706,6.437 l -0.749,35.121 -0.301,0.046 -0.134,-0.708 c -0.639,-3.149 -3.13,-5.246 -6.203,-5.246 -1.951,0 -3.78,0.834 -5.019,2.288 -1.104,1.298 -1.637,2.991 -1.537,4.841 -1.13,-1.329 -2.668,-2.074 -4.343,-2.074 -1.989,0 -3.989,1.077 -5.222,2.812 -1.297,1.825 -1.6039997,4.122 -0.845,6.3 l 0.495,1.52 c 0.16,2.823 1.653,24.462 10.203,33.913 3.964,4.377 11.054,6.505 21.675,6.505 z m 27.129,-16.001 c -1.287,1.253 -11.806,11.251 -20.034,11.744 -2.171,0.13 -4.507,0.257 -7.094,0.257 -9.297,0 -15.591,-1.747 -18.709,-5.191 -8,-8.843 -9.177,-31.466 -9.188,-31.694 l -0.014,-0.269 -0.673,-2.065 c -0.462,-1.325 0.001,-2.262 0.315,-2.706 0.487,-0.686 1.257,-1.128 1.961,-1.128 0.612,0 1.138,0.347 1.56,1.031 0.128,0.206 0.461,0.919 0.692,1.459 l 0.715,1.661 6.128,-1.921 -0.709,-3.917 c -0.162,-1.004 0.023,-1.876 0.542,-2.486 0.47,-0.551 1.207,-0.881 1.973,-0.881 0.562,0 1.909,0.196 2.278,2.015 l 0.846,4.482 7.441,-1.146 0.819,-38.435 c 0.075,-1.749 1.457,-2.565 2.708,-2.565 0.564,0 2.408,0.201 2.469,2.79 l -0.268,38.271 7.154,0.919 7.055,-27.833 c 0.413,-1.979 1.578,-2.826 2.56,-2.826 0.31,0 0.757,0.089 1.129,0.512 0.548,0.625 0.754,1.734 0.58,3.126 l -5.312,27.966 c -0.123,0.552 -3.183,14.926 5.966,18.423 0.703,0.269 1.431,0.406 2.16,0.406 h 0.001 c 3.574,0 6.432,-3.204 9.195,-6.302 2.541,-2.849 5.169,-5.795 7.8,-5.795 0.76,0 1.541,0.24 2.363,0.729 l -14.409,21.369 z"
     id="path3173"
     inkscape:connector-curvature="0" /><text
     x="0"
     y="115"
     font-size="5px"
     font-weight="bold"
     id="text3175">Created by Herbert Spencer</text>
<text
     x="0"
     y="120"
     font-size="5px"
     font-weight="bold"
     id="text3177">from the Noun Project</text>
</svg>