<?xml version="1.0" encoding="UTF-8" standalone="no"?>
<!-- Created with Inkscape (http://www.inkscape.org/) -->

<svg
   xmlns:dc="http://purl.org/dc/elements/1.1/"
   xmlns:cc="http://creativecommons.org/ns#"
   xmlns:rdf="http://www.w3.org/1999/02/22-rdf-syntax-ns#"
   xmlns:svg="http://www.w3.org/2000/svg"
   xmlns="http://www.w3.org/2000/svg"
   version="1.1"
   width="100%"
   height="100%"
   viewBox="0 0 100 100"
   id="svg3245"
   xml:space="preserve"><metadata
     id="metadata3257"><rdf:RDF><cc:Work
         rdf:about=""><dc:format>image/svg+xml</dc:format><dc:type
           rdf:resource="http://purl.org/dc/dcmitype/StillImage" /><dc:title></dc:title></cc:Work></rdf:RDF></metadata><defs
     id="defs3255" /><path
     d="m 54.575378,95.932 c 2.855,0.001 5.451,-0.154 7.447,-0.274 10.978,-0.656 21.153,-13.613 23.419,-24.83 l 0.026,-0.165 c 0.175,-1.505 -2.688,-15.32 -5.127,-17.149 -1.849,-1.387 -5.248,-1.726 -7.205,-1.801 0.716,-5.52 2.986,-19.464 4.595,-29.01 0.622,-4.319 -2.12,-7.091 -5.146,-7.623 -2.966,-0.525 -6.426,1.168 -7.305,5.4 l -5.609,25.239 -0.069,-0.009 0.239,-34.432 c 0.101,-2.608 -1.022,-4.882 -3.084,-6.178 -2.014,-1.266 -4.552,-1.369 -6.627,-0.271 -2.107,1.116 -3.371,3.297 -3.466,5.984 l -0.743,34.883 -0.081,0.011 -4.558,-26.337 c -0.841,-4.146 -4.366,-5.72 -7.409,-5.167 -3.157,0.576 -5.976,3.486 -5.255,7.934 l 4.362,24.222 c -2.513,-4.996 -7,-13.915 -7.177,-14.265 -1.695,-3.352 -5.183,-3.883 -7.75,-2.678 -2.696,1.266 -4.552,4.562 -2.88,8.41 l 7.648,17.771 c 0.187,3.181 1.738,24.466 10.198,33.817 4.945,5.467 14.129,6.518 21.557,6.518 z m 26.911,-25.725 c -2.455,11.765 -12.395,21.021 -19.702,21.458 -6.056,0.36 -20.242,1.21 -25.802,-4.935 -8.011,-8.854 -9.177,-31.466 -9.188,-31.693 l -0.017,-0.362 -7.936,-18.436 c -0.738,-1.701 -0.014,-2.769 0.909,-3.202 0.275,-0.13 1.693,-0.697 2.481,0.863 0.247,0.488 8.84,17.57 8.84,17.57 l 0.795,1.581 5.995,-2.146 -5.302,-29.442 c -0.341,-2.106 0.825,-3.104 2.031,-3.325 1.052,-0.192 2.403,0.21 2.761,1.971 l 5.207,30.09 7.29,-1.006 0.813,-38.266 c 0.044,-1.226 0.508,-2.122 1.34,-2.563 0.802,-0.425 1.833,-0.377 2.626,0.123 0.842,0.529 1.261,1.463 1.214,2.701 l -0.265,38.038 7.206,0.927 6.409,-28.833 c 0.412,-1.982 1.667,-2.482 2.703,-2.301 1.047,0.184 2.169,1.097 1.886,3.065 -0.488,2.893 -4.834,28.759 -4.867,31.711 -0.054,4.787 0.214,11.466 3.138,14.794 0.729,0.83 1.992,0.911 2.823,0.182 0.83,-0.729 0.911,-1.992 0.182,-2.822 -0.944,-1.073 -2.038,-3.729 -2.141,-10.242 2.118,0.075 4.128,0.449 4.914,0.931 1.13,1.697 3.574,11.608 3.657,13.569 z"
     id="path3247" /><text
     x="0"
     y="115"
     id="text3249"
     style="font-size:5px;font-weight:bold;fill:#000000;font-family:'\'Helvetica Neue\', Helvetica, Arial-Unicode, Arial, Sans-serif'">Created by Herbert Spencer</text>
<text
     x="0"
     y="120"
     id="text3251"
     style="font-size:5px;font-weight:bold;fill:#000000;font-family:'\'Helvetica Neue\', Helvetica, Arial-Unicode, Arial, Sans-serif'">from the Noun Project</text>
</svg>