<?xml version="1.0" encoding="UTF-8" standalone="no"?>
<svg
   xmlns:dc="http://purl.org/dc/elements/1.1/"
   xmlns:cc="http://creativecommons.org/ns#"
   xmlns:rdf="http://www.w3.org/1999/02/22-rdf-syntax-ns#"
   xmlns:svg="http://www.w3.org/2000/svg"
   xmlns="http://www.w3.org/2000/svg"
   xmlns:sodipodi="http://sodipodi.sourceforge.net/DTD/sodipodi-0.dtd"
   xmlns:inkscape="http://www.inkscape.org/namespaces/inkscape"
   version="1.1"
   x="0px"
   y="0px"
   viewBox="0 0 100 100"
   enable-background="new 0 0 100 100"
   xml:space="preserve"
   id="svg3319"
   inkscape:version="0.48.5 r10040"
   width="100%"
   height="100%"
   sodipodi:docname="lh5.svg"><metadata
     id="metadata3331"><rdf:RDF><cc:Work
         rdf:about=""><dc:format>image/svg+xml</dc:format><dc:type
           rdf:resource="http://purl.org/dc/dcmitype/StillImage" /><dc:title></dc:title></cc:Work></rdf:RDF></metadata><defs
     id="defs3329" /><sodipodi:namedview
     pagecolor="#ffffff"
     bordercolor="#666666"
     borderopacity="1"
     objecttolerance="10"
     gridtolerance="10"
     guidetolerance="10"
     inkscape:pageopacity="0"
     inkscape:pageshadow="2"
     inkscape:window-width="640"
     inkscape:window-height="480"
     id="namedview3327"
     showgrid="false"
     inkscape:zoom="2.36"
     inkscape:cx="50"
     inkscape:cy="50"
     inkscape:window-x="0"
     inkscape:window-y="0"
     inkscape:window-maximized="0"
     inkscape:current-layer="svg3319" /><path
     d="m 46.746063,95.878 c 10e-4,0 10e-4,0 0.002,0 2.701,0 5.105,-0.131 7.336,-0.265 10.255,-0.613 22.25,-12.532 22.756,-13.039 l 0.242,-0.294 16.571,-24.575 -1.321,-1.161 c -2.088,-1.835 -4.243,-2.766 -6.407,-2.766 -4.423,0 -7.803,3.79 -10.785,7.134 -2.178,2.44 -4.429,4.965 -6.211,4.964 -0.243,0 -0.482,-0.046 -0.732,-0.142 -5.843,-2.234 -3.501,-13.771 -3.476,-13.887 l 5.354,-28.194 c 0.432,-3.302 -0.596,-5.269 -1.534,-6.338 -1.061,-1.208 -2.528,-1.873 -4.135,-1.873 -2.602,0 -5.606,1.833 -6.456,5.928 l -6.164,24.311 -0.122,-0.016 0.24,-34.788 c -0.107,-4.661 -3.428,-6.757 -6.467,-6.757 -3.116,0 -6.525,2.255 -6.707,6.436 l -0.749,35.123 -0.276,0.042 -4.647,-26.44 c -0.645,-3.173 -3.137,-5.27 -6.21,-5.27 -1.951,0 -3.78,0.834 -5.018,2.288 -1.284,1.508 -1.794,3.552 -1.438,5.753 l 4.796,25.233 c -3.529,-7.273 -7.29,-14.998 -7.544,-15.409 -1.214,-1.967 -3.115,-3.096 -5.217,-3.096 -1.946,0 -3.7939998,0.967 -4.9439998,2.586 -1.203,1.694 -1.468,3.884 -0.728,6.008 l 0.062,0.158 8.0639998,18.033 c 0.189,3.231 1.747,24.465 10.194,33.803 3.965,4.382 11.054,6.51 21.671,6.51 z m 27.132,-16.001 c -1.286,1.253 -11.804,11.251 -20.032,11.744 -2.171,0.13 -4.507,0.257 -7.098,0.257 -9.294,0 -15.587,-1.746 -18.705,-5.19 -8,-8.845 -9.175,-31.466 -9.186,-31.693 l -0.019,-0.376 -8.33,-18.631 c -0.365,-1.111 -0.075,-1.864 0.235,-2.302 0.396,-0.557 1.041,-0.902 1.684,-0.902 0.703,0 1.33,0.414 1.813,1.197 0.333,0.614 5.269,10.763 8.496,17.419 l 0.753,1.553 6.461,-2.027 -5.619,-29.564 c -0.159,-0.987 0.025,-1.858 0.544,-2.468 0.47,-0.551 1.206,-0.88 1.972,-0.88 0.562,0 1.91,0.196 2.28,2.015 l 5.315,30.244 7.466,-1.149 0.819,-38.436 c 0.076,-1.749 1.458,-2.565 2.709,-2.565 0.563,0 2.407,0.201 2.468,2.79 l -0.265,38.27 7.151,0.922 7.055,-27.834 c 0.413,-1.979 1.578,-2.826 2.56,-2.826 0.31,0 0.757,0.088 1.129,0.512 0.548,0.625 0.754,1.733 0.58,3.126 l -5.312,27.965 c -0.123,0.552 -3.183,14.928 5.966,18.425 0.704,0.27 1.431,0.405 2.16,0.405 3.574,0.001 6.432,-3.203 9.196,-6.302 2.541,-2.85 5.17,-5.796 7.8,-5.796 0.76,0 1.541,0.24 2.363,0.729 l -14.409,21.368 z"
     id="path3321"
     inkscape:connector-curvature="0" /><text
     x="0"
     y="115"
     font-size="5px"
     font-weight="bold"
     id="text3323">Created by Herbert Spencer</text>
<text
     x="0"
     y="120"
     font-size="5px"
     font-weight="bold"
     id="text3325">from the Noun Project</text>
</svg>