<svg xmlns="http://www.w3.org/2000/svg" xmlns:xlink="http://www.w3.org/1999/xlink" version="1.1" x="0px" y="0px" viewBox="0 0 100 100" enable-background="new 0 0 100 100" xml:space="preserve"><path d="M49.46,79.258c-2.858,0-5.457-0.156-7.455-0.275c-10.978-0.656-21.154-13.612-23.419-24.83l-0.026-0.165  c-0.176-1.505,2.688-15.322,5.127-17.15c1.909-1.432,5.465-1.746,7.386-1.806c-0.045-1.558-0.104-2.487-0.105-2.5  c-0.2-5.494,3.116-8.383,6.281-8.767c2.956-0.359,5.551,1.238,6.744,3.994c0.023-2.444,1.184-4.57,3.223-5.852  c2.234-1.404,5.134-1.541,7.387-0.347c2.091,1.107,3.343,3.219,3.434,5.794l0.029,0.901l0.006-0.029  c0.823-4.057,4.344-5.634,7.392-5.078c3.006,0.548,5.706,3.213,5.335,7.307c1.385-1.699,3.535-2.422,5.767-1.823  c2.704,0.726,5.367,3.588,4.826,8.158l-0.167,1.848c-0.041,0.902-1.25,24.197-10.212,34.102  C66.065,78.207,56.887,79.258,49.46,79.258z M22.542,53.533c2.454,11.766,12.394,21.02,19.702,21.457  c6.058,0.363,20.24,1.213,25.802-4.934c8.011-8.854,9.178-31.466,9.189-31.693l0.178-1.988c0.269-2.276-0.754-3.576-1.885-3.879  c-0.408-0.111-1.417-0.226-1.97,1.061c-0.245,0.568-0.622,1.279-0.622,1.279l-0.811,1.529l-5.9-2.114l0.54-3.772  c0.353-2.177-0.813-3.175-2.019-3.396c-1.049-0.19-2.403,0.21-2.761,1.971l-0.987,4.486l-6.798-1.045l-0.161-5.006  c-0.041-1.148-0.481-1.956-1.308-2.394c-0.981-0.521-2.373-0.438-3.387,0.199c-0.647,0.406-1.406,1.208-1.348,2.722l0.112,4.579  l-6.946,0.894l-0.593-3.373c-0.405-1.946-1.784-2.506-2.839-2.381c-1.454,0.176-2.873,1.665-2.767,4.595  c0.002,0.022,0.121,1.89,0.153,4.791c0.053,4.79-0.215,11.466-3.138,14.793c-0.729,0.83-1.992,0.913-2.822,0.183  c-0.83-0.729-0.912-1.993-0.183-2.822c0.943-1.074,2.037-3.728,2.14-10.243c-2.117,0.074-4.128,0.449-4.914,0.931  C25.068,41.661,22.625,51.572,22.542,53.533z"/><text x="0" y="115" fill="#000000" font-size="5px" font-weight="bold" font-family="'Helvetica Neue', Helvetica, Arial-Unicode, Arial, Sans-serif">Created by Herbert Spencer</text><text x="0" y="120" fill="#000000" font-size="5px" font-weight="bold" font-family="'Helvetica Neue', Helvetica, Arial-Unicode, Arial, Sans-serif">from the Noun Project</text></svg>
