<svg xmlns="http://www.w3.org/2000/svg" xmlns:xlink="http://www.w3.org/1999/xlink" version="1.1" x="0px" y="0px" viewBox="0 0 100 100" enable-background="new 0 0 100 100" xml:space="preserve"><path d="M49.453,92.454c-2.855,0-5.451-0.155-7.447-0.274c-10.979-0.658-21.154-13.615-23.419-24.831l-0.026-0.163  c-0.176-1.504,2.685-15.319,5.127-17.151c1.908-1.432,5.464-1.746,7.385-1.807c-0.183-7.931-0.857-32.858-0.864-33.144  c0.109-4.951,3.508-7.508,6.808-7.526c3.173,0,6.501,2.38,6.657,6.999l1.246,23.405c1.375-2.428,4.09-3.678,6.527-3.654  c3.069,0.049,6.445,2.175,6.606,6.728l0.013,0.416l0.007-0.03c0.823-4.057,4.343-5.634,7.392-5.078  c3.006,0.548,5.706,3.213,5.335,7.307c1.385-1.699,3.535-2.422,5.766-1.823c2.704,0.726,5.367,3.588,4.826,8.159l-0.167,1.847  c-0.041,0.902-1.25,24.197-10.212,34.102C66.066,91.402,56.882,92.454,49.453,92.454z M22.542,66.728  c2.454,11.765,12.394,21.02,19.702,21.458c6.058,0.363,20.242,1.209,25.802-4.934c8-8.843,9.177-31.467,9.188-31.694l0.178-1.987  c0.269-2.276-0.754-3.577-1.885-3.88c-0.408-0.11-1.416-0.224-1.969,1.061c-0.245,0.569-0.621,1.279-0.621,1.279l-0.811,1.53  l-5.901-2.114l0.54-3.772c0.353-2.178-0.813-3.176-2.019-3.396c-1.05-0.193-2.403,0.21-2.761,1.971l-0.987,4.486l-6.8-1.045  l-0.144-4.52c-0.09-2.545-1.899-2.85-2.672-2.862c-1.508-0.017-3.242,0.939-3.389,3.115l-0.46,4.442l-6.158,0.791L39.677,14.73  c-0.08-2.354-1.46-3.173-2.625-3.173c-0.004,0-0.009,0-0.014,0c-1.37,0.007-2.777,1.098-2.832,3.517  c0.036,1.225,0.877,32.378,0.91,35.242c0.054,4.787-0.214,11.466-3.138,14.794c-0.729,0.831-1.992,0.911-2.823,0.182  c-0.83-0.729-0.911-1.993-0.182-2.823c0.944-1.074,2.038-3.728,2.141-10.243c-2.117,0.074-4.128,0.449-4.914,0.931  C25.069,54.856,22.625,64.768,22.542,66.728z"/><text x="0" y="115" fill="#000000" font-size="5px" font-weight="bold" font-family="'Helvetica Neue', Helvetica, Arial-Unicode, Arial, Sans-serif">Created by Herbert Spencer</text><text x="0" y="120" fill="#000000" font-size="5px" font-weight="bold" font-family="'Helvetica Neue', Helvetica, Arial-Unicode, Arial, Sans-serif">from the Noun Project</text></svg>