<svg xmlns="http://www.w3.org/2000/svg" xmlns:xlink="http://www.w3.org/1999/xlink" version="1.1" x="0px" y="0px" viewBox="0 0 100 100" enable-background="new 0 0 100 100" xml:space="preserve"><path d="M49.456,95.89c-2.857,0-5.453-0.155-7.451-0.275c-10.979-0.657-21.153-13.613-23.418-24.831L18.56,70.62  c-0.176-1.504,2.687-15.32,5.126-17.15c1.859-1.394,5.278-1.729,7.229-1.802c-0.639-5.559-2.67-19.632-4.108-29.265  c-0.502-4.961,2.589-7.687,5.67-8.161c3.14-0.481,6.784,1.281,7.677,5.585l3.868,23.235L43.732,11.48  c-0.1-2.574,1.072-4.856,3.217-6.205c2.235-1.404,5.135-1.541,7.386-0.348c2.092,1.107,3.344,3.22,3.436,5.794l0.346,33.925  c0.901-3.902,4.35-5.415,7.348-4.868c3.006,0.548,5.705,3.213,5.335,7.306c1.386-1.699,3.536-2.421,5.766-1.822  c2.704,0.726,5.367,3.588,4.826,8.158l-0.167,1.849c-0.042,0.901-1.251,24.196-10.212,34.101  C66.064,94.838,56.884,95.89,49.456,95.89z M22.542,70.164c2.454,11.766,12.394,21.021,19.702,21.458  c6.054,0.362,20.24,1.211,25.801-4.934c8.001-8.843,9.178-31.466,9.188-31.694l0.179-1.989c0.27-2.275-0.754-3.575-1.885-3.878  c-0.407-0.11-1.417-0.224-1.97,1.061c-0.244,0.568-0.622,1.281-0.622,1.281l-0.812,1.527l-5.9-2.114l0.542-3.773  c0.352-2.176-0.813-3.174-2.02-3.394c-1.052-0.19-2.404,0.209-2.762,1.971l-0.987,4.485l-6.835-1.051l-0.391-38.306  c-0.04-1.105-0.48-1.913-1.309-2.352c-0.981-0.52-2.372-0.438-3.385,0.199c-0.646,0.407-1.405,1.209-1.347,2.723l0.35,37.846  l-6.937,0.892l-4.92-29.561c-0.392-1.882-1.864-2.563-3.138-2.366c-1.278,0.196-2.556,1.274-2.31,3.711  c0.43,2.866,4.308,28.912,4.34,31.846c0.053,4.791-0.216,11.467-3.139,14.793c-0.729,0.83-1.993,0.911-2.823,0.182  c-0.83-0.729-0.911-1.993-0.182-2.823c0.943-1.073,2.038-3.728,2.141-10.243c-2.117,0.075-4.127,0.45-4.914,0.932  C25.068,58.293,22.625,68.205,22.542,70.164z"/><text x="0" y="115" fill="#000000" font-size="5px" font-weight="bold" font-family="'Helvetica Neue', Helvetica, Arial-Unicode, Arial, Sans-serif">Created by Herbert Spencer</text><text x="0" y="120" fill="#000000" font-size="5px" font-weight="bold" font-family="'Helvetica Neue', Helvetica, Arial-Unicode, Arial, Sans-serif">from the Noun Project</text></svg>