<svg xmlns="http://www.w3.org/2000/svg" xmlns:xlink="http://www.w3.org/1999/xlink" version="1.1" x="0px" y="0px" viewBox="0 0 100 100" enable-background="new 0 0 100 100" xml:space="preserve"><path d="M57.06,95.878C57.06,95.878,57.06,95.878,57.06,95.878c-2.698,0-5.102-0.13-7.333-0.264  C39.472,95,27.475,83.082,26.969,82.575l-0.242-0.294L10.157,57.705l1.321-1.162c2.088-1.834,4.243-2.765,6.407-2.765  c4.423,0,7.803,3.79,10.785,7.133c2.177,2.441,4.429,4.965,6.21,4.964c0.243,0,0.483-0.046,0.733-0.142  c5.843-2.234,3.501-13.769,3.476-13.884l-5.354-28.195c-0.432-3.302,0.596-5.269,1.534-6.337c1.061-1.208,2.528-1.874,4.135-1.874  c2.602,0,5.606,1.833,6.456,5.929l6.164,24.312l0.123-0.016l-0.241-34.788c0.107-4.662,3.428-6.757,6.468-6.757  c3.116,0,6.526,2.256,6.706,6.437l0.749,35.121l0.301,0.046l0.134-0.708c0.639-3.149,3.13-5.246,6.203-5.246  c1.951,0,3.78,0.834,5.019,2.288c1.104,1.298,1.637,2.991,1.537,4.841c1.13-1.329,2.668-2.074,4.343-2.074  c1.989,0,3.989,1.077,5.222,2.812c1.297,1.825,1.604,4.122,0.845,6.3l-0.495,1.52c-0.16,2.823-1.653,24.462-10.203,33.913  C74.771,93.75,67.681,95.878,57.06,95.878z M29.931,79.877c1.287,1.253,11.806,11.251,20.034,11.744  c2.171,0.13,4.507,0.257,7.094,0.257c9.297,0,15.591-1.747,18.709-5.191c8-8.843,9.177-31.466,9.188-31.694l0.014-0.269l0.673-2.065  c0.462-1.325-0.001-2.262-0.315-2.706c-0.487-0.686-1.257-1.128-1.961-1.128c-0.612,0-1.138,0.347-1.56,1.031  c-0.128,0.206-0.461,0.919-0.692,1.459L80.4,52.976l-6.128-1.921l0.709-3.917c0.162-1.004-0.023-1.876-0.542-2.486  c-0.47-0.551-1.207-0.881-1.973-0.881c-0.562,0-1.909,0.196-2.278,2.015l-0.846,4.482l-7.441-1.146l-0.819-38.435  c-0.075-1.749-1.457-2.565-2.708-2.565c-0.564,0-2.408,0.201-2.469,2.79l0.268,38.271l-7.154,0.919l-7.055-27.833  c-0.413-1.979-1.578-2.826-2.56-2.826c-0.31,0-0.757,0.089-1.129,0.512c-0.548,0.625-0.754,1.734-0.58,3.126l5.312,27.966  c0.123,0.552,3.183,14.926-5.966,18.423c-0.703,0.269-1.431,0.406-2.16,0.406h-0.001c-3.574,0-6.432-3.204-9.195-6.302  c-2.541-2.849-5.169-5.795-7.8-5.795c-0.76,0-1.541,0.24-2.363,0.729L29.931,79.877z"/><text x="0" y="115" fill="#000000" font-size="5px" font-weight="bold" font-family="'Helvetica Neue', Helvetica, Arial-Unicode, Arial, Sans-serif">Created by Herbert Spencer</text><text x="0" y="120" fill="#000000" font-size="5px" font-weight="bold" font-family="'Helvetica Neue', Helvetica, Arial-Unicode, Arial, Sans-serif">from the Noun Project</text></svg>