<svg xmlns="http://www.w3.org/2000/svg" xmlns:xlink="http://www.w3.org/1999/xlink" version="1.1" x="0px" y="0px" viewBox="0 0 100 100" enable-background="new 0 0 100 100" xml:space="preserve"><path d="M45.436,95.932c-2.855,0.001-5.451-0.154-7.447-0.274c-10.978-0.656-21.153-13.613-23.419-24.83l-0.026-0.165  c-0.175-1.505,2.688-15.32,5.127-17.149c1.849-1.387,5.248-1.726,7.205-1.801c-0.716-5.52-2.986-19.464-4.595-29.01  c-0.622-4.319,2.12-7.091,5.146-7.623c2.966-0.525,6.426,1.168,7.305,5.4l5.609,25.239l0.069-0.009l-0.239-34.432  C40.07,8.67,41.193,6.396,43.255,5.1c2.014-1.266,4.552-1.369,6.627-0.271c2.107,1.116,3.371,3.297,3.466,5.984l0.743,34.883  l0.081,0.011L58.73,19.37c0.841-4.146,4.366-5.72,7.409-5.167c3.157,0.576,5.976,3.486,5.255,7.934l-4.362,24.222  c2.513-4.996,7-13.915,7.177-14.265c1.695-3.352,5.183-3.883,7.75-2.678c2.696,1.266,4.552,4.562,2.88,8.41l-7.648,17.771  c-0.187,3.181-1.738,24.466-10.198,33.817C62.048,94.881,52.864,95.932,45.436,95.932z M18.525,70.207  C20.98,81.972,30.92,91.228,38.227,91.665c6.056,0.36,20.242,1.21,25.802-4.935c8.011-8.854,9.177-31.466,9.188-31.693l0.017-0.362  l7.936-18.436c0.738-1.701,0.014-2.769-0.909-3.202c-0.275-0.13-1.693-0.697-2.481,0.863c-0.247,0.488-8.84,17.57-8.84,17.57  l-0.795,1.581l-5.995-2.146l5.302-29.442c0.341-2.106-0.825-3.104-2.031-3.325c-1.052-0.192-2.403,0.21-2.761,1.971l-5.207,30.09  l-7.29-1.006L49.35,10.927c-0.044-1.226-0.508-2.122-1.34-2.563c-0.802-0.425-1.833-0.377-2.626,0.123  c-0.842,0.529-1.261,1.463-1.214,2.701l0.265,38.038l-7.206,0.927L30.82,21.32c-0.412-1.982-1.667-2.482-2.703-2.301  c-1.047,0.184-2.169,1.097-1.886,3.065c0.488,2.893,4.834,28.759,4.867,31.711c0.054,4.787-0.214,11.466-3.138,14.794  c-0.729,0.83-1.992,0.911-2.823,0.182c-0.83-0.729-0.911-1.992-0.182-2.822c0.944-1.073,2.038-3.729,2.141-10.242  c-2.118,0.075-4.128,0.449-4.914,0.931C21.052,58.335,18.608,68.246,18.525,70.207z"/><text x="0" y="115" fill="#000000" font-size="5px" font-weight="bold" font-family="'Helvetica Neue', Helvetica, Arial-Unicode, Arial, Sans-serif">Created by Herbert Spencer</text><text x="0" y="120" fill="#000000" font-size="5px" font-weight="bold" font-family="'Helvetica Neue', Helvetica, Arial-Unicode, Arial, Sans-serif">from the Noun Project</text></svg>