<svg xmlns="http://www.w3.org/2000/svg" xmlns:xlink="http://www.w3.org/1999/xlink" version="1.1" x="0px" y="0px" viewBox="0 0 100 100" enable-background="new 0 0 100 100" xml:space="preserve"><path d="M53.25,95.878c-0.001,0-0.001,0-0.002,0c-2.701,0-5.105-0.131-7.336-0.265C35.657,95,23.662,83.081,23.156,82.574  l-0.242-0.294L6.343,57.705l1.321-1.161c2.088-1.835,4.243-2.766,6.407-2.766c4.423,0,7.803,3.79,10.785,7.134  c2.178,2.44,4.429,4.965,6.211,4.964c0.243,0,0.482-0.046,0.732-0.142c5.843-2.234,3.501-13.771,3.476-13.887l-5.354-28.194  c-0.432-3.302,0.596-5.269,1.534-6.338c1.061-1.208,2.528-1.873,4.135-1.873c2.602,0,5.606,1.833,6.456,5.928l6.164,24.311  l0.122-0.016l-0.24-34.788c0.107-4.661,3.428-6.757,6.467-6.757c3.116,0,6.525,2.255,6.707,6.436l0.749,35.123l0.276,0.042  l4.647-26.44c0.645-3.173,3.137-5.27,6.21-5.27c1.951,0,3.78,0.834,5.018,2.288c1.284,1.508,1.794,3.552,1.438,5.753l-4.796,25.233  c3.529-7.273,7.29-14.998,7.544-15.409c1.214-1.967,3.115-3.096,5.217-3.096c1.946,0,3.794,0.967,4.944,2.586  c1.203,1.694,1.468,3.884,0.728,6.008l-0.062,0.158l-8.064,18.033c-0.189,3.231-1.747,24.465-10.194,33.803  C70.956,93.75,63.867,95.878,53.25,95.878z M26.118,79.877c1.286,1.253,11.804,11.251,20.032,11.744  c2.171,0.13,4.507,0.257,7.098,0.257c9.294,0,15.587-1.746,18.705-5.19c8-8.845,9.175-31.466,9.186-31.693l0.019-0.376l8.33-18.631  c0.365-1.111,0.075-1.864-0.235-2.302c-0.396-0.557-1.041-0.902-1.684-0.902c-0.703,0-1.33,0.414-1.813,1.197  c-0.333,0.614-5.269,10.763-8.496,17.419l-0.753,1.553l-6.461-2.027l5.619-29.564c0.159-0.987-0.025-1.858-0.544-2.468  c-0.47-0.551-1.206-0.88-1.972-0.88c-0.562,0-1.91,0.196-2.28,2.015l-5.315,30.244l-7.466-1.149l-0.819-38.436  c-0.076-1.749-1.458-2.565-2.709-2.565c-0.563,0-2.407,0.201-2.468,2.79l0.265,38.27l-7.151,0.922l-7.055-27.834  c-0.413-1.979-1.578-2.826-2.56-2.826c-0.31,0-0.757,0.088-1.129,0.512c-0.548,0.625-0.754,1.733-0.58,3.126l5.312,27.965  c0.123,0.552,3.183,14.928-5.966,18.425c-0.704,0.27-1.431,0.405-2.16,0.405c-3.574,0.001-6.432-3.203-9.196-6.302  c-2.541-2.85-5.17-5.796-7.8-5.796c-0.76,0-1.541,0.24-2.363,0.729L26.118,79.877z"/><text x="0" y="115" fill="#000000" font-size="5px" font-weight="bold" font-family="'Helvetica Neue', Helvetica, Arial-Unicode, Arial, Sans-serif">Created by Herbert Spencer</text><text x="0" y="120" fill="#000000" font-size="5px" font-weight="bold" font-family="'Helvetica Neue', Helvetica, Arial-Unicode, Arial, Sans-serif">from the Noun Project</text></svg>