<?xml version="1.0" encoding="UTF-8"?>

<svg version="1.2" baseProfile="tiny" width="203.2mm" height="152.4mm" viewBox="6080 3540 20320 15240" preserveAspectRatio="xMidYMid" fill-rule="evenodd" stroke-width="28.222" stroke-linejoin="round" xmlns="http://www.w3.org/2000/svg" xmlns:ooo="http://xml.openoffice.org/svg/export" xmlns:xlink="http://www.w3.org/1999/xlink" xml:space="preserve">
 <defs class="ClipPathGroup">
  <clipPath id="presentation_clip_path" clipPathUnits="userSpaceOnUse">
   <rect x="6080" y="3540" width="20320" height="15240"/>
  </clipPath>
 </defs>
 <defs class="TextShapeIndex">
  <g ooo:slide="id1" ooo:id-list="id3 id4 id5 id6 id7 id8 id9 id10 id11 id12 id13 id14 id15 id16 id17 id18 id19 id20"/>
 </defs>
 <defs class="EmbeddedBulletChars">
  <g id="bullet-char-template(57356)" transform="scale(0.00048828125,-0.00048828125)">
   <path d="M 580,1141 L 1163,571 580,0 -4,571 580,1141 Z"/>
  </g>
  <g id="bullet-char-template(57354)" transform="scale(0.00048828125,-0.00048828125)">
   <path d="M 8,1128 L 1137,1128 1137,0 8,0 8,1128 Z"/>
  </g>
  <g id="bullet-char-template(10146)" transform="scale(0.00048828125,-0.00048828125)">
   <path d="M 174,0 L 602,739 174,1481 1456,739 174,0 Z M 1358,739 L 309,1346 659,739 1358,739 Z"/>
  </g>
  <g id="bullet-char-template(10132)" transform="scale(0.00048828125,-0.00048828125)">
   <path d="M 2015,739 L 1276,0 717,0 1260,543 174,543 174,936 1260,936 717,1481 1274,1481 2015,739 Z"/>
  </g>
  <g id="bullet-char-template(10007)" transform="scale(0.00048828125,-0.00048828125)">
   <path d="M 0,-2 C -7,14 -16,27 -25,37 L 356,567 C 262,823 215,952 215,954 215,979 228,992 255,992 264,992 276,990 289,987 310,991 331,999 354,1012 L 381,999 492,748 772,1049 836,1024 860,1049 C 881,1039 901,1025 922,1006 886,937 835,863 770,784 769,783 710,716 594,584 L 774,223 C 774,196 753,168 711,139 L 727,119 C 717,90 699,76 672,76 641,76 570,178 457,381 L 164,-76 C 142,-110 111,-127 72,-127 30,-127 9,-110 8,-76 1,-67 -2,-52 -2,-32 -2,-23 -1,-13 0,-2 Z"/>
  </g>
  <g id="bullet-char-template(10004)" transform="scale(0.00048828125,-0.00048828125)">
   <path d="M 285,-33 C 182,-33 111,30 74,156 52,228 41,333 41,471 41,549 55,616 82,672 116,743 169,778 240,778 293,778 328,747 346,684 L 369,508 C 377,444 397,411 428,410 L 1163,1116 C 1174,1127 1196,1133 1229,1133 1271,1133 1292,1118 1292,1087 L 1292,965 C 1292,929 1282,901 1262,881 L 442,47 C 390,-6 338,-33 285,-33 Z"/>
  </g>
  <g id="bullet-char-template(9679)" transform="scale(0.00048828125,-0.00048828125)">
   <path d="M 813,0 C 632,0 489,54 383,161 276,268 223,411 223,592 223,773 276,916 383,1023 489,1130 632,1184 813,1184 992,1184 1136,1130 1245,1023 1353,916 1407,772 1407,592 1407,412 1353,268 1245,161 1136,54 992,0 813,0 Z"/>
  </g>
  <g id="bullet-char-template(8226)" transform="scale(0.00048828125,-0.00048828125)">
   <path d="M 346,457 C 273,457 209,483 155,535 101,586 74,649 74,723 74,796 101,859 155,911 209,963 273,989 346,989 419,989 480,963 531,910 582,859 608,796 608,723 608,648 583,586 532,535 482,483 420,457 346,457 Z"/>
  </g>
  <g id="bullet-char-template(8211)" transform="scale(0.00048828125,-0.00048828125)">
   <path d="M -4,459 L 1135,459 1135,606 -4,606 -4,459 Z"/>
  </g>
 </defs>
 <defs class="TextEmbeddedBitmaps"/>
 <g class="SlideGroup">
  <g>
   <g id="id1" class="Slide" clip-path="url(#presentation_clip_path)">
    <g class="Page">
     <g class="com.sun.star.drawing.CustomShape">
      <g id="id3">
       <path fill="rgb(255,255,255)" stroke="none" d="M 16240,18780 L 6080,18780 6080,3540 26400,3540 26400,18780 16240,18780 Z"/>
      </g>
     </g>
     <g class="com.sun.star.drawing.ClosedBezierShape">
      <g id="id4">
       <g>
        <defs>
         <pattern id="pattern1" x="7977" y="4219" width="13952" height="13952" patternUnits="userSpaceOnUse">
          <g transform="translate(-7977,-4219)">
           <line fill="rgb(0,0,0)" stroke="rgb(0,0,0)" x1="9273" y1="7071" x2="10829" y2="5515"/>
           <line fill="rgb(0,0,0)" stroke="rgb(0,0,0)" x1="8987" y1="7507" x2="11265" y2="5229"/>
           <line fill="rgb(0,0,0)" stroke="rgb(0,0,0)" x1="8779" y1="7865" x2="11623" y2="5021"/>
           <line fill="rgb(0,0,0)" stroke="rgb(0,0,0)" x1="8646" y1="8148" x2="11906" y2="4888"/>
           <line fill="rgb(0,0,0)" stroke="rgb(0,0,0)" x1="8514" y1="8430" x2="12188" y2="4756"/>
           <line fill="rgb(0,0,0)" stroke="rgb(0,0,0)" x1="8430" y1="8664" x2="12422" y2="4672"/>
           <line fill="rgb(0,0,0)" stroke="rgb(0,0,0)" x1="8348" y1="8896" x2="12654" y2="4590"/>
           <line fill="rgb(0,0,0)" stroke="rgb(0,0,0)" x1="8272" y1="9122" x2="12880" y2="4514"/>
           <line fill="rgb(0,0,0)" stroke="rgb(0,0,0)" x1="8223" y1="9321" x2="13079" y2="4465"/>
           <line fill="rgb(0,0,0)" stroke="rgb(0,0,0)" x1="8173" y1="9521" x2="13279" y2="4415"/>
           <line fill="rgb(0,0,0)" stroke="rgb(0,0,0)" x1="8124" y1="9720" x2="13478" y2="4366"/>
           <line fill="rgb(0,0,0)" stroke="rgb(0,0,0)" x1="8094" y1="9900" x2="13658" y2="4336"/>
           <line fill="rgb(0,0,0)" stroke="rgb(0,0,0)" x1="8068" y1="10076" x2="13834" y2="4310"/>
           <line fill="rgb(0,0,0)" stroke="rgb(0,0,0)" x1="8043" y1="10251" x2="14009" y2="4285"/>
           <line fill="rgb(0,0,0)" stroke="rgb(0,0,0)" x1="8017" y1="10427" x2="14185" y2="4259"/>
           <line fill="rgb(0,0,0)" stroke="rgb(0,0,0)" x1="8006" y1="10588" x2="14346" y2="4248"/>
           <line fill="rgb(0,0,0)" stroke="rgb(0,0,0)" x1="7999" y1="10745" x2="14503" y2="4241"/>
           <line fill="rgb(0,0,0)" stroke="rgb(0,0,0)" x1="7991" y1="10903" x2="14661" y2="4233"/>
           <line fill="rgb(0,0,0)" stroke="rgb(0,0,0)" x1="7983" y1="11061" x2="14819" y2="4225"/>
           <line fill="rgb(0,0,0)" stroke="rgb(0,0,0)" x1="7978" y1="11216" x2="14974" y2="4220"/>
           <line fill="rgb(0,0,0)" stroke="rgb(0,0,0)" x1="7985" y1="11359" x2="15117" y2="4227"/>
           <line fill="rgb(0,0,0)" stroke="rgb(0,0,0)" x1="7992" y1="11502" x2="15260" y2="4234"/>
           <line fill="rgb(0,0,0)" stroke="rgb(0,0,0)" x1="7999" y1="11645" x2="15403" y2="4241"/>
           <line fill="rgb(0,0,0)" stroke="rgb(0,0,0)" x1="8006" y1="11788" x2="15546" y2="4248"/>
           <line fill="rgb(0,0,0)" stroke="rgb(0,0,0)" x1="8013" y1="11931" x2="15689" y2="4255"/>
           <line fill="rgb(0,0,0)" stroke="rgb(0,0,0)" x1="8032" y1="12062" x2="15820" y2="4274"/>
           <line fill="rgb(0,0,0)" stroke="rgb(0,0,0)" x1="8051" y1="12193" x2="15951" y2="4293"/>
           <line fill="rgb(0,0,0)" stroke="rgb(0,0,0)" x1="8070" y1="12324" x2="16082" y2="4312"/>
           <line fill="rgb(0,0,0)" stroke="rgb(0,0,0)" x1="8089" y1="12455" x2="16213" y2="4331"/>
           <line fill="rgb(0,0,0)" stroke="rgb(0,0,0)" x1="8108" y1="12586" x2="16344" y2="4350"/>
           <line fill="rgb(0,0,0)" stroke="rgb(0,0,0)" x1="8134" y1="12710" x2="11742" y2="9102"/>
           <line fill="rgb(0,0,0)" stroke="rgb(0,0,0)" x1="12860" y1="7984" x2="16468" y2="4376"/>
           <line fill="rgb(0,0,0)" stroke="rgb(0,0,0)" x1="8164" y1="12830" x2="11549" y2="9445"/>
           <line fill="rgb(0,0,0)" stroke="rgb(0,0,0)" x1="13203" y1="7791" x2="16588" y2="4406"/>
           <line fill="rgb(0,0,0)" stroke="rgb(0,0,0)" x1="8194" y1="12950" x2="11423" y2="9721"/>
           <line fill="rgb(0,0,0)" stroke="rgb(0,0,0)" x1="13479" y1="7665" x2="16708" y2="4436"/>
           <line fill="rgb(0,0,0)" stroke="rgb(0,0,0)" x1="8224" y1="13070" x2="11341" y2="9953"/>
           <line fill="rgb(0,0,0)" stroke="rgb(0,0,0)" x1="13711" y1="7583" x2="16828" y2="4466"/>
           <line fill="rgb(0,0,0)" stroke="rgb(0,0,0)" x1="8253" y1="13191" x2="11279" y2="10165"/>
           <line fill="rgb(0,0,0)" stroke="rgb(0,0,0)" x1="13923" y1="7521" x2="16949" y2="4495"/>
           <line fill="rgb(0,0,0)" stroke="rgb(0,0,0)" x1="8284" y1="13310" x2="11230" y2="10364"/>
           <line fill="rgb(0,0,0)" stroke="rgb(0,0,0)" x1="14122" y1="7472" x2="17068" y2="4526"/>
           <line fill="rgb(0,0,0)" stroke="rgb(0,0,0)" x1="8323" y1="13421" x2="11198" y2="10546"/>
           <line fill="rgb(0,0,0)" stroke="rgb(0,0,0)" x1="14304" y1="7440" x2="17179" y2="4565"/>
           <line fill="rgb(0,0,0)" stroke="rgb(0,0,0)" x1="8362" y1="13532" x2="11173" y2="10721"/>
           <line fill="rgb(0,0,0)" stroke="rgb(0,0,0)" x1="14479" y1="7415" x2="17290" y2="4604"/>
           <line fill="rgb(0,0,0)" stroke="rgb(0,0,0)" x1="8401" y1="13643" x2="11158" y2="10886"/>
           <line fill="rgb(0,0,0)" stroke="rgb(0,0,0)" x1="14644" y1="7400" x2="17401" y2="4643"/>
           <line fill="rgb(0,0,0)" stroke="rgb(0,0,0)" x1="8440" y1="13754" x2="11150" y2="11044"/>
           <line fill="rgb(0,0,0)" stroke="rgb(0,0,0)" x1="14802" y1="7392" x2="17512" y2="4682"/>
           <line fill="rgb(0,0,0)" stroke="rgb(0,0,0)" x1="8480" y1="13864" x2="11143" y2="11201"/>
           <line fill="rgb(0,0,0)" stroke="rgb(0,0,0)" x1="14959" y1="7385" x2="17622" y2="4722"/>
           <line fill="rgb(0,0,0)" stroke="rgb(0,0,0)" x1="8521" y1="13973" x2="11150" y2="11344"/>
           <line fill="rgb(0,0,0)" stroke="rgb(0,0,0)" x1="15102" y1="7392" x2="17731" y2="4763"/>
           <line fill="rgb(0,0,0)" stroke="rgb(0,0,0)" x1="8569" y1="14075" x2="11157" y2="11487"/>
           <line fill="rgb(0,0,0)" stroke="rgb(0,0,0)" x1="15245" y1="7399" x2="17833" y2="4811"/>
           <line fill="rgb(0,0,0)" stroke="rgb(0,0,0)" x1="8616" y1="14178" x2="11167" y2="11627"/>
           <line fill="rgb(0,0,0)" stroke="rgb(0,0,0)" x1="15385" y1="7409" x2="17936" y2="4858"/>
           <line fill="rgb(0,0,0)" stroke="rgb(0,0,0)" x1="8664" y1="14280" x2="11186" y2="11758"/>
           <line fill="rgb(0,0,0)" stroke="rgb(0,0,0)" x1="15516" y1="7428" x2="18038" y2="4906"/>
           <line fill="rgb(0,0,0)" stroke="rgb(0,0,0)" x1="8712" y1="14382" x2="11205" y2="11889"/>
           <line fill="rgb(0,0,0)" stroke="rgb(0,0,0)" x1="15647" y1="7447" x2="18140" y2="4954"/>
           <line fill="rgb(0,0,0)" stroke="rgb(0,0,0)" x1="8760" y1="14484" x2="11227" y2="12017"/>
           <line fill="rgb(0,0,0)" stroke="rgb(0,0,0)" x1="15775" y1="7469" x2="18242" y2="5002"/>
           <line fill="rgb(0,0,0)" stroke="rgb(0,0,0)" x1="8810" y1="14584" x2="11257" y2="12137"/>
           <line fill="rgb(0,0,0)" stroke="rgb(0,0,0)" x1="15895" y1="7499" x2="18342" y2="5052"/>
           <line fill="rgb(0,0,0)" stroke="rgb(0,0,0)" x1="8866" y1="14678" x2="11287" y2="12257"/>
           <line fill="rgb(0,0,0)" stroke="rgb(0,0,0)" x1="16015" y1="7529" x2="18436" y2="5108"/>
           <line fill="rgb(0,0,0)" stroke="rgb(0,0,0)" x1="8922" y1="14772" x2="11319" y2="12375"/>
           <line fill="rgb(0,0,0)" stroke="rgb(0,0,0)" x1="16133" y1="7561" x2="18530" y2="5164"/>
           <line fill="rgb(0,0,0)" stroke="rgb(0,0,0)" x1="8978" y1="14866" x2="11358" y2="12486"/>
           <line fill="rgb(0,0,0)" stroke="rgb(0,0,0)" x1="16244" y1="7600" x2="18624" y2="5220"/>
           <line fill="rgb(0,0,0)" stroke="rgb(0,0,0)" x1="9034" y1="14960" x2="11398" y2="12596"/>
           <line fill="rgb(0,0,0)" stroke="rgb(0,0,0)" x1="16354" y1="7640" x2="18718" y2="5276"/>
           <line fill="rgb(0,0,0)" stroke="rgb(0,0,0)" x1="9090" y1="15054" x2="11437" y2="12707"/>
           <line fill="rgb(0,0,0)" stroke="rgb(0,0,0)" x1="16465" y1="7679" x2="18812" y2="5332"/>
           <line fill="rgb(0,0,0)" stroke="rgb(0,0,0)" x1="9147" y1="15147" x2="11485" y2="12809"/>
           <line fill="rgb(0,0,0)" stroke="rgb(0,0,0)" x1="16567" y1="7727" x2="18905" y2="5389"/>
           <line fill="rgb(0,0,0)" stroke="rgb(0,0,0)" x1="9211" y1="15233" x2="11533" y2="12911"/>
           <line fill="rgb(0,0,0)" stroke="rgb(0,0,0)" x1="16669" y1="7775" x2="18991" y2="5453"/>
           <line fill="rgb(0,0,0)" stroke="rgb(0,0,0)" x1="9275" y1="15319" x2="11581" y2="13013"/>
           <line fill="rgb(0,0,0)" stroke="rgb(0,0,0)" x1="16771" y1="7823" x2="19077" y2="5517"/>
           <line fill="rgb(0,0,0)" stroke="rgb(0,0,0)" x1="9338" y1="15406" x2="11635" y2="13109"/>
           <line fill="rgb(0,0,0)" stroke="rgb(0,0,0)" x1="16867" y1="7877" x2="19164" y2="5580"/>
           <line fill="rgb(0,0,0)" stroke="rgb(0,0,0)" x1="9402" y1="15492" x2="11691" y2="13203"/>
           <line fill="rgb(0,0,0)" stroke="rgb(0,0,0)" x1="16961" y1="7933" x2="19250" y2="5644"/>
           <line fill="rgb(0,0,0)" stroke="rgb(0,0,0)" x1="9466" y1="15578" x2="11747" y2="13297"/>
           <line fill="rgb(0,0,0)" stroke="rgb(0,0,0)" x1="17055" y1="7989" x2="19336" y2="5708"/>
           <line fill="rgb(0,0,0)" stroke="rgb(0,0,0)" x1="9530" y1="15664" x2="11807" y2="13387"/>
           <line fill="rgb(0,0,0)" stroke="rgb(0,0,0)" x1="17145" y1="8049" x2="19422" y2="5772"/>
           <line fill="rgb(0,0,0)" stroke="rgb(0,0,0)" x1="9600" y1="15744" x2="11870" y2="13474"/>
           <line fill="rgb(0,0,0)" stroke="rgb(0,0,0)" x1="17232" y1="8112" x2="19502" y2="5842"/>
           <line fill="rgb(0,0,0)" stroke="rgb(0,0,0)" x1="9671" y1="15823" x2="11934" y2="13560"/>
           <line fill="rgb(0,0,0)" stroke="rgb(0,0,0)" x1="17318" y1="8176" x2="19581" y2="5913"/>
           <line fill="rgb(0,0,0)" stroke="rgb(0,0,0)" x1="9743" y1="15901" x2="11998" y2="13646"/>
           <line fill="rgb(0,0,0)" stroke="rgb(0,0,0)" x1="17404" y1="8240" x2="19659" y2="5985"/>
           <line fill="rgb(0,0,0)" stroke="rgb(0,0,0)" x1="9814" y1="15980" x2="12070" y2="13724"/>
           <line fill="rgb(0,0,0)" stroke="rgb(0,0,0)" x1="17482" y1="8312" x2="19738" y2="6056"/>
           <line fill="rgb(0,0,0)" stroke="rgb(0,0,0)" x1="9885" y1="16059" x2="12141" y2="13803"/>
           <line fill="rgb(0,0,0)" stroke="rgb(0,0,0)" x1="17561" y1="8383" x2="19817" y2="6127"/>
           <line fill="rgb(0,0,0)" stroke="rgb(0,0,0)" x1="9956" y1="16138" x2="12212" y2="13882"/>
           <line fill="rgb(0,0,0)" stroke="rgb(0,0,0)" x1="17640" y1="8454" x2="19896" y2="6198"/>
           <line fill="rgb(0,0,0)" stroke="rgb(0,0,0)" x1="10032" y1="16212" x2="12288" y2="13956"/>
           <line fill="rgb(0,0,0)" stroke="rgb(0,0,0)" x1="17714" y1="8530" x2="19970" y2="6274"/>
           <line fill="rgb(0,0,0)" stroke="rgb(0,0,0)" x1="10111" y1="16283" x2="12367" y2="14027"/>
           <line fill="rgb(0,0,0)" stroke="rgb(0,0,0)" x1="17785" y1="8609" x2="20041" y2="6353"/>
           <line fill="rgb(0,0,0)" stroke="rgb(0,0,0)" x1="10190" y1="16354" x2="12446" y2="14098"/>
           <line fill="rgb(0,0,0)" stroke="rgb(0,0,0)" x1="17856" y1="8688" x2="20112" y2="6432"/>
           <line fill="rgb(0,0,0)" stroke="rgb(0,0,0)" x1="10269" y1="16425" x2="12526" y2="14168"/>
           <line fill="rgb(0,0,0)" stroke="rgb(0,0,0)" x1="17926" y1="8768" x2="20183" y2="6511"/>
           <line fill="rgb(0,0,0)" stroke="rgb(0,0,0)" x1="10348" y1="16496" x2="12612" y2="14232"/>
           <line fill="rgb(0,0,0)" stroke="rgb(0,0,0)" x1="17990" y1="8854" x2="20254" y2="6590"/>
           <line fill="rgb(0,0,0)" stroke="rgb(0,0,0)" x1="10426" y1="16568" x2="12699" y2="14295"/>
           <line fill="rgb(0,0,0)" stroke="rgb(0,0,0)" x1="18053" y1="8941" x2="20326" y2="6668"/>
           <line fill="rgb(0,0,0)" stroke="rgb(0,0,0)" x1="10508" y1="16636" x2="12785" y2="14359"/>
           <line fill="rgb(0,0,0)" stroke="rgb(0,0,0)" x1="18117" y1="9027" x2="20394" y2="6750"/>
           <line fill="rgb(0,0,0)" stroke="rgb(0,0,0)" x1="10594" y1="16700" x2="12878" y2="14416"/>
           <line fill="rgb(0,0,0)" stroke="rgb(0,0,0)" x1="18174" y1="9120" x2="20458" y2="6836"/>
           <line fill="rgb(0,0,0)" stroke="rgb(0,0,0)" x1="10680" y1="16764" x2="12972" y2="14472"/>
           <line fill="rgb(0,0,0)" stroke="rgb(0,0,0)" x1="18230" y1="9214" x2="20522" y2="6922"/>
           <line fill="rgb(0,0,0)" stroke="rgb(0,0,0)" x1="10766" y1="16828" x2="13066" y2="14528"/>
           <line fill="rgb(0,0,0)" stroke="rgb(0,0,0)" x1="18286" y1="9308" x2="20586" y2="7008"/>
           <line fill="rgb(0,0,0)" stroke="rgb(0,0,0)" x1="10853" y1="16891" x2="13164" y2="14580"/>
           <line fill="rgb(0,0,0)" stroke="rgb(0,0,0)" x1="18338" y1="9406" x2="20649" y2="7095"/>
           <line fill="rgb(0,0,0)" stroke="rgb(0,0,0)" x1="10939" y1="16955" x2="13266" y2="14628"/>
           <line fill="rgb(0,0,0)" stroke="rgb(0,0,0)" x1="18386" y1="9508" x2="20713" y2="7181"/>
           <line fill="rgb(0,0,0)" stroke="rgb(0,0,0)" x1="11026" y1="17018" x2="13368" y2="14676"/>
           <line fill="rgb(0,0,0)" stroke="rgb(0,0,0)" x1="18434" y1="9610" x2="20776" y2="7268"/>
           <line fill="rgb(0,0,0)" stroke="rgb(0,0,0)" x1="11120" y1="17074" x2="13472" y2="14722"/>
           <line fill="rgb(0,0,0)" stroke="rgb(0,0,0)" x1="18480" y1="9714" x2="20832" y2="7362"/>
           <line fill="rgb(0,0,0)" stroke="rgb(0,0,0)" x1="11214" y1="17130" x2="13583" y2="14761"/>
           <line fill="rgb(0,0,0)" stroke="rgb(0,0,0)" x1="18519" y1="9825" x2="20888" y2="7456"/>
           <line fill="rgb(0,0,0)" stroke="rgb(0,0,0)" x1="11308" y1="17186" x2="13693" y2="14801"/>
           <line fill="rgb(0,0,0)" stroke="rgb(0,0,0)" x1="18559" y1="9935" x2="20944" y2="7550"/>
           <line fill="rgb(0,0,0)" stroke="rgb(0,0,0)" x1="11402" y1="17242" x2="13805" y2="14839"/>
           <line fill="rgb(0,0,0)" stroke="rgb(0,0,0)" x1="18597" y1="10047" x2="21000" y2="7644"/>
           <line fill="rgb(0,0,0)" stroke="rgb(0,0,0)" x1="11496" y1="17298" x2="13925" y2="14869"/>
           <line fill="rgb(0,0,0)" stroke="rgb(0,0,0)" x1="18627" y1="10167" x2="21056" y2="7738"/>
           <line fill="rgb(0,0,0)" stroke="rgb(0,0,0)" x1="11591" y1="17353" x2="14045" y2="14899"/>
           <line fill="rgb(0,0,0)" stroke="rgb(0,0,0)" x1="18657" y1="10287" x2="21111" y2="7833"/>
           <line fill="rgb(0,0,0)" stroke="rgb(0,0,0)" x1="11693" y1="17401" x2="14165" y2="14929"/>
           <line fill="rgb(0,0,0)" stroke="rgb(0,0,0)" x1="18687" y1="10407" x2="21159" y2="7935"/>
           <line fill="rgb(0,0,0)" stroke="rgb(0,0,0)" x1="11795" y1="17449" x2="14296" y2="14948"/>
           <line fill="rgb(0,0,0)" stroke="rgb(0,0,0)" x1="18706" y1="10538" x2="21207" y2="8037"/>
           <line fill="rgb(0,0,0)" stroke="rgb(0,0,0)" x1="11897" y1="17497" x2="14427" y2="14967"/>
           <line fill="rgb(0,0,0)" stroke="rgb(0,0,0)" x1="18725" y1="10669" x2="21255" y2="8139"/>
           <line fill="rgb(0,0,0)" stroke="rgb(0,0,0)" x1="11999" y1="17545" x2="14558" y2="14986"/>
           <line fill="rgb(0,0,0)" stroke="rgb(0,0,0)" x1="18744" y1="10800" x2="21303" y2="8241"/>
           <line fill="rgb(0,0,0)" stroke="rgb(0,0,0)" x1="12101" y1="17593" x2="14701" y2="14993"/>
           <line fill="rgb(0,0,0)" stroke="rgb(0,0,0)" x1="18751" y1="10943" x2="21351" y2="8343"/>
           <line fill="rgb(0,0,0)" stroke="rgb(0,0,0)" x1="12204" y1="17640" x2="14844" y2="15000"/>
           <line fill="rgb(0,0,0)" stroke="rgb(0,0,0)" x1="18758" y1="11086" x2="21398" y2="8446"/>
           <line fill="rgb(0,0,0)" stroke="rgb(0,0,0)" x1="12315" y1="17679" x2="14991" y2="15003"/>
           <line fill="rgb(0,0,0)" stroke="rgb(0,0,0)" x1="18761" y1="11233" x2="21437" y2="8557"/>
           <line fill="rgb(0,0,0)" stroke="rgb(0,0,0)" x1="12426" y1="17718" x2="15148" y2="14996"/>
           <line fill="rgb(0,0,0)" stroke="rgb(0,0,0)" x1="18754" y1="11390" x2="21476" y2="8668"/>
           <line fill="rgb(0,0,0)" stroke="rgb(0,0,0)" x1="12537" y1="17757" x2="15306" y2="14988"/>
           <line fill="rgb(0,0,0)" stroke="rgb(0,0,0)" x1="18746" y1="11548" x2="21515" y2="8779"/>
           <line fill="rgb(0,0,0)" stroke="rgb(0,0,0)" x1="12647" y1="17797" x2="15476" y2="14968"/>
           <line fill="rgb(0,0,0)" stroke="rgb(0,0,0)" x1="18726" y1="11718" x2="21555" y2="8889"/>
           <line fill="rgb(0,0,0)" stroke="rgb(0,0,0)" x1="12758" y1="17836" x2="15652" y2="14942"/>
           <line fill="rgb(0,0,0)" stroke="rgb(0,0,0)" x1="18700" y1="11894" x2="21594" y2="9000"/>
           <line fill="rgb(0,0,0)" stroke="rgb(0,0,0)" x1="12871" y1="17873" x2="15839" y2="14905"/>
           <line fill="rgb(0,0,0)" stroke="rgb(0,0,0)" x1="18663" y1="12081" x2="21631" y2="9113"/>
           <line fill="rgb(0,0,0)" stroke="rgb(0,0,0)" x1="12992" y1="17902" x2="16039" y2="14855"/>
           <line fill="rgb(0,0,0)" stroke="rgb(0,0,0)" x1="18613" y1="12281" x2="21660" y2="9234"/>
           <line fill="rgb(0,0,0)" stroke="rgb(0,0,0)" x1="13112" y1="17932" x2="16260" y2="14784"/>
           <line fill="rgb(0,0,0)" stroke="rgb(0,0,0)" x1="18542" y1="12502" x2="21690" y2="9354"/>
           <line fill="rgb(0,0,0)" stroke="rgb(0,0,0)" x1="13232" y1="17962" x2="16500" y2="14694"/>
           <line fill="rgb(0,0,0)" stroke="rgb(0,0,0)" x1="18452" y1="12742" x2="21720" y2="9474"/>
           <line fill="rgb(0,0,0)" stroke="rgb(0,0,0)" x1="13353" y1="17991" x2="16783" y2="14561"/>
           <line fill="rgb(0,0,0)" stroke="rgb(0,0,0)" x1="18319" y1="13025" x2="21749" y2="9595"/>
           <line fill="rgb(0,0,0)" stroke="rgb(0,0,0)" x1="13473" y1="18021" x2="17173" y2="14321"/>
           <line fill="rgb(0,0,0)" stroke="rgb(0,0,0)" x1="18079" y1="13415" x2="21779" y2="9715"/>
           <line fill="rgb(0,0,0)" stroke="rgb(0,0,0)" x1="13600" y1="18044" x2="21802" y2="9842"/>
           <line fill="rgb(0,0,0)" stroke="rgb(0,0,0)" x1="13731" y1="18063" x2="21821" y2="9973"/>
           <line fill="rgb(0,0,0)" stroke="rgb(0,0,0)" x1="13862" y1="18082" x2="21840" y2="10104"/>
           <line fill="rgb(0,0,0)" stroke="rgb(0,0,0)" x1="13993" y1="18101" x2="21859" y2="10235"/>
           <line fill="rgb(0,0,0)" stroke="rgb(0,0,0)" x1="14123" y1="18121" x2="21879" y2="10365"/>
           <line fill="rgb(0,0,0)" stroke="rgb(0,0,0)" x1="14257" y1="18137" x2="21895" y2="10499"/>
           <line fill="rgb(0,0,0)" stroke="rgb(0,0,0)" x1="14400" y1="18144" x2="21902" y2="10642"/>
           <line fill="rgb(0,0,0)" stroke="rgb(0,0,0)" x1="14544" y1="18150" x2="21908" y2="10786"/>
           <line fill="rgb(0,0,0)" stroke="rgb(0,0,0)" x1="14687" y1="18157" x2="21915" y2="10929"/>
           <line fill="rgb(0,0,0)" stroke="rgb(0,0,0)" x1="14830" y1="18164" x2="21922" y2="11072"/>
           <line fill="rgb(0,0,0)" stroke="rgb(0,0,0)" x1="14975" y1="18169" x2="21927" y2="11217"/>
           <line fill="rgb(0,0,0)" stroke="rgb(0,0,0)" x1="15133" y1="18161" x2="21919" y2="11375"/>
           <line fill="rgb(0,0,0)" stroke="rgb(0,0,0)" x1="15290" y1="18154" x2="21912" y2="11532"/>
           <line fill="rgb(0,0,0)" stroke="rgb(0,0,0)" x1="15448" y1="18146" x2="21904" y2="11690"/>
           <line fill="rgb(0,0,0)" stroke="rgb(0,0,0)" x1="15605" y1="18139" x2="21897" y2="11847"/>
           <line fill="rgb(0,0,0)" stroke="rgb(0,0,0)" x1="15772" y1="18122" x2="21880" y2="12014"/>
           <line fill="rgb(0,0,0)" stroke="rgb(0,0,0)" x1="15948" y1="18096" x2="21854" y2="12190"/>
           <line fill="rgb(0,0,0)" stroke="rgb(0,0,0)" x1="16124" y1="18070" x2="21828" y2="12366"/>
           <line fill="rgb(0,0,0)" stroke="rgb(0,0,0)" x1="16299" y1="18045" x2="21803" y2="12541"/>
           <line fill="rgb(0,0,0)" stroke="rgb(0,0,0)" x1="16487" y1="18007" x2="21765" y2="12729"/>
           <line fill="rgb(0,0,0)" stroke="rgb(0,0,0)" x1="16686" y1="17958" x2="21716" y2="12928"/>
           <line fill="rgb(0,0,0)" stroke="rgb(0,0,0)" x1="16885" y1="17909" x2="21667" y2="13127"/>
           <line fill="rgb(0,0,0)" stroke="rgb(0,0,0)" x1="17087" y1="17857" x2="21615" y2="13329"/>
           <line fill="rgb(0,0,0)" stroke="rgb(0,0,0)" x1="17319" y1="17775" x2="21533" y2="13561"/>
           <line fill="rgb(0,0,0)" stroke="rgb(0,0,0)" x1="17552" y1="17692" x2="21450" y2="13794"/>
           <line fill="rgb(0,0,0)" stroke="rgb(0,0,0)" x1="17800" y1="17594" x2="21352" y2="14042"/>
           <line fill="rgb(0,0,0)" stroke="rgb(0,0,0)" x1="18083" y1="17461" x2="21219" y2="14325"/>
           <line fill="rgb(0,0,0)" stroke="rgb(0,0,0)" x1="18379" y1="17315" x2="21073" y2="14621"/>
           <line fill="rgb(0,0,0)" stroke="rgb(0,0,0)" x1="18751" y1="17093" x2="20851" y2="14993"/>
           <line fill="rgb(0,0,0)" stroke="rgb(0,0,0)" x1="19247" y1="16747" x2="20505" y2="15489"/>
          </g>
         </pattern>
        </defs>
        <path style="fill:url(#pattern1)" d="M 14953,7385 L 14554,7404 14169,7460 13799,7552 13446,7677 13112,7834 12798,8021 12506,8237 12238,8480 11995,8748 11779,9040 11592,9354 11435,9688 11310,10041 11218,10411 11162,10796 11143,11195 11162,11594 11218,11979 11310,12349 11435,12702 11592,13036 11779,13350 11995,13642 12238,13910 12506,14153 12798,14369 13112,14556 13446,14713 13799,14838 14169,14930 14554,14986 14953,15005 15352,14986 15737,14930 16107,14838 16460,14713 16794,14556 17108,14369 17400,14153 17668,13910 17911,13642 18127,13350 18314,13036 18471,12702 18596,12349 18688,11979 18744,11594 18763,11195 18744,10796 18688,10411 18596,10041 18471,9688 18314,9354 18127,9040 17911,8748 17668,8480 17400,8237 17108,8021 16794,7834 16460,7677 16107,7552 15737,7460 15352,7404 14953,7385 Z M 14952,4219 L 15682,4254 16387,4356 17064,4524 17711,4753 18322,5040 18897,5383 19432,5779 19923,6223 20368,6715 20764,7249 21107,7824 21394,8436 21623,9082 21790,9759 21893,10464 21928,11194 21893,11924 21790,12629 21623,13306 21394,13953 21107,14564 20764,15139 20368,15674 19923,16165 19432,16610 18897,17006 18322,17349 17711,17636 17064,17865 16387,18032 15682,18135 14952,18170 14222,18135 13517,18032 12840,17865 12194,17636 11582,17349 11007,17006 10473,16610 9981,16165 9537,15674 9141,15139 8798,14564 8511,13953 8282,13306 8114,12629 8012,11924 7977,11194 8012,10464 8114,9759 8282,9082 8511,8436 8798,7824 9141,7249 9537,6715 9981,6223 10473,5779 11007,5383 11582,5040 12194,4753 12840,4524 13517,4356 14222,4254 14952,4219 Z"/>
       </g>
       <path fill="none" stroke="rgb(153,153,153)" stroke-width="106" stroke-linejoin="round" d="M 14953,7385 C 12793,7385 11143,9035 11143,11195 11143,13355 12793,15005 14953,15005 17113,15005 18763,13355 18763,11195 18763,9035 17113,7385 14953,7385 Z"/>
       <path fill="none" stroke="rgb(153,153,153)" stroke-width="106" stroke-linejoin="round" d="M 14952,4219 C 18907,4219 21928,7239 21928,11194 21928,15149 18907,18170 14952,18170 10997,18170 7977,15149 7977,11194 7977,7239 10997,4219 14952,4219 Z"/>
      </g>
     </g>
     <g class="com.sun.star.drawing.ClosedBezierShape">
      <g id="id5">
       <g>
        <defs>
         <pattern id="pattern2" x="12298" y="8540" width="5309" height="5309" patternUnits="userSpaceOnUse">
          <g transform="translate(-12298,-8540)">
           <line fill="rgb(0,0,0)" stroke="rgb(0,0,0)" x1="16599" y1="9091" x2="17055" y2="9547"/>
           <line fill="rgb(0,0,0)" stroke="rgb(0,0,0)" x1="16189" y1="8831" x2="17315" y2="9957"/>
           <line fill="rgb(0,0,0)" stroke="rgb(0,0,0)" x1="15923" y1="8715" x2="17431" y2="10223"/>
           <line fill="rgb(0,0,0)" stroke="rgb(0,0,0)" x1="15700" y1="8642" x2="17504" y2="10446"/>
           <line fill="rgb(0,0,0)" stroke="rgb(0,0,0)" x1="15501" y1="8593" x2="17553" y2="10645"/>
           <line fill="rgb(0,0,0)" stroke="rgb(0,0,0)" x1="15325" y1="8567" x2="17579" y2="10821"/>
           <line fill="rgb(0,0,0)" stroke="rgb(0,0,0)" x1="15158" y1="8550" x2="17596" y2="10988"/>
           <line fill="rgb(0,0,0)" stroke="rgb(0,0,0)" x1="15000" y1="8542" x2="17604" y2="11146"/>
           <line fill="rgb(0,0,0)" stroke="rgb(0,0,0)" x1="14853" y1="8545" x2="17601" y2="11293"/>
           <line fill="rgb(0,0,0)" stroke="rgb(0,0,0)" x1="14709" y1="8551" x2="17595" y2="11437"/>
           <line fill="rgb(0,0,0)" stroke="rgb(0,0,0)" x1="14575" y1="8567" x2="17579" y2="11571"/>
           <line fill="rgb(0,0,0)" stroke="rgb(0,0,0)" x1="14444" y1="8586" x2="17560" y2="11702"/>
           <line fill="rgb(0,0,0)" stroke="rgb(0,0,0)" x1="14321" y1="8613" x2="15598" y2="9890"/>
           <line fill="rgb(0,0,0)" stroke="rgb(0,0,0)" x1="16257" y1="10549" x2="17533" y2="11825"/>
           <line fill="rgb(0,0,0)" stroke="rgb(0,0,0)" x1="14201" y1="8643" x2="15358" y2="9800"/>
           <line fill="rgb(0,0,0)" stroke="rgb(0,0,0)" x1="16347" y1="10789" x2="17503" y2="11945"/>
           <line fill="rgb(0,0,0)" stroke="rgb(0,0,0)" x1="14086" y1="8678" x2="15170" y2="9762"/>
           <line fill="rgb(0,0,0)" stroke="rgb(0,0,0)" x1="16385" y1="10977" x2="17468" y2="12060"/>
           <line fill="rgb(0,0,0)" stroke="rgb(0,0,0)" x1="13975" y1="8717" x2="15005" y2="9747"/>
           <line fill="rgb(0,0,0)" stroke="rgb(0,0,0)" x1="16400" y1="11142" x2="17429" y2="12171"/>
           <line fill="rgb(0,0,0)" stroke="rgb(0,0,0)" x1="13867" y1="8759" x2="14857" y2="9749"/>
           <line fill="rgb(0,0,0)" stroke="rgb(0,0,0)" x1="16398" y1="11290" x2="17387" y2="12279"/>
           <line fill="rgb(0,0,0)" stroke="rgb(0,0,0)" x1="13765" y1="8807" x2="14722" y2="9764"/>
           <line fill="rgb(0,0,0)" stroke="rgb(0,0,0)" x1="16383" y1="11425" x2="17339" y2="12381"/>
           <line fill="rgb(0,0,0)" stroke="rgb(0,0,0)" x1="13664" y1="8856" x2="14596" y2="9788"/>
           <line fill="rgb(0,0,0)" stroke="rgb(0,0,0)" x1="16359" y1="11551" x2="17290" y2="12482"/>
           <line fill="rgb(0,0,0)" stroke="rgb(0,0,0)" x1="13570" y1="8912" x2="14478" y2="9820"/>
           <line fill="rgb(0,0,0)" stroke="rgb(0,0,0)" x1="16326" y1="11668" x2="17234" y2="12576"/>
           <line fill="rgb(0,0,0)" stroke="rgb(0,0,0)" x1="13476" y1="8968" x2="14369" y2="9861"/>
           <line fill="rgb(0,0,0)" stroke="rgb(0,0,0)" x1="16286" y1="11778" x2="17178" y2="12670"/>
           <line fill="rgb(0,0,0)" stroke="rgb(0,0,0)" x1="13388" y1="9030" x2="14267" y2="9909"/>
           <line fill="rgb(0,0,0)" stroke="rgb(0,0,0)" x1="16238" y1="11880" x2="17116" y2="12758"/>
           <line fill="rgb(0,0,0)" stroke="rgb(0,0,0)" x1="13301" y1="9093" x2="14172" y2="9964"/>
           <line fill="rgb(0,0,0)" stroke="rgb(0,0,0)" x1="16183" y1="11975" x2="17053" y2="12845"/>
           <line fill="rgb(0,0,0)" stroke="rgb(0,0,0)" x1="13218" y1="9160" x2="14082" y2="10024"/>
           <line fill="rgb(0,0,0)" stroke="rgb(0,0,0)" x1="16123" y1="12065" x2="16986" y2="12928"/>
           <line fill="rgb(0,0,0)" stroke="rgb(0,0,0)" x1="13140" y1="9232" x2="13998" y2="10090"/>
           <line fill="rgb(0,0,0)" stroke="rgb(0,0,0)" x1="16057" y1="12149" x2="16914" y2="13006"/>
           <line fill="rgb(0,0,0)" stroke="rgb(0,0,0)" x1="13061" y1="9303" x2="13919" y2="10161"/>
           <line fill="rgb(0,0,0)" stroke="rgb(0,0,0)" x1="15985" y1="12227" x2="16843" y2="13085"/>
           <line fill="rgb(0,0,0)" stroke="rgb(0,0,0)" x1="12990" y1="9382" x2="13848" y2="10240"/>
           <line fill="rgb(0,0,0)" stroke="rgb(0,0,0)" x1="15907" y1="12299" x2="16764" y2="13156"/>
           <line fill="rgb(0,0,0)" stroke="rgb(0,0,0)" x1="12918" y1="9460" x2="13782" y2="10324"/>
           <line fill="rgb(0,0,0)" stroke="rgb(0,0,0)" x1="15823" y1="12365" x2="16686" y2="13228"/>
           <line fill="rgb(0,0,0)" stroke="rgb(0,0,0)" x1="12851" y1="9543" x2="13722" y2="10414"/>
           <line fill="rgb(0,0,0)" stroke="rgb(0,0,0)" x1="15733" y1="12425" x2="16603" y2="13295"/>
           <line fill="rgb(0,0,0)" stroke="rgb(0,0,0)" x1="12788" y1="9630" x2="13667" y2="10509"/>
           <line fill="rgb(0,0,0)" stroke="rgb(0,0,0)" x1="15638" y1="12480" x2="16516" y2="13358"/>
           <line fill="rgb(0,0,0)" stroke="rgb(0,0,0)" x1="12726" y1="9718" x2="13619" y2="10611"/>
           <line fill="rgb(0,0,0)" stroke="rgb(0,0,0)" x1="15536" y1="12528" x2="16428" y2="13420"/>
           <line fill="rgb(0,0,0)" stroke="rgb(0,0,0)" x1="12670" y1="9812" x2="13578" y2="10720"/>
           <line fill="rgb(0,0,0)" stroke="rgb(0,0,0)" x1="15426" y1="12568" x2="16334" y2="13476"/>
           <line fill="rgb(0,0,0)" stroke="rgb(0,0,0)" x1="12614" y1="9906" x2="13546" y2="10838"/>
           <line fill="rgb(0,0,0)" stroke="rgb(0,0,0)" x1="15309" y1="12601" x2="16240" y2="13532"/>
           <line fill="rgb(0,0,0)" stroke="rgb(0,0,0)" x1="12565" y1="10007" x2="13522" y2="10964"/>
           <line fill="rgb(0,0,0)" stroke="rgb(0,0,0)" x1="15183" y1="12625" x2="16139" y2="13581"/>
           <line fill="rgb(0,0,0)" stroke="rgb(0,0,0)" x1="12517" y1="10109" x2="13507" y2="11099"/>
           <line fill="rgb(0,0,0)" stroke="rgb(0,0,0)" x1="15048" y1="12640" x2="16037" y2="13629"/>
           <line fill="rgb(0,0,0)" stroke="rgb(0,0,0)" x1="12475" y1="10217" x2="13505" y2="11247"/>
           <line fill="rgb(0,0,0)" stroke="rgb(0,0,0)" x1="14900" y1="12642" x2="15929" y2="13671"/>
           <line fill="rgb(0,0,0)" stroke="rgb(0,0,0)" x1="12436" y1="10328" x2="13520" y2="11412"/>
           <line fill="rgb(0,0,0)" stroke="rgb(0,0,0)" x1="14735" y1="12627" x2="15818" y2="13710"/>
           <line fill="rgb(0,0,0)" stroke="rgb(0,0,0)" x1="12401" y1="10443" x2="13558" y2="11600"/>
           <line fill="rgb(0,0,0)" stroke="rgb(0,0,0)" x1="14547" y1="12589" x2="15703" y2="13745"/>
           <line fill="rgb(0,0,0)" stroke="rgb(0,0,0)" x1="12371" y1="10563" x2="13648" y2="11840"/>
           <line fill="rgb(0,0,0)" stroke="rgb(0,0,0)" x1="14307" y1="12499" x2="15583" y2="13775"/>
           <line fill="rgb(0,0,0)" stroke="rgb(0,0,0)" x1="12344" y1="10686" x2="15460" y2="13802"/>
           <line fill="rgb(0,0,0)" stroke="rgb(0,0,0)" x1="12325" y1="10817" x2="15329" y2="13821"/>
           <line fill="rgb(0,0,0)" stroke="rgb(0,0,0)" x1="12309" y1="10951" x2="15195" y2="13837"/>
           <line fill="rgb(0,0,0)" stroke="rgb(0,0,0)" x1="12303" y1="11095" x2="15051" y2="13843"/>
           <line fill="rgb(0,0,0)" stroke="rgb(0,0,0)" x1="12300" y1="11242" x2="14904" y2="13846"/>
           <line fill="rgb(0,0,0)" stroke="rgb(0,0,0)" x1="12308" y1="11400" x2="14746" y2="13838"/>
           <line fill="rgb(0,0,0)" stroke="rgb(0,0,0)" x1="12325" y1="11567" x2="14579" y2="13821"/>
           <line fill="rgb(0,0,0)" stroke="rgb(0,0,0)" x1="12351" y1="11743" x2="14403" y2="13795"/>
           <line fill="rgb(0,0,0)" stroke="rgb(0,0,0)" x1="12400" y1="11942" x2="14204" y2="13746"/>
           <line fill="rgb(0,0,0)" stroke="rgb(0,0,0)" x1="12473" y1="12165" x2="13981" y2="13673"/>
           <line fill="rgb(0,0,0)" stroke="rgb(0,0,0)" x1="12589" y1="12431" x2="13715" y2="13557"/>
           <line fill="rgb(0,0,0)" stroke="rgb(0,0,0)" x1="12849" y1="12841" x2="13305" y2="13297"/>
          </g>
         </pattern>
        </defs>
        <path style="fill:url(#pattern2)" d="M 14952,9745 L 14800,9752 14654,9774 14513,9808 14379,9856 14252,9916 14132,9987 14021,10069 13919,10161 13827,10263 13745,10374 13674,10494 13614,10621 13566,10755 13532,10896 13510,11042 13503,11194 13510,11346 13532,11492 13566,11633 13614,11767 13674,11895 13745,12014 13827,12125 13919,12227 14021,12320 14132,12402 14252,12473 14379,12533 14513,12581 14654,12615 14800,12637 14952,12644 15104,12637 15250,12615 15391,12581 15525,12533 15653,12473 15772,12402 15883,12320 15985,12227 16078,12125 16160,12014 16231,11895 16291,11767 16339,11633 16373,11492 16395,11346 16402,11194 16395,11042 16373,10896 16339,10755 16291,10621 16231,10494 16160,10374 16078,10263 15985,10161 15883,10069 15772,9987 15653,9916 15525,9856 15391,9808 15250,9774 15104,9752 14952,9745 Z M 14952,8540 L 15230,8553 15498,8592 15756,8656 16002,8743 16234,8852 16453,8983 16656,9133 16843,9303 17013,9490 17163,9693 17294,9912 17403,10144 17490,10390 17554,10648 17593,10916 17606,11194 17593,11472 17554,11740 17490,11998 17403,12244 17294,12476 17163,12695 17013,12898 16843,13085 16656,13255 16453,13405 16234,13536 16002,13645 15756,13732 15498,13796 15230,13835 14952,13848 14674,13835 14406,13796 14148,13732 13902,13645 13670,13536 13451,13405 13248,13255 13061,13085 12891,12898 12741,12695 12610,12476 12501,12244 12414,11998 12350,11740 12311,11472 12298,11194 12311,10916 12350,10648 12414,10390 12501,10144 12610,9912 12741,9693 12891,9490 13061,9303 13248,9133 13451,8983 13670,8852 13902,8743 14148,8656 14406,8592 14674,8553 14952,8540 Z"/>
       </g>
       <path fill="none" stroke="rgb(153,153,153)" stroke-width="106" stroke-linejoin="round" d="M 14952,9745 C 14130,9745 13503,10372 13503,11194 13503,12016 14130,12644 14952,12644 15774,12644 16402,12016 16402,11194 16402,10372 15774,9745 14952,9745 Z"/>
       <path fill="none" stroke="rgb(153,153,153)" stroke-width="106" stroke-linejoin="round" d="M 14952,8540 C 16457,8540 17606,9689 17606,11194 17606,12699 16457,13848 14952,13848 13447,13848 12298,12699 12298,11194 12298,9689 13447,8540 14952,8540 Z"/>
      </g>
     </g>
     <g class="com.sun.star.drawing.CustomShape">
      <g id="id6">
       <path fill="rgb(102,102,102)" stroke="none" d="M 14951,10749 C 15203,10749 15395,10941 15395,11193 15395,11445 15203,11637 14951,11637 14699,11637 14507,11445 14507,11193 14507,10941 14699,10749 14951,10749 Z M 14507,10749 L 14507,10749 Z M 15397,11639 L 15397,11639 Z"/>
       <path fill="none" stroke="rgb(153,153,153)" stroke-width="106" stroke-linejoin="round" d="M 14951,10749 C 15203,10749 15395,10941 15395,11193 15395,11445 15203,11637 14951,11637 14699,11637 14507,11445 14507,11193 14507,10941 14699,10749 14951,10749 Z"/>
      </g>
     </g>
     <g class="com.sun.star.drawing.CustomShape">
      <g id="id7">
       <path fill="none" stroke="rgb(153,153,153)" stroke-width="106" stroke-linejoin="round" d="M 14952,5235 C 18331,5235 20911,7815 20911,11194 20911,14573 18331,17153 14952,17153 11573,17153 8993,14573 8993,11194 8993,7815 11573,5235 14952,5235 Z"/>
      </g>
     </g>
     <g class="com.sun.star.drawing.CustomShape">
      <g id="id8">
       <path fill="none" stroke="rgb(153,153,153)" stroke-width="106" stroke-linejoin="round" d="M 14951,6342 C 17702,6342 19803,8442 19803,11193 19803,13944 17702,16045 14951,16045 12200,16045 10100,13944 10100,11193 10100,8442 12200,6342 14951,6342 Z"/>
      </g>
     </g>
     <g class="com.sun.star.drawing.LineShape">
      <g id="id9">
       <path fill="none" stroke="rgb(153,153,153)" stroke-width="106" stroke-linejoin="round" d="M 14947,7408 L 14947,4233"/>
      </g>
     </g>
     <g class="com.sun.star.drawing.LineShape">
      <g id="id10">
       <path fill="none" stroke="rgb(153,153,153)" stroke-width="106" stroke-linejoin="round" d="M 14947,14982 L 14947,18157"/>
      </g>
     </g>
     <g class="com.sun.star.drawing.LineShape">
      <g id="id11">
       <path fill="none" stroke="rgb(153,153,153)" stroke-width="106" stroke-linejoin="round" d="M 18780,11160 L 21955,11160"/>
      </g>
     </g>
     <g class="com.sun.star.drawing.LineShape">
      <g id="id12">
       <path fill="none" stroke="rgb(153,153,153)" stroke-width="106" stroke-linejoin="round" d="M 11160,11160 L 7985,11160"/>
      </g>
     </g>
     <g class="com.sun.star.drawing.LineShape">
      <g id="id13">
       <path fill="none" stroke="rgb(153,153,153)" stroke-width="106" stroke-linejoin="round" d="M 11543,9392 L 8698,7904"/>
      </g>
     </g>
     <g class="com.sun.star.drawing.LineShape">
      <g id="id14">
       <path fill="none" stroke="rgb(153,153,153)" stroke-width="106" stroke-linejoin="round" d="M 16768,14585 L 18290,17429"/>
      </g>
     </g>
     <g class="com.sun.star.drawing.LineShape">
      <g id="id15">
       <path fill="none" stroke="rgb(153,153,153)" stroke-width="106" stroke-linejoin="round" d="M 18323,13032 L 21167,14586"/>
      </g>
     </g>
     <g class="com.sun.star.drawing.LineShape">
      <g id="id16">
       <path fill="none" stroke="rgb(153,153,153)" stroke-width="106" stroke-linejoin="round" d="M 13130,7871 L 11543,4994"/>
      </g>
     </g>
     <g class="com.sun.star.drawing.LineShape">
      <g id="id17">
       <path fill="none" stroke="rgb(153,153,153)" stroke-width="106" stroke-linejoin="round" d="M 18424,9545 L 21269,8057"/>
      </g>
     </g>
     <g class="com.sun.star.drawing.LineShape">
      <g id="id18">
       <path fill="none" stroke="rgb(153,153,153)" stroke-width="106" stroke-linejoin="round" d="M 16837,7924 L 18424,5047"/>
      </g>
     </g>
     <g class="com.sun.star.drawing.LineShape">
      <g id="id19">
       <path fill="none" stroke="rgb(153,153,153)" stroke-width="106" stroke-linejoin="round" d="M 13017,14440 L 11495,17284"/>
      </g>
     </g>
     <g class="com.sun.star.drawing.LineShape">
      <g id="id20">
       <path fill="none" stroke="rgb(153,153,153)" stroke-width="106" stroke-linejoin="round" d="M 11480,12876 L 8718,14341"/>
      </g>
     </g>
    </g>
   </g>
  </g>
 </g>
</svg>