<?xml version="1.0" encoding="UTF-8"?>

<svg version="1.2" baseProfile="tiny" width="191.77mm" height="166.37mm" viewBox="2269 2269 19177 16637" preserveAspectRatio="xMidYMid" fill-rule="evenodd" stroke-width="28.222" stroke-linejoin="round" xmlns="http://www.w3.org/2000/svg" xmlns:ooo="http://xml.openoffice.org/svg/export" xmlns:xlink="http://www.w3.org/1999/xlink" xml:space="preserve">
 <defs class="ClipPathGroup">
  <clipPath id="presentation_clip_path" clipPathUnits="userSpaceOnUse">
   <rect x="2269" y="2269" width="19177" height="16637"/>
  </clipPath>
 </defs>
 <defs class="TextShapeIndex">
  <g ooo:slide="id1" ooo:id-list="id3 id4 id5 id6 id7 id8 id9 id10 id11 id12 id13 id14 id15 id16 id17 id18 id19 id20 id21 id22 id23 id24 id25 id26 id27 id28 id29 id30 id31 id32 id33 id34 id35 id36 id37 id38 id39 id40 id41 id42 id43 id44 id45 id46 id47 id48 id49"/>
 </defs>
 <defs class="EmbeddedBulletChars">
  <g id="bullet-char-template(57356)" transform="scale(0.00048828125,-0.00048828125)">
   <path d="M 580,1141 L 1163,571 580,0 -4,571 580,1141 Z"/>
  </g>
  <g id="bullet-char-template(57354)" transform="scale(0.00048828125,-0.00048828125)">
   <path d="M 8,1128 L 1137,1128 1137,0 8,0 8,1128 Z"/>
  </g>
  <g id="bullet-char-template(10146)" transform="scale(0.00048828125,-0.00048828125)">
   <path d="M 174,0 L 602,739 174,1481 1456,739 174,0 Z M 1358,739 L 309,1346 659,739 1358,739 Z"/>
  </g>
  <g id="bullet-char-template(10132)" transform="scale(0.00048828125,-0.00048828125)">
   <path d="M 2015,739 L 1276,0 717,0 1260,543 174,543 174,936 1260,936 717,1481 1274,1481 2015,739 Z"/>
  </g>
  <g id="bullet-char-template(10007)" transform="scale(0.00048828125,-0.00048828125)">
   <path d="M 0,-2 C -7,14 -16,27 -25,37 L 356,567 C 262,823 215,952 215,954 215,979 228,992 255,992 264,992 276,990 289,987 310,991 331,999 354,1012 L 381,999 492,748 772,1049 836,1024 860,1049 C 881,1039 901,1025 922,1006 886,937 835,863 770,784 769,783 710,716 594,584 L 774,223 C 774,196 753,168 711,139 L 727,119 C 717,90 699,76 672,76 641,76 570,178 457,381 L 164,-76 C 142,-110 111,-127 72,-127 30,-127 9,-110 8,-76 1,-67 -2,-52 -2,-32 -2,-23 -1,-13 0,-2 Z"/>
  </g>
  <g id="bullet-char-template(10004)" transform="scale(0.00048828125,-0.00048828125)">
   <path d="M 285,-33 C 182,-33 111,30 74,156 52,228 41,333 41,471 41,549 55,616 82,672 116,743 169,778 240,778 293,778 328,747 346,684 L 369,508 C 377,444 397,411 428,410 L 1163,1116 C 1174,1127 1196,1133 1229,1133 1271,1133 1292,1118 1292,1087 L 1292,965 C 1292,929 1282,901 1262,881 L 442,47 C 390,-6 338,-33 285,-33 Z"/>
  </g>
  <g id="bullet-char-template(9679)" transform="scale(0.00048828125,-0.00048828125)">
   <path d="M 813,0 C 632,0 489,54 383,161 276,268 223,411 223,592 223,773 276,916 383,1023 489,1130 632,1184 813,1184 992,1184 1136,1130 1245,1023 1353,916 1407,772 1407,592 1407,412 1353,268 1245,161 1136,54 992,0 813,0 Z"/>
  </g>
  <g id="bullet-char-template(8226)" transform="scale(0.00048828125,-0.00048828125)">
   <path d="M 346,457 C 273,457 209,483 155,535 101,586 74,649 74,723 74,796 101,859 155,911 209,963 273,989 346,989 419,989 480,963 531,910 582,859 608,796 608,723 608,648 583,586 532,535 482,483 420,457 346,457 Z"/>
  </g>
  <g id="bullet-char-template(8211)" transform="scale(0.00048828125,-0.00048828125)">
   <path d="M -4,459 L 1135,459 1135,606 -4,606 -4,459 Z"/>
  </g>
 </defs>
 <defs class="TextEmbeddedBitmaps"/>
 <g class="SlideGroup">
  <g>
   <g id="id1" class="Slide" clip-path="url(#presentation_clip_path)">
    <g class="Page">
     <g class="com.sun.star.drawing.CustomShape">
      <g id="id3">
       <path fill="rgb(255,255,255)" stroke="none" d="M 11858,18906 L 2269,18906 2269,2269 21446,2269 21446,18906 11858,18906 Z"/>
      </g>
     </g>
     <g class="com.sun.star.drawing.LineShape">
      <g id="id4">
       <path fill="none" stroke="rgb(204,204,204)" stroke-width="106" stroke-linejoin="round" d="M 11840,6813 L 8137,11113"/>
      </g>
     </g>
     <g class="com.sun.star.drawing.LineShape">
      <g id="id5">
       <path fill="none" stroke="rgb(204,204,204)" stroke-width="106" stroke-linejoin="round" d="M 11874,6747 L 16438,9294"/>
      </g>
     </g>
     <g class="com.sun.star.drawing.LineShape">
      <g id="id6">
       <path fill="none" stroke="rgb(204,204,204)" stroke-width="106" stroke-linejoin="round" d="M 12536,13692 L 16372,9194"/>
      </g>
     </g>
     <g class="com.sun.star.drawing.LineShape">
      <g id="id7">
       <path fill="none" stroke="rgb(204,204,204)" stroke-width="106" stroke-linejoin="round" d="M 11808,6846 L 12535,13791"/>
      </g>
     </g>
     <g class="com.sun.star.drawing.LineShape">
      <g id="id8">
       <path fill="none" stroke="rgb(204,204,204)" stroke-width="106" stroke-linejoin="round" d="M 8136,11245 L 12436,13791"/>
      </g>
     </g>
     <g class="com.sun.star.drawing.LineShape">
      <g id="id9">
       <path fill="none" stroke="rgb(204,204,204)" stroke-width="106" stroke-linejoin="round" d="M 6152,9161 L 8037,11179"/>
      </g>
     </g>
     <g class="com.sun.star.drawing.LineShape">
      <g id="id10">
       <path fill="none" stroke="rgb(204,204,204)" stroke-width="106" stroke-linejoin="round" d="M 5325,12832 L 8169,11278"/>
      </g>
     </g>
     <g class="com.sun.star.drawing.LineShape">
      <g id="id11">
       <path fill="none" stroke="rgb(204,204,204)" stroke-width="106" stroke-linejoin="round" d="M 12965,15974 L 12469,13791"/>
      </g>
     </g>
     <g class="com.sun.star.drawing.LineShape">
      <g id="id12">
       <path fill="none" stroke="rgb(204,204,204)" stroke-width="106" stroke-linejoin="round" d="M 12436,13824 L 16140,14618"/>
      </g>
     </g>
     <g class="com.sun.star.drawing.LineShape">
      <g id="id13">
       <path fill="none" stroke="rgb(204,204,204)" stroke-width="106" stroke-linejoin="round" d="M 16173,5920 L 16371,9426"/>
      </g>
     </g>
     <g class="com.sun.star.drawing.LineShape">
      <g id="id14">
       <path fill="none" stroke="rgb(204,204,204)" stroke-width="106" stroke-linejoin="round" d="M 11840,6714 L 16140,5887"/>
      </g>
     </g>
     <g class="com.sun.star.drawing.LineShape">
      <g id="id15">
       <path fill="none" stroke="rgb(204,204,204)" stroke-width="106" stroke-linejoin="round" d="M 14982,3473 L 16107,5854"/>
      </g>
     </g>
     <g class="com.sun.star.drawing.LineShape">
      <g id="id16">
       <path fill="none" stroke="rgb(204,204,204)" stroke-width="106" stroke-linejoin="round" d="M 17033,4299 L 16140,5920"/>
      </g>
     </g>
     <g class="com.sun.star.drawing.LineShape">
      <g id="id17">
       <path fill="none" stroke="rgb(204,204,204)" stroke-width="106" stroke-linejoin="round" d="M 18984,5523 L 16008,5920"/>
      </g>
     </g>
     <g class="com.sun.star.drawing.LineShape">
      <g id="id18">
       <path fill="none" stroke="rgb(204,204,204)" stroke-width="106" stroke-linejoin="round" d="M 12965,15974 L 11675,18091"/>
      </g>
     </g>
     <g class="com.sun.star.drawing.LineShape">
      <g id="id19">
       <path fill="none" stroke="rgb(204,204,204)" stroke-width="106" stroke-linejoin="round" d="M 18720,15280 L 16225,14606"/>
      </g>
     </g>
     <g class="com.sun.star.drawing.LineShape">
      <g id="id20">
       <path fill="none" stroke="rgb(204,204,204)" stroke-width="106" stroke-linejoin="round" d="M 16603,16933 L 16206,14618"/>
      </g>
     </g>
     <g class="com.sun.star.drawing.LineShape">
      <g id="id21">
       <path fill="none" stroke="rgb(204,204,204)" stroke-width="106" stroke-linejoin="round" d="M 14453,17925 L 12899,15875"/>
      </g>
     </g>
     <g class="com.sun.star.drawing.LineShape">
      <g id="id22">
       <path fill="none" stroke="rgb(204,204,204)" stroke-width="106" stroke-linejoin="round" d="M 4630,7375 L 6119,9161"/>
      </g>
     </g>
     <g class="com.sun.star.drawing.LineShape">
      <g id="id23">
       <path fill="none" stroke="rgb(204,204,204)" stroke-width="106" stroke-linejoin="round" d="M 3421,14089 L 7849,14101"/>
      </g>
     </g>
     <g class="com.sun.star.drawing.LineShape">
      <g id="id24">
       <path fill="none" stroke="rgb(204,204,204)" stroke-width="106" stroke-linejoin="round" d="M 5490,14056 L 5511,12803"/>
      </g>
     </g>
     <g class="com.sun.star.drawing.LineShape">
      <g id="id25">
       <path fill="none" stroke="rgb(204,204,204)" stroke-width="106" stroke-linejoin="round" d="M 3430,15322 L 3451,14069"/>
      </g>
     </g>
     <g class="com.sun.star.drawing.LineShape">
      <g id="id26">
       <path fill="none" stroke="rgb(204,204,204)" stroke-width="106" stroke-linejoin="round" d="M 4828,15322 L 4849,14069"/>
      </g>
     </g>
     <g class="com.sun.star.drawing.LineShape">
      <g id="id27">
       <path fill="none" stroke="rgb(204,204,204)" stroke-width="106" stroke-linejoin="round" d="M 6323,15322 L 6344,14069"/>
      </g>
     </g>
     <g class="com.sun.star.drawing.LineShape">
      <g id="id28">
       <path fill="none" stroke="rgb(204,204,204)" stroke-width="106" stroke-linejoin="round" d="M 7820,15322 L 7841,14069"/>
      </g>
     </g>
     <g class="Group">
      <g class="com.sun.star.drawing.CustomShape">
       <g id="id29">
        <path fill="rgb(51,51,255)" stroke="none" d="M 8202,10585 C 8577,10585 8863,10871 8863,11246 8863,11621 8577,11907 8202,11907 7827,11907 7541,11621 7541,11246 7541,10871 7827,10585 8202,10585 Z M 7541,10585 L 7541,10585 Z M 8864,11908 L 8864,11908 Z"/>
        <path fill="none" stroke="rgb(128,128,128)" stroke-width="106" stroke-linejoin="round" d="M 8202,10585 C 8577,10585 8863,10871 8863,11246 8863,11621 8577,11907 8202,11907 7827,11907 7541,11621 7541,11246 7541,10871 7827,10585 8202,10585 Z"/>
       </g>
      </g>
      <g class="com.sun.star.drawing.CustomShape">
       <g id="id30">
        <path fill="rgb(51,51,255)" stroke="none" d="M 11841,6220 C 12216,6220 12502,6506 12502,6881 12502,7256 12216,7542 11841,7542 11466,7542 11180,7256 11180,6881 11180,6506 11466,6220 11841,6220 Z M 11180,6220 L 11180,6220 Z M 12503,7543 L 12503,7543 Z"/>
        <path fill="none" stroke="rgb(128,128,128)" stroke-width="106" stroke-linejoin="round" d="M 11841,6220 C 12216,6220 12502,6506 12502,6881 12502,7256 12216,7542 11841,7542 11466,7542 11180,7256 11180,6881 11180,6506 11466,6220 11841,6220 Z"/>
       </g>
      </g>
      <g class="com.sun.star.drawing.CustomShape">
       <g id="id31">
        <path fill="rgb(51,51,255)" stroke="none" d="M 12535,13199 C 12910,13199 13196,13485 13196,13860 13196,14235 12910,14521 12535,14521 12160,14521 11874,14235 11874,13860 11874,13485 12160,13199 12535,13199 Z M 11874,13199 L 11874,13199 Z M 13197,14522 L 13197,14522 Z"/>
        <path fill="none" stroke="rgb(128,128,128)" stroke-width="106" stroke-linejoin="round" d="M 12535,13199 C 12910,13199 13196,13485 13196,13860 13196,14235 12910,14521 12535,14521 12160,14521 11874,14235 11874,13860 11874,13485 12160,13199 12535,13199 Z"/>
       </g>
      </g>
      <g class="com.sun.star.drawing.CustomShape">
       <g id="id32">
        <path fill="rgb(51,51,255)" stroke="none" d="M 16405,8767 C 16780,8767 17066,9053 17066,9428 17066,9803 16780,10089 16405,10089 16030,10089 15744,9803 15744,9428 15744,9053 16030,8767 16405,8767 Z M 15744,8767 L 15744,8767 Z M 17067,10090 L 17067,10090 Z"/>
        <path fill="none" stroke="rgb(128,128,128)" stroke-width="106" stroke-linejoin="round" d="M 16405,8767 C 16780,8767 17066,9053 17066,9428 17066,9803 16780,10089 16405,10089 16030,10089 15744,9803 15744,9428 15744,9053 16030,8767 16405,8767 Z"/>
       </g>
      </g>
      <g class="com.sun.star.drawing.CustomShape">
       <g id="id33">
        <path fill="rgb(114,159,207)" stroke="none" d="M 6134,8734 C 6368,8734 6547,8912 6547,9146 6547,9380 6368,9559 6134,9559 5900,9559 5722,9380 5722,9146 5722,8912 5900,8734 6134,8734 Z M 5722,8734 L 5722,8734 Z M 6548,9560 L 6548,9560 Z"/>
        <path fill="none" stroke="rgb(128,128,128)" stroke-width="106" stroke-linejoin="round" d="M 6134,8734 C 6368,8734 6547,8912 6547,9146 6547,9380 6368,9559 6134,9559 5900,9559 5722,9380 5722,9146 5722,8912 5900,8734 6134,8734 Z"/>
       </g>
      </g>
      <g class="com.sun.star.drawing.CustomShape">
       <g id="id34">
        <path fill="rgb(114,159,207)" stroke="none" d="M 5507,12405 C 5741,12405 5920,12583 5920,12817 5920,13051 5741,13230 5507,13230 5273,13230 5095,13051 5095,12817 5095,12583 5273,12405 5507,12405 Z M 5095,12405 L 5095,12405 Z M 5921,13231 L 5921,13231 Z"/>
        <path fill="none" stroke="rgb(128,128,128)" stroke-width="106" stroke-linejoin="round" d="M 5507,12405 C 5741,12405 5920,12583 5920,12817 5920,13051 5741,13230 5507,13230 5273,13230 5095,13051 5095,12817 5095,12583 5273,12405 5507,12405 Z"/>
       </g>
      </g>
      <g class="com.sun.star.drawing.CustomShape">
       <g id="id35">
        <path fill="rgb(114,159,207)" stroke="none" d="M 16222,14290 C 16456,14290 16635,14468 16635,14702 16635,14936 16456,15115 16222,15115 15988,15115 15810,14936 15810,14702 15810,14468 15988,14290 16222,14290 Z M 15810,14290 L 15810,14290 Z M 16636,15116 L 16636,15116 Z"/>
        <path fill="none" stroke="rgb(128,128,128)" stroke-width="106" stroke-linejoin="round" d="M 16222,14290 C 16456,14290 16635,14468 16635,14702 16635,14936 16456,15115 16222,15115 15988,15115 15810,14936 15810,14702 15810,14468 15988,14290 16222,14290 Z"/>
       </g>
      </g>
      <g class="com.sun.star.drawing.CustomShape">
       <g id="id36">
        <path fill="rgb(114,159,207)" stroke="none" d="M 12981,15547 C 13215,15547 13394,15725 13394,15959 13394,16193 13215,16372 12981,16372 12747,16372 12569,16193 12569,15959 12569,15725 12747,15547 12981,15547 Z M 12569,15547 L 12569,15547 Z M 13395,16373 L 13395,16373 Z"/>
        <path fill="none" stroke="rgb(128,128,128)" stroke-width="106" stroke-linejoin="round" d="M 12981,15547 C 13215,15547 13394,15725 13394,15959 13394,16193 13215,16372 12981,16372 12747,16372 12569,16193 12569,15959 12569,15725 12747,15547 12981,15547 Z"/>
       </g>
      </g>
      <g class="com.sun.star.drawing.CustomShape">
       <g id="id37">
        <path fill="rgb(114,159,207)" stroke="none" d="M 16156,5525 C 16390,5525 16569,5703 16569,5937 16569,6171 16390,6350 16156,6350 15922,6350 15744,6171 15744,5937 15744,5703 15922,5525 16156,5525 Z M 15744,5525 L 15744,5525 Z M 16570,6351 L 16570,6351 Z"/>
        <path fill="none" stroke="rgb(128,128,128)" stroke-width="106" stroke-linejoin="round" d="M 16156,5525 C 16390,5525 16569,5703 16569,5937 16569,6171 16390,6350 16156,6350 15922,6350 15744,6171 15744,5937 15744,5703 15922,5525 16156,5525 Z"/>
       </g>
      </g>
      <g class="com.sun.star.drawing.CustomShape">
       <g id="id38">
        <path fill="rgb(0,255,255)" stroke="none" d="M 14982,3936 L 14585,3936 14585,3142 15379,3142 15379,3936 14982,3936 Z"/>
        <path fill="none" stroke="rgb(128,128,128)" stroke-width="106" stroke-linejoin="round" d="M 14982,3936 L 14585,3936 14585,3142 15379,3142 15379,3936 14982,3936 Z"/>
       </g>
      </g>
      <g class="com.sun.star.drawing.CustomShape">
       <g id="id39">
        <path fill="rgb(0,255,255)" stroke="none" d="M 17065,4630 L 16668,4630 16668,3836 17462,3836 17462,4630 17065,4630 Z"/>
        <path fill="none" stroke="rgb(128,128,128)" stroke-width="106" stroke-linejoin="round" d="M 17065,4630 L 16668,4630 16668,3836 17462,3836 17462,4630 17065,4630 Z"/>
       </g>
      </g>
      <g class="com.sun.star.drawing.CustomShape">
       <g id="id40">
        <path fill="rgb(0,255,255)" stroke="none" d="M 19017,5986 L 18620,5986 18620,5192 19414,5192 19414,5986 19017,5986 Z"/>
        <path fill="none" stroke="rgb(128,128,128)" stroke-width="106" stroke-linejoin="round" d="M 19017,5986 L 18620,5986 18620,5192 19414,5192 19414,5986 19017,5986 Z"/>
       </g>
      </g>
      <g class="com.sun.star.drawing.CustomShape">
       <g id="id41">
        <path fill="rgb(0,255,255)" stroke="none" d="M 18720,15677 L 18323,15677 18323,14883 19117,14883 19117,15677 18720,15677 Z"/>
        <path fill="none" stroke="rgb(128,128,128)" stroke-width="106" stroke-linejoin="round" d="M 18720,15677 L 18323,15677 18323,14883 19117,14883 19117,15677 18720,15677 Z"/>
       </g>
      </g>
      <g class="com.sun.star.drawing.CustomShape">
       <g id="id42">
        <path fill="rgb(0,255,255)" stroke="none" d="M 16636,17331 L 16239,17331 16239,16537 17033,16537 17033,17331 16636,17331 Z"/>
        <path fill="none" stroke="rgb(128,128,128)" stroke-width="106" stroke-linejoin="round" d="M 16636,17331 L 16239,17331 16239,16537 17033,16537 17033,17331 16636,17331 Z"/>
       </g>
      </g>
      <g class="com.sun.star.drawing.CustomShape">
       <g id="id43">
        <path fill="rgb(0,255,255)" stroke="none" d="M 11741,18455 L 11344,18455 11344,17661 12138,17661 12138,18455 11741,18455 Z"/>
        <path fill="none" stroke="rgb(128,128,128)" stroke-width="106" stroke-linejoin="round" d="M 11741,18455 L 11344,18455 11344,17661 12138,17661 12138,18455 11741,18455 Z"/>
       </g>
      </g>
      <g class="com.sun.star.drawing.CustomShape">
       <g id="id44">
        <path fill="rgb(0,255,255)" stroke="none" d="M 14486,18489 L 14089,18489 14089,17695 14883,17695 14883,18489 14486,18489 Z"/>
        <path fill="none" stroke="rgb(128,128,128)" stroke-width="106" stroke-linejoin="round" d="M 14486,18489 L 14089,18489 14089,17695 14883,17695 14883,18489 14486,18489 Z"/>
       </g>
      </g>
      <g class="com.sun.star.drawing.CustomShape">
       <g id="id45">
        <path fill="rgb(0,255,255)" stroke="none" d="M 3436,15528 L 3039,15528 3039,14734 3833,14734 3833,15528 3436,15528 Z"/>
        <path fill="none" stroke="rgb(128,128,128)" stroke-width="106" stroke-linejoin="round" d="M 3436,15528 L 3039,15528 3039,14734 3833,14734 3833,15528 3436,15528 Z"/>
       </g>
      </g>
      <g class="com.sun.star.drawing.CustomShape">
       <g id="id46">
        <path fill="rgb(0,255,255)" stroke="none" d="M 4858,15528 L 4461,15528 4461,14734 5255,14734 5255,15528 4858,15528 Z"/>
        <path fill="none" stroke="rgb(128,128,128)" stroke-width="106" stroke-linejoin="round" d="M 4858,15528 L 4461,15528 4461,14734 5255,14734 5255,15528 4858,15528 Z"/>
       </g>
      </g>
      <g class="com.sun.star.drawing.CustomShape">
       <g id="id47">
        <path fill="rgb(0,255,255)" stroke="none" d="M 6379,15528 L 5982,15528 5982,14734 6776,14734 6776,15528 6379,15528 Z"/>
        <path fill="none" stroke="rgb(128,128,128)" stroke-width="106" stroke-linejoin="round" d="M 6379,15528 L 5982,15528 5982,14734 6776,14734 6776,15528 6379,15528 Z"/>
       </g>
      </g>
      <g class="com.sun.star.drawing.CustomShape">
       <g id="id48">
        <path fill="rgb(0,255,255)" stroke="none" d="M 7901,15528 L 7504,15528 7504,14734 8298,14734 8298,15528 7901,15528 Z"/>
        <path fill="none" stroke="rgb(128,128,128)" stroke-width="106" stroke-linejoin="round" d="M 7901,15528 L 7504,15528 7504,14734 8298,14734 8298,15528 7901,15528 Z"/>
       </g>
      </g>
      <g class="com.sun.star.drawing.CustomShape">
       <g id="id49">
        <path fill="rgb(0,255,255)" stroke="none" d="M 4696,7773 L 4299,7773 4299,6979 5093,6979 5093,7773 4696,7773 Z"/>
        <path fill="none" stroke="rgb(128,128,128)" stroke-width="106" stroke-linejoin="round" d="M 4696,7773 L 4299,7773 4299,6979 5093,6979 5093,7773 4696,7773 Z"/>
       </g>
      </g>
     </g>
    </g>
   </g>
  </g>
 </g>
</svg>