<?xml version="1.0" encoding="UTF-8"?>
<!DOCTYPE svg PUBLIC "-//W3C//DTD SVG 1.1//EN" "http://www.w3.org/Graphics/SVG/1.1/DTD/svg11.dtd">
<svg version="1.2" width="59.57mm" height="78.14mm" viewBox="5785 8194 5957 7814" preserveAspectRatio="xMidYMid" fill-rule="evenodd" stroke-width="28.222" stroke-linejoin="round" xmlns="http://www.w3.org/2000/svg" xmlns:ooo="http://xml.openoffice.org/svg/export" xmlns:xlink="http://www.w3.org/1999/xlink" xmlns:presentation="http://sun.com/xmlns/staroffice/presentation" xmlns:smil="http://www.w3.org/2001/SMIL20/" xmlns:anim="urn:oasis:names:tc:opendocument:xmlns:animation:1.0" xml:space="preserve">
 <defs class="ClipPathGroup">
  <clipPath id="presentation_clip_path" clipPathUnits="userSpaceOnUse">
   <rect x="5785" y="8194" width="5957" height="7814"/>
  </clipPath>
 </defs>
 <defs class="TextShapeIndex">
  <g ooo:slide="id1" ooo:id-list="id3 id4 id5 id6 id7 id8 id9 id10 id11 id12 id13 id14 id15 id16 id17 id18 id19 id20 id21 id22 id23 id24 id25 id26 id27 id28 id29 id30 id31 id32 id33 id34 id35 id36 id37 id38 id39 id40 id41 id42 id43 id44 id45 id46 id47 id48 id49 id50 id51 id52 id53 id54 id55 id56 id57 id58 id59 id60 id61 id62 id63 id64 id65 id66 id67 id68 id69 id70 id71 id72 id73 id74 id75 id76"/>
 </defs>
 <defs class="EmbeddedBulletChars">
  <g id="bullet-char-template(57356)" transform="scale(0.00048828125,-0.00048828125)">
   <path d="M 580,1141 L 1163,571 580,0 -4,571 580,1141 Z"/>
  </g>
  <g id="bullet-char-template(57354)" transform="scale(0.00048828125,-0.00048828125)">
   <path d="M 8,1128 L 1137,1128 1137,0 8,0 8,1128 Z"/>
  </g>
  <g id="bullet-char-template(10146)" transform="scale(0.00048828125,-0.00048828125)">
   <path d="M 174,0 L 602,739 174,1481 1456,739 174,0 Z M 1358,739 L 309,1346 659,739 1358,739 Z"/>
  </g>
  <g id="bullet-char-template(10132)" transform="scale(0.00048828125,-0.00048828125)">
   <path d="M 2015,739 L 1276,0 717,0 1260,543 174,543 174,936 1260,936 717,1481 1274,1481 2015,739 Z"/>
  </g>
  <g id="bullet-char-template(10007)" transform="scale(0.00048828125,-0.00048828125)">
   <path d="M 0,-2 C -7,14 -16,27 -25,37 L 356,567 C 262,823 215,952 215,954 215,979 228,992 255,992 264,992 276,990 289,987 310,991 331,999 354,1012 L 381,999 492,748 772,1049 836,1024 860,1049 C 881,1039 901,1025 922,1006 886,937 835,863 770,784 769,783 710,716 594,584 L 774,223 C 774,196 753,168 711,139 L 727,119 C 717,90 699,76 672,76 641,76 570,178 457,381 L 164,-76 C 142,-110 111,-127 72,-127 30,-127 9,-110 8,-76 1,-67 -2,-52 -2,-32 -2,-23 -1,-13 0,-2 Z"/>
  </g>
  <g id="bullet-char-template(10004)" transform="scale(0.00048828125,-0.00048828125)">
   <path d="M 285,-33 C 182,-33 111,30 74,156 52,228 41,333 41,471 41,549 55,616 82,672 116,743 169,778 240,778 293,778 328,747 346,684 L 369,508 C 377,444 397,411 428,410 L 1163,1116 C 1174,1127 1196,1133 1229,1133 1271,1133 1292,1118 1292,1087 L 1292,965 C 1292,929 1282,901 1262,881 L 442,47 C 390,-6 338,-33 285,-33 Z"/>
  </g>
  <g id="bullet-char-template(9679)" transform="scale(0.00048828125,-0.00048828125)">
   <path d="M 813,0 C 632,0 489,54 383,161 276,268 223,411 223,592 223,773 276,916 383,1023 489,1130 632,1184 813,1184 992,1184 1136,1130 1245,1023 1353,916 1407,772 1407,592 1407,412 1353,268 1245,161 1136,54 992,0 813,0 Z"/>
  </g>
  <g id="bullet-char-template(8226)" transform="scale(0.00048828125,-0.00048828125)">
   <path d="M 346,457 C 273,457 209,483 155,535 101,586 74,649 74,723 74,796 101,859 155,911 209,963 273,989 346,989 419,989 480,963 531,910 582,859 608,796 608,723 608,648 583,586 532,535 482,483 420,457 346,457 Z"/>
  </g>
  <g id="bullet-char-template(8211)" transform="scale(0.00048828125,-0.00048828125)">
   <path d="M -4,459 L 1135,459 1135,606 -4,606 -4,459 Z"/>
  </g>
 </defs>
 <defs class="TextEmbeddedBitmaps"/>
 <g class="SlideGroup">
  <g>
   <g id="id1" class="Slide" clip-path="url(#presentation_clip_path)">
    <g class="Page">
     <g class="Group">
      <g class="com.sun.star.drawing.ClosedBezierShape">
       <g id="id3">
        <rect class="BoundingBox" stroke="none" fill="none" x="7357" y="11971" width="2411" height="1747"/>
        <path fill="rgb(221,221,221)" stroke="none" d="M 7378,13697 C 8084,13697 8728,13331 9403,12966 10078,12600 9627,11991 9177,11991 9204,12045 7378,13697 7378,13697 Z"/>
        <path fill="none" stroke="rgb(221,221,221)" stroke-width="40" stroke-linejoin="round" d="M 7378,13697 C 8084,13697 8728,13331 9403,12966 10078,12600 9627,11991 9177,11991 9204,12045 7378,13697 7378,13697 Z"/>
       </g>
      </g>
      <g class="Group">
       <g class="com.sun.star.drawing.PolyPolygonShape">
        <g id="id4">
         <rect class="BoundingBox" stroke="none" fill="none" x="5784" y="8194" width="3414" height="1869"/>
         <g>
          <defs>
           <linearGradient id="gradient1" x1="7491" y1="8214" x2="7491" y2="10042" gradientUnits="userSpaceOnUse">
            <stop offset="0.1" style="stop-color:rgb(179,179,179)"/>
            <stop offset="1" style="stop-color:rgb(229,229,229)"/>
           </linearGradient>
          </defs>
          <path style="fill:url(#gradient1)" d="M 6478,10042 L 5805,9676 8503,8214 9177,8580 6478,10042 Z"/>
         </g>
         <path fill="none" stroke="rgb(255,255,255)" stroke-width="40" stroke-linejoin="round" d="M 6478,10042 L 5805,9676 8503,8214 9177,8580 6478,10042 Z"/>
        </g>
       </g>
       <g class="com.sun.star.drawing.PolyPolygonShape">
        <g id="id5">
         <rect class="BoundingBox" stroke="none" fill="none" x="6040" y="10242" width="300" height="601"/>
         <path fill="rgb(57,181,74)" stroke="none" d="M 6061,10682 L 6061,10263 6319,10402 6319,10821 6061,10682 Z"/>
         <path fill="none" stroke="rgb(51,51,51)" stroke-width="40" stroke-linejoin="round" d="M 6061,10682 L 6061,10263 6319,10402 6319,10821 6061,10682 Z"/>
        </g>
       </g>
       <g class="com.sun.star.drawing.PolyPolygonShape">
        <g id="id6">
         <rect class="BoundingBox" stroke="none" fill="none" x="6231" y="12824" width="1168" height="894"/>
         <g>
          <defs>
           <linearGradient id="gradient2" x1="6252" y1="13270" x2="7379" y2="13270" gradientUnits="userSpaceOnUse">
            <stop offset="0.1" style="stop-color:rgb(179,179,179)"/>
            <stop offset="1" style="stop-color:rgb(229,229,229)"/>
           </linearGradient>
          </defs>
          <path style="fill:url(#gradient2)" d="M 6252,13088 L 6252,12844 7378,13453 7378,13697 6252,13088 Z"/>
         </g>
         <path fill="none" stroke="rgb(255,255,255)" stroke-width="40" stroke-linejoin="round" d="M 6252,13088 L 6252,12844 7378,13453 7378,13697 6252,13088 Z"/>
        </g>
       </g>
       <g class="com.sun.star.drawing.PolyPolygonShape">
        <g id="id7">
         <rect class="BoundingBox" stroke="none" fill="none" x="5784" y="9656" width="716" height="4063"/>
         <g>
          <defs>
           <linearGradient id="gradient3" x1="5804" y1="11686" x2="6479" y2="11686" gradientUnits="userSpaceOnUse">
            <stop offset="0.1" style="stop-color:rgb(179,179,179)"/>
            <stop offset="1" style="stop-color:rgb(229,229,229)"/>
           </linearGradient>
          </defs>
          <path style="fill:url(#gradient3)" d="M 5805,13331 L 5805,9676 6478,10042 6478,13697 5805,13331 Z"/>
         </g>
         <path fill="none" stroke="rgb(255,255,255)" stroke-width="40" stroke-linejoin="round" d="M 5805,13331 L 5805,9676 6478,10042 6478,13697 5805,13331 Z"/>
        </g>
       </g>
       <g class="com.sun.star.drawing.PolyPolygonShape">
        <g id="id8">
         <rect class="BoundingBox" stroke="none" fill="none" x="7355" y="12580" width="1621" height="1138"/>
         <g>
          <defs>
           <pattern id="pattern1" x="7376" y="12600" width="1579" height="1098" patternUnits="userSpaceOnUse">
            <g transform="translate(-7376,-12600)">
             <path fill="rgb(179,179,179)" stroke="none" d="M 7375,12599 L 8955,12599 8955,13698 7375,13698 7375,12599 Z M 7075,12390 L 8623,12390 8623,13467 7075,13467 7075,12390 Z"/>
             <path fill="rgb(180,180,180)" stroke="none" d="M 7075,12390 L 8623,12390 8623,13467 7075,13467 7075,12390 Z M 7091,12401 L 8607,12401 8607,13456 7091,13456 7091,12401 Z"/>
             <path fill="rgb(181,181,181)" stroke="none" d="M 7091,12401 L 8607,12401 8607,13456 7091,13456 7091,12401 Z M 7107,12412 L 8591,12412 8591,13445 7107,13445 7107,12412 Z"/>
             <path fill="rgb(182,182,182)" stroke="none" d="M 7107,12412 L 8591,12412 8591,13445 7107,13445 7107,12412 Z M 7123,12423 L 8575,12423 8575,13434 7123,13434 7123,12423 Z"/>
             <path fill="rgb(183,183,183)" stroke="none" d="M 7123,12423 L 8575,12423 8575,13434 7123,13434 7123,12423 Z M 7139,12434 L 8559,12434 8559,13423 7139,13423 7139,12434 Z"/>
             <path fill="rgb(184,184,184)" stroke="none" d="M 7139,12434 L 8559,12434 8559,13423 7139,13423 7139,12434 Z M 7154,12445 L 8544,12445 8544,13412 7154,13412 7154,12445 Z"/>
             <path fill="rgb(185,185,185)" stroke="none" d="M 7154,12445 L 8544,12445 8544,13412 7154,13412 7154,12445 Z M 7170,12456 L 8528,12456 8528,13401 7170,13401 7170,12456 Z"/>
             <path fill="rgb(186,186,186)" stroke="none" d="M 7170,12456 L 8528,12456 8528,13401 7170,13401 7170,12456 Z M 7186,12467 L 8512,12467 8512,13390 7186,13390 7186,12467 Z"/>
             <path fill="rgb(187,187,187)" stroke="none" d="M 7186,12467 L 8512,12467 8512,13390 7186,13390 7186,12467 Z M 7202,12478 L 8496,12478 8496,13379 7202,13379 7202,12478 Z"/>
             <path fill="rgb(188,188,188)" stroke="none" d="M 7202,12478 L 8496,12478 8496,13379 7202,13379 7202,12478 Z M 7218,12489 L 8480,12489 8480,13368 7218,13368 7218,12489 Z"/>
             <path fill="rgb(189,189,189)" stroke="none" d="M 7218,12489 L 8480,12489 8480,13368 7218,13368 7218,12489 Z M 7233,12500 L 8465,12500 8465,13357 7233,13357 7233,12500 Z"/>
             <path fill="rgb(190,190,190)" stroke="none" d="M 7233,12500 L 8465,12500 8465,13357 7233,13357 7233,12500 Z M 7249,12511 L 8449,12511 8449,13346 7249,13346 7249,12511 Z"/>
             <path fill="rgb(191,191,191)" stroke="none" d="M 7249,12511 L 8449,12511 8449,13346 7249,13346 7249,12511 Z M 7265,12522 L 8433,12522 8433,13335 7265,13335 7265,12522 Z"/>
             <path fill="rgb(192,192,192)" stroke="none" d="M 7265,12522 L 8433,12522 8433,13335 7265,13335 7265,12522 Z M 7281,12533 L 8417,12533 8417,13324 7281,13324 7281,12533 Z"/>
             <path fill="rgb(193,193,193)" stroke="none" d="M 7281,12533 L 8417,12533 8417,13324 7281,13324 7281,12533 Z M 7297,12544 L 8401,12544 8401,13313 7297,13313 7297,12544 Z"/>
             <path fill="rgb(194,194,194)" stroke="none" d="M 7297,12544 L 8401,12544 8401,13313 7297,13313 7297,12544 Z M 7312,12555 L 8386,12555 8386,13302 7312,13302 7312,12555 Z"/>
             <path fill="rgb(195,195,195)" stroke="none" d="M 7312,12555 L 8386,12555 8386,13302 7312,13302 7312,12555 Z M 7328,12566 L 8370,12566 8370,13291 7328,13291 7328,12566 Z"/>
             <path fill="rgb(196,196,196)" stroke="none" d="M 7328,12566 L 8370,12566 8370,13291 7328,13291 7328,12566 Z M 7344,12577 L 8354,12577 8354,13280 7344,13280 7344,12577 Z"/>
             <path fill="rgb(197,197,197)" stroke="none" d="M 7344,12577 L 8354,12577 8354,13280 7344,13280 7344,12577 Z M 7359,12588 L 8338,12588 8338,13269 7359,13269 7359,12588 Z"/>
             <path fill="rgb(198,198,198)" stroke="none" d="M 7359,12588 L 8338,12588 8338,13269 7359,13269 7359,12588 Z M 7375,12599 L 8322,12599 8322,13258 7375,13258 7375,12599 Z"/>
             <path fill="rgb(199,199,199)" stroke="none" d="M 7375,12599 L 8322,12599 8322,13258 7375,13258 7375,12599 Z M 7391,12610 L 8306,12610 8306,13247 7391,13247 7391,12610 Z"/>
             <path fill="rgb(200,200,200)" stroke="none" d="M 7391,12610 L 8306,12610 8306,13247 7391,13247 7391,12610 Z M 7406,12621 L 8291,12621 8291,13236 7406,13236 7406,12621 Z"/>
             <path fill="rgb(201,201,201)" stroke="none" d="M 7406,12621 L 8291,12621 8291,13236 7406,13236 7406,12621 Z M 7422,12632 L 8275,12632 8275,13225 7422,13225 7422,12632 Z"/>
             <path fill="rgb(202,202,202)" stroke="none" d="M 7422,12632 L 8275,12632 8275,13225 7422,13225 7422,12632 Z M 7438,12643 L 8259,12643 8259,13214 7438,13214 7438,12643 Z"/>
             <path fill="rgb(203,203,203)" stroke="none" d="M 7438,12643 L 8259,12643 8259,13214 7438,13214 7438,12643 Z M 7454,12654 L 8243,12654 8243,13203 7454,13203 7454,12654 Z"/>
             <path fill="rgb(204,204,204)" stroke="none" d="M 7454,12654 L 8243,12654 8243,13203 7454,13203 7454,12654 Z M 7470,12665 L 8227,12665 8227,13192 7470,13192 7470,12665 Z"/>
             <path fill="rgb(205,205,205)" stroke="none" d="M 7470,12665 L 8227,12665 8227,13192 7470,13192 7470,12665 Z M 7485,12676 L 8212,12676 8212,13181 7485,13181 7485,12676 Z"/>
             <path fill="rgb(206,206,206)" stroke="none" d="M 7485,12676 L 8212,12676 8212,13181 7485,13181 7485,12676 Z M 7501,12687 L 8196,12687 8196,13170 7501,13170 7501,12687 Z"/>
             <path fill="rgb(207,207,207)" stroke="none" d="M 7501,12687 L 8196,12687 8196,13170 7501,13170 7501,12687 Z M 7517,12698 L 8180,12698 8180,13159 7517,13159 7517,12698 Z"/>
             <path fill="rgb(208,208,208)" stroke="none" d="M 7517,12698 L 8180,12698 8180,13159 7517,13159 7517,12698 Z M 7533,12709 L 8164,12709 8164,13148 7533,13148 7533,12709 Z"/>
             <path fill="rgb(209,209,209)" stroke="none" d="M 7533,12709 L 8164,12709 8164,13148 7533,13148 7533,12709 Z M 7549,12720 L 8148,12720 8148,13137 7549,13137 7549,12720 Z"/>
             <path fill="rgb(210,210,210)" stroke="none" d="M 7549,12720 L 8148,12720 8148,13137 7549,13137 7549,12720 Z M 7564,12731 L 8133,12731 8133,13126 7564,13126 7564,12731 Z"/>
             <path fill="rgb(211,211,211)" stroke="none" d="M 7564,12731 L 8133,12731 8133,13126 7564,13126 7564,12731 Z M 7580,12742 L 8117,12742 8117,13115 7580,13115 7580,12742 Z"/>
             <path fill="rgb(212,212,212)" stroke="none" d="M 7580,12742 L 8117,12742 8117,13115 7580,13115 7580,12742 Z M 7596,12753 L 8101,12753 8101,13104 7596,13104 7596,12753 Z"/>
             <path fill="rgb(213,213,213)" stroke="none" d="M 7596,12753 L 8101,12753 8101,13104 7596,13104 7596,12753 Z M 7612,12764 L 8085,12764 8085,13093 7612,13093 7612,12764 Z"/>
             <path fill="rgb(214,214,214)" stroke="none" d="M 7612,12764 L 8085,12764 8085,13093 7612,13093 7612,12764 Z M 7628,12775 L 8069,12775 8069,13082 7628,13082 7628,12775 Z"/>
             <path fill="rgb(215,215,215)" stroke="none" d="M 7628,12775 L 8069,12775 8069,13082 7628,13082 7628,12775 Z M 7643,12786 L 8054,12786 8054,13071 7643,13071 7643,12786 Z"/>
             <path fill="rgb(216,216,216)" stroke="none" d="M 7643,12786 L 8054,12786 8054,13071 7643,13071 7643,12786 Z M 7659,12797 L 8038,12797 8038,13060 7659,13060 7659,12797 Z"/>
             <path fill="rgb(217,217,217)" stroke="none" d="M 7659,12797 L 8038,12797 8038,13060 7659,13060 7659,12797 Z M 7675,12808 L 8022,12808 8022,13049 7675,13049 7675,12808 Z"/>
             <path fill="rgb(218,218,218)" stroke="none" d="M 7675,12808 L 8022,12808 8022,13049 7675,13049 7675,12808 Z M 7691,12819 L 8006,12819 8006,13038 7691,13038 7691,12819 Z"/>
             <path fill="rgb(219,219,219)" stroke="none" d="M 7691,12819 L 8006,12819 8006,13038 7691,13038 7691,12819 Z M 7707,12830 L 7990,12830 7990,13027 7707,13027 7707,12830 Z"/>
             <path fill="rgb(220,220,220)" stroke="none" d="M 7707,12830 L 7990,12830 7990,13027 7707,13027 7707,12830 Z M 7723,12841 L 7974,12841 7974,13016 7723,13016 7723,12841 Z"/>
             <path fill="rgb(221,221,221)" stroke="none" d="M 7723,12841 L 7974,12841 7974,13016 7723,13016 7723,12841 Z M 7738,12852 L 7959,12852 7959,13005 7738,13005 7738,12852 Z"/>
             <path fill="rgb(222,222,222)" stroke="none" d="M 7738,12852 L 7959,12852 7959,13005 7738,13005 7738,12852 Z M 7754,12863 L 7943,12863 7943,12994 7754,12994 7754,12863 Z"/>
             <path fill="rgb(223,223,223)" stroke="none" d="M 7754,12863 L 7943,12863 7943,12994 7754,12994 7754,12863 Z M 7770,12874 L 7927,12874 7927,12983 7770,12983 7770,12874 Z"/>
             <path fill="rgb(224,224,224)" stroke="none" d="M 7770,12874 L 7927,12874 7927,12983 7770,12983 7770,12874 Z M 7786,12885 L 7911,12885 7911,12972 7786,12972 7786,12885 Z"/>
             <path fill="rgb(225,225,225)" stroke="none" d="M 7786,12885 L 7911,12885 7911,12972 7786,12972 7786,12885 Z M 7802,12896 L 7895,12896 7895,12961 7802,12961 7802,12896 Z"/>
             <path fill="rgb(226,226,226)" stroke="none" d="M 7802,12896 L 7895,12896 7895,12961 7802,12961 7802,12896 Z M 7817,12907 L 7880,12907 7880,12950 7817,12950 7817,12907 Z"/>
             <path fill="rgb(227,227,227)" stroke="none" d="M 7817,12907 L 7880,12907 7880,12950 7817,12950 7817,12907 Z M 7833,12918 L 7864,12918 7864,12939 7833,12939 7833,12918 Z"/>
             <path fill="rgb(229,229,229)" stroke="none" d="M 7833,12918 L 7864,12918 7864,12939 7833,12939 7833,12918 Z"/>
            </g>
           </pattern>
          </defs>
          <path style="fill:url(#pattern1)" d="M 7378,13697 L 7376,13453 8952,12600 8954,12844 7378,13697 Z"/>
         </g>
         <path fill="none" stroke="rgb(255,255,255)" stroke-width="40" stroke-linejoin="round" d="M 7378,13697 L 7376,13453 8952,12600 8954,12844 7378,13697 Z"/>
        </g>
       </g>
       <g class="com.sun.star.drawing.PolyPolygonShape">
        <g id="id9">
         <rect class="BoundingBox" stroke="none" fill="none" x="6908" y="12336" width="2066" height="1139"/>
         <g>
          <defs>
           <linearGradient id="gradient4" x1="7940" y1="12357" x2="7940" y2="13453" gradientUnits="userSpaceOnUse">
            <stop offset="0.1" style="stop-color:rgb(179,179,179)"/>
            <stop offset="1" style="stop-color:rgb(229,229,229)"/>
           </linearGradient>
          </defs>
          <path style="fill:url(#gradient4)" d="M 7378,13453 L 6929,13210 8503,12357 8952,12600 7378,13453 Z"/>
         </g>
         <path fill="none" stroke="rgb(255,255,255)" stroke-width="40" stroke-linejoin="round" d="M 7378,13453 L 6929,13210 8503,12357 8952,12600 7378,13453 Z"/>
        </g>
       </g>
       <g class="com.sun.star.drawing.PolyPolygonShape">
        <g id="id10">
         <rect class="BoundingBox" stroke="none" fill="none" x="6458" y="8559" width="2740" height="5159"/>
         <g>
          <defs>
           <pattern id="pattern2" x="6478" y="8580" width="2700" height="5118" patternUnits="userSpaceOnUse">
            <g transform="translate(-6478,-8580)">
             <path fill="rgb(179,179,179)" stroke="none" d="M 6477,8579 L 9178,8579 9178,13698 6477,13698 6477,8579 Z M 5964,7607 L 8609,7607 8609,12622 5964,12622 5964,7607 Z"/>
             <path fill="rgb(180,180,180)" stroke="none" d="M 5964,7607 L 8609,7607 8609,12622 5964,12622 5964,7607 Z M 5991,7658 L 8582,7658 8582,12571 5991,12571 5991,7658 Z"/>
             <path fill="rgb(181,181,181)" stroke="none" d="M 5991,7658 L 8582,7658 8582,12571 5991,12571 5991,7658 Z M 6018,7709 L 8555,7709 8555,12520 6018,12520 6018,7709 Z"/>
             <path fill="rgb(182,182,182)" stroke="none" d="M 6018,7709 L 8555,7709 8555,12520 6018,12520 6018,7709 Z M 6045,7760 L 8528,7760 8528,12469 6045,12469 6045,7760 Z"/>
             <path fill="rgb(183,183,183)" stroke="none" d="M 6045,7760 L 8528,7760 8528,12469 6045,12469 6045,7760 Z M 6072,7812 L 8501,7812 8501,12418 6072,12418 6072,7812 Z"/>
             <path fill="rgb(184,184,184)" stroke="none" d="M 6072,7812 L 8501,7812 8501,12418 6072,12418 6072,7812 Z M 6099,7863 L 8474,7863 8474,12366 6099,12366 6099,7863 Z"/>
             <path fill="rgb(185,185,185)" stroke="none" d="M 6099,7863 L 8474,7863 8474,12366 6099,12366 6099,7863 Z M 6126,7914 L 8447,7914 8447,12315 6126,12315 6126,7914 Z"/>
             <path fill="rgb(186,186,186)" stroke="none" d="M 6126,7914 L 8447,7914 8447,12315 6126,12315 6126,7914 Z M 6153,7965 L 8420,7965 8420,12264 6153,12264 6153,7965 Z"/>
             <path fill="rgb(187,187,187)" stroke="none" d="M 6153,7965 L 8420,7965 8420,12264 6153,12264 6153,7965 Z M 6180,8016 L 8393,8016 8393,12213 6180,12213 6180,8016 Z"/>
             <path fill="rgb(188,188,188)" stroke="none" d="M 6180,8016 L 8393,8016 8393,12213 6180,12213 6180,8016 Z M 6207,8068 L 8366,8068 8366,12162 6207,12162 6207,8068 Z"/>
             <path fill="rgb(189,189,189)" stroke="none" d="M 6207,8068 L 8366,8068 8366,12162 6207,12162 6207,8068 Z M 6234,8119 L 8339,8119 8339,12110 6234,12110 6234,8119 Z"/>
             <path fill="rgb(190,190,190)" stroke="none" d="M 6234,8119 L 8339,8119 8339,12110 6234,12110 6234,8119 Z M 6261,8170 L 8312,8170 8312,12059 6261,12059 6261,8170 Z"/>
             <path fill="rgb(191,191,191)" stroke="none" d="M 6261,8170 L 8312,8170 8312,12059 6261,12059 6261,8170 Z M 6288,8221 L 8285,8221 8285,12008 6288,12008 6288,8221 Z"/>
             <path fill="rgb(192,192,192)" stroke="none" d="M 6288,8221 L 8285,8221 8285,12008 6288,12008 6288,8221 Z M 6315,8272 L 8258,8272 8258,11957 6315,11957 6315,8272 Z"/>
             <path fill="rgb(193,193,193)" stroke="none" d="M 6315,8272 L 8258,8272 8258,11957 6315,11957 6315,8272 Z M 6342,8324 L 8231,8324 8231,11906 6342,11906 6342,8324 Z"/>
             <path fill="rgb(194,194,194)" stroke="none" d="M 6342,8324 L 8231,8324 8231,11906 6342,11906 6342,8324 Z M 6369,8375 L 8204,8375 8204,11854 6369,11854 6369,8375 Z"/>
             <path fill="rgb(195,195,195)" stroke="none" d="M 6369,8375 L 8204,8375 8204,11854 6369,11854 6369,8375 Z M 6396,8426 L 8177,8426 8177,11803 6396,11803 6396,8426 Z"/>
             <path fill="rgb(196,196,196)" stroke="none" d="M 6396,8426 L 8177,8426 8177,11803 6396,11803 6396,8426 Z M 6423,8477 L 8150,8477 8150,11752 6423,11752 6423,8477 Z"/>
             <path fill="rgb(197,197,197)" stroke="none" d="M 6423,8477 L 8150,8477 8150,11752 6423,11752 6423,8477 Z M 6450,8528 L 8123,8528 8123,11701 6450,11701 6450,8528 Z"/>
             <path fill="rgb(198,198,198)" stroke="none" d="M 6450,8528 L 8123,8528 8123,11701 6450,11701 6450,8528 Z M 6476,8579 L 8096,8579 8096,11650 6476,11650 6476,8579 Z"/>
             <path fill="rgb(199,199,199)" stroke="none" d="M 6476,8579 L 8096,8579 8096,11650 6476,11650 6476,8579 Z M 6503,8630 L 8069,8630 8069,11598 6503,11598 6503,8630 Z"/>
             <path fill="rgb(200,200,200)" stroke="none" d="M 6503,8630 L 8069,8630 8069,11598 6503,11598 6503,8630 Z M 6530,8681 L 8042,8681 8042,11547 6530,11547 6530,8681 Z"/>
             <path fill="rgb(201,201,201)" stroke="none" d="M 6530,8681 L 8042,8681 8042,11547 6530,11547 6530,8681 Z M 6557,8732 L 8015,8732 8015,11496 6557,11496 6557,8732 Z"/>
             <path fill="rgb(202,202,202)" stroke="none" d="M 6557,8732 L 8015,8732 8015,11496 6557,11496 6557,8732 Z M 6584,8783 L 7988,8783 7988,11445 6584,11445 6584,8783 Z"/>
             <path fill="rgb(203,203,203)" stroke="none" d="M 6584,8783 L 7988,8783 7988,11445 6584,11445 6584,8783 Z M 6611,8835 L 7961,8835 7961,11394 6611,11394 6611,8835 Z"/>
             <path fill="rgb(204,204,204)" stroke="none" d="M 6611,8835 L 7961,8835 7961,11394 6611,11394 6611,8835 Z M 6638,8886 L 7934,8886 7934,11342 6638,11342 6638,8886 Z"/>
             <path fill="rgb(205,205,205)" stroke="none" d="M 6638,8886 L 7934,8886 7934,11342 6638,11342 6638,8886 Z M 6665,8937 L 7907,8937 7907,11291 6665,11291 6665,8937 Z"/>
             <path fill="rgb(206,206,206)" stroke="none" d="M 6665,8937 L 7907,8937 7907,11291 6665,11291 6665,8937 Z M 6692,8988 L 7880,8988 7880,11240 6692,11240 6692,8988 Z"/>
             <path fill="rgb(207,207,207)" stroke="none" d="M 6692,8988 L 7880,8988 7880,11240 6692,11240 6692,8988 Z M 6719,9039 L 7853,9039 7853,11189 6719,11189 6719,9039 Z"/>
             <path fill="rgb(208,208,208)" stroke="none" d="M 6719,9039 L 7853,9039 7853,11189 6719,11189 6719,9039 Z M 6746,9091 L 7826,9091 7826,11138 6746,11138 6746,9091 Z"/>
             <path fill="rgb(209,209,209)" stroke="none" d="M 6746,9091 L 7826,9091 7826,11138 6746,11138 6746,9091 Z M 6773,9142 L 7799,9142 7799,11086 6773,11086 6773,9142 Z"/>
             <path fill="rgb(210,210,210)" stroke="none" d="M 6773,9142 L 7799,9142 7799,11086 6773,11086 6773,9142 Z M 6800,9193 L 7772,9193 7772,11035 6800,11035 6800,9193 Z"/>
             <path fill="rgb(211,211,211)" stroke="none" d="M 6800,9193 L 7772,9193 7772,11035 6800,11035 6800,9193 Z M 6827,9244 L 7745,9244 7745,10984 6827,10984 6827,9244 Z"/>
             <path fill="rgb(212,212,212)" stroke="none" d="M 6827,9244 L 7745,9244 7745,10984 6827,10984 6827,9244 Z M 6854,9295 L 7718,9295 7718,10933 6854,10933 6854,9295 Z"/>
             <path fill="rgb(213,213,213)" stroke="none" d="M 6854,9295 L 7718,9295 7718,10933 6854,10933 6854,9295 Z M 6881,9347 L 7691,9347 7691,10882 6881,10882 6881,9347 Z"/>
             <path fill="rgb(214,214,214)" stroke="none" d="M 6881,9347 L 7691,9347 7691,10882 6881,10882 6881,9347 Z M 6908,9398 L 7664,9398 7664,10830 6908,10830 6908,9398 Z"/>
             <path fill="rgb(215,215,215)" stroke="none" d="M 6908,9398 L 7664,9398 7664,10830 6908,10830 6908,9398 Z M 6935,9449 L 7637,9449 7637,10779 6935,10779 6935,9449 Z"/>
             <path fill="rgb(216,216,216)" stroke="none" d="M 6935,9449 L 7637,9449 7637,10779 6935,10779 6935,9449 Z M 6962,9500 L 7610,9500 7610,10728 6962,10728 6962,9500 Z"/>
             <path fill="rgb(217,217,217)" stroke="none" d="M 6962,9500 L 7610,9500 7610,10728 6962,10728 6962,9500 Z M 6989,9551 L 7583,9551 7583,10677 6989,10677 6989,9551 Z"/>
             <path fill="rgb(218,218,218)" stroke="none" d="M 6989,9551 L 7583,9551 7583,10677 6989,10677 6989,9551 Z M 7016,9603 L 7556,9603 7556,10626 7016,10626 7016,9603 Z"/>
             <path fill="rgb(219,219,219)" stroke="none" d="M 7016,9603 L 7556,9603 7556,10626 7016,10626 7016,9603 Z M 7043,9654 L 7529,9654 7529,10574 7043,10574 7043,9654 Z"/>
             <path fill="rgb(220,220,220)" stroke="none" d="M 7043,9654 L 7529,9654 7529,10574 7043,10574 7043,9654 Z M 7070,9705 L 7502,9705 7502,10523 7070,10523 7070,9705 Z"/>
             <path fill="rgb(221,221,221)" stroke="none" d="M 7070,9705 L 7502,9705 7502,10523 7070,10523 7070,9705 Z M 7097,9756 L 7475,9756 7475,10472 7097,10472 7097,9756 Z"/>
             <path fill="rgb(222,222,222)" stroke="none" d="M 7097,9756 L 7475,9756 7475,10472 7097,10472 7097,9756 Z M 7124,9807 L 7448,9807 7448,10421 7124,10421 7124,9807 Z"/>
             <path fill="rgb(223,223,223)" stroke="none" d="M 7124,9807 L 7448,9807 7448,10421 7124,10421 7124,9807 Z M 7151,9859 L 7421,9859 7421,10370 7151,10370 7151,9859 Z"/>
             <path fill="rgb(224,224,224)" stroke="none" d="M 7151,9859 L 7421,9859 7421,10370 7151,10370 7151,9859 Z M 7178,9910 L 7394,9910 7394,10318 7178,10318 7178,9910 Z"/>
             <path fill="rgb(225,225,225)" stroke="none" d="M 7178,9910 L 7394,9910 7394,10318 7178,10318 7178,9910 Z M 7205,9961 L 7367,9961 7367,10267 7205,10267 7205,9961 Z"/>
             <path fill="rgb(226,226,226)" stroke="none" d="M 7205,9961 L 7367,9961 7367,10267 7205,10267 7205,9961 Z M 7232,10012 L 7340,10012 7340,10216 7232,10216 7232,10012 Z"/>
             <path fill="rgb(227,227,227)" stroke="none" d="M 7232,10012 L 7340,10012 7340,10216 7232,10216 7232,10012 Z M 7259,10063 L 7313,10063 7313,10165 7259,10165 7259,10063 Z"/>
             <path fill="rgb(229,229,229)" stroke="none" d="M 7259,10063 L 7313,10063 7313,10165 7259,10165 7259,10063 Z"/>
            </g>
           </pattern>
          </defs>
          <path style="fill:url(#pattern2)" d="M 6478,13697 L 6478,10042 9177,8580 9177,12235 6478,13697 Z"/>
         </g>
         <path fill="none" stroke="rgb(255,255,255)" stroke-width="40" stroke-linejoin="round" d="M 6478,13697 L 6478,10042 9177,8580 9177,12235 6478,13697 Z"/>
        </g>
       </g>
       <g class="com.sun.star.drawing.PolyPolygonShape">
        <g id="id11">
         <rect class="BoundingBox" stroke="none" fill="none" x="5784" y="8194" width="3414" height="5524"/>
         <path fill="none" stroke="rgb(0,0,0)" stroke-width="40" stroke-linejoin="round" d="M 5805,13331 L 5805,9676 8503,8214 9177,8580 9177,12235 8728,12479 8952,12600 8952,12844 7378,13697 6929,13453 6478,13697 5805,13331 Z"/>
        </g>
       </g>
       <g class="com.sun.star.drawing.PolyPolygonShape">
        <g id="id12">
         <rect class="BoundingBox" stroke="none" fill="none" x="6009" y="11361" width="266" height="408"/>
         <path fill="rgb(102,102,255)" stroke="none" d="M 6029,11626 L 6029,11382 6254,11504 6254,11747 6029,11626 Z"/>
         <path fill="none" stroke="rgb(51,51,51)" stroke-width="40" stroke-linejoin="round" d="M 6029,11626 L 6029,11382 6254,11504 6254,11747 6029,11626 Z"/>
        </g>
       </g>
      </g>
     </g>
     <g class="Group">
      <g class="Group">
       <g class="com.sun.star.drawing.ClosedBezierShape">
        <g id="id13">
         <rect class="BoundingBox" stroke="none" fill="none" x="10745" y="15362" width="999" height="646"/>
         <path fill="rgb(221,221,221)" stroke="none" d="M 10765,15987 C 11005,15987 11722,15786 11722,15634 11722,15483 11699,15382 11460,15382 11460,15533 10761,15533 10765,15987 Z"/>
         <path fill="none" stroke="rgb(221,221,221)" stroke-width="40" stroke-linejoin="round" d="M 10765,15987 C 11005,15987 11722,15786 11722,15634 11722,15483 11699,15382 11460,15382 11460,15533 10761,15533 10765,15987 Z"/>
        </g>
       </g>
       <g class="Group">
        <g class="com.sun.star.drawing.PolyPolygonShape">
         <g id="id14">
          <rect class="BoundingBox" stroke="none" fill="none" x="10393" y="15463" width="477" height="546"/>
          <g>
           <defs>
            <linearGradient id="gradient5" x1="10412" y1="15735" x2="10851" y2="15735" gradientUnits="userSpaceOnUse">
             <stop offset="0.1" style="stop-color:rgb(179,179,179)"/>
             <stop offset="1" style="stop-color:rgb(229,229,229)"/>
            </linearGradient>
           </defs>
           <path style="fill:url(#gradient5)" d="M 10413,15786 L 10500,15483 10849,15685 10762,15988 10413,15786 Z"/>
          </g>
          <path fill="none" stroke="rgb(255,255,255)" stroke-width="40" stroke-linejoin="round" d="M 10413,15786 L 10500,15483 10849,15685 10762,15988 10413,15786 Z"/>
         </g>
        </g>
        <g class="com.sun.star.drawing.PolyPolygonShape">
         <g id="id15">
          <rect class="BoundingBox" stroke="none" fill="none" x="10480" y="15110" width="1001" height="596"/>
          <g>
           <defs>
            <linearGradient id="gradient6" x1="10980" y1="15130" x2="10980" y2="15685" gradientUnits="userSpaceOnUse">
             <stop offset="0.1" style="stop-color:rgb(179,179,179)"/>
             <stop offset="1" style="stop-color:rgb(229,229,229)"/>
            </linearGradient>
           </defs>
           <path style="fill:url(#gradient6)" d="M 10500,15483 L 10675,15332 10936,15180 11111,15130 11460,15332 11286,15382 11024,15534 10849,15685 10500,15483 Z"/>
          </g>
          <path fill="none" stroke="rgb(255,255,255)" stroke-width="40" stroke-linejoin="round" d="M 10500,15483 L 10675,15332 10936,15180 11111,15130 11460,15332 11286,15382 11024,15534 10849,15685 10500,15483 Z"/>
         </g>
        </g>
        <g class="com.sun.star.drawing.ClosedBezierShape">
         <g id="id16">
          <rect class="BoundingBox" stroke="none" fill="none" x="10742" y="15311" width="828" height="697"/>
          <g>
           <defs>
            <pattern id="pattern3" x="10762" y="15331" width="787" height="657" patternUnits="userSpaceOnUse">
             <g transform="translate(-10762,-15331)">
              <path fill="rgb(179,179,179)" stroke="none" d="M 10761,15330 L 11549,15330 11549,15988 10761,15988 10761,15330 Z M 10611,15205 L 11383,15205 11383,15849 10611,15849 10611,15205 Z"/>
              <path fill="rgb(180,180,180)" stroke="none" d="M 10611,15205 L 11383,15205 11383,15849 10611,15849 10611,15205 Z M 10619,15212 L 11375,15212 11375,15842 10619,15842 10619,15212 Z"/>
              <path fill="rgb(181,181,181)" stroke="none" d="M 10619,15212 L 11375,15212 11375,15842 10619,15842 10619,15212 Z M 10627,15218 L 11367,15218 11367,15836 10627,15836 10627,15218 Z"/>
              <path fill="rgb(182,182,182)" stroke="none" d="M 10627,15218 L 11367,15218 11367,15836 10627,15836 10627,15218 Z M 10635,15225 L 11359,15225 11359,15829 10635,15829 10635,15225 Z"/>
              <path fill="rgb(183,183,183)" stroke="none" d="M 10635,15225 L 11359,15225 11359,15829 10635,15829 10635,15225 Z M 10643,15231 L 11351,15231 11351,15823 10643,15823 10643,15231 Z"/>
              <path fill="rgb(184,184,184)" stroke="none" d="M 10643,15231 L 11351,15231 11351,15823 10643,15823 10643,15231 Z M 10651,15238 L 11343,15238 11343,15816 10651,15816 10651,15238 Z"/>
              <path fill="rgb(185,185,185)" stroke="none" d="M 10651,15238 L 11343,15238 11343,15816 10651,15816 10651,15238 Z M 10659,15245 L 11335,15245 11335,15809 10659,15809 10659,15245 Z"/>
              <path fill="rgb(186,186,186)" stroke="none" d="M 10659,15245 L 11335,15245 11335,15809 10659,15809 10659,15245 Z M 10667,15251 L 11327,15251 11327,15803 10667,15803 10667,15251 Z"/>
              <path fill="rgb(187,187,187)" stroke="none" d="M 10667,15251 L 11327,15251 11327,15803 10667,15803 10667,15251 Z M 10675,15258 L 11319,15258 11319,15796 10675,15796 10675,15258 Z"/>
              <path fill="rgb(188,188,188)" stroke="none" d="M 10675,15258 L 11319,15258 11319,15796 10675,15796 10675,15258 Z M 10682,15264 L 11312,15264 11312,15790 10682,15790 10682,15264 Z"/>
              <path fill="rgb(189,189,189)" stroke="none" d="M 10682,15264 L 11312,15264 11312,15790 10682,15790 10682,15264 Z M 10690,15271 L 11304,15271 11304,15783 10690,15783 10690,15271 Z"/>
              <path fill="rgb(190,190,190)" stroke="none" d="M 10690,15271 L 11304,15271 11304,15783 10690,15783 10690,15271 Z M 10698,15278 L 11296,15278 11296,15776 10698,15776 10698,15278 Z"/>
              <path fill="rgb(191,191,191)" stroke="none" d="M 10698,15278 L 11296,15278 11296,15776 10698,15776 10698,15278 Z M 10706,15284 L 11288,15284 11288,15770 10706,15770 10706,15284 Z"/>
              <path fill="rgb(192,192,192)" stroke="none" d="M 10706,15284 L 11288,15284 11288,15770 10706,15770 10706,15284 Z M 10714,15291 L 11280,15291 11280,15763 10714,15763 10714,15291 Z"/>
              <path fill="rgb(193,193,193)" stroke="none" d="M 10714,15291 L 11280,15291 11280,15763 10714,15763 10714,15291 Z M 10722,15297 L 11272,15297 11272,15757 10722,15757 10722,15297 Z"/>
              <path fill="rgb(194,194,194)" stroke="none" d="M 10722,15297 L 11272,15297 11272,15757 10722,15757 10722,15297 Z M 10730,15304 L 11264,15304 11264,15750 10730,15750 10730,15304 Z"/>
              <path fill="rgb(195,195,195)" stroke="none" d="M 10730,15304 L 11264,15304 11264,15750 10730,15750 10730,15304 Z M 10738,15311 L 11256,15311 11256,15743 10738,15743 10738,15311 Z"/>
              <path fill="rgb(196,196,196)" stroke="none" d="M 10738,15311 L 11256,15311 11256,15743 10738,15743 10738,15311 Z M 10745,15316 L 11248,15316 11248,15737 10745,15737 10745,15316 Z"/>
              <path fill="rgb(197,197,197)" stroke="none" d="M 10745,15316 L 11248,15316 11248,15737 10745,15737 10745,15316 Z M 10752,15323 L 11241,15323 11241,15730 10752,15730 10752,15323 Z"/>
              <path fill="rgb(198,198,198)" stroke="none" d="M 10752,15323 L 11241,15323 11241,15730 10752,15730 10752,15323 Z M 10760,15329 L 11233,15329 11233,15724 10760,15724 10760,15329 Z"/>
              <path fill="rgb(199,199,199)" stroke="none" d="M 10760,15329 L 11233,15329 11233,15724 10760,15724 10760,15329 Z M 10768,15336 L 11225,15336 11225,15717 10768,15717 10768,15336 Z"/>
              <path fill="rgb(200,200,200)" stroke="none" d="M 10768,15336 L 11225,15336 11225,15717 10768,15717 10768,15336 Z M 10776,15342 L 11217,15342 11217,15711 10776,15711 10776,15342 Z"/>
              <path fill="rgb(201,201,201)" stroke="none" d="M 10776,15342 L 11217,15342 11217,15711 10776,15711 10776,15342 Z M 10784,15349 L 11209,15349 11209,15704 10784,15704 10784,15349 Z"/>
              <path fill="rgb(202,202,202)" stroke="none" d="M 10784,15349 L 11209,15349 11209,15704 10784,15704 10784,15349 Z M 10792,15356 L 11201,15356 11201,15697 10792,15697 10792,15356 Z"/>
              <path fill="rgb(203,203,203)" stroke="none" d="M 10792,15356 L 11201,15356 11201,15697 10792,15697 10792,15356 Z M 10800,15362 L 11193,15362 11193,15691 10800,15691 10800,15362 Z"/>
              <path fill="rgb(204,204,204)" stroke="none" d="M 10800,15362 L 11193,15362 11193,15691 10800,15691 10800,15362 Z M 10808,15369 L 11185,15369 11185,15684 10808,15684 10808,15369 Z"/>
              <path fill="rgb(205,205,205)" stroke="none" d="M 10808,15369 L 11185,15369 11185,15684 10808,15684 10808,15369 Z M 10816,15375 L 11177,15375 11177,15678 10816,15678 10816,15375 Z"/>
              <path fill="rgb(206,206,206)" stroke="none" d="M 10816,15375 L 11177,15375 11177,15678 10816,15678 10816,15375 Z M 10823,15382 L 11170,15382 11170,15671 10823,15671 10823,15382 Z"/>
              <path fill="rgb(207,207,207)" stroke="none" d="M 10823,15382 L 11170,15382 11170,15671 10823,15671 10823,15382 Z M 10831,15389 L 11162,15389 11162,15664 10831,15664 10831,15389 Z"/>
              <path fill="rgb(208,208,208)" stroke="none" d="M 10831,15389 L 11162,15389 11162,15664 10831,15664 10831,15389 Z M 10839,15395 L 11154,15395 11154,15658 10839,15658 10839,15395 Z"/>
              <path fill="rgb(209,209,209)" stroke="none" d="M 10839,15395 L 11154,15395 11154,15658 10839,15658 10839,15395 Z M 10847,15402 L 11146,15402 11146,15651 10847,15651 10847,15402 Z"/>
              <path fill="rgb(210,210,210)" stroke="none" d="M 10847,15402 L 11146,15402 11146,15651 10847,15651 10847,15402 Z M 10855,15408 L 11138,15408 11138,15645 10855,15645 10855,15408 Z"/>
              <path fill="rgb(211,211,211)" stroke="none" d="M 10855,15408 L 11138,15408 11138,15645 10855,15645 10855,15408 Z M 10863,15415 L 11130,15415 11130,15638 10863,15638 10863,15415 Z"/>
              <path fill="rgb(212,212,212)" stroke="none" d="M 10863,15415 L 11130,15415 11130,15638 10863,15638 10863,15415 Z M 10871,15422 L 11122,15422 11122,15631 10871,15631 10871,15422 Z"/>
              <path fill="rgb(213,213,213)" stroke="none" d="M 10871,15422 L 11122,15422 11122,15631 10871,15631 10871,15422 Z M 10879,15428 L 11114,15428 11114,15625 10879,15625 10879,15428 Z"/>
              <path fill="rgb(214,214,214)" stroke="none" d="M 10879,15428 L 11114,15428 11114,15625 10879,15625 10879,15428 Z M 10887,15435 L 11106,15435 11106,15618 10887,15618 10887,15435 Z"/>
              <path fill="rgb(215,215,215)" stroke="none" d="M 10887,15435 L 11106,15435 11106,15618 10887,15618 10887,15435 Z M 10894,15441 L 11099,15441 11099,15612 10894,15612 10894,15441 Z"/>
              <path fill="rgb(216,216,216)" stroke="none" d="M 10894,15441 L 11099,15441 11099,15612 10894,15612 10894,15441 Z M 10902,15448 L 11091,15448 11091,15605 10902,15605 10902,15448 Z"/>
              <path fill="rgb(217,217,217)" stroke="none" d="M 10902,15448 L 11091,15448 11091,15605 10902,15605 10902,15448 Z M 10910,15455 L 11083,15455 11083,15598 10910,15598 10910,15455 Z"/>
              <path fill="rgb(218,218,218)" stroke="none" d="M 10910,15455 L 11083,15455 11083,15598 10910,15598 10910,15455 Z M 10918,15461 L 11075,15461 11075,15592 10918,15592 10918,15461 Z"/>
              <path fill="rgb(219,219,219)" stroke="none" d="M 10918,15461 L 11075,15461 11075,15592 10918,15592 10918,15461 Z M 10926,15468 L 11067,15468 11067,15585 10926,15585 10926,15468 Z"/>
              <path fill="rgb(220,220,220)" stroke="none" d="M 10926,15468 L 11067,15468 11067,15585 10926,15585 10926,15468 Z M 10934,15474 L 11059,15474 11059,15579 10934,15579 10934,15474 Z"/>
              <path fill="rgb(221,221,221)" stroke="none" d="M 10934,15474 L 11059,15474 11059,15579 10934,15579 10934,15474 Z M 10942,15481 L 11051,15481 11051,15572 10942,15572 10942,15481 Z"/>
              <path fill="rgb(222,222,222)" stroke="none" d="M 10942,15481 L 11051,15481 11051,15572 10942,15572 10942,15481 Z M 10950,15487 L 11043,15487 11043,15566 10950,15566 10950,15487 Z"/>
              <path fill="rgb(223,223,223)" stroke="none" d="M 10950,15487 L 11043,15487 11043,15566 10950,15566 10950,15487 Z M 10958,15494 L 11035,15494 11035,15559 10958,15559 10958,15494 Z"/>
              <path fill="rgb(224,224,224)" stroke="none" d="M 10958,15494 L 11035,15494 11035,15559 10958,15559 10958,15494 Z M 10965,15501 L 11028,15501 11028,15552 10965,15552 10965,15501 Z"/>
              <path fill="rgb(225,225,225)" stroke="none" d="M 10965,15501 L 11028,15501 11028,15552 10965,15552 10965,15501 Z M 10973,15507 L 11020,15507 11020,15546 10973,15546 10973,15507 Z"/>
              <path fill="rgb(226,226,226)" stroke="none" d="M 10973,15507 L 11020,15507 11020,15546 10973,15546 10973,15507 Z M 10981,15514 L 11012,15514 11012,15539 10981,15539 10981,15514 Z"/>
              <path fill="rgb(227,227,227)" stroke="none" d="M 10981,15514 L 11012,15514 11012,15539 10981,15539 10981,15514 Z M 10989,15520 L 11004,15520 11004,15533 10989,15533 10989,15520 Z"/>
              <path fill="rgb(229,229,229)" stroke="none" d="M 10989,15520 L 11004,15520 11004,15533 10989,15533 10989,15520 Z"/>
             </g>
            </pattern>
           </defs>
           <path style="fill:url(#pattern3)" d="M 11548,15533 L 11546,15481 11540,15438 11531,15403 11525,15388 11518,15375 11510,15364 11502,15355 11493,15347 11483,15341 11473,15337 11462,15333 11451,15332 11439,15331 11426,15332 11413,15333 11386,15340 11357,15350 11327,15363 11263,15395 11198,15432 11069,15497 11007,15532 10977,15553 10947,15577 10919,15605 10892,15639 10867,15677 10842,15723 10820,15776 10799,15837 10779,15907 10762,15987 11548,15533 Z"/>
          </g>
          <path fill="none" stroke="rgb(255,255,255)" stroke-width="40" stroke-linejoin="round" d="M 11548,15533 C 11548,15230 11373,15331 11198,15432 11024,15533 10849,15533 10762,15987 10762,15987 11111,15785 11548,15533 Z"/>
         </g>
        </g>
        <g class="com.sun.star.drawing.ClosedBezierShape">
         <g id="id17">
          <rect class="BoundingBox" stroke="none" fill="none" x="10393" y="15110" width="1176" height="899"/>
          <path fill="none" stroke="rgb(0,0,0)" stroke-width="40" stroke-linejoin="round" d="M 11111,15130 C 10937,15180 10937,15180 10762,15281 10675,15332 10500,15382 10413,15786 10588,15887 10588,15887 10762,15988 10862,15942 11373,15635 11548,15534 11548,15281 11373,15281 11111,15130 Z"/>
         </g>
        </g>
       </g>
      </g>
      <g class="Group">
       <g class="com.sun.star.drawing.ClosedBezierShape">
        <g id="id18">
         <rect class="BoundingBox" stroke="none" fill="none" x="9956" y="12940" width="1612" height="1252"/>
         <path fill="rgb(221,221,221)" stroke="none" d="M 9982,14171 C 10221,14171 11547,14120 11547,13666 11547,13212 11092,12960 10852,12960 10852,13111 9894,13061 9982,14171 Z"/>
         <path fill="none" stroke="rgb(221,221,221)" stroke-width="40" stroke-linejoin="round" d="M 9982,14171 C 10221,14171 11547,14120 11547,13666 11547,13212 11092,12960 10852,12960 10852,13111 9894,13061 9982,14171 Z"/>
        </g>
       </g>
       <g class="Group">
        <g class="com.sun.star.drawing.PolyPolygonShape">
         <g id="id19">
          <rect class="BoundingBox" stroke="none" fill="none" x="9083" y="13444" width="914" height="747"/>
          <g>
           <defs>
            <linearGradient id="gradient7" x1="9102" y1="13817" x2="9976" y2="13817" gradientUnits="userSpaceOnUse">
             <stop offset="0.1" style="stop-color:rgb(179,179,179)"/>
             <stop offset="1" style="stop-color:rgb(229,229,229)"/>
            </linearGradient>
           </defs>
           <path style="fill:url(#gradient7)" d="M 9103,13666 L 9103,13464 9976,13969 9976,14170 9103,13666 Z"/>
          </g>
          <path fill="none" stroke="rgb(255,255,255)" stroke-width="40" stroke-linejoin="round" d="M 9103,13666 L 9103,13464 9976,13969 9976,14170 9103,13666 Z"/>
         </g>
        </g>
        <g class="com.sun.star.drawing.PolyPolygonShape">
         <g id="id20">
          <rect class="BoundingBox" stroke="none" fill="none" x="9782" y="12688" width="915" height="899"/>
          <g>
           <defs>
            <linearGradient id="gradient8" x1="9801" y1="13137" x2="10675" y2="13137" gradientUnits="userSpaceOnUse">
             <stop offset="0.1" style="stop-color:rgb(179,179,179)"/>
             <stop offset="1" style="stop-color:rgb(229,229,229)"/>
            </linearGradient>
           </defs>
           <path style="fill:url(#gradient8)" d="M 9802,13061 L 9802,12708 10675,13213 10675,13566 9802,13061 Z"/>
          </g>
          <path fill="none" stroke="rgb(255,255,255)" stroke-width="40" stroke-linejoin="round" d="M 9802,13061 L 9802,12708 10675,13213 10675,13566 9802,13061 Z"/>
         </g>
        </g>
        <g class="com.sun.star.drawing.PolyPolygonShape">
         <g id="id21">
          <rect class="BoundingBox" stroke="none" fill="none" x="9083" y="13041" width="1612" height="950"/>
          <g>
           <defs>
            <linearGradient id="gradient9" x1="9888" y1="13061" x2="9888" y2="13969" gradientUnits="userSpaceOnUse">
             <stop offset="0.1" style="stop-color:rgb(179,179,179)"/>
             <stop offset="1" style="stop-color:rgb(229,229,229)"/>
            </linearGradient>
           </defs>
           <path style="fill:url(#gradient9)" d="M 9103,13465 L 9801,13061 10674,13566 9976,13969 9103,13465 Z"/>
          </g>
          <path fill="none" stroke="rgb(255,255,255)" stroke-width="40" stroke-linejoin="round" d="M 9103,13465 L 9801,13061 10674,13566 9976,13969 9103,13465 Z"/>
         </g>
        </g>
        <g class="com.sun.star.drawing.LineShape">
         <g id="id22">
          <rect class="BoundingBox" stroke="none" fill="none" x="9782" y="13041" width="914" height="546"/>
          <path fill="none" stroke="rgb(127,127,127)" stroke-width="40" stroke-linejoin="round" d="M 9802,13061 L 10675,13566"/>
         </g>
        </g>
        <g class="com.sun.star.drawing.PolyPolygonShape">
         <g id="id23">
          <rect class="BoundingBox" stroke="none" fill="none" x="9956" y="13293" width="914" height="900"/>
          <g>
           <defs>
            <pattern id="pattern4" x="9976" y="13313" width="874" height="859" patternUnits="userSpaceOnUse">
             <g transform="translate(-9976,-13313)">
              <path fill="rgb(179,179,179)" stroke="none" d="M 9975,13312 L 10850,13312 10850,14172 9975,14172 9975,13312 Z M 9808,13149 L 10665,13149 10665,13991 9808,13991 9808,13149 Z"/>
              <path fill="rgb(180,180,180)" stroke="none" d="M 9808,13149 L 10665,13149 10665,13991 9808,13991 9808,13149 Z M 9817,13158 L 10656,13158 10656,13982 9817,13982 9817,13158 Z"/>
              <path fill="rgb(181,181,181)" stroke="none" d="M 9817,13158 L 10656,13158 10656,13982 9817,13982 9817,13158 Z M 9826,13166 L 10647,13166 10647,13974 9826,13974 9826,13166 Z"/>
              <path fill="rgb(182,182,182)" stroke="none" d="M 9826,13166 L 10647,13166 10647,13974 9826,13974 9826,13166 Z M 9835,13175 L 10638,13175 10638,13965 9835,13965 9835,13175 Z"/>
              <path fill="rgb(183,183,183)" stroke="none" d="M 9835,13175 L 10638,13175 10638,13965 9835,13965 9835,13175 Z M 9843,13184 L 10630,13184 10630,13956 9843,13956 9843,13184 Z"/>
              <path fill="rgb(184,184,184)" stroke="none" d="M 9843,13184 L 10630,13184 10630,13956 9843,13956 9843,13184 Z M 9852,13192 L 10621,13192 10621,13948 9852,13948 9852,13192 Z"/>
              <path fill="rgb(185,185,185)" stroke="none" d="M 9852,13192 L 10621,13192 10621,13948 9852,13948 9852,13192 Z M 9861,13201 L 10612,13201 10612,13939 9861,13939 9861,13201 Z"/>
              <path fill="rgb(186,186,186)" stroke="none" d="M 9861,13201 L 10612,13201 10612,13939 9861,13939 9861,13201 Z M 9870,13209 L 10603,13209 10603,13931 9870,13931 9870,13209 Z"/>
              <path fill="rgb(187,187,187)" stroke="none" d="M 9870,13209 L 10603,13209 10603,13931 9870,13931 9870,13209 Z M 9878,13218 L 10595,13218 10595,13922 9878,13922 9878,13218 Z"/>
              <path fill="rgb(188,188,188)" stroke="none" d="M 9878,13218 L 10595,13218 10595,13922 9878,13922 9878,13218 Z M 9887,13227 L 10586,13227 10586,13913 9887,13913 9887,13227 Z"/>
              <path fill="rgb(189,189,189)" stroke="none" d="M 9887,13227 L 10586,13227 10586,13913 9887,13913 9887,13227 Z M 9896,13235 L 10577,13235 10577,13905 9896,13905 9896,13235 Z"/>
              <path fill="rgb(190,190,190)" stroke="none" d="M 9896,13235 L 10577,13235 10577,13905 9896,13905 9896,13235 Z M 9905,13244 L 10568,13244 10568,13896 9905,13896 9905,13244 Z"/>
              <path fill="rgb(191,191,191)" stroke="none" d="M 9905,13244 L 10568,13244 10568,13896 9905,13896 9905,13244 Z M 9913,13252 L 10560,13252 10560,13888 9913,13888 9913,13252 Z"/>
              <path fill="rgb(192,192,192)" stroke="none" d="M 9913,13252 L 10560,13252 10560,13888 9913,13888 9913,13252 Z M 9922,13261 L 10551,13261 10551,13879 9922,13879 9922,13261 Z"/>
              <path fill="rgb(193,193,193)" stroke="none" d="M 9922,13261 L 10551,13261 10551,13879 9922,13879 9922,13261 Z M 9931,13270 L 10542,13270 10542,13870 9931,13870 9931,13270 Z"/>
              <path fill="rgb(194,194,194)" stroke="none" d="M 9931,13270 L 10542,13270 10542,13870 9931,13870 9931,13270 Z M 9940,13278 L 10533,13278 10533,13862 9940,13862 9940,13278 Z"/>
              <path fill="rgb(195,195,195)" stroke="none" d="M 9940,13278 L 10533,13278 10533,13862 9940,13862 9940,13278 Z M 9948,13287 L 10525,13287 10525,13853 9948,13853 9948,13287 Z"/>
              <path fill="rgb(196,196,196)" stroke="none" d="M 9948,13287 L 10525,13287 10525,13853 9948,13853 9948,13287 Z M 9956,13294 L 10516,13294 10516,13845 9956,13845 9956,13294 Z"/>
              <path fill="rgb(197,197,197)" stroke="none" d="M 9956,13294 L 10516,13294 10516,13845 9956,13845 9956,13294 Z M 9965,13303 L 10507,13303 10507,13836 9965,13836 9965,13303 Z"/>
              <path fill="rgb(198,198,198)" stroke="none" d="M 9965,13303 L 10507,13303 10507,13836 9965,13836 9965,13303 Z M 9974,13312 L 10498,13312 10498,13827 9974,13827 9974,13312 Z"/>
              <path fill="rgb(199,199,199)" stroke="none" d="M 9974,13312 L 10498,13312 10498,13827 9974,13827 9974,13312 Z M 9982,13320 L 10490,13320 10490,13819 9982,13819 9982,13320 Z"/>
              <path fill="rgb(200,200,200)" stroke="none" d="M 9982,13320 L 10490,13320 10490,13819 9982,13819 9982,13320 Z M 9991,13329 L 10481,13329 10481,13810 9991,13810 9991,13329 Z"/>
              <path fill="rgb(201,201,201)" stroke="none" d="M 9991,13329 L 10481,13329 10481,13810 9991,13810 9991,13329 Z M 10000,13338 L 10472,13338 10472,13801 10000,13801 10000,13338 Z"/>
              <path fill="rgb(202,202,202)" stroke="none" d="M 10000,13338 L 10472,13338 10472,13801 10000,13801 10000,13338 Z M 10009,13346 L 10463,13346 10463,13793 10009,13793 10009,13346 Z"/>
              <path fill="rgb(203,203,203)" stroke="none" d="M 10009,13346 L 10463,13346 10463,13793 10009,13793 10009,13346 Z M 10017,13355 L 10455,13355 10455,13784 10017,13784 10017,13355 Z"/>
              <path fill="rgb(204,204,204)" stroke="none" d="M 10017,13355 L 10455,13355 10455,13784 10017,13784 10017,13355 Z M 10026,13363 L 10446,13363 10446,13776 10026,13776 10026,13363 Z"/>
              <path fill="rgb(205,205,205)" stroke="none" d="M 10026,13363 L 10446,13363 10446,13776 10026,13776 10026,13363 Z M 10035,13372 L 10437,13372 10437,13767 10035,13767 10035,13372 Z"/>
              <path fill="rgb(206,206,206)" stroke="none" d="M 10035,13372 L 10437,13372 10437,13767 10035,13767 10035,13372 Z M 10044,13381 L 10428,13381 10428,13758 10044,13758 10044,13381 Z"/>
              <path fill="rgb(207,207,207)" stroke="none" d="M 10044,13381 L 10428,13381 10428,13758 10044,13758 10044,13381 Z M 10053,13389 L 10419,13389 10419,13750 10053,13750 10053,13389 Z"/>
              <path fill="rgb(208,208,208)" stroke="none" d="M 10053,13389 L 10419,13389 10419,13750 10053,13750 10053,13389 Z M 10061,13398 L 10411,13398 10411,13741 10061,13741 10061,13398 Z"/>
              <path fill="rgb(209,209,209)" stroke="none" d="M 10061,13398 L 10411,13398 10411,13741 10061,13741 10061,13398 Z M 10070,13406 L 10402,13406 10402,13733 10070,13733 10070,13406 Z"/>
              <path fill="rgb(210,210,210)" stroke="none" d="M 10070,13406 L 10402,13406 10402,13733 10070,13733 10070,13406 Z M 10079,13415 L 10393,13415 10393,13724 10079,13724 10079,13415 Z"/>
              <path fill="rgb(211,211,211)" stroke="none" d="M 10079,13415 L 10393,13415 10393,13724 10079,13724 10079,13415 Z M 10088,13424 L 10384,13424 10384,13715 10088,13715 10088,13424 Z"/>
              <path fill="rgb(212,212,212)" stroke="none" d="M 10088,13424 L 10384,13424 10384,13715 10088,13715 10088,13424 Z M 10096,13432 L 10376,13432 10376,13707 10096,13707 10096,13432 Z"/>
              <path fill="rgb(213,213,213)" stroke="none" d="M 10096,13432 L 10376,13432 10376,13707 10096,13707 10096,13432 Z M 10105,13441 L 10367,13441 10367,13698 10105,13698 10105,13441 Z"/>
              <path fill="rgb(214,214,214)" stroke="none" d="M 10105,13441 L 10367,13441 10367,13698 10105,13698 10105,13441 Z M 10114,13449 L 10358,13449 10358,13690 10114,13690 10114,13449 Z"/>
              <path fill="rgb(215,215,215)" stroke="none" d="M 10114,13449 L 10358,13449 10358,13690 10114,13690 10114,13449 Z M 10123,13458 L 10349,13458 10349,13681 10123,13681 10123,13458 Z"/>
              <path fill="rgb(216,216,216)" stroke="none" d="M 10123,13458 L 10349,13458 10349,13681 10123,13681 10123,13458 Z M 10131,13467 L 10341,13467 10341,13672 10131,13672 10131,13467 Z"/>
              <path fill="rgb(217,217,217)" stroke="none" d="M 10131,13467 L 10341,13467 10341,13672 10131,13672 10131,13467 Z M 10140,13475 L 10332,13475 10332,13664 10140,13664 10140,13475 Z"/>
              <path fill="rgb(218,218,218)" stroke="none" d="M 10140,13475 L 10332,13475 10332,13664 10140,13664 10140,13475 Z M 10149,13484 L 10323,13484 10323,13655 10149,13655 10149,13484 Z"/>
              <path fill="rgb(219,219,219)" stroke="none" d="M 10149,13484 L 10323,13484 10323,13655 10149,13655 10149,13484 Z M 10158,13493 L 10314,13493 10314,13646 10158,13646 10158,13493 Z"/>
              <path fill="rgb(220,220,220)" stroke="none" d="M 10158,13493 L 10314,13493 10314,13646 10158,13646 10158,13493 Z M 10166,13501 L 10306,13501 10306,13638 10166,13638 10166,13501 Z"/>
              <path fill="rgb(221,221,221)" stroke="none" d="M 10166,13501 L 10306,13501 10306,13638 10166,13638 10166,13501 Z M 10175,13510 L 10297,13510 10297,13629 10175,13629 10175,13510 Z"/>
              <path fill="rgb(222,222,222)" stroke="none" d="M 10175,13510 L 10297,13510 10297,13629 10175,13629 10175,13510 Z M 10184,13518 L 10288,13518 10288,13621 10184,13621 10184,13518 Z"/>
              <path fill="rgb(223,223,223)" stroke="none" d="M 10184,13518 L 10288,13518 10288,13621 10184,13621 10184,13518 Z M 10193,13527 L 10279,13527 10279,13612 10193,13612 10193,13527 Z"/>
              <path fill="rgb(224,224,224)" stroke="none" d="M 10193,13527 L 10279,13527 10279,13612 10193,13612 10193,13527 Z M 10201,13536 L 10271,13536 10271,13603 10201,13603 10201,13536 Z"/>
              <path fill="rgb(225,225,225)" stroke="none" d="M 10201,13536 L 10271,13536 10271,13603 10201,13603 10201,13536 Z M 10210,13544 L 10262,13544 10262,13595 10210,13595 10210,13544 Z"/>
              <path fill="rgb(226,226,226)" stroke="none" d="M 10210,13544 L 10262,13544 10262,13595 10210,13595 10210,13544 Z M 10219,13553 L 10253,13553 10253,13586 10219,13586 10219,13553 Z"/>
              <path fill="rgb(227,227,227)" stroke="none" d="M 10219,13553 L 10253,13553 10253,13586 10219,13586 10219,13553 Z M 10228,13561 L 10244,13561 10244,13578 10228,13578 10228,13561 Z"/>
              <path fill="rgb(229,229,229)" stroke="none" d="M 10228,13561 L 10244,13561 10244,13578 10228,13578 10228,13561 Z"/>
             </g>
            </pattern>
           </defs>
           <path style="fill:url(#pattern4)" d="M 9976,14171 L 9976,13969 10674,13565 10674,13313 10849,13414 10849,13666 9976,14171 Z"/>
          </g>
          <path fill="none" stroke="rgb(255,255,255)" stroke-width="40" stroke-linejoin="round" d="M 9976,14171 L 9976,13969 10674,13565 10674,13313 10849,13414 10849,13666 9976,14171 Z"/>
         </g>
        </g>
        <g class="com.sun.star.drawing.PolyPolygonShape">
         <g id="id24">
          <rect class="BoundingBox" stroke="none" fill="none" x="8123" y="9610" width="2834" height="3876"/>
          <g>
           <defs>
            <linearGradient id="gradient10" x1="8142" y1="11547" x2="10937" y2="11547" gradientUnits="userSpaceOnUse">
             <stop offset="0.1" style="stop-color:rgb(179,179,179)"/>
             <stop offset="1" style="stop-color:rgb(229,229,229)"/>
            </linearGradient>
           </defs>
           <path style="fill:url(#gradient10)" d="M 8143,11850 L 8143,9630 10936,11245 10936,13465 8143,11850 Z"/>
          </g>
          <path fill="none" stroke="rgb(255,255,255)" stroke-width="40" stroke-linejoin="round" d="M 8143,11850 L 8143,9630 10936,11245 10936,13465 8143,11850 Z"/>
         </g>
        </g>
        <g class="com.sun.star.drawing.PolyPolygonShape">
         <g id="id25">
          <rect class="BoundingBox" stroke="none" fill="none" x="8211" y="9761" width="2660" height="3574"/>
          <g>
           <defs>
            <linearGradient id="gradient11" x1="8230" y1="11547" x2="10850" y2="11547" gradientUnits="userSpaceOnUse">
             <stop offset="0.1" style="stop-color:rgb(147,212,240)"/>
             <stop offset="1" style="stop-color:rgb(233,246,252)"/>
            </linearGradient>
           </defs>
           <path style="fill:url(#gradient11)" d="M 8231,11799 L 8231,9781 10850,11295 10850,13313 8231,11799 Z"/>
          </g>
          <path fill="none" stroke="rgb(127,127,127)" stroke-width="40" stroke-linejoin="round" d="M 8231,11799 L 8231,9781 10850,11295 10850,13313 8231,11799 Z"/>
         </g>
        </g>
        <g class="com.sun.star.drawing.PolyPolygonShape">
         <g id="id26">
          <rect class="BoundingBox" stroke="none" fill="none" x="8123" y="9509" width="3010" height="1756"/>
          <g>
           <defs>
            <linearGradient id="gradient12" x1="9627" y1="9529" x2="9627" y2="11244" gradientUnits="userSpaceOnUse">
             <stop offset="0.1" style="stop-color:rgb(179,179,179)"/>
             <stop offset="1" style="stop-color:rgb(229,229,229)"/>
            </linearGradient>
           </defs>
           <path style="fill:url(#gradient12)" d="M 10936,11244 L 8143,9630 8318,9529 11111,11144 10936,11244 Z"/>
          </g>
          <path fill="none" stroke="rgb(255,255,255)" stroke-width="40" stroke-linejoin="round" d="M 10936,11244 L 8143,9630 8318,9529 11111,11144 10936,11244 Z"/>
         </g>
        </g>
        <g class="com.sun.star.drawing.PolyPolygonShape">
         <g id="id27">
          <rect class="BoundingBox" stroke="none" fill="none" x="10917" y="11124" width="216" height="2362"/>
          <g>
           <defs>
            <pattern id="pattern5" x="10937" y="11144" width="176" height="2322" patternUnits="userSpaceOnUse">
             <g transform="translate(-10937,-11144)">
              <path fill="rgb(179,179,179)" stroke="none" d="M 10936,11143 L 11113,11143 11113,13466 10936,13466 10936,11143 Z M 10902,10702 L 11075,10702 11075,12977 10902,12977 10902,10702 Z"/>
              <path fill="rgb(180,180,180)" stroke="none" d="M 10902,10702 L 11075,10702 11075,12977 10902,12977 10902,10702 Z M 10904,10725 L 11073,10725 11073,12954 10904,12954 10904,10725 Z"/>
              <path fill="rgb(181,181,181)" stroke="none" d="M 10904,10725 L 11073,10725 11073,12954 10904,12954 10904,10725 Z M 10906,10748 L 11071,10748 11071,12931 10906,12931 10906,10748 Z"/>
              <path fill="rgb(182,182,182)" stroke="none" d="M 10906,10748 L 11071,10748 11071,12931 10906,12931 10906,10748 Z M 10908,10771 L 11069,10771 11069,12908 10908,12908 10908,10771 Z"/>
              <path fill="rgb(183,183,183)" stroke="none" d="M 10908,10771 L 11069,10771 11069,12908 10908,12908 10908,10771 Z M 10909,10795 L 11068,10795 11068,12884 10909,12884 10909,10795 Z"/>
              <path fill="rgb(184,184,184)" stroke="none" d="M 10909,10795 L 11068,10795 11068,12884 10909,12884 10909,10795 Z M 10911,10818 L 11066,10818 11066,12861 10911,12861 10911,10818 Z"/>
              <path fill="rgb(185,185,185)" stroke="none" d="M 10911,10818 L 11066,10818 11066,12861 10911,12861 10911,10818 Z M 10913,10841 L 11064,10841 11064,12838 10913,12838 10913,10841 Z"/>
              <path fill="rgb(186,186,186)" stroke="none" d="M 10913,10841 L 11064,10841 11064,12838 10913,12838 10913,10841 Z M 10915,10864 L 11062,10864 11062,12815 10915,12815 10915,10864 Z"/>
              <path fill="rgb(187,187,187)" stroke="none" d="M 10915,10864 L 11062,10864 11062,12815 10915,12815 10915,10864 Z M 10917,10888 L 11060,10888 11060,12791 10917,12791 10917,10888 Z"/>
              <path fill="rgb(188,188,188)" stroke="none" d="M 10917,10888 L 11060,10888 11060,12791 10917,12791 10917,10888 Z M 10917,10911 L 11059,10911 11059,12768 10917,12768 10917,10911 Z"/>
              <path fill="rgb(189,189,189)" stroke="none" d="M 10917,10911 L 11059,10911 11059,12768 10917,12768 10917,10911 Z M 10919,10934 L 11057,10934 11057,12745 10919,12745 10919,10934 Z"/>
              <path fill="rgb(190,190,190)" stroke="none" d="M 10919,10934 L 11057,10934 11057,12745 10919,12745 10919,10934 Z M 10921,10957 L 11055,10957 11055,12722 10921,12722 10921,10957 Z"/>
              <path fill="rgb(191,191,191)" stroke="none" d="M 10921,10957 L 11055,10957 11055,12722 10921,12722 10921,10957 Z M 10923,10981 L 11053,10981 11053,12698 10923,12698 10923,10981 Z"/>
              <path fill="rgb(192,192,192)" stroke="none" d="M 10923,10981 L 11053,10981 11053,12698 10923,12698 10923,10981 Z M 10924,11004 L 11052,11004 11052,12675 10924,12675 10924,11004 Z"/>
              <path fill="rgb(193,193,193)" stroke="none" d="M 10924,11004 L 11052,11004 11052,12675 10924,12675 10924,11004 Z M 10926,11027 L 11050,11027 11050,12652 10926,12652 10926,11027 Z"/>
              <path fill="rgb(194,194,194)" stroke="none" d="M 10926,11027 L 11050,11027 11050,12652 10926,12652 10926,11027 Z M 10928,11050 L 11048,11050 11048,12629 10928,12629 10928,11050 Z"/>
              <path fill="rgb(195,195,195)" stroke="none" d="M 10928,11050 L 11048,11050 11048,12629 10928,12629 10928,11050 Z M 10930,11074 L 11046,11074 11046,12605 10930,12605 10930,11074 Z"/>
              <path fill="rgb(196,196,196)" stroke="none" d="M 10930,11074 L 11046,11074 11046,12605 10930,12605 10930,11074 Z M 10932,11097 L 11044,11097 11044,12582 10932,12582 10932,11097 Z"/>
              <path fill="rgb(197,197,197)" stroke="none" d="M 10932,11097 L 11044,11097 11044,12582 10932,12582 10932,11097 Z M 10933,11120 L 11043,11120 11043,12559 10933,12559 10933,11120 Z"/>
              <path fill="rgb(198,198,198)" stroke="none" d="M 10933,11120 L 11043,11120 11043,12559 10933,12559 10933,11120 Z M 10935,11142 L 11041,11142 11041,12536 10935,12536 10935,11142 Z"/>
              <path fill="rgb(199,199,199)" stroke="none" d="M 10935,11142 L 11041,11142 11041,12536 10935,12536 10935,11142 Z M 10937,11166 L 11039,11166 11039,12512 10937,12512 10937,11166 Z"/>
              <path fill="rgb(200,200,200)" stroke="none" d="M 10937,11166 L 11039,11166 11039,12512 10937,12512 10937,11166 Z M 10939,11189 L 11037,11189 11037,12489 10939,12489 10939,11189 Z"/>
              <path fill="rgb(201,201,201)" stroke="none" d="M 10939,11189 L 11037,11189 11037,12489 10939,12489 10939,11189 Z M 10940,11212 L 11036,11212 11036,12466 10940,12466 10940,11212 Z"/>
              <path fill="rgb(202,202,202)" stroke="none" d="M 10940,11212 L 11036,11212 11036,12466 10940,12466 10940,11212 Z M 10942,11235 L 11034,11235 11034,12443 10942,12443 10942,11235 Z"/>
              <path fill="rgb(203,203,203)" stroke="none" d="M 10942,11235 L 11034,11235 11034,12443 10942,12443 10942,11235 Z M 10944,11259 L 11032,11259 11032,12419 10944,12419 10944,11259 Z"/>
              <path fill="rgb(204,204,204)" stroke="none" d="M 10944,11259 L 11032,11259 11032,12419 10944,12419 10944,11259 Z M 10946,11282 L 11030,11282 11030,12396 10946,12396 10946,11282 Z"/>
              <path fill="rgb(205,205,205)" stroke="none" d="M 10946,11282 L 11030,11282 11030,12396 10946,12396 10946,11282 Z M 10948,11305 L 11028,11305 11028,12373 10948,12373 10948,11305 Z"/>
              <path fill="rgb(206,206,206)" stroke="none" d="M 10948,11305 L 11028,11305 11028,12373 10948,12373 10948,11305 Z M 10949,11328 L 11027,11328 11027,12350 10949,12350 10949,11328 Z"/>
              <path fill="rgb(207,207,207)" stroke="none" d="M 10949,11328 L 11027,11328 11027,12350 10949,12350 10949,11328 Z M 10951,11351 L 11025,11351 11025,12327 10951,12327 10951,11351 Z"/>
              <path fill="rgb(208,208,208)" stroke="none" d="M 10951,11351 L 11025,11351 11025,12327 10951,12327 10951,11351 Z M 10953,11375 L 11023,11375 11023,12303 10953,12303 10953,11375 Z"/>
              <path fill="rgb(209,209,209)" stroke="none" d="M 10953,11375 L 11023,11375 11023,12303 10953,12303 10953,11375 Z M 10955,11398 L 11021,11398 11021,12280 10955,12280 10955,11398 Z"/>
              <path fill="rgb(210,210,210)" stroke="none" d="M 10955,11398 L 11021,11398 11021,12280 10955,12280 10955,11398 Z M 10956,11421 L 11020,11421 11020,12257 10956,12257 10956,11421 Z"/>
              <path fill="rgb(211,211,211)" stroke="none" d="M 10956,11421 L 11020,11421 11020,12257 10956,12257 10956,11421 Z M 10958,11444 L 11018,11444 11018,12234 10958,12234 10958,11444 Z"/>
              <path fill="rgb(212,212,212)" stroke="none" d="M 10958,11444 L 11018,11444 11018,12234 10958,12234 10958,11444 Z M 10960,11468 L 11016,11468 11016,12210 10960,12210 10960,11468 Z"/>
              <path fill="rgb(213,213,213)" stroke="none" d="M 10960,11468 L 11016,11468 11016,12210 10960,12210 10960,11468 Z M 10962,11491 L 11014,11491 11014,12187 10962,12187 10962,11491 Z"/>
              <path fill="rgb(214,214,214)" stroke="none" d="M 10962,11491 L 11014,11491 11014,12187 10962,12187 10962,11491 Z M 10964,11514 L 11012,11514 11012,12164 10964,12164 10964,11514 Z"/>
              <path fill="rgb(215,215,215)" stroke="none" d="M 10964,11514 L 11012,11514 11012,12164 10964,12164 10964,11514 Z M 10965,11537 L 11011,11537 11011,12141 10965,12141 10965,11537 Z"/>
              <path fill="rgb(216,216,216)" stroke="none" d="M 10965,11537 L 11011,11537 11011,12141 10965,12141 10965,11537 Z M 10967,11561 L 11009,11561 11009,12117 10967,12117 10967,11561 Z"/>
              <path fill="rgb(217,217,217)" stroke="none" d="M 10967,11561 L 11009,11561 11009,12117 10967,12117 10967,11561 Z M 10969,11584 L 11007,11584 11007,12094 10969,12094 10969,11584 Z"/>
              <path fill="rgb(218,218,218)" stroke="none" d="M 10969,11584 L 11007,11584 11007,12094 10969,12094 10969,11584 Z M 10971,11607 L 11005,11607 11005,12071 10971,12071 10971,11607 Z"/>
              <path fill="rgb(219,219,219)" stroke="none" d="M 10971,11607 L 11005,11607 11005,12071 10971,12071 10971,11607 Z M 10972,11630 L 11004,11630 11004,12048 10972,12048 10972,11630 Z"/>
              <path fill="rgb(220,220,220)" stroke="none" d="M 10972,11630 L 11004,11630 11004,12048 10972,12048 10972,11630 Z M 10974,11654 L 11002,11654 11002,12024 10974,12024 10974,11654 Z"/>
              <path fill="rgb(221,221,221)" stroke="none" d="M 10974,11654 L 11002,11654 11002,12024 10974,12024 10974,11654 Z M 10976,11677 L 11000,11677 11000,12001 10976,12001 10976,11677 Z"/>
              <path fill="rgb(222,222,222)" stroke="none" d="M 10976,11677 L 11000,11677 11000,12001 10976,12001 10976,11677 Z M 10978,11700 L 10998,11700 10998,11978 10978,11978 10978,11700 Z"/>
              <path fill="rgb(223,223,223)" stroke="none" d="M 10978,11700 L 10998,11700 10998,11978 10978,11978 10978,11700 Z M 10980,11723 L 10996,11723 10996,11955 10980,11955 10980,11723 Z"/>
              <path fill="rgb(224,224,224)" stroke="none" d="M 10980,11723 L 10996,11723 10996,11955 10980,11955 10980,11723 Z M 10981,11747 L 10995,11747 10995,11931 10981,11931 10981,11747 Z"/>
              <path fill="rgb(225,225,225)" stroke="none" d="M 10981,11747 L 10995,11747 10995,11931 10981,11931 10981,11747 Z M 10983,11770 L 10993,11770 10993,11908 10983,11908 10983,11770 Z"/>
              <path fill="rgb(226,226,226)" stroke="none" d="M 10983,11770 L 10993,11770 10993,11908 10983,11908 10983,11770 Z M 10985,11793 L 10991,11793 10991,11885 10985,11885 10985,11793 Z"/>
              <path fill="rgb(227,227,227)" stroke="none" d="M 10985,11793 L 10991,11793 10991,11885 10985,11885 10985,11793 Z M 10987,11816 L 10989,11816 10989,11862 10987,11862 10987,11816 Z"/>
              <path fill="rgb(229,229,229)" stroke="none" d="M 10987,11816 L 10989,11816 10989,11862 10987,11862 10987,11816 Z"/>
             </g>
            </pattern>
           </defs>
           <path style="fill:url(#pattern5)" d="M 10937,13465 L 10937,11245 11112,11144 11112,13364 10937,13465 Z"/>
          </g>
          <path fill="none" stroke="rgb(255,255,255)" stroke-width="40" stroke-linejoin="round" d="M 10937,13465 L 10937,11245 11112,11144 11112,13364 10937,13465 Z"/>
         </g>
        </g>
        <g class="com.sun.star.drawing.PolyPolygonShape">
         <g id="id28">
          <rect class="BoundingBox" stroke="none" fill="none" x="8123" y="9509" width="3010" height="4683"/>
          <path fill="none" stroke="rgb(0,0,0)" stroke-width="40" stroke-linejoin="round" d="M 8318,9529 L 11111,11144 11111,13364 10936,13464 10849,13414 10849,13666 9976,14171 9103,13666 9103,13464 9801,13061 9801,12809 8143,11850 8143,9630 8318,9529 Z"/>
         </g>
        </g>
       </g>
      </g>
      <g class="Group">
       <g class="com.sun.star.drawing.ClosedBezierShape">
        <g id="id29">
         <rect class="BoundingBox" stroke="none" fill="none" x="9605" y="14807" width="1179" height="646"/>
         <path fill="rgb(221,221,221)" stroke="none" d="M 9631,15432 C 9871,15432 10762,15180 10762,15029 10762,14877 10740,14827 10500,14827 10500,14978 9540,14928 9631,15432 Z"/>
         <path fill="none" stroke="rgb(221,221,221)" stroke-width="40" stroke-linejoin="round" d="M 9631,15432 C 9871,15432 10762,15180 10762,15029 10762,14877 10740,14827 10500,14827 10500,14978 9540,14928 9631,15432 Z"/>
        </g>
       </g>
       <g class="Group">
        <g class="com.sun.star.drawing.PolyPolygonShape">
         <g id="id30">
          <rect class="BoundingBox" stroke="none" fill="none" x="6813" y="13091" width="3795" height="2211"/>
          <g>
           <defs>
            <linearGradient id="gradient13" x1="8710" y1="13111" x2="8710" y2="15281" gradientUnits="userSpaceOnUse">
             <stop offset="0.1" style="stop-color:rgb(179,179,179)"/>
             <stop offset="1" style="stop-color:rgb(229,229,229)"/>
            </linearGradient>
           </defs>
           <path style="fill:url(#gradient13)" d="M 9627,15281 L 6834,13666 7794,13111 10587,14726 9627,15281 Z"/>
          </g>
          <path fill="none" stroke="rgb(255,255,255)" stroke-width="40" stroke-linejoin="round" d="M 9627,15281 L 6834,13666 7794,13111 10587,14726 9627,15281 Z"/>
         </g>
        </g>
        <g class="com.sun.star.drawing.PolyPolygonShape">
         <g id="id31">
          <rect class="BoundingBox" stroke="none" fill="none" x="7076" y="13243" width="2572" height="1505"/>
          <path fill="rgb(127,127,127)" stroke="none" d="M 7096,13667 L 7794,13263 9627,14323 8929,14726 7096,13667 Z"/>
          <path fill="none" stroke="rgb(255,255,255)" stroke-width="40" stroke-linejoin="round" d="M 7096,13667 L 7794,13263 9627,14323 8929,14726 7096,13667 Z"/>
         </g>
        </g>
        <g class="com.sun.star.drawing.PolyPolygonShape">
         <g id="id32">
          <rect class="BoundingBox" stroke="none" fill="none" x="9083" y="14403" width="1263" height="747"/>
          <path fill="rgb(127,127,127)" stroke="none" d="M 9103,14827 L 9801,14423 10325,14726 9627,15129 9103,14827 Z"/>
          <path fill="none" stroke="rgb(255,255,255)" stroke-width="40" stroke-linejoin="round" d="M 9103,14827 L 9801,14423 10325,14726 9627,15129 9103,14827 Z"/>
         </g>
        </g>
        <g class="com.sun.star.drawing.PolyPolygonShape">
         <g id="id33">
          <rect class="BoundingBox" stroke="none" fill="none" x="9607" y="14706" width="1001" height="798"/>
          <g>
           <defs>
            <pattern id="pattern6" x="9627" y="14726" width="961" height="758" patternUnits="userSpaceOnUse">
             <g transform="translate(-9627,-14726)">
              <path fill="rgb(179,179,179)" stroke="none" d="M 9626,14725 L 10588,14725 10588,15484 9626,15484 9626,14725 Z M 9443,14581 L 10385,14581 10385,15324 9443,15324 9443,14581 Z"/>
              <path fill="rgb(180,180,180)" stroke="none" d="M 9443,14581 L 10385,14581 10385,15324 9443,15324 9443,14581 Z M 9453,14589 L 10375,14589 10375,15316 9453,15316 9453,14589 Z"/>
              <path fill="rgb(181,181,181)" stroke="none" d="M 9453,14589 L 10375,14589 10375,15316 9453,15316 9453,14589 Z M 9462,14596 L 10366,14596 10366,15309 9462,15309 9462,14596 Z"/>
              <path fill="rgb(182,182,182)" stroke="none" d="M 9462,14596 L 10366,14596 10366,15309 9462,15309 9462,14596 Z M 9472,14604 L 10356,14604 10356,15301 9472,15301 9472,14604 Z"/>
              <path fill="rgb(183,183,183)" stroke="none" d="M 9472,14604 L 10356,14604 10356,15301 9472,15301 9472,14604 Z M 9482,14611 L 10346,14611 10346,15293 9482,15293 9482,14611 Z"/>
              <path fill="rgb(184,184,184)" stroke="none" d="M 9482,14611 L 10346,14611 10346,15293 9482,15293 9482,14611 Z M 9491,14619 L 10337,14619 10337,15286 9491,15286 9491,14619 Z"/>
              <path fill="rgb(185,185,185)" stroke="none" d="M 9491,14619 L 10337,14619 10337,15286 9491,15286 9491,14619 Z M 9501,14627 L 10327,14627 10327,15278 9501,15278 9501,14627 Z"/>
              <path fill="rgb(186,186,186)" stroke="none" d="M 9501,14627 L 10327,14627 10327,15278 9501,15278 9501,14627 Z M 9511,14634 L 10317,14634 10317,15271 9511,15271 9511,14634 Z"/>
              <path fill="rgb(187,187,187)" stroke="none" d="M 9511,14634 L 10317,14634 10317,15271 9511,15271 9511,14634 Z M 9520,14642 L 10308,14642 10308,15263 9520,15263 9520,14642 Z"/>
              <path fill="rgb(188,188,188)" stroke="none" d="M 9520,14642 L 10308,14642 10308,15263 9520,15263 9520,14642 Z M 9530,14649 L 10298,14649 10298,15255 9530,15255 9530,14649 Z"/>
              <path fill="rgb(189,189,189)" stroke="none" d="M 9530,14649 L 10298,14649 10298,15255 9530,15255 9530,14649 Z M 9539,14657 L 10289,14657 10289,15248 9539,15248 9539,14657 Z"/>
              <path fill="rgb(190,190,190)" stroke="none" d="M 9539,14657 L 10289,14657 10289,15248 9539,15248 9539,14657 Z M 9549,14665 L 10279,14665 10279,15240 9549,15240 9549,14665 Z"/>
              <path fill="rgb(191,191,191)" stroke="none" d="M 9549,14665 L 10279,14665 10279,15240 9549,15240 9549,14665 Z M 9559,14672 L 10269,14672 10269,15233 9559,15233 9559,14672 Z"/>
              <path fill="rgb(192,192,192)" stroke="none" d="M 9559,14672 L 10269,14672 10269,15233 9559,15233 9559,14672 Z M 9568,14680 L 10260,14680 10260,15225 9568,15225 9568,14680 Z"/>
              <path fill="rgb(193,193,193)" stroke="none" d="M 9568,14680 L 10260,14680 10260,15225 9568,15225 9568,14680 Z M 9578,14687 L 10250,14687 10250,15217 9578,15217 9578,14687 Z"/>
              <path fill="rgb(194,194,194)" stroke="none" d="M 9578,14687 L 10250,14687 10250,15217 9578,15217 9578,14687 Z M 9588,14695 L 10240,14695 10240,15210 9588,15210 9588,14695 Z"/>
              <path fill="rgb(195,195,195)" stroke="none" d="M 9588,14695 L 10240,14695 10240,15210 9588,15210 9588,14695 Z M 9597,14703 L 10231,14703 10231,15202 9597,15202 9597,14703 Z"/>
              <path fill="rgb(196,196,196)" stroke="none" d="M 9597,14703 L 10231,14703 10231,15202 9597,15202 9597,14703 Z M 9607,14709 L 10221,14709 10221,15195 9607,15195 9607,14709 Z"/>
              <path fill="rgb(197,197,197)" stroke="none" d="M 9607,14709 L 10221,14709 10221,15195 9607,15195 9607,14709 Z M 9615,14717 L 10212,14717 10212,15187 9615,15187 9615,14717 Z"/>
              <path fill="rgb(198,198,198)" stroke="none" d="M 9615,14717 L 10212,14717 10212,15187 9615,15187 9615,14717 Z M 9625,14724 L 10202,14724 10202,15179 9625,15179 9625,14724 Z"/>
              <path fill="rgb(199,199,199)" stroke="none" d="M 9625,14724 L 10202,14724 10202,15179 9625,15179 9625,14724 Z M 9635,14732 L 10192,14732 10192,15172 9635,15172 9635,14732 Z"/>
              <path fill="rgb(200,200,200)" stroke="none" d="M 9635,14732 L 10192,14732 10192,15172 9635,15172 9635,14732 Z M 9644,14740 L 10183,14740 10183,15164 9644,15164 9644,14740 Z"/>
              <path fill="rgb(201,201,201)" stroke="none" d="M 9644,14740 L 10183,14740 10183,15164 9644,15164 9644,14740 Z M 9654,14747 L 10173,14747 10173,15157 9654,15157 9654,14747 Z"/>
              <path fill="rgb(202,202,202)" stroke="none" d="M 9654,14747 L 10173,14747 10173,15157 9654,15157 9654,14747 Z M 9664,14755 L 10163,14755 10163,15149 9664,15149 9664,14755 Z"/>
              <path fill="rgb(203,203,203)" stroke="none" d="M 9664,14755 L 10163,14755 10163,15149 9664,15149 9664,14755 Z M 9673,14762 L 10154,14762 10154,15141 9673,15141 9673,14762 Z"/>
              <path fill="rgb(204,204,204)" stroke="none" d="M 9673,14762 L 10154,14762 10154,15141 9673,15141 9673,14762 Z M 9683,14770 L 10144,14770 10144,15134 9683,15134 9683,14770 Z"/>
              <path fill="rgb(205,205,205)" stroke="none" d="M 9683,14770 L 10144,14770 10144,15134 9683,15134 9683,14770 Z M 9693,14778 L 10134,14778 10134,15126 9693,15126 9693,14778 Z"/>
              <path fill="rgb(206,206,206)" stroke="none" d="M 9693,14778 L 10134,14778 10134,15126 9693,15126 9693,14778 Z M 9702,14785 L 10125,14785 10125,15119 9702,15119 9702,14785 Z"/>
              <path fill="rgb(207,207,207)" stroke="none" d="M 9702,14785 L 10125,14785 10125,15119 9702,15119 9702,14785 Z M 9712,14793 L 10115,14793 10115,15111 9712,15111 9712,14793 Z"/>
              <path fill="rgb(208,208,208)" stroke="none" d="M 9712,14793 L 10115,14793 10115,15111 9712,15111 9712,14793 Z M 9721,14800 L 10106,14800 10106,15103 9721,15103 9721,14800 Z"/>
              <path fill="rgb(209,209,209)" stroke="none" d="M 9721,14800 L 10106,14800 10106,15103 9721,15103 9721,14800 Z M 9731,14808 L 10096,14808 10096,15096 9731,15096 9731,14808 Z"/>
              <path fill="rgb(210,210,210)" stroke="none" d="M 9731,14808 L 10096,14808 10096,15096 9731,15096 9731,14808 Z M 9741,14816 L 10086,14816 10086,15088 9741,15088 9741,14816 Z"/>
              <path fill="rgb(211,211,211)" stroke="none" d="M 9741,14816 L 10086,14816 10086,15088 9741,15088 9741,14816 Z M 9750,14823 L 10077,14823 10077,15081 9750,15081 9750,14823 Z"/>
              <path fill="rgb(212,212,212)" stroke="none" d="M 9750,14823 L 10077,14823 10077,15081 9750,15081 9750,14823 Z M 9760,14831 L 10067,14831 10067,15073 9760,15073 9760,14831 Z"/>
              <path fill="rgb(213,213,213)" stroke="none" d="M 9760,14831 L 10067,14831 10067,15073 9760,15073 9760,14831 Z M 9770,14838 L 10057,14838 10057,15065 9770,15065 9770,14838 Z"/>
              <path fill="rgb(214,214,214)" stroke="none" d="M 9770,14838 L 10057,14838 10057,15065 9770,15065 9770,14838 Z M 9779,14846 L 10048,14846 10048,15058 9779,15058 9779,14846 Z"/>
              <path fill="rgb(215,215,215)" stroke="none" d="M 9779,14846 L 10048,14846 10048,15058 9779,15058 9779,14846 Z M 9789,14854 L 10038,14854 10038,15050 9789,15050 9789,14854 Z"/>
              <path fill="rgb(216,216,216)" stroke="none" d="M 9789,14854 L 10038,14854 10038,15050 9789,15050 9789,14854 Z M 9798,14861 L 10029,14861 10029,15043 9798,15043 9798,14861 Z"/>
              <path fill="rgb(217,217,217)" stroke="none" d="M 9798,14861 L 10029,14861 10029,15043 9798,15043 9798,14861 Z M 9808,14869 L 10019,14869 10019,15035 9808,15035 9808,14869 Z"/>
              <path fill="rgb(218,218,218)" stroke="none" d="M 9808,14869 L 10019,14869 10019,15035 9808,15035 9808,14869 Z M 9818,14876 L 10009,14876 10009,15027 9818,15027 9818,14876 Z"/>
              <path fill="rgb(219,219,219)" stroke="none" d="M 9818,14876 L 10009,14876 10009,15027 9818,15027 9818,14876 Z M 9827,14884 L 10000,14884 10000,15020 9827,15020 9827,14884 Z"/>
              <path fill="rgb(220,220,220)" stroke="none" d="M 9827,14884 L 10000,14884 10000,15020 9827,15020 9827,14884 Z M 9837,14892 L 9990,14892 9990,15012 9837,15012 9837,14892 Z"/>
              <path fill="rgb(221,221,221)" stroke="none" d="M 9837,14892 L 9990,14892 9990,15012 9837,15012 9837,14892 Z M 9847,14899 L 9980,14899 9980,15005 9847,15005 9847,14899 Z"/>
              <path fill="rgb(222,222,222)" stroke="none" d="M 9847,14899 L 9980,14899 9980,15005 9847,15005 9847,14899 Z M 9856,14907 L 9971,14907 9971,14997 9856,14997 9856,14907 Z"/>
              <path fill="rgb(223,223,223)" stroke="none" d="M 9856,14907 L 9971,14907 9971,14997 9856,14997 9856,14907 Z M 9866,14914 L 9961,14914 9961,14989 9866,14989 9866,14914 Z"/>
              <path fill="rgb(224,224,224)" stroke="none" d="M 9866,14914 L 9961,14914 9961,14989 9866,14989 9866,14914 Z M 9875,14922 L 9952,14922 9952,14982 9875,14982 9875,14922 Z"/>
              <path fill="rgb(225,225,225)" stroke="none" d="M 9875,14922 L 9952,14922 9952,14982 9875,14982 9875,14922 Z M 9885,14930 L 9942,14930 9942,14974 9885,14974 9885,14930 Z"/>
              <path fill="rgb(226,226,226)" stroke="none" d="M 9885,14930 L 9942,14930 9942,14974 9885,14974 9885,14930 Z M 9895,14937 L 9932,14937 9932,14967 9895,14967 9895,14937 Z"/>
              <path fill="rgb(227,227,227)" stroke="none" d="M 9895,14937 L 9932,14937 9932,14967 9895,14967 9895,14937 Z M 9904,14945 L 9923,14945 9923,14959 9904,14959 9904,14945 Z"/>
              <path fill="rgb(229,229,229)" stroke="none" d="M 9904,14945 L 9923,14945 9923,14959 9904,14959 9904,14945 Z"/>
             </g>
            </pattern>
           </defs>
           <path style="fill:url(#pattern6)" d="M 9627,15483 L 9627,15281 10587,14726 10587,14928 9627,15483 Z"/>
          </g>
          <path fill="none" stroke="rgb(255,255,255)" stroke-width="40" stroke-linejoin="round" d="M 9627,15483 L 9627,15281 10587,14726 10587,14928 9627,15483 Z"/>
         </g>
        </g>
        <g class="com.sun.star.drawing.LineShape">
         <g id="id34">
          <rect class="BoundingBox" stroke="none" fill="none" x="7250" y="13545" width="1874" height="1101"/>
          <path fill="none" stroke="rgb(229,229,229)" stroke-width="40" stroke-linejoin="round" d="M 7270,13565 L 9103,14625"/>
         </g>
        </g>
        <g class="com.sun.star.drawing.LineShape">
         <g id="id35">
          <rect class="BoundingBox" stroke="none" fill="none" x="7425" y="13444" width="1874" height="1101"/>
          <path fill="none" stroke="rgb(229,229,229)" stroke-width="40" stroke-linejoin="round" d="M 7445,13464 L 9278,14524"/>
         </g>
        </g>
        <g class="com.sun.star.drawing.LineShape">
         <g id="id36">
          <rect class="BoundingBox" stroke="none" fill="none" x="7600" y="13344" width="1874" height="1101"/>
          <path fill="none" stroke="rgb(229,229,229)" stroke-width="40" stroke-linejoin="round" d="M 7620,13364 L 9453,14424"/>
         </g>
        </g>
        <g class="com.sun.star.drawing.LineShape">
         <g id="id37">
          <rect class="BoundingBox" stroke="none" fill="none" x="9258" y="14201" width="216" height="142"/>
          <path fill="none" stroke="rgb(229,229,229)" stroke-width="40" stroke-linejoin="round" d="M 9278,14322 L 9453,14221"/>
         </g>
        </g>
        <g class="com.sun.star.drawing.LineShape">
         <g id="id38">
          <rect class="BoundingBox" stroke="none" fill="none" x="9083" y="14100" width="216" height="142"/>
          <path fill="none" stroke="rgb(229,229,229)" stroke-width="40" stroke-linejoin="round" d="M 9103,14221 L 9278,14120"/>
         </g>
        </g>
        <g class="com.sun.star.drawing.LineShape">
         <g id="id39">
          <rect class="BoundingBox" stroke="none" fill="none" x="8909" y="14000" width="216" height="142"/>
          <path fill="none" stroke="rgb(229,229,229)" stroke-width="40" stroke-linejoin="round" d="M 8929,14121 L 9104,14020"/>
         </g>
        </g>
        <g class="com.sun.star.drawing.LineShape">
         <g id="id40">
          <rect class="BoundingBox" stroke="none" fill="none" x="8996" y="14252" width="216" height="142"/>
          <path fill="none" stroke="rgb(229,229,229)" stroke-width="40" stroke-linejoin="round" d="M 9016,14373 L 9191,14272"/>
         </g>
        </g>
        <g class="com.sun.star.drawing.LineShape">
         <g id="id41">
          <rect class="BoundingBox" stroke="none" fill="none" x="8822" y="14151" width="216" height="142"/>
          <path fill="none" stroke="rgb(229,229,229)" stroke-width="40" stroke-linejoin="round" d="M 8842,14272 L 9017,14171"/>
         </g>
        </g>
        <g class="com.sun.star.drawing.LineShape">
         <g id="id42">
          <rect class="BoundingBox" stroke="none" fill="none" x="8647" y="14050" width="216" height="142"/>
          <path fill="none" stroke="rgb(229,229,229)" stroke-width="40" stroke-linejoin="round" d="M 8667,14171 L 8842,14070"/>
         </g>
        </g>
        <g class="com.sun.star.drawing.LineShape">
         <g id="id43">
          <rect class="BoundingBox" stroke="none" fill="none" x="8734" y="13899" width="216" height="142"/>
          <path fill="none" stroke="rgb(229,229,229)" stroke-width="40" stroke-linejoin="round" d="M 8754,14020 L 8929,13919"/>
         </g>
        </g>
        <g class="com.sun.star.drawing.LineShape">
         <g id="id44">
          <rect class="BoundingBox" stroke="none" fill="none" x="8472" y="13949" width="216" height="142"/>
          <path fill="none" stroke="rgb(229,229,229)" stroke-width="40" stroke-linejoin="round" d="M 8492,14070 L 8667,13969"/>
         </g>
        </g>
        <g class="com.sun.star.drawing.LineShape">
         <g id="id45">
          <rect class="BoundingBox" stroke="none" fill="none" x="8560" y="13798" width="216" height="142"/>
          <path fill="none" stroke="rgb(229,229,229)" stroke-width="40" stroke-linejoin="round" d="M 8580,13919 L 8755,13818"/>
         </g>
        </g>
        <g class="com.sun.star.drawing.LineShape">
         <g id="id46">
          <rect class="BoundingBox" stroke="none" fill="none" x="8385" y="13697" width="216" height="142"/>
          <path fill="none" stroke="rgb(229,229,229)" stroke-width="40" stroke-linejoin="round" d="M 8405,13818 L 8580,13717"/>
         </g>
        </g>
        <g class="com.sun.star.drawing.LineShape">
         <g id="id47">
          <rect class="BoundingBox" stroke="none" fill="none" x="8211" y="13596" width="216" height="142"/>
          <path fill="none" stroke="rgb(229,229,229)" stroke-width="40" stroke-linejoin="round" d="M 8231,13717 L 8406,13616"/>
         </g>
        </g>
        <g class="com.sun.star.drawing.LineShape">
         <g id="id48">
          <rect class="BoundingBox" stroke="none" fill="none" x="8298" y="13848" width="216" height="142"/>
          <path fill="none" stroke="rgb(229,229,229)" stroke-width="40" stroke-linejoin="round" d="M 8318,13969 L 8493,13868"/>
         </g>
        </g>
        <g class="com.sun.star.drawing.LineShape">
         <g id="id49">
          <rect class="BoundingBox" stroke="none" fill="none" x="8123" y="13747" width="216" height="142"/>
          <path fill="none" stroke="rgb(229,229,229)" stroke-width="40" stroke-linejoin="round" d="M 8143,13868 L 8318,13767"/>
         </g>
        </g>
        <g class="com.sun.star.drawing.LineShape">
         <g id="id50">
          <rect class="BoundingBox" stroke="none" fill="none" x="7949" y="13646" width="216" height="142"/>
          <path fill="none" stroke="rgb(229,229,229)" stroke-width="40" stroke-linejoin="round" d="M 7969,13767 L 8144,13666"/>
         </g>
        </g>
        <g class="com.sun.star.drawing.LineShape">
         <g id="id51">
          <rect class="BoundingBox" stroke="none" fill="none" x="8036" y="13495" width="216" height="142"/>
          <path fill="none" stroke="rgb(229,229,229)" stroke-width="40" stroke-linejoin="round" d="M 8056,13616 L 8231,13515"/>
         </g>
        </g>
        <g class="com.sun.star.drawing.LineShape">
         <g id="id52">
          <rect class="BoundingBox" stroke="none" fill="none" x="7774" y="13545" width="216" height="142"/>
          <path fill="none" stroke="rgb(229,229,229)" stroke-width="40" stroke-linejoin="round" d="M 7794,13666 L 7969,13565"/>
         </g>
        </g>
        <g class="com.sun.star.drawing.LineShape">
         <g id="id53">
          <rect class="BoundingBox" stroke="none" fill="none" x="7861" y="13394" width="216" height="142"/>
          <path fill="none" stroke="rgb(229,229,229)" stroke-width="40" stroke-linejoin="round" d="M 7881,13515 L 8056,13414"/>
         </g>
        </g>
        <g class="com.sun.star.drawing.LineShape">
         <g id="id54">
          <rect class="BoundingBox" stroke="none" fill="none" x="7687" y="13293" width="216" height="142"/>
          <path fill="none" stroke="rgb(229,229,229)" stroke-width="40" stroke-linejoin="round" d="M 7707,13414 L 7882,13313"/>
         </g>
        </g>
        <g class="com.sun.star.drawing.LineShape">
         <g id="id55">
          <rect class="BoundingBox" stroke="none" fill="none" x="7600" y="13444" width="216" height="142"/>
          <path fill="none" stroke="rgb(229,229,229)" stroke-width="40" stroke-linejoin="round" d="M 7620,13565 L 7795,13464"/>
         </g>
        </g>
        <g class="com.sun.star.drawing.LineShape">
         <g id="id56">
          <rect class="BoundingBox" stroke="none" fill="none" x="8734" y="14302" width="216" height="142"/>
          <path fill="none" stroke="rgb(229,229,229)" stroke-width="40" stroke-linejoin="round" d="M 8754,14423 L 8929,14322"/>
         </g>
        </g>
        <g class="com.sun.star.drawing.LineShape">
         <g id="id57">
          <rect class="BoundingBox" stroke="none" fill="none" x="8560" y="14201" width="216" height="142"/>
          <path fill="none" stroke="rgb(229,229,229)" stroke-width="40" stroke-linejoin="round" d="M 8580,14322 L 8755,14221"/>
         </g>
        </g>
        <g class="com.sun.star.drawing.LineShape">
         <g id="id58">
          <rect class="BoundingBox" stroke="none" fill="none" x="8385" y="14100" width="216" height="142"/>
          <path fill="none" stroke="rgb(229,229,229)" stroke-width="40" stroke-linejoin="round" d="M 8405,14221 L 8580,14120"/>
         </g>
        </g>
        <g class="com.sun.star.drawing.LineShape">
         <g id="id59">
          <rect class="BoundingBox" stroke="none" fill="none" x="8298" y="14252" width="216" height="142"/>
          <path fill="none" stroke="rgb(229,229,229)" stroke-width="40" stroke-linejoin="round" d="M 8318,14373 L 8493,14272"/>
         </g>
        </g>
        <g class="com.sun.star.drawing.LineShape">
         <g id="id60">
          <rect class="BoundingBox" stroke="none" fill="none" x="8123" y="14151" width="216" height="142"/>
          <path fill="none" stroke="rgb(229,229,229)" stroke-width="40" stroke-linejoin="round" d="M 8143,14272 L 8318,14171"/>
         </g>
        </g>
        <g class="com.sun.star.drawing.LineShape">
         <g id="id61">
          <rect class="BoundingBox" stroke="none" fill="none" x="8211" y="14000" width="216" height="142"/>
          <path fill="none" stroke="rgb(229,229,229)" stroke-width="40" stroke-linejoin="round" d="M 8231,14121 L 8406,14020"/>
         </g>
        </g>
        <g class="com.sun.star.drawing.LineShape">
         <g id="id62">
          <rect class="BoundingBox" stroke="none" fill="none" x="8036" y="13899" width="216" height="142"/>
          <path fill="none" stroke="rgb(229,229,229)" stroke-width="40" stroke-linejoin="round" d="M 8056,14020 L 8231,13919"/>
         </g>
        </g>
        <g class="com.sun.star.drawing.LineShape">
         <g id="id63">
          <rect class="BoundingBox" stroke="none" fill="none" x="7861" y="13798" width="216" height="142"/>
          <path fill="none" stroke="rgb(229,229,229)" stroke-width="40" stroke-linejoin="round" d="M 7881,13919 L 8056,13818"/>
         </g>
        </g>
        <g class="com.sun.star.drawing.LineShape">
         <g id="id64">
          <rect class="BoundingBox" stroke="none" fill="none" x="7687" y="13697" width="216" height="142"/>
          <path fill="none" stroke="rgb(229,229,229)" stroke-width="40" stroke-linejoin="round" d="M 7707,13818 L 7882,13717"/>
         </g>
        </g>
        <g class="com.sun.star.drawing.LineShape">
         <g id="id65">
          <rect class="BoundingBox" stroke="none" fill="none" x="7425" y="13747" width="216" height="142"/>
          <path fill="none" stroke="rgb(229,229,229)" stroke-width="40" stroke-linejoin="round" d="M 7445,13868 L 7620,13767"/>
         </g>
        </g>
        <g class="com.sun.star.drawing.LineShape">
         <g id="id66">
          <rect class="BoundingBox" stroke="none" fill="none" x="7512" y="13596" width="216" height="142"/>
          <path fill="none" stroke="rgb(229,229,229)" stroke-width="40" stroke-linejoin="round" d="M 7532,13717 L 7707,13616"/>
         </g>
        </g>
        <g class="com.sun.star.drawing.LineShape">
         <g id="id67">
          <rect class="BoundingBox" stroke="none" fill="none" x="7250" y="13646" width="216" height="142"/>
          <path fill="none" stroke="rgb(229,229,229)" stroke-width="40" stroke-linejoin="round" d="M 7270,13767 L 7445,13666"/>
         </g>
        </g>
        <g class="com.sun.star.drawing.LineShape">
         <g id="id68">
          <rect class="BoundingBox" stroke="none" fill="none" x="8647" y="14454" width="216" height="142"/>
          <path fill="none" stroke="rgb(229,229,229)" stroke-width="40" stroke-linejoin="round" d="M 8667,14575 L 8842,14474"/>
         </g>
        </g>
        <g class="com.sun.star.drawing.LineShape">
         <g id="id69">
          <rect class="BoundingBox" stroke="none" fill="none" x="8472" y="14353" width="216" height="142"/>
          <path fill="none" stroke="rgb(229,229,229)" stroke-width="40" stroke-linejoin="round" d="M 8492,14474 L 8667,14373"/>
         </g>
        </g>
        <g class="com.sun.star.drawing.LineShape">
         <g id="id70">
          <rect class="BoundingBox" stroke="none" fill="none" x="9258" y="14504" width="739" height="445"/>
          <path fill="none" stroke="rgb(229,229,229)" stroke-width="40" stroke-linejoin="round" d="M 9278,14928 L 9976,14524"/>
         </g>
        </g>
        <g class="com.sun.star.drawing.LineShape">
         <g id="id71">
          <rect class="BoundingBox" stroke="none" fill="none" x="9433" y="14605" width="739" height="445"/>
          <path fill="none" stroke="rgb(229,229,229)" stroke-width="40" stroke-linejoin="round" d="M 9453,15029 L 10151,14625"/>
         </g>
        </g>
        <g class="com.sun.star.drawing.LineShape">
         <g id="id72">
          <rect class="BoundingBox" stroke="none" fill="none" x="9607" y="14504" width="565" height="344"/>
          <path fill="none" stroke="rgb(229,229,229)" stroke-width="40" stroke-linejoin="round" d="M 9627,14524 L 10151,14827"/>
         </g>
        </g>
        <g class="com.sun.star.drawing.LineShape">
         <g id="id73">
          <rect class="BoundingBox" stroke="none" fill="none" x="9433" y="14605" width="565" height="344"/>
          <path fill="none" stroke="rgb(229,229,229)" stroke-width="40" stroke-linejoin="round" d="M 9453,14625 L 9977,14928"/>
         </g>
        </g>
        <g class="com.sun.star.drawing.LineShape">
         <g id="id74">
          <rect class="BoundingBox" stroke="none" fill="none" x="9258" y="14706" width="390" height="243"/>
          <path fill="none" stroke="rgb(229,229,229)" stroke-width="40" stroke-linejoin="round" d="M 9278,14726 L 9627,14928"/>
         </g>
        </g>
        <g class="com.sun.star.drawing.PolyPolygonShape">
         <g id="id75">
          <rect class="BoundingBox" stroke="none" fill="none" x="6814" y="13646" width="2835" height="1858"/>
          <g>
           <defs>
            <linearGradient id="gradient14" x1="6833" y1="14574" x2="9627" y2="14574" gradientUnits="userSpaceOnUse">
             <stop offset="0.1" style="stop-color:rgb(179,179,179)"/>
             <stop offset="1" style="stop-color:rgb(229,229,229)"/>
            </linearGradient>
           </defs>
           <path style="fill:url(#gradient14)" d="M 6834,13868 L 6834,13666 9627,15281 9627,15482 6834,13868 Z"/>
          </g>
          <path fill="none" stroke="rgb(255,255,255)" stroke-width="40" stroke-linejoin="round" d="M 6834,13868 L 6834,13666 9627,15281 9627,15482 6834,13868 Z"/>
         </g>
        </g>
        <g class="com.sun.star.drawing.PolyPolygonShape">
         <g id="id76">
          <rect class="BoundingBox" stroke="none" fill="none" x="6813" y="13090" width="3795" height="2413"/>
          <path fill="none" stroke="rgb(0,0,0)" stroke-width="40" stroke-linejoin="round" d="M 7794,13111 L 10587,14726 10587,14927 9627,15482 6834,13868 6834,13666 7794,13111 Z"/>
         </g>
        </g>
       </g>
      </g>
     </g>
    </g>
   </g>
  </g>
 </g>
</svg>