<?xml version="1.0" encoding="UTF-8"?>
<!DOCTYPE svg PUBLIC "-//W3C//DTD SVG 1.1//EN" "http://www.w3.org/Graphics/SVG/1.1/DTD/svg11.dtd">
<svg version="1.2" width="36.75mm" height="28.4mm" viewBox="16881 3003 3675 2840" preserveAspectRatio="xMidYMid" fill-rule="evenodd" stroke-width="28.222" stroke-linejoin="round" xmlns="http://www.w3.org/2000/svg" xmlns:ooo="http://xml.openoffice.org/svg/export" xmlns:xlink="http://www.w3.org/1999/xlink" xmlns:presentation="http://sun.com/xmlns/staroffice/presentation" xmlns:smil="http://www.w3.org/2001/SMIL20/" xmlns:anim="urn:oasis:names:tc:opendocument:xmlns:animation:1.0" xml:space="preserve">
 <defs class="ClipPathGroup">
  <clipPath id="presentation_clip_path" clipPathUnits="userSpaceOnUse">
   <rect x="16881" y="3003" width="3675" height="2840"/>
  </clipPath>
 </defs>
 <defs class="TextShapeIndex">
  <g ooo:slide="id1" ooo:id-list="id3 id4 id5 id6 id7 id8"/>
 </defs>
 <defs class="EmbeddedBulletChars">
  <g id="bullet-char-template(57356)" transform="scale(0.00048828125,-0.00048828125)">
   <path d="M 580,1141 L 1163,571 580,0 -4,571 580,1141 Z"/>
  </g>
  <g id="bullet-char-template(57354)" transform="scale(0.00048828125,-0.00048828125)">
   <path d="M 8,1128 L 1137,1128 1137,0 8,0 8,1128 Z"/>
  </g>
  <g id="bullet-char-template(10146)" transform="scale(0.00048828125,-0.00048828125)">
   <path d="M 174,0 L 602,739 174,1481 1456,739 174,0 Z M 1358,739 L 309,1346 659,739 1358,739 Z"/>
  </g>
  <g id="bullet-char-template(10132)" transform="scale(0.00048828125,-0.00048828125)">
   <path d="M 2015,739 L 1276,0 717,0 1260,543 174,543 174,936 1260,936 717,1481 1274,1481 2015,739 Z"/>
  </g>
  <g id="bullet-char-template(10007)" transform="scale(0.00048828125,-0.00048828125)">
   <path d="M 0,-2 C -7,14 -16,27 -25,37 L 356,567 C 262,823 215,952 215,954 215,979 228,992 255,992 264,992 276,990 289,987 310,991 331,999 354,1012 L 381,999 492,748 772,1049 836,1024 860,1049 C 881,1039 901,1025 922,1006 886,937 835,863 770,784 769,783 710,716 594,584 L 774,223 C 774,196 753,168 711,139 L 727,119 C 717,90 699,76 672,76 641,76 570,178 457,381 L 164,-76 C 142,-110 111,-127 72,-127 30,-127 9,-110 8,-76 1,-67 -2,-52 -2,-32 -2,-23 -1,-13 0,-2 Z"/>
  </g>
  <g id="bullet-char-template(10004)" transform="scale(0.00048828125,-0.00048828125)">
   <path d="M 285,-33 C 182,-33 111,30 74,156 52,228 41,333 41,471 41,549 55,616 82,672 116,743 169,778 240,778 293,778 328,747 346,684 L 369,508 C 377,444 397,411 428,410 L 1163,1116 C 1174,1127 1196,1133 1229,1133 1271,1133 1292,1118 1292,1087 L 1292,965 C 1292,929 1282,901 1262,881 L 442,47 C 390,-6 338,-33 285,-33 Z"/>
  </g>
  <g id="bullet-char-template(9679)" transform="scale(0.00048828125,-0.00048828125)">
   <path d="M 813,0 C 632,0 489,54 383,161 276,268 223,411 223,592 223,773 276,916 383,1023 489,1130 632,1184 813,1184 992,1184 1136,1130 1245,1023 1353,916 1407,772 1407,592 1407,412 1353,268 1245,161 1136,54 992,0 813,0 Z"/>
  </g>
  <g id="bullet-char-template(8226)" transform="scale(0.00048828125,-0.00048828125)">
   <path d="M 346,457 C 273,457 209,483 155,535 101,586 74,649 74,723 74,796 101,859 155,911 209,963 273,989 346,989 419,989 480,963 531,910 582,859 608,796 608,723 608,648 583,586 532,535 482,483 420,457 346,457 Z"/>
  </g>
  <g id="bullet-char-template(8211)" transform="scale(0.00048828125,-0.00048828125)">
   <path d="M -4,459 L 1135,459 1135,606 -4,606 -4,459 Z"/>
  </g>
 </defs>
 <defs class="TextEmbeddedBitmaps"/>
 <g class="SlideGroup">
  <g>
   <g id="id1" class="Slide" clip-path="url(#presentation_clip_path)">
    <g class="Page">
     <g class="Group">
      <g class="com.sun.star.drawing.ClosedBezierShape">
       <g id="id3">
        <rect class="BoundingBox" stroke="none" fill="none" x="18664" y="4578" width="1893" height="1231"/>
        <path fill="rgb(221,221,221)" stroke="none" d="M 18684,5788 C 19159,5788 20382,5228 20503,5018 20624,4808 20382,4598 20261,4598 20261,4898 18684,5288 18684,5788 Z"/>
        <path fill="none" stroke="rgb(221,221,221)" stroke-width="40" stroke-linejoin="round" d="M 18684,5788 C 19159,5788 20382,5228 20503,5018 20624,4808 20382,4598 20261,4598 20261,4898 18684,5288 18684,5788 Z"/>
       </g>
      </g>
      <g class="Group">
       <g class="com.sun.star.drawing.PolyPolygonShape">
        <g id="id4">
         <rect class="BoundingBox" stroke="none" fill="none" x="16881" y="3983" width="1739" height="1861"/>
         <g>
          <defs>
           <linearGradient id="gradient1" x1="16900" y1="4913" x2="18600" y2="4913" gradientUnits="userSpaceOnUse">
            <stop offset="0.1" style="stop-color:rgb(0,115,188)"/>
            <stop offset="1" style="stop-color:rgb(127,185,221)"/>
           </linearGradient>
          </defs>
          <path style="fill:url(#gradient1)" d="M 16901,4843 L 16901,4003 18599,4983 18599,5823 16901,4843 Z"/>
         </g>
         <path fill="none" stroke="rgb(255,255,255)" stroke-width="40" stroke-linejoin="round" d="M 16901,4843 L 16901,4003 18599,4983 18599,5823 16901,4843 Z"/>
        </g>
       </g>
       <g class="com.sun.star.drawing.PolyPolygonShape">
        <g id="id5">
         <rect class="BoundingBox" stroke="none" fill="none" x="18579" y="3983" width="1738" height="1861"/>
         <g>
          <defs>
           <pattern id="pattern1" x="18599" y="4003" width="1698" height="1821" patternUnits="userSpaceOnUse">
            <g transform="translate(-18599,-4003)">
             <path fill="rgb(0,115,188)" stroke="none" d="M 18598,4002 L 20297,4002 20297,5824 18598,5824 18598,4002 Z M 18265,3645 L 19950,3645 19950,5451 18265,5451 18265,3645 Z"/>
             <path fill="rgb(1,115,188)" stroke="none" d="M 18265,3645 L 19950,3645 19950,5451 18265,5451 18265,3645 Z M 18272,3652 L 19943,3652 19943,5444 18272,5444 18272,3652 Z"/>
             <path fill="rgb(2,116,188)" stroke="none" d="M 18272,3652 L 19943,3652 19943,5444 18272,5444 18272,3652 Z M 18279,3659 L 19936,3659 19936,5437 18279,5437 18279,3659 Z"/>
             <path fill="rgb(3,116,188)" stroke="none" d="M 18279,3659 L 19936,3659 19936,5437 18279,5437 18279,3659 Z M 18285,3666 L 19930,3666 19930,5430 18285,5430 18285,3666 Z"/>
             <path fill="rgb(4,117,189)" stroke="none" d="M 18285,3666 L 19930,3666 19930,5430 18285,5430 18285,3666 Z M 18292,3673 L 19923,3673 19923,5423 18292,5423 18292,3673 Z"/>
             <path fill="rgb(5,117,189)" stroke="none" d="M 18292,3673 L 19923,3673 19923,5423 18292,5423 18292,3673 Z M 18299,3681 L 19916,3681 19916,5415 18299,5415 18299,3681 Z"/>
             <path fill="rgb(6,118,189)" stroke="none" d="M 18299,3681 L 19916,3681 19916,5415 18299,5415 18299,3681 Z M 18305,3688 L 19910,3688 19910,5408 18305,5408 18305,3688 Z"/>
             <path fill="rgb(7,118,189)" stroke="none" d="M 18305,3688 L 19910,3688 19910,5408 18305,5408 18305,3688 Z M 18312,3695 L 19903,3695 19903,5401 18312,5401 18312,3695 Z"/>
             <path fill="rgb(8,119,190)" stroke="none" d="M 18312,3695 L 19903,3695 19903,5401 18312,5401 18312,3695 Z M 18319,3702 L 19896,3702 19896,5394 18319,5394 18319,3702 Z"/>
             <path fill="rgb(9,119,190)" stroke="none" d="M 18319,3702 L 19896,3702 19896,5394 18319,5394 18319,3702 Z M 18325,3709 L 19890,3709 19890,5387 18325,5387 18325,3709 Z"/>
             <path fill="rgb(10,120,190)" stroke="none" d="M 18325,3709 L 19890,3709 19890,5387 18325,5387 18325,3709 Z M 18332,3716 L 19883,3716 19883,5380 18332,5380 18332,3716 Z"/>
             <path fill="rgb(11,121,190)" stroke="none" d="M 18332,3716 L 19883,3716 19883,5380 18332,5380 18332,3716 Z M 18339,3724 L 19876,3724 19876,5372 18339,5372 18339,3724 Z"/>
             <path fill="rgb(12,121,191)" stroke="none" d="M 18339,3724 L 19876,3724 19876,5372 18339,5372 18339,3724 Z M 18346,3731 L 19869,3731 19869,5365 18346,5365 18346,3731 Z"/>
             <path fill="rgb(13,122,191)" stroke="none" d="M 18346,3731 L 19869,3731 19869,5365 18346,5365 18346,3731 Z M 18352,3738 L 19863,3738 19863,5358 18352,5358 18352,3738 Z"/>
             <path fill="rgb(14,122,191)" stroke="none" d="M 18352,3738 L 19863,3738 19863,5358 18352,5358 18352,3738 Z M 18359,3745 L 19856,3745 19856,5351 18359,5351 18359,3745 Z"/>
             <path fill="rgb(15,123,191)" stroke="none" d="M 18359,3745 L 19856,3745 19856,5351 18359,5351 18359,3745 Z M 18366,3752 L 19849,3752 19849,5344 18366,5344 18366,3752 Z"/>
             <path fill="rgb(16,123,192)" stroke="none" d="M 18366,3752 L 19849,3752 19849,5344 18366,5344 18366,3752 Z M 18372,3760 L 19843,3760 19843,5336 18372,5336 18372,3760 Z"/>
             <path fill="rgb(17,124,192)" stroke="none" d="M 18372,3760 L 19843,3760 19843,5336 18372,5336 18372,3760 Z M 18379,3767 L 19836,3767 19836,5329 18379,5329 18379,3767 Z"/>
             <path fill="rgb(18,124,192)" stroke="none" d="M 18379,3767 L 19836,3767 19836,5329 18379,5329 18379,3767 Z M 18386,3774 L 19829,3774 19829,5322 18386,5322 18386,3774 Z"/>
             <path fill="rgb(19,125,192)" stroke="none" d="M 18386,3774 L 19829,3774 19829,5322 18386,5322 18386,3774 Z M 18392,3781 L 19823,3781 19823,5315 18392,5315 18392,3781 Z"/>
             <path fill="rgb(20,126,193)" stroke="none" d="M 18392,3781 L 19823,3781 19823,5315 18392,5315 18392,3781 Z M 18399,3788 L 19816,3788 19816,5308 18399,5308 18399,3788 Z"/>
             <path fill="rgb(21,126,193)" stroke="none" d="M 18399,3788 L 19816,3788 19816,5308 18399,5308 18399,3788 Z M 18406,3795 L 19809,3795 19809,5301 18406,5301 18406,3795 Z"/>
             <path fill="rgb(22,127,193)" stroke="none" d="M 18406,3795 L 19809,3795 19809,5301 18406,5301 18406,3795 Z M 18412,3803 L 19803,3803 19803,5293 18412,5293 18412,3803 Z"/>
             <path fill="rgb(23,127,193)" stroke="none" d="M 18412,3803 L 19803,3803 19803,5293 18412,5293 18412,3803 Z M 18419,3810 L 19796,3810 19796,5286 18419,5286 18419,3810 Z"/>
             <path fill="rgb(24,128,194)" stroke="none" d="M 18419,3810 L 19796,3810 19796,5286 18419,5286 18419,3810 Z M 18426,3817 L 19789,3817 19789,5279 18426,5279 18426,3817 Z"/>
             <path fill="rgb(25,128,194)" stroke="none" d="M 18426,3817 L 19789,3817 19789,5279 18426,5279 18426,3817 Z M 18433,3824 L 19782,3824 19782,5272 18433,5272 18433,3824 Z"/>
             <path fill="rgb(26,129,194)" stroke="none" d="M 18433,3824 L 19782,3824 19782,5272 18433,5272 18433,3824 Z M 18439,3831 L 19776,3831 19776,5265 18439,5265 18439,3831 Z"/>
             <path fill="rgb(27,129,195)" stroke="none" d="M 18439,3831 L 19776,3831 19776,5265 18439,5265 18439,3831 Z M 18446,3838 L 19769,3838 19769,5258 18446,5258 18446,3838 Z"/>
             <path fill="rgb(28,130,195)" stroke="none" d="M 18446,3838 L 19769,3838 19769,5258 18446,5258 18446,3838 Z M 18453,3846 L 19762,3846 19762,5250 18453,5250 18453,3846 Z"/>
             <path fill="rgb(29,130,195)" stroke="none" d="M 18453,3846 L 19762,3846 19762,5250 18453,5250 18453,3846 Z M 18459,3853 L 19756,3853 19756,5243 18459,5243 18459,3853 Z"/>
             <path fill="rgb(30,131,195)" stroke="none" d="M 18459,3853 L 19756,3853 19756,5243 18459,5243 18459,3853 Z M 18466,3860 L 19749,3860 19749,5236 18466,5236 18466,3860 Z"/>
             <path fill="rgb(31,132,196)" stroke="none" d="M 18466,3860 L 19749,3860 19749,5236 18466,5236 18466,3860 Z M 18473,3867 L 19742,3867 19742,5229 18473,5229 18473,3867 Z"/>
             <path fill="rgb(32,132,196)" stroke="none" d="M 18473,3867 L 19742,3867 19742,5229 18473,5229 18473,3867 Z M 18479,3874 L 19736,3874 19736,5222 18479,5222 18479,3874 Z"/>
             <path fill="rgb(33,133,196)" stroke="none" d="M 18479,3874 L 19736,3874 19736,5222 18479,5222 18479,3874 Z M 18486,3882 L 19729,3882 19729,5214 18486,5214 18486,3882 Z"/>
             <path fill="rgb(34,133,196)" stroke="none" d="M 18486,3882 L 19729,3882 19729,5214 18486,5214 18486,3882 Z M 18493,3889 L 19722,3889 19722,5207 18493,5207 18493,3889 Z"/>
             <path fill="rgb(35,134,197)" stroke="none" d="M 18493,3889 L 19722,3889 19722,5207 18493,5207 18493,3889 Z M 18499,3896 L 19716,3896 19716,5200 18499,5200 18499,3896 Z"/>
             <path fill="rgb(36,134,197)" stroke="none" d="M 18499,3896 L 19716,3896 19716,5200 18499,5200 18499,3896 Z M 18506,3903 L 19709,3903 19709,5193 18506,5193 18506,3903 Z"/>
             <path fill="rgb(37,135,197)" stroke="none" d="M 18506,3903 L 19709,3903 19709,5193 18506,5193 18506,3903 Z M 18513,3910 L 19702,3910 19702,5186 18513,5186 18513,3910 Z"/>
             <path fill="rgb(38,135,197)" stroke="none" d="M 18513,3910 L 19702,3910 19702,5186 18513,5186 18513,3910 Z M 18520,3917 L 19695,3917 19695,5179 18520,5179 18520,3917 Z"/>
             <path fill="rgb(39,136,198)" stroke="none" d="M 18520,3917 L 19695,3917 19695,5179 18520,5179 18520,3917 Z M 18526,3925 L 19689,3925 19689,5171 18526,5171 18526,3925 Z"/>
             <path fill="rgb(40,137,198)" stroke="none" d="M 18526,3925 L 19689,3925 19689,5171 18526,5171 18526,3925 Z M 18533,3932 L 19682,3932 19682,5164 18533,5164 18533,3932 Z"/>
             <path fill="rgb(41,137,198)" stroke="none" d="M 18533,3932 L 19682,3932 19682,5164 18533,5164 18533,3932 Z M 18540,3939 L 19675,3939 19675,5157 18540,5157 18540,3939 Z"/>
             <path fill="rgb(42,138,198)" stroke="none" d="M 18540,3939 L 19675,3939 19675,5157 18540,5157 18540,3939 Z M 18546,3946 L 19669,3946 19669,5150 18546,5150 18546,3946 Z"/>
             <path fill="rgb(43,138,199)" stroke="none" d="M 18546,3946 L 19669,3946 19669,5150 18546,5150 18546,3946 Z M 18553,3953 L 19662,3953 19662,5143 18553,5143 18553,3953 Z"/>
             <path fill="rgb(44,139,199)" stroke="none" d="M 18553,3953 L 19662,3953 19662,5143 18553,5143 18553,3953 Z M 18560,3960 L 19655,3960 19655,5136 18560,5136 18560,3960 Z"/>
             <path fill="rgb(45,139,199)" stroke="none" d="M 18560,3960 L 19655,3960 19655,5136 18560,5136 18560,3960 Z M 18566,3968 L 19649,3968 19649,5128 18566,5128 18566,3968 Z"/>
             <path fill="rgb(46,140,199)" stroke="none" d="M 18566,3968 L 19649,3968 19649,5128 18566,5128 18566,3968 Z M 18573,3975 L 19642,3975 19642,5121 18573,5121 18573,3975 Z"/>
             <path fill="rgb(47,140,200)" stroke="none" d="M 18573,3975 L 19642,3975 19642,5121 18573,5121 18573,3975 Z M 18579,3982 L 19635,3982 19635,5114 18579,5114 18579,3982 Z"/>
             <path fill="rgb(48,141,200)" stroke="none" d="M 18579,3982 L 19635,3982 19635,5114 18579,5114 18579,3982 Z M 18585,3988 L 19629,3988 19629,5107 18585,5107 18585,3988 Z"/>
             <path fill="rgb(49,142,200)" stroke="none" d="M 18585,3988 L 19629,3988 19629,5107 18585,5107 18585,3988 Z M 18592,3995 L 19622,3995 19622,5100 18592,5100 18592,3995 Z"/>
             <path fill="rgb(50,142,200)" stroke="none" d="M 18592,3995 L 19622,3995 19622,5100 18592,5100 18592,3995 Z M 18599,4003 L 19615,4003 19615,5092 18599,5092 18599,4003 Z"/>
             <path fill="rgb(51,143,201)" stroke="none" d="M 18599,4003 L 19615,4003 19615,5092 18599,5092 18599,4003 Z M 18606,4010 L 19608,4010 19608,5085 18606,5085 18606,4010 Z"/>
             <path fill="rgb(52,143,201)" stroke="none" d="M 18606,4010 L 19608,4010 19608,5085 18606,5085 18606,4010 Z M 18612,4017 L 19602,4017 19602,5078 18612,5078 18612,4017 Z"/>
             <path fill="rgb(53,144,201)" stroke="none" d="M 18612,4017 L 19602,4017 19602,5078 18612,5078 18612,4017 Z M 18619,4024 L 19595,4024 19595,5071 18619,5071 18619,4024 Z"/>
             <path fill="rgb(54,144,202)" stroke="none" d="M 18619,4024 L 19595,4024 19595,5071 18619,5071 18619,4024 Z M 18626,4031 L 19588,4031 19588,5064 18626,5064 18626,4031 Z"/>
             <path fill="rgb(55,145,202)" stroke="none" d="M 18626,4031 L 19588,4031 19588,5064 18626,5064 18626,4031 Z M 18632,4038 L 19582,4038 19582,5057 18632,5057 18632,4038 Z"/>
             <path fill="rgb(56,145,202)" stroke="none" d="M 18632,4038 L 19582,4038 19582,5057 18632,5057 18632,4038 Z M 18639,4046 L 19575,4046 19575,5049 18639,5049 18639,4046 Z"/>
             <path fill="rgb(57,146,202)" stroke="none" d="M 18639,4046 L 19575,4046 19575,5049 18639,5049 18639,4046 Z M 18646,4053 L 19568,4053 19568,5042 18646,5042 18646,4053 Z"/>
             <path fill="rgb(58,146,203)" stroke="none" d="M 18646,4053 L 19568,4053 19568,5042 18646,5042 18646,4053 Z M 18652,4060 L 19562,4060 19562,5035 18652,5035 18652,4060 Z"/>
             <path fill="rgb(59,147,203)" stroke="none" d="M 18652,4060 L 19562,4060 19562,5035 18652,5035 18652,4060 Z M 18659,4067 L 19555,4067 19555,5028 18659,5028 18659,4067 Z"/>
             <path fill="rgb(60,148,203)" stroke="none" d="M 18659,4067 L 19555,4067 19555,5028 18659,5028 18659,4067 Z M 18666,4074 L 19548,4074 19548,5021 18666,5021 18666,4074 Z"/>
             <path fill="rgb(61,148,203)" stroke="none" d="M 18666,4074 L 19548,4074 19548,5021 18666,5021 18666,4074 Z M 18672,4081 L 19542,4081 19542,5014 18672,5014 18672,4081 Z"/>
             <path fill="rgb(62,149,204)" stroke="none" d="M 18672,4081 L 19542,4081 19542,5014 18672,5014 18672,4081 Z M 18679,4089 L 19535,4089 19535,5006 18679,5006 18679,4089 Z"/>
             <path fill="rgb(63,149,204)" stroke="none" d="M 18679,4089 L 19535,4089 19535,5006 18679,5006 18679,4089 Z M 18686,4096 L 19528,4096 19528,4999 18686,4999 18686,4096 Z"/>
             <path fill="rgb(64,150,204)" stroke="none" d="M 18686,4096 L 19528,4096 19528,4999 18686,4999 18686,4096 Z M 18693,4103 L 19521,4103 19521,4992 18693,4992 18693,4103 Z"/>
             <path fill="rgb(65,150,204)" stroke="none" d="M 18693,4103 L 19521,4103 19521,4992 18693,4992 18693,4103 Z M 18699,4110 L 19515,4110 19515,4985 18699,4985 18699,4110 Z"/>
             <path fill="rgb(66,151,205)" stroke="none" d="M 18699,4110 L 19515,4110 19515,4985 18699,4985 18699,4110 Z M 18706,4117 L 19508,4117 19508,4978 18706,4978 18706,4117 Z"/>
             <path fill="rgb(67,151,205)" stroke="none" d="M 18706,4117 L 19508,4117 19508,4978 18706,4978 18706,4117 Z M 18713,4125 L 19501,4125 19501,4970 18713,4970 18713,4125 Z"/>
             <path fill="rgb(68,152,205)" stroke="none" d="M 18713,4125 L 19501,4125 19501,4970 18713,4970 18713,4125 Z M 18719,4132 L 19495,4132 19495,4963 18719,4963 18719,4132 Z"/>
             <path fill="rgb(69,153,205)" stroke="none" d="M 18719,4132 L 19495,4132 19495,4963 18719,4963 18719,4132 Z M 18726,4139 L 19488,4139 19488,4956 18726,4956 18726,4139 Z"/>
             <path fill="rgb(70,153,206)" stroke="none" d="M 18726,4139 L 19488,4139 19488,4956 18726,4956 18726,4139 Z M 18733,4146 L 19481,4146 19481,4949 18733,4949 18733,4146 Z"/>
             <path fill="rgb(71,154,206)" stroke="none" d="M 18733,4146 L 19481,4146 19481,4949 18733,4949 18733,4146 Z M 18739,4153 L 19475,4153 19475,4942 18739,4942 18739,4153 Z"/>
             <path fill="rgb(72,154,206)" stroke="none" d="M 18739,4153 L 19475,4153 19475,4942 18739,4942 18739,4153 Z M 18746,4160 L 19468,4160 19468,4935 18746,4935 18746,4160 Z"/>
             <path fill="rgb(73,155,206)" stroke="none" d="M 18746,4160 L 19468,4160 19468,4935 18746,4935 18746,4160 Z M 18753,4168 L 19461,4168 19461,4927 18753,4927 18753,4168 Z"/>
             <path fill="rgb(74,155,207)" stroke="none" d="M 18753,4168 L 19461,4168 19461,4927 18753,4927 18753,4168 Z M 18759,4175 L 19455,4175 19455,4920 18759,4920 18759,4175 Z"/>
             <path fill="rgb(75,156,207)" stroke="none" d="M 18759,4175 L 19455,4175 19455,4920 18759,4920 18759,4175 Z M 18766,4182 L 19448,4182 19448,4913 18766,4913 18766,4182 Z"/>
             <path fill="rgb(76,156,207)" stroke="none" d="M 18766,4182 L 19448,4182 19448,4913 18766,4913 18766,4182 Z M 18773,4189 L 19441,4189 19441,4906 18773,4906 18773,4189 Z"/>
             <path fill="rgb(77,157,208)" stroke="none" d="M 18773,4189 L 19441,4189 19441,4906 18773,4906 18773,4189 Z M 18780,4196 L 19434,4196 19434,4899 18780,4899 18780,4196 Z"/>
             <path fill="rgb(78,157,208)" stroke="none" d="M 18780,4196 L 19434,4196 19434,4899 18780,4899 18780,4196 Z M 18786,4203 L 19428,4203 19428,4892 18786,4892 18786,4203 Z"/>
             <path fill="rgb(79,158,208)" stroke="none" d="M 18786,4203 L 19428,4203 19428,4892 18786,4892 18786,4203 Z M 18793,4211 L 19421,4211 19421,4884 18793,4884 18793,4211 Z"/>
             <path fill="rgb(80,159,208)" stroke="none" d="M 18793,4211 L 19421,4211 19421,4884 18793,4884 18793,4211 Z M 18800,4218 L 19414,4218 19414,4877 18800,4877 18800,4218 Z"/>
             <path fill="rgb(81,159,209)" stroke="none" d="M 18800,4218 L 19414,4218 19414,4877 18800,4877 18800,4218 Z M 18806,4225 L 19408,4225 19408,4870 18806,4870 18806,4225 Z"/>
             <path fill="rgb(82,160,209)" stroke="none" d="M 18806,4225 L 19408,4225 19408,4870 18806,4870 18806,4225 Z M 18813,4232 L 19401,4232 19401,4863 18813,4863 18813,4232 Z"/>
             <path fill="rgb(83,160,209)" stroke="none" d="M 18813,4232 L 19401,4232 19401,4863 18813,4863 18813,4232 Z M 18820,4239 L 19394,4239 19394,4856 18820,4856 18820,4239 Z"/>
             <path fill="rgb(84,161,209)" stroke="none" d="M 18820,4239 L 19394,4239 19394,4856 18820,4856 18820,4239 Z M 18826,4247 L 19388,4247 19388,4848 18826,4848 18826,4247 Z"/>
             <path fill="rgb(85,161,210)" stroke="none" d="M 18826,4247 L 19388,4247 19388,4848 18826,4848 18826,4247 Z M 18833,4254 L 19381,4254 19381,4841 18833,4841 18833,4254 Z"/>
             <path fill="rgb(86,162,210)" stroke="none" d="M 18833,4254 L 19381,4254 19381,4841 18833,4841 18833,4254 Z M 18840,4261 L 19374,4261 19374,4834 18840,4834 18840,4261 Z"/>
             <path fill="rgb(87,162,210)" stroke="none" d="M 18840,4261 L 19374,4261 19374,4834 18840,4834 18840,4261 Z M 18846,4268 L 19368,4268 19368,4827 18846,4827 18846,4268 Z"/>
             <path fill="rgb(88,163,210)" stroke="none" d="M 18846,4268 L 19368,4268 19368,4827 18846,4827 18846,4268 Z M 18853,4275 L 19361,4275 19361,4820 18853,4820 18853,4275 Z"/>
             <path fill="rgb(89,164,211)" stroke="none" d="M 18853,4275 L 19361,4275 19361,4820 18853,4820 18853,4275 Z M 18860,4282 L 19354,4282 19354,4813 18860,4813 18860,4282 Z"/>
             <path fill="rgb(90,164,211)" stroke="none" d="M 18860,4282 L 19354,4282 19354,4813 18860,4813 18860,4282 Z M 18867,4290 L 19347,4290 19347,4805 18867,4805 18867,4290 Z"/>
             <path fill="rgb(91,165,211)" stroke="none" d="M 18867,4290 L 19347,4290 19347,4805 18867,4805 18867,4290 Z M 18873,4297 L 19341,4297 19341,4798 18873,4798 18873,4297 Z"/>
             <path fill="rgb(92,165,211)" stroke="none" d="M 18873,4297 L 19341,4297 19341,4798 18873,4798 18873,4297 Z M 18880,4304 L 19334,4304 19334,4791 18880,4791 18880,4304 Z"/>
             <path fill="rgb(93,166,212)" stroke="none" d="M 18880,4304 L 19334,4304 19334,4791 18880,4791 18880,4304 Z M 18887,4311 L 19327,4311 19327,4784 18887,4784 18887,4311 Z"/>
             <path fill="rgb(94,166,212)" stroke="none" d="M 18887,4311 L 19327,4311 19327,4784 18887,4784 18887,4311 Z M 18893,4318 L 19321,4318 19321,4777 18893,4777 18893,4318 Z"/>
             <path fill="rgb(95,167,212)" stroke="none" d="M 18893,4318 L 19321,4318 19321,4777 18893,4777 18893,4318 Z M 18900,4326 L 19314,4326 19314,4769 18900,4769 18900,4326 Z"/>
             <path fill="rgb(96,167,212)" stroke="none" d="M 18900,4326 L 19314,4326 19314,4769 18900,4769 18900,4326 Z M 18907,4333 L 19307,4333 19307,4762 18907,4762 18907,4333 Z"/>
             <path fill="rgb(97,168,213)" stroke="none" d="M 18907,4333 L 19307,4333 19307,4762 18907,4762 18907,4333 Z M 18913,4340 L 19301,4340 19301,4755 18913,4755 18913,4340 Z"/>
             <path fill="rgb(98,169,213)" stroke="none" d="M 18913,4340 L 19301,4340 19301,4755 18913,4755 18913,4340 Z M 18920,4347 L 19294,4347 19294,4748 18920,4748 18920,4347 Z"/>
             <path fill="rgb(99,169,213)" stroke="none" d="M 18920,4347 L 19294,4347 19294,4748 18920,4748 18920,4347 Z M 18927,4354 L 19287,4354 19287,4741 18927,4741 18927,4354 Z"/>
             <path fill="rgb(100,170,213)" stroke="none" d="M 18927,4354 L 19287,4354 19287,4741 18927,4741 18927,4354 Z M 18933,4361 L 19281,4361 19281,4734 18933,4734 18933,4361 Z"/>
             <path fill="rgb(101,170,214)" stroke="none" d="M 18933,4361 L 19281,4361 19281,4734 18933,4734 18933,4361 Z M 18940,4369 L 19274,4369 19274,4726 18940,4726 18940,4369 Z"/>
             <path fill="rgb(102,171,214)" stroke="none" d="M 18940,4369 L 19274,4369 19274,4726 18940,4726 18940,4369 Z M 18947,4376 L 19267,4376 19267,4719 18947,4719 18947,4376 Z"/>
             <path fill="rgb(103,171,214)" stroke="none" d="M 18947,4376 L 19267,4376 19267,4719 18947,4719 18947,4376 Z M 18954,4383 L 19260,4383 19260,4712 18954,4712 18954,4383 Z"/>
             <path fill="rgb(104,172,215)" stroke="none" d="M 18954,4383 L 19260,4383 19260,4712 18954,4712 18954,4383 Z M 18960,4390 L 19254,4390 19254,4705 18960,4705 18960,4390 Z"/>
             <path fill="rgb(105,172,215)" stroke="none" d="M 18960,4390 L 19254,4390 19254,4705 18960,4705 18960,4390 Z M 18967,4397 L 19247,4397 19247,4698 18967,4698 18967,4397 Z"/>
             <path fill="rgb(106,173,215)" stroke="none" d="M 18967,4397 L 19247,4397 19247,4698 18967,4698 18967,4397 Z M 18974,4404 L 19240,4404 19240,4691 18974,4691 18974,4404 Z"/>
             <path fill="rgb(107,173,215)" stroke="none" d="M 18974,4404 L 19240,4404 19240,4691 18974,4691 18974,4404 Z M 18980,4412 L 19234,4412 19234,4683 18980,4683 18980,4412 Z"/>
             <path fill="rgb(108,174,216)" stroke="none" d="M 18980,4412 L 19234,4412 19234,4683 18980,4683 18980,4412 Z M 18987,4419 L 19227,4419 19227,4676 18987,4676 18987,4419 Z"/>
             <path fill="rgb(109,175,216)" stroke="none" d="M 18987,4419 L 19227,4419 19227,4676 18987,4676 18987,4419 Z M 18994,4426 L 19220,4426 19220,4669 18994,4669 18994,4426 Z"/>
             <path fill="rgb(110,175,216)" stroke="none" d="M 18994,4426 L 19220,4426 19220,4669 18994,4669 18994,4426 Z M 19000,4433 L 19214,4433 19214,4662 19000,4662 19000,4433 Z"/>
             <path fill="rgb(111,176,216)" stroke="none" d="M 19000,4433 L 19214,4433 19214,4662 19000,4662 19000,4433 Z M 19007,4440 L 19207,4440 19207,4655 19007,4655 19007,4440 Z"/>
             <path fill="rgb(112,176,217)" stroke="none" d="M 19007,4440 L 19207,4440 19207,4655 19007,4655 19007,4440 Z M 19014,4448 L 19200,4448 19200,4647 19014,4647 19014,4448 Z"/>
             <path fill="rgb(113,177,217)" stroke="none" d="M 19014,4448 L 19200,4448 19200,4647 19014,4647 19014,4448 Z M 19020,4455 L 19194,4455 19194,4640 19020,4640 19020,4455 Z"/>
             <path fill="rgb(114,177,217)" stroke="none" d="M 19020,4455 L 19194,4455 19194,4640 19020,4640 19020,4455 Z M 19027,4462 L 19187,4462 19187,4633 19027,4633 19027,4462 Z"/>
             <path fill="rgb(115,178,217)" stroke="none" d="M 19027,4462 L 19187,4462 19187,4633 19027,4633 19027,4462 Z M 19034,4469 L 19180,4469 19180,4626 19034,4626 19034,4469 Z"/>
             <path fill="rgb(116,178,218)" stroke="none" d="M 19034,4469 L 19180,4469 19180,4626 19034,4626 19034,4469 Z M 19041,4476 L 19173,4476 19173,4619 19041,4619 19041,4476 Z"/>
             <path fill="rgb(117,179,218)" stroke="none" d="M 19041,4476 L 19173,4476 19173,4619 19041,4619 19041,4476 Z M 19047,4483 L 19167,4483 19167,4612 19047,4612 19047,4483 Z"/>
             <path fill="rgb(118,180,218)" stroke="none" d="M 19047,4483 L 19167,4483 19167,4612 19047,4612 19047,4483 Z M 19054,4491 L 19160,4491 19160,4604 19054,4604 19054,4491 Z"/>
             <path fill="rgb(119,180,218)" stroke="none" d="M 19054,4491 L 19160,4491 19160,4604 19054,4604 19054,4491 Z M 19061,4498 L 19153,4498 19153,4597 19061,4597 19061,4498 Z"/>
             <path fill="rgb(120,181,219)" stroke="none" d="M 19061,4498 L 19153,4498 19153,4597 19061,4597 19061,4498 Z M 19067,4505 L 19147,4505 19147,4590 19067,4590 19067,4505 Z"/>
             <path fill="rgb(121,181,219)" stroke="none" d="M 19067,4505 L 19147,4505 19147,4590 19067,4590 19067,4505 Z M 19074,4512 L 19140,4512 19140,4583 19074,4583 19074,4512 Z"/>
             <path fill="rgb(122,182,219)" stroke="none" d="M 19074,4512 L 19140,4512 19140,4583 19074,4583 19074,4512 Z M 19081,4519 L 19133,4519 19133,4576 19081,4576 19081,4519 Z"/>
             <path fill="rgb(123,182,219)" stroke="none" d="M 19081,4519 L 19133,4519 19133,4576 19081,4576 19081,4519 Z M 19087,4526 L 19127,4526 19127,4569 19087,4569 19087,4526 Z"/>
             <path fill="rgb(124,183,220)" stroke="none" d="M 19087,4526 L 19127,4526 19127,4569 19087,4569 19087,4526 Z M 19094,4534 L 19120,4534 19120,4561 19094,4561 19094,4534 Z"/>
             <path fill="rgb(125,183,220)" stroke="none" d="M 19094,4534 L 19120,4534 19120,4561 19094,4561 19094,4534 Z M 19101,4541 L 19113,4541 19113,4554 19101,4554 19101,4541 Z"/>
             <path fill="rgb(127,185,221)" stroke="none" d="M 19101,4541 L 19113,4541 19113,4554 19101,4554 19101,4541 Z"/>
            </g>
           </pattern>
          </defs>
          <path style="fill:url(#pattern1)" d="M 18599,5823 L 18599,4983 20296,4003 20296,4843 18599,5823 Z"/>
         </g>
         <path fill="none" stroke="rgb(255,255,255)" stroke-width="40" stroke-linejoin="round" d="M 18599,5823 L 18599,4983 20296,4003 20296,4843 18599,5823 Z"/>
        </g>
       </g>
       <g class="com.sun.star.drawing.PolyPolygonShape">
        <g id="id6">
         <rect class="BoundingBox" stroke="none" fill="none" x="16881" y="3003" width="3436" height="2001"/>
         <g>
          <defs>
           <linearGradient id="gradient2" x1="18598" y1="3023" x2="18598" y2="4983" gradientUnits="userSpaceOnUse">
            <stop offset="0.1" style="stop-color:rgb(0,115,188)"/>
            <stop offset="1" style="stop-color:rgb(127,185,221)"/>
           </linearGradient>
          </defs>
          <path style="fill:url(#gradient2)" d="M 18599,4983 L 16901,4003 18599,3023 20296,4003 18599,4983 Z"/>
         </g>
         <path fill="none" stroke="rgb(255,255,255)" stroke-width="40" stroke-linejoin="round" d="M 18599,4983 L 16901,4003 18599,3023 20296,4003 18599,4983 Z"/>
        </g>
       </g>
       <g class="com.sun.star.drawing.PolyPolygonShape">
        <g id="id7">
         <rect class="BoundingBox" stroke="none" fill="none" x="16881" y="3003" width="3436" height="2841"/>
         <path fill="none" stroke="rgb(0,0,0)" stroke-width="40" stroke-linejoin="round" d="M 16901,4843 L 16901,4003 18599,3023 20296,4003 20296,4843 18599,5823 16901,4843 Z"/>
        </g>
       </g>
       <g class="com.sun.star.drawing.PolyPolygonShape">
        <g id="id8">
         <rect class="BoundingBox" stroke="none" fill="none" x="18094" y="3703" width="1011" height="601"/>
         <path fill="rgb(255,255,255)" stroke="none" d="M 18235,4143 L 18114,4073 18114,4283 18478,4283 18357,4213 19084,3793 18963,3723 18235,4143 Z"/>
         <path fill="none" stroke="rgb(255,255,255)" stroke-width="40" stroke-linejoin="round" d="M 18235,4143 L 18114,4073 18114,4283 18478,4283 18357,4213 19084,3793 18963,3723 18235,4143 Z"/>
        </g>
       </g>
      </g>
     </g>
    </g>
   </g>
  </g>
 </g>
</svg>