<?xml version="1.0" encoding="UTF-8"?>
<!DOCTYPE svg PUBLIC "-//W3C//DTD SVG 1.1//EN" "http://www.w3.org/Graphics/SVG/1.1/DTD/svg11.dtd">
<svg version="1.2" width="47.59mm" height="49.4mm" viewBox="4137 11114 4759 4940" preserveAspectRatio="xMidYMid" fill-rule="evenodd" stroke-width="28.222" stroke-linejoin="round" xmlns="http://www.w3.org/2000/svg" xmlns:ooo="http://xml.openoffice.org/svg/export" xmlns:xlink="http://www.w3.org/1999/xlink" xmlns:presentation="http://sun.com/xmlns/staroffice/presentation" xmlns:smil="http://www.w3.org/2001/SMIL20/" xmlns:anim="urn:oasis:names:tc:opendocument:xmlns:animation:1.0" xml:space="preserve">
 <defs class="ClipPathGroup">
  <clipPath id="presentation_clip_path" clipPathUnits="userSpaceOnUse">
   <rect x="4137" y="11114" width="4759" height="4940"/>
  </clipPath>
 </defs>
 <defs class="TextShapeIndex">
  <g ooo:slide="id1" ooo:id-list="id3 id4 id5 id6 id7 id8 id9 id10 id11 id12 id13 id14 id15 id16 id17 id18 id19 id20 id21 id22 id23 id24 id25 id26 id27 id28 id29 id30 id31 id32 id33 id34 id35 id36 id37 id38 id39 id40 id41 id42 id43 id44 id45 id46 id47 id48 id49 id50 id51"/>
 </defs>
 <defs class="EmbeddedBulletChars">
  <g id="bullet-char-template(57356)" transform="scale(0.00048828125,-0.00048828125)">
   <path d="M 580,1141 L 1163,571 580,0 -4,571 580,1141 Z"/>
  </g>
  <g id="bullet-char-template(57354)" transform="scale(0.00048828125,-0.00048828125)">
   <path d="M 8,1128 L 1137,1128 1137,0 8,0 8,1128 Z"/>
  </g>
  <g id="bullet-char-template(10146)" transform="scale(0.00048828125,-0.00048828125)">
   <path d="M 174,0 L 602,739 174,1481 1456,739 174,0 Z M 1358,739 L 309,1346 659,739 1358,739 Z"/>
  </g>
  <g id="bullet-char-template(10132)" transform="scale(0.00048828125,-0.00048828125)">
   <path d="M 2015,739 L 1276,0 717,0 1260,543 174,543 174,936 1260,936 717,1481 1274,1481 2015,739 Z"/>
  </g>
  <g id="bullet-char-template(10007)" transform="scale(0.00048828125,-0.00048828125)">
   <path d="M 0,-2 C -7,14 -16,27 -25,37 L 356,567 C 262,823 215,952 215,954 215,979 228,992 255,992 264,992 276,990 289,987 310,991 331,999 354,1012 L 381,999 492,748 772,1049 836,1024 860,1049 C 881,1039 901,1025 922,1006 886,937 835,863 770,784 769,783 710,716 594,584 L 774,223 C 774,196 753,168 711,139 L 727,119 C 717,90 699,76 672,76 641,76 570,178 457,381 L 164,-76 C 142,-110 111,-127 72,-127 30,-127 9,-110 8,-76 1,-67 -2,-52 -2,-32 -2,-23 -1,-13 0,-2 Z"/>
  </g>
  <g id="bullet-char-template(10004)" transform="scale(0.00048828125,-0.00048828125)">
   <path d="M 285,-33 C 182,-33 111,30 74,156 52,228 41,333 41,471 41,549 55,616 82,672 116,743 169,778 240,778 293,778 328,747 346,684 L 369,508 C 377,444 397,411 428,410 L 1163,1116 C 1174,1127 1196,1133 1229,1133 1271,1133 1292,1118 1292,1087 L 1292,965 C 1292,929 1282,901 1262,881 L 442,47 C 390,-6 338,-33 285,-33 Z"/>
  </g>
  <g id="bullet-char-template(9679)" transform="scale(0.00048828125,-0.00048828125)">
   <path d="M 813,0 C 632,0 489,54 383,161 276,268 223,411 223,592 223,773 276,916 383,1023 489,1130 632,1184 813,1184 992,1184 1136,1130 1245,1023 1353,916 1407,772 1407,592 1407,412 1353,268 1245,161 1136,54 992,0 813,0 Z"/>
  </g>
  <g id="bullet-char-template(8226)" transform="scale(0.00048828125,-0.00048828125)">
   <path d="M 346,457 C 273,457 209,483 155,535 101,586 74,649 74,723 74,796 101,859 155,911 209,963 273,989 346,989 419,989 480,963 531,910 582,859 608,796 608,723 608,648 583,586 532,535 482,483 420,457 346,457 Z"/>
  </g>
  <g id="bullet-char-template(8211)" transform="scale(0.00048828125,-0.00048828125)">
   <path d="M -4,459 L 1135,459 1135,606 -4,606 -4,459 Z"/>
  </g>
 </defs>
 <defs class="TextEmbeddedBitmaps"/>
 <g class="SlideGroup">
  <g>
   <g id="id1" class="Slide" clip-path="url(#presentation_clip_path)">
    <g class="Page">
     <g class="Group">
      <g class="com.sun.star.drawing.ClosedBezierShape">
       <g id="id3">
        <rect class="BoundingBox" stroke="none" fill="none" x="6583" y="14599" width="2314" height="1455"/>
        <path fill="rgb(221,221,221)" stroke="none" d="M 6607,16033 C 6846,16033 8876,15528 8876,15074 8876,14619 8330,14619 8090,14619 8090,14771 6519,14922 6607,16033 Z"/>
        <path fill="none" stroke="rgb(221,221,221)" stroke-width="40" stroke-linejoin="round" d="M 6607,16033 C 6846,16033 8876,15528 8876,15074 8876,14619 8330,14619 8090,14619 8090,14771 6519,14922 6607,16033 Z"/>
       </g>
      </g>
      <g class="Group">
       <g class="com.sun.star.drawing.PolyPolygonShape">
        <g id="id4">
         <rect class="BoundingBox" stroke="none" fill="none" x="4137" y="13386" width="4148" height="2416"/>
         <g>
          <defs>
           <linearGradient id="gradient1" x1="6210" y1="13407" x2="6210" y2="15781" gradientUnits="userSpaceOnUse">
            <stop offset="0.1" style="stop-color:rgb(179,179,179)"/>
            <stop offset="1" style="stop-color:rgb(229,229,229)"/>
           </linearGradient>
          </defs>
          <path style="fill:url(#gradient1)" d="M 6604,15781 L 4157,14367 5817,13407 8264,14821 6604,15781 Z"/>
         </g>
         <path fill="none" stroke="rgb(255,255,255)" stroke-width="40" stroke-linejoin="round" d="M 6604,15781 L 4157,14367 5817,13407 8264,14821 6604,15781 Z"/>
        </g>
       </g>
       <g class="com.sun.star.drawing.PolyPolygonShape">
        <g id="id5">
         <rect class="BoundingBox" stroke="none" fill="none" x="5097" y="13640" width="2751" height="1608"/>
         <path fill="rgb(127,127,127)" stroke="none" d="M 5118,14064 L 5817,13660 7827,14822 7128,15226 5118,14064 Z"/>
         <path fill="none" stroke="rgb(255,255,255)" stroke-width="40" stroke-linejoin="round" d="M 5118,14064 L 5817,13660 7827,14822 7128,15226 5118,14064 Z"/>
        </g>
       </g>
       <g class="com.sun.star.drawing.PolyPolygonShape">
        <g id="id6">
         <rect class="BoundingBox" stroke="none" fill="none" x="5797" y="11165" width="2488" height="3678"/>
         <g>
          <defs>
           <linearGradient id="gradient2" x1="5816" y1="13003" x2="8265" y2="13003" gradientUnits="userSpaceOnUse">
            <stop offset="0.1" style="stop-color:rgb(179,179,179)"/>
            <stop offset="1" style="stop-color:rgb(229,229,229)"/>
           </linearGradient>
          </defs>
          <path style="fill:url(#gradient2)" d="M 5817,13408 L 5817,11185 8264,12599 8264,14822 5817,13408 Z"/>
         </g>
         <path fill="none" stroke="rgb(255,255,255)" stroke-width="40" stroke-linejoin="round" d="M 5817,13408 L 5817,11185 8264,12599 8264,14822 5817,13408 Z"/>
        </g>
       </g>
       <g class="com.sun.star.drawing.PolyPolygonShape">
        <g id="id7">
         <rect class="BoundingBox" stroke="none" fill="none" x="5885" y="11316" width="2313" height="3224"/>
         <g>
          <defs>
           <linearGradient id="gradient3" x1="5904" y1="12927" x2="8178" y2="12927" gradientUnits="userSpaceOnUse">
            <stop offset="0.1" style="stop-color:rgb(147,212,240)"/>
            <stop offset="1" style="stop-color:rgb(233,246,252)"/>
           </linearGradient>
          </defs>
          <path style="fill:url(#gradient3)" d="M 5905,13205 L 5905,11336 8177,12649 8177,14518 5905,13205 Z"/>
         </g>
         <path fill="none" stroke="rgb(127,127,127)" stroke-width="40" stroke-linejoin="round" d="M 5905,13205 L 5905,11336 8177,12649 8177,14518 5905,13205 Z"/>
        </g>
       </g>
       <g class="com.sun.star.drawing.PolyPolygonShape">
        <g id="id8">
         <rect class="BoundingBox" stroke="none" fill="none" x="5797" y="11114" width="2575" height="1506"/>
         <g>
          <defs>
           <linearGradient id="gradient4" x1="7084" y1="11134" x2="7084" y2="12599" gradientUnits="userSpaceOnUse">
            <stop offset="0.1" style="stop-color:rgb(179,179,179)"/>
            <stop offset="1" style="stop-color:rgb(229,229,229)"/>
           </linearGradient>
          </defs>
          <path style="fill:url(#gradient4)" d="M 8264,12599 L 5817,11185 5904,11134 8351,12548 8264,12599 Z"/>
         </g>
         <path fill="none" stroke="rgb(255,255,255)" stroke-width="40" stroke-linejoin="round" d="M 8264,12599 L 5817,11185 5904,11134 8351,12548 8264,12599 Z"/>
        </g>
       </g>
       <g class="com.sun.star.drawing.PolyPolygonShape">
        <g id="id9">
         <rect class="BoundingBox" stroke="none" fill="none" x="8244" y="12528" width="128" height="2315"/>
         <g>
          <defs>
           <pattern id="pattern1" x="8264" y="12548" width="88" height="2274" patternUnits="userSpaceOnUse">
            <g transform="translate(-8264,-12548)">
             <path fill="rgb(179,179,179)" stroke="none" d="M 8263,12547 L 8352,12547 8352,14822 8263,14822 8263,12547 Z M 8245,12114 L 8333,12114 8333,14343 8245,14343 8245,12114 Z"/>
             <path fill="rgb(180,180,180)" stroke="none" d="M 8245,12114 L 8333,12114 8333,14343 8245,14343 8245,12114 Z M 8246,12137 L 8332,12137 8332,14320 8246,14320 8246,12137 Z"/>
             <path fill="rgb(181,181,181)" stroke="none" d="M 8246,12137 L 8332,12137 8332,14320 8246,14320 8246,12137 Z M 8247,12160 L 8331,12160 8331,14297 8247,14297 8247,12160 Z"/>
             <path fill="rgb(182,182,182)" stroke="none" d="M 8247,12160 L 8331,12160 8331,14297 8247,14297 8247,12160 Z M 8248,12183 L 8330,12183 8330,14274 8248,14274 8248,12183 Z"/>
             <path fill="rgb(183,183,183)" stroke="none" d="M 8248,12183 L 8330,12183 8330,14274 8248,14274 8248,12183 Z M 8249,12205 L 8329,12205 8329,14252 8249,14252 8249,12205 Z"/>
             <path fill="rgb(184,184,184)" stroke="none" d="M 8249,12205 L 8329,12205 8329,14252 8249,14252 8249,12205 Z M 8250,12228 L 8328,12228 8328,14229 8250,14229 8250,12228 Z"/>
             <path fill="rgb(185,185,185)" stroke="none" d="M 8250,12228 L 8328,12228 8328,14229 8250,14229 8250,12228 Z M 8251,12251 L 8327,12251 8327,14206 8251,14206 8251,12251 Z"/>
             <path fill="rgb(186,186,186)" stroke="none" d="M 8251,12251 L 8327,12251 8327,14206 8251,14206 8251,12251 Z M 8252,12274 L 8326,12274 8326,14183 8252,14183 8252,12274 Z"/>
             <path fill="rgb(187,187,187)" stroke="none" d="M 8252,12274 L 8326,12274 8326,14183 8252,14183 8252,12274 Z M 8253,12296 L 8325,12296 8325,14161 8253,14161 8253,12296 Z"/>
             <path fill="rgb(188,188,188)" stroke="none" d="M 8253,12296 L 8325,12296 8325,14161 8253,14161 8253,12296 Z M 8254,12319 L 8324,12319 8324,14138 8254,14138 8254,12319 Z"/>
             <path fill="rgb(189,189,189)" stroke="none" d="M 8254,12319 L 8324,12319 8324,14138 8254,14138 8254,12319 Z M 8254,12342 L 8324,12342 8324,14115 8254,14115 8254,12342 Z"/>
             <path fill="rgb(190,190,190)" stroke="none" d="M 8254,12342 L 8324,12342 8324,14115 8254,14115 8254,12342 Z M 8255,12365 L 8323,12365 8323,14092 8255,14092 8255,12365 Z"/>
             <path fill="rgb(191,191,191)" stroke="none" d="M 8255,12365 L 8323,12365 8323,14092 8255,14092 8255,12365 Z M 8256,12387 L 8322,12387 8322,14070 8256,14070 8256,12387 Z"/>
             <path fill="rgb(192,192,192)" stroke="none" d="M 8256,12387 L 8322,12387 8322,14070 8256,14070 8256,12387 Z M 8257,12410 L 8321,12410 8321,14047 8257,14047 8257,12410 Z"/>
             <path fill="rgb(193,193,193)" stroke="none" d="M 8257,12410 L 8321,12410 8321,14047 8257,14047 8257,12410 Z M 8258,12433 L 8320,12433 8320,14024 8258,14024 8258,12433 Z"/>
             <path fill="rgb(194,194,194)" stroke="none" d="M 8258,12433 L 8320,12433 8320,14024 8258,14024 8258,12433 Z M 8259,12456 L 8319,12456 8319,14001 8259,14001 8259,12456 Z"/>
             <path fill="rgb(195,195,195)" stroke="none" d="M 8259,12456 L 8319,12456 8319,14001 8259,14001 8259,12456 Z M 8260,12478 L 8318,12478 8318,13979 8260,13979 8260,12478 Z"/>
             <path fill="rgb(196,196,196)" stroke="none" d="M 8260,12478 L 8318,12478 8318,13979 8260,13979 8260,12478 Z M 8261,12501 L 8317,12501 8317,13956 8261,13956 8261,12501 Z"/>
             <path fill="rgb(197,197,197)" stroke="none" d="M 8261,12501 L 8317,12501 8317,13956 8261,13956 8261,12501 Z M 8262,12524 L 8316,12524 8316,13933 8262,13933 8262,12524 Z"/>
             <path fill="rgb(198,198,198)" stroke="none" d="M 8262,12524 L 8316,12524 8316,13933 8262,13933 8262,12524 Z M 8263,12546 L 8315,12546 8315,13910 8263,13910 8263,12546 Z"/>
             <path fill="rgb(199,199,199)" stroke="none" d="M 8263,12546 L 8315,12546 8315,13910 8263,13910 8263,12546 Z M 8263,12568 L 8315,12568 8315,13888 8263,13888 8263,12568 Z"/>
             <path fill="rgb(200,200,200)" stroke="none" d="M 8263,12568 L 8315,12568 8315,13888 8263,13888 8263,12568 Z M 8264,12591 L 8314,12591 8314,13865 8264,13865 8264,12591 Z"/>
             <path fill="rgb(201,201,201)" stroke="none" d="M 8264,12591 L 8314,12591 8314,13865 8264,13865 8264,12591 Z M 8265,12614 L 8313,12614 8313,13842 8265,13842 8265,12614 Z"/>
             <path fill="rgb(202,202,202)" stroke="none" d="M 8265,12614 L 8313,12614 8313,13842 8265,13842 8265,12614 Z M 8266,12637 L 8312,12637 8312,13819 8266,13819 8266,12637 Z"/>
             <path fill="rgb(203,203,203)" stroke="none" d="M 8266,12637 L 8312,12637 8312,13819 8266,13819 8266,12637 Z M 8267,12659 L 8311,12659 8311,13797 8267,13797 8267,12659 Z"/>
             <path fill="rgb(204,204,204)" stroke="none" d="M 8267,12659 L 8311,12659 8311,13797 8267,13797 8267,12659 Z M 8268,12682 L 8310,12682 8310,13774 8268,13774 8268,12682 Z"/>
             <path fill="rgb(205,205,205)" stroke="none" d="M 8268,12682 L 8310,12682 8310,13774 8268,13774 8268,12682 Z M 8269,12705 L 8309,12705 8309,13751 8269,13751 8269,12705 Z"/>
             <path fill="rgb(206,206,206)" stroke="none" d="M 8269,12705 L 8309,12705 8309,13751 8269,13751 8269,12705 Z M 8270,12728 L 8308,12728 8308,13728 8270,13728 8270,12728 Z"/>
             <path fill="rgb(207,207,207)" stroke="none" d="M 8270,12728 L 8308,12728 8308,13728 8270,13728 8270,12728 Z M 8271,12751 L 8307,12751 8307,13705 8271,13705 8271,12751 Z"/>
             <path fill="rgb(208,208,208)" stroke="none" d="M 8271,12751 L 8307,12751 8307,13705 8271,13705 8271,12751 Z M 8271,12773 L 8306,12773 8306,13683 8271,13683 8271,12773 Z"/>
             <path fill="rgb(209,209,209)" stroke="none" d="M 8271,12773 L 8306,12773 8306,13683 8271,13683 8271,12773 Z M 8272,12796 L 8306,12796 8306,13660 8272,13660 8272,12796 Z"/>
             <path fill="rgb(210,210,210)" stroke="none" d="M 8272,12796 L 8306,12796 8306,13660 8272,13660 8272,12796 Z M 8273,12819 L 8305,12819 8305,13637 8273,13637 8273,12819 Z"/>
             <path fill="rgb(211,211,211)" stroke="none" d="M 8273,12819 L 8305,12819 8305,13637 8273,13637 8273,12819 Z M 8274,12842 L 8304,12842 8304,13614 8274,13614 8274,12842 Z"/>
             <path fill="rgb(212,212,212)" stroke="none" d="M 8274,12842 L 8304,12842 8304,13614 8274,13614 8274,12842 Z M 8275,12864 L 8303,12864 8303,13592 8275,13592 8275,12864 Z"/>
             <path fill="rgb(213,213,213)" stroke="none" d="M 8275,12864 L 8303,12864 8303,13592 8275,13592 8275,12864 Z M 8276,12887 L 8302,12887 8302,13569 8276,13569 8276,12887 Z"/>
             <path fill="rgb(214,214,214)" stroke="none" d="M 8276,12887 L 8302,12887 8302,13569 8276,13569 8276,12887 Z M 8277,12910 L 8301,12910 8301,13546 8277,13546 8277,12910 Z"/>
             <path fill="rgb(215,215,215)" stroke="none" d="M 8277,12910 L 8301,12910 8301,13546 8277,13546 8277,12910 Z M 8278,12933 L 8300,12933 8300,13523 8278,13523 8278,12933 Z"/>
             <path fill="rgb(216,216,216)" stroke="none" d="M 8278,12933 L 8300,12933 8300,13523 8278,13523 8278,12933 Z M 8279,12955 L 8299,12955 8299,13501 8279,13501 8279,12955 Z"/>
             <path fill="rgb(217,217,217)" stroke="none" d="M 8279,12955 L 8299,12955 8299,13501 8279,13501 8279,12955 Z M 8280,12978 L 8298,12978 8298,13478 8280,13478 8280,12978 Z"/>
             <path fill="rgb(218,218,218)" stroke="none" d="M 8280,12978 L 8298,12978 8298,13478 8280,13478 8280,12978 Z M 8280,13001 L 8297,13001 8297,13455 8280,13455 8280,13001 Z"/>
             <path fill="rgb(219,219,219)" stroke="none" d="M 8280,13001 L 8297,13001 8297,13455 8280,13455 8280,13001 Z M 8281,13024 L 8297,13024 8297,13432 8281,13432 8281,13024 Z"/>
             <path fill="rgb(220,220,220)" stroke="none" d="M 8281,13024 L 8297,13024 8297,13432 8281,13432 8281,13024 Z M 8282,13046 L 8296,13046 8296,13410 8282,13410 8282,13046 Z"/>
             <path fill="rgb(221,221,221)" stroke="none" d="M 8282,13046 L 8296,13046 8296,13410 8282,13410 8282,13046 Z M 8283,13069 L 8295,13069 8295,13387 8283,13387 8283,13069 Z"/>
             <path fill="rgb(222,222,222)" stroke="none" d="M 8283,13069 L 8295,13069 8295,13387 8283,13387 8283,13069 Z M 8284,13092 L 8294,13092 8294,13364 8284,13364 8284,13092 Z"/>
             <path fill="rgb(223,223,223)" stroke="none" d="M 8284,13092 L 8294,13092 8294,13364 8284,13364 8284,13092 Z M 8285,13115 L 8293,13115 8293,13341 8285,13341 8285,13115 Z"/>
             <path fill="rgb(224,224,224)" stroke="none" d="M 8285,13115 L 8293,13115 8293,13341 8285,13341 8285,13115 Z M 8286,13137 L 8292,13137 8292,13319 8286,13319 8286,13137 Z"/>
             <path fill="rgb(225,225,225)" stroke="none" d="M 8286,13137 L 8292,13137 8292,13319 8286,13319 8286,13137 Z M 8287,13160 L 8291,13160 8291,13296 8287,13296 8287,13160 Z"/>
             <path fill="rgb(226,226,226)" stroke="none" d="M 8287,13160 L 8291,13160 8291,13296 8287,13296 8287,13160 Z M 8288,13183 L 8290,13183 8290,13273 8288,13273 8288,13183 Z"/>
             <path fill="rgb(229,229,229)" stroke="none" d="M 8288,13183 L 8290,13183 8290,13273 8288,13273 8288,13183 Z"/>
            </g>
           </pattern>
          </defs>
          <path style="fill:url(#pattern1)" d="M 8264,14821 L 8264,12599 8351,12548 8351,14771 8264,14821 Z"/>
         </g>
         <path fill="none" stroke="rgb(255,255,255)" stroke-width="40" stroke-linejoin="round" d="M 8264,14821 L 8264,12599 8351,12548 8351,14771 8264,14821 Z"/>
        </g>
       </g>
       <g class="com.sun.star.drawing.PolyPolygonShape">
        <g id="id10">
         <rect class="BoundingBox" stroke="none" fill="none" x="6584" y="14801" width="1701" height="1253"/>
         <g>
          <defs>
           <pattern id="pattern2" x="6604" y="14821" width="1661" height="1213" patternUnits="userSpaceOnUse">
            <g transform="translate(-6604,-14821)">
             <path fill="rgb(179,179,179)" stroke="none" d="M 6603,14820 L 8265,14820 8265,16034 6603,16034 6603,14820 Z M 6287,14590 L 7915,14590 7915,15778 6287,15778 6287,14590 Z"/>
             <path fill="rgb(180,180,180)" stroke="none" d="M 6287,14590 L 7915,14590 7915,15778 6287,15778 6287,14590 Z M 6304,14602 L 7898,14602 7898,15766 6304,15766 6304,14602 Z"/>
             <path fill="rgb(181,181,181)" stroke="none" d="M 6304,14602 L 7898,14602 7898,15766 6304,15766 6304,14602 Z M 6320,14614 L 7882,14614 7882,15754 6320,15754 6320,14614 Z"/>
             <path fill="rgb(182,182,182)" stroke="none" d="M 6320,14614 L 7882,14614 7882,15754 6320,15754 6320,14614 Z M 6337,14626 L 7865,14626 7865,15742 6337,15742 6337,14626 Z"/>
             <path fill="rgb(183,183,183)" stroke="none" d="M 6337,14626 L 7865,14626 7865,15742 6337,15742 6337,14626 Z M 6354,14638 L 7848,14638 7848,15730 6354,15730 6354,14638 Z"/>
             <path fill="rgb(184,184,184)" stroke="none" d="M 6354,14638 L 7848,14638 7848,15730 6354,15730 6354,14638 Z M 6370,14650 L 7832,14650 7832,15718 6370,15718 6370,14650 Z"/>
             <path fill="rgb(185,185,185)" stroke="none" d="M 6370,14650 L 7832,14650 7832,15718 6370,15718 6370,14650 Z M 6387,14663 L 7815,14663 7815,15705 6387,15705 6387,14663 Z"/>
             <path fill="rgb(186,186,186)" stroke="none" d="M 6387,14663 L 7815,14663 7815,15705 6387,15705 6387,14663 Z M 6404,14675 L 7798,14675 7798,15693 6404,15693 6404,14675 Z"/>
             <path fill="rgb(187,187,187)" stroke="none" d="M 6404,14675 L 7798,14675 7798,15693 6404,15693 6404,14675 Z M 6420,14687 L 7782,14687 7782,15681 6420,15681 6420,14687 Z"/>
             <path fill="rgb(188,188,188)" stroke="none" d="M 6420,14687 L 7782,14687 7782,15681 6420,15681 6420,14687 Z M 6437,14699 L 7765,14699 7765,15669 6437,15669 6437,14699 Z"/>
             <path fill="rgb(189,189,189)" stroke="none" d="M 6437,14699 L 7765,14699 7765,15669 6437,15669 6437,14699 Z M 6453,14711 L 7749,14711 7749,15657 6453,15657 6453,14711 Z"/>
             <path fill="rgb(190,190,190)" stroke="none" d="M 6453,14711 L 7749,14711 7749,15657 6453,15657 6453,14711 Z M 6470,14723 L 7732,14723 7732,15645 6470,15645 6470,14723 Z"/>
             <path fill="rgb(191,191,191)" stroke="none" d="M 6470,14723 L 7732,14723 7732,15645 6470,15645 6470,14723 Z M 6487,14735 L 7715,14735 7715,15633 6487,15633 6487,14735 Z"/>
             <path fill="rgb(192,192,192)" stroke="none" d="M 6487,14735 L 7715,14735 7715,15633 6487,15633 6487,14735 Z M 6503,14748 L 7699,14748 7699,15620 6503,15620 6503,14748 Z"/>
             <path fill="rgb(193,193,193)" stroke="none" d="M 6503,14748 L 7699,14748 7699,15620 6503,15620 6503,14748 Z M 6520,14760 L 7682,14760 7682,15608 6520,15608 6520,14760 Z"/>
             <path fill="rgb(194,194,194)" stroke="none" d="M 6520,14760 L 7682,14760 7682,15608 6520,15608 6520,14760 Z M 6537,14772 L 7665,14772 7665,15596 6537,15596 6537,14772 Z"/>
             <path fill="rgb(195,195,195)" stroke="none" d="M 6537,14772 L 7665,14772 7665,15596 6537,15596 6537,14772 Z M 6553,14784 L 7649,14784 7649,15584 6553,15584 6553,14784 Z"/>
             <path fill="rgb(196,196,196)" stroke="none" d="M 6553,14784 L 7649,14784 7649,15584 6553,15584 6553,14784 Z M 6570,14796 L 7632,14796 7632,15572 6570,15572 6570,14796 Z"/>
             <path fill="rgb(197,197,197)" stroke="none" d="M 6570,14796 L 7632,14796 7632,15572 6570,15572 6570,14796 Z M 6585,14807 L 7616,14807 7616,15560 6585,15560 6585,14807 Z"/>
             <path fill="rgb(198,198,198)" stroke="none" d="M 6585,14807 L 7616,14807 7616,15560 6585,15560 6585,14807 Z M 6602,14820 L 7599,14820 7599,15548 6602,15548 6602,14820 Z"/>
             <path fill="rgb(199,199,199)" stroke="none" d="M 6602,14820 L 7599,14820 7599,15548 6602,15548 6602,14820 Z M 6619,14832 L 7582,14832 7582,15535 6619,15535 6619,14832 Z"/>
             <path fill="rgb(200,200,200)" stroke="none" d="M 6619,14832 L 7582,14832 7582,15535 6619,15535 6619,14832 Z M 6635,14844 L 7566,14844 7566,15523 6635,15523 6635,14844 Z"/>
             <path fill="rgb(201,201,201)" stroke="none" d="M 6635,14844 L 7566,14844 7566,15523 6635,15523 6635,14844 Z M 6652,14856 L 7549,14856 7549,15511 6652,15511 6652,14856 Z"/>
             <path fill="rgb(202,202,202)" stroke="none" d="M 6652,14856 L 7549,14856 7549,15511 6652,15511 6652,14856 Z M 6669,14868 L 7532,14868 7532,15499 6669,15499 6669,14868 Z"/>
             <path fill="rgb(203,203,203)" stroke="none" d="M 6669,14868 L 7532,14868 7532,15499 6669,15499 6669,14868 Z M 6685,14880 L 7516,14880 7516,15487 6685,15487 6685,14880 Z"/>
             <path fill="rgb(204,204,204)" stroke="none" d="M 6685,14880 L 7516,14880 7516,15487 6685,15487 6685,14880 Z M 6702,14892 L 7499,14892 7499,15475 6702,15475 6702,14892 Z"/>
             <path fill="rgb(205,205,205)" stroke="none" d="M 6702,14892 L 7499,14892 7499,15475 6702,15475 6702,14892 Z M 6719,14905 L 7482,14905 7482,15462 6719,15462 6719,14905 Z"/>
             <path fill="rgb(206,206,206)" stroke="none" d="M 6719,14905 L 7482,14905 7482,15462 6719,15462 6719,14905 Z M 6735,14917 L 7466,14917 7466,15450 6735,15450 6735,14917 Z"/>
             <path fill="rgb(207,207,207)" stroke="none" d="M 6735,14917 L 7466,14917 7466,15450 6735,15450 6735,14917 Z M 6752,14929 L 7449,14929 7449,15438 6752,15438 6752,14929 Z"/>
             <path fill="rgb(208,208,208)" stroke="none" d="M 6752,14929 L 7449,14929 7449,15438 6752,15438 6752,14929 Z M 6768,14941 L 7433,14941 7433,15426 6768,15426 6768,14941 Z"/>
             <path fill="rgb(209,209,209)" stroke="none" d="M 6768,14941 L 7433,14941 7433,15426 6768,15426 6768,14941 Z M 6785,14953 L 7416,14953 7416,15414 6785,15414 6785,14953 Z"/>
             <path fill="rgb(210,210,210)" stroke="none" d="M 6785,14953 L 7416,14953 7416,15414 6785,15414 6785,14953 Z M 6802,14965 L 7399,14965 7399,15402 6802,15402 6802,14965 Z"/>
             <path fill="rgb(211,211,211)" stroke="none" d="M 6802,14965 L 7399,14965 7399,15402 6802,15402 6802,14965 Z M 6818,14977 L 7383,14977 7383,15390 6818,15390 6818,14977 Z"/>
             <path fill="rgb(212,212,212)" stroke="none" d="M 6818,14977 L 7383,14977 7383,15390 6818,15390 6818,14977 Z M 6835,14990 L 7366,14990 7366,15377 6835,15377 6835,14990 Z"/>
             <path fill="rgb(213,213,213)" stroke="none" d="M 6835,14990 L 7366,14990 7366,15377 6835,15377 6835,14990 Z M 6852,15002 L 7349,15002 7349,15365 6852,15365 6852,15002 Z"/>
             <path fill="rgb(214,214,214)" stroke="none" d="M 6852,15002 L 7349,15002 7349,15365 6852,15365 6852,15002 Z M 6868,15014 L 7333,15014 7333,15353 6868,15353 6868,15014 Z"/>
             <path fill="rgb(215,215,215)" stroke="none" d="M 6868,15014 L 7333,15014 7333,15353 6868,15353 6868,15014 Z M 6885,15026 L 7316,15026 7316,15341 6885,15341 6885,15026 Z"/>
             <path fill="rgb(216,216,216)" stroke="none" d="M 6885,15026 L 7316,15026 7316,15341 6885,15341 6885,15026 Z M 6901,15038 L 7300,15038 7300,15329 6901,15329 6901,15038 Z"/>
             <path fill="rgb(217,217,217)" stroke="none" d="M 6901,15038 L 7300,15038 7300,15329 6901,15329 6901,15038 Z M 6918,15050 L 7283,15050 7283,15317 6918,15317 6918,15050 Z"/>
             <path fill="rgb(218,218,218)" stroke="none" d="M 6918,15050 L 7283,15050 7283,15317 6918,15317 6918,15050 Z M 6935,15063 L 7266,15063 7266,15305 6935,15305 6935,15063 Z"/>
             <path fill="rgb(219,219,219)" stroke="none" d="M 6935,15063 L 7266,15063 7266,15305 6935,15305 6935,15063 Z M 6951,15075 L 7250,15075 7250,15292 6951,15292 6951,15075 Z"/>
             <path fill="rgb(220,220,220)" stroke="none" d="M 6951,15075 L 7250,15075 7250,15292 6951,15292 6951,15075 Z M 6968,15087 L 7233,15087 7233,15280 6968,15280 6968,15087 Z"/>
             <path fill="rgb(221,221,221)" stroke="none" d="M 6968,15087 L 7233,15087 7233,15280 6968,15280 6968,15087 Z M 6985,15099 L 7216,15099 7216,15268 6985,15268 6985,15099 Z"/>
             <path fill="rgb(222,222,222)" stroke="none" d="M 6985,15099 L 7216,15099 7216,15268 6985,15268 6985,15099 Z M 7001,15111 L 7200,15111 7200,15256 7001,15256 7001,15111 Z"/>
             <path fill="rgb(223,223,223)" stroke="none" d="M 7001,15111 L 7200,15111 7200,15256 7001,15256 7001,15111 Z M 7018,15123 L 7183,15123 7183,15244 7018,15244 7018,15123 Z"/>
             <path fill="rgb(224,224,224)" stroke="none" d="M 7018,15123 L 7183,15123 7183,15244 7018,15244 7018,15123 Z M 7034,15135 L 7167,15135 7167,15232 7034,15232 7034,15135 Z"/>
             <path fill="rgb(225,225,225)" stroke="none" d="M 7034,15135 L 7167,15135 7167,15232 7034,15232 7034,15135 Z M 7051,15148 L 7150,15148 7150,15219 7051,15219 7051,15148 Z"/>
             <path fill="rgb(226,226,226)" stroke="none" d="M 7051,15148 L 7150,15148 7150,15219 7051,15219 7051,15148 Z M 7068,15160 L 7133,15160 7133,15207 7068,15207 7068,15160 Z"/>
             <path fill="rgb(227,227,227)" stroke="none" d="M 7068,15160 L 7133,15160 7133,15207 7068,15207 7068,15160 Z M 7084,15172 L 7117,15172 7117,15195 7084,15195 7084,15172 Z"/>
             <path fill="rgb(229,229,229)" stroke="none" d="M 7084,15172 L 7117,15172 7117,15195 7084,15195 7084,15172 Z"/>
            </g>
           </pattern>
          </defs>
          <path style="fill:url(#pattern2)" d="M 6604,16033 L 6604,15781 8264,14821 8264,15074 6604,16033 Z"/>
         </g>
         <path fill="none" stroke="rgb(255,255,255)" stroke-width="40" stroke-linejoin="round" d="M 6604,16033 L 6604,15781 8264,14821 8264,15074 6604,16033 Z"/>
        </g>
       </g>
       <g class="com.sun.star.drawing.LineShape">
        <g id="id11">
         <rect class="BoundingBox" stroke="none" fill="none" x="5273" y="13943" width="2051" height="1203"/>
         <path fill="none" stroke="rgb(229,229,229)" stroke-width="40" stroke-linejoin="round" d="M 5293,13963 L 7303,15125"/>
        </g>
       </g>
       <g class="com.sun.star.drawing.LineShape">
        <g id="id12">
         <rect class="BoundingBox" stroke="none" fill="none" x="5448" y="13842" width="2051" height="1203"/>
         <path fill="none" stroke="rgb(229,229,229)" stroke-width="40" stroke-linejoin="round" d="M 5468,13862 L 7478,15024"/>
        </g>
       </g>
       <g class="com.sun.star.drawing.LineShape">
        <g id="id13">
         <rect class="BoundingBox" stroke="none" fill="none" x="5623" y="13741" width="2051" height="1203"/>
         <path fill="none" stroke="rgb(229,229,229)" stroke-width="40" stroke-linejoin="round" d="M 5643,13761 L 7653,14923"/>
        </g>
       </g>
       <g class="com.sun.star.drawing.LineShape">
        <g id="id14">
         <rect class="BoundingBox" stroke="none" fill="none" x="7370" y="14650" width="216" height="142"/>
         <path fill="none" stroke="rgb(229,229,229)" stroke-width="40" stroke-linejoin="round" d="M 7390,14771 L 7565,14670"/>
        </g>
       </g>
       <g class="com.sun.star.drawing.LineShape">
        <g id="id15">
         <rect class="BoundingBox" stroke="none" fill="none" x="7196" y="14549" width="216" height="142"/>
         <path fill="none" stroke="rgb(229,229,229)" stroke-width="40" stroke-linejoin="round" d="M 7216,14670 L 7391,14569"/>
        </g>
       </g>
       <g class="com.sun.star.drawing.LineShape">
        <g id="id16">
         <rect class="BoundingBox" stroke="none" fill="none" x="7021" y="14448" width="216" height="142"/>
         <path fill="none" stroke="rgb(229,229,229)" stroke-width="40" stroke-linejoin="round" d="M 7041,14569 L 7216,14468"/>
        </g>
       </g>
       <g class="com.sun.star.drawing.LineShape">
        <g id="id17">
         <rect class="BoundingBox" stroke="none" fill="none" x="7108" y="14700" width="216" height="142"/>
         <path fill="none" stroke="rgb(229,229,229)" stroke-width="40" stroke-linejoin="round" d="M 7128,14821 L 7303,14720"/>
        </g>
       </g>
       <g class="com.sun.star.drawing.LineShape">
        <g id="id18">
         <rect class="BoundingBox" stroke="none" fill="none" x="6933" y="14599" width="216" height="142"/>
         <path fill="none" stroke="rgb(229,229,229)" stroke-width="40" stroke-linejoin="round" d="M 6953,14720 L 7128,14619"/>
        </g>
       </g>
       <g class="com.sun.star.drawing.LineShape">
        <g id="id19">
         <rect class="BoundingBox" stroke="none" fill="none" x="6759" y="14498" width="216" height="142"/>
         <path fill="none" stroke="rgb(229,229,229)" stroke-width="40" stroke-linejoin="round" d="M 6779,14619 L 6954,14518"/>
        </g>
       </g>
       <g class="com.sun.star.drawing.LineShape">
        <g id="id20">
         <rect class="BoundingBox" stroke="none" fill="none" x="6846" y="14347" width="216" height="142"/>
         <path fill="none" stroke="rgb(229,229,229)" stroke-width="40" stroke-linejoin="round" d="M 6866,14468 L 7041,14367"/>
        </g>
       </g>
       <g class="com.sun.star.drawing.LineShape">
        <g id="id21">
         <rect class="BoundingBox" stroke="none" fill="none" x="6584" y="14397" width="216" height="142"/>
         <path fill="none" stroke="rgb(229,229,229)" stroke-width="40" stroke-linejoin="round" d="M 6604,14518 L 6779,14417"/>
        </g>
       </g>
       <g class="com.sun.star.drawing.LineShape">
        <g id="id22">
         <rect class="BoundingBox" stroke="none" fill="none" x="6671" y="14246" width="216" height="142"/>
         <path fill="none" stroke="rgb(229,229,229)" stroke-width="40" stroke-linejoin="round" d="M 6691,14367 L 6866,14266"/>
        </g>
       </g>
       <g class="com.sun.star.drawing.LineShape">
        <g id="id23">
         <rect class="BoundingBox" stroke="none" fill="none" x="6496" y="14145" width="216" height="142"/>
         <path fill="none" stroke="rgb(229,229,229)" stroke-width="40" stroke-linejoin="round" d="M 6516,14266 L 6691,14165"/>
        </g>
       </g>
       <g class="com.sun.star.drawing.LineShape">
        <g id="id24">
         <rect class="BoundingBox" stroke="none" fill="none" x="6322" y="14044" width="216" height="142"/>
         <path fill="none" stroke="rgb(229,229,229)" stroke-width="40" stroke-linejoin="round" d="M 6342,14165 L 6517,14064"/>
        </g>
       </g>
       <g class="com.sun.star.drawing.LineShape">
        <g id="id25">
         <rect class="BoundingBox" stroke="none" fill="none" x="6409" y="14296" width="216" height="142"/>
         <path fill="none" stroke="rgb(229,229,229)" stroke-width="40" stroke-linejoin="round" d="M 6429,14417 L 6604,14316"/>
        </g>
       </g>
       <g class="com.sun.star.drawing.LineShape">
        <g id="id26">
         <rect class="BoundingBox" stroke="none" fill="none" x="6234" y="14195" width="216" height="142"/>
         <path fill="none" stroke="rgb(229,229,229)" stroke-width="40" stroke-linejoin="round" d="M 6254,14316 L 6429,14215"/>
        </g>
       </g>
       <g class="com.sun.star.drawing.LineShape">
        <g id="id27">
         <rect class="BoundingBox" stroke="none" fill="none" x="6060" y="14094" width="216" height="142"/>
         <path fill="none" stroke="rgb(229,229,229)" stroke-width="40" stroke-linejoin="round" d="M 6080,14215 L 6255,14114"/>
        </g>
       </g>
       <g class="com.sun.star.drawing.LineShape">
        <g id="id28">
         <rect class="BoundingBox" stroke="none" fill="none" x="6147" y="13943" width="216" height="142"/>
         <path fill="none" stroke="rgb(229,229,229)" stroke-width="40" stroke-linejoin="round" d="M 6167,14064 L 6342,13963"/>
        </g>
       </g>
       <g class="com.sun.star.drawing.LineShape">
        <g id="id29">
         <rect class="BoundingBox" stroke="none" fill="none" x="5885" y="13993" width="216" height="142"/>
         <path fill="none" stroke="rgb(229,229,229)" stroke-width="40" stroke-linejoin="round" d="M 5905,14114 L 6080,14013"/>
        </g>
       </g>
       <g class="com.sun.star.drawing.LineShape">
        <g id="id30">
         <rect class="BoundingBox" stroke="none" fill="none" x="5972" y="13842" width="216" height="142"/>
         <path fill="none" stroke="rgb(229,229,229)" stroke-width="40" stroke-linejoin="round" d="M 5992,13963 L 6167,13862"/>
        </g>
       </g>
       <g class="com.sun.star.drawing.LineShape">
        <g id="id31">
         <rect class="BoundingBox" stroke="none" fill="none" x="5797" y="13741" width="216" height="142"/>
         <path fill="none" stroke="rgb(229,229,229)" stroke-width="40" stroke-linejoin="round" d="M 5817,13862 L 5992,13761"/>
        </g>
       </g>
       <g class="com.sun.star.drawing.LineShape">
        <g id="id32">
         <rect class="BoundingBox" stroke="none" fill="none" x="5710" y="13892" width="216" height="142"/>
         <path fill="none" stroke="rgb(229,229,229)" stroke-width="40" stroke-linejoin="round" d="M 5730,14013 L 5905,13912"/>
        </g>
       </g>
       <g class="com.sun.star.drawing.LineShape">
        <g id="id33">
         <rect class="BoundingBox" stroke="none" fill="none" x="6846" y="14751" width="216" height="142"/>
         <path fill="none" stroke="rgb(229,229,229)" stroke-width="40" stroke-linejoin="round" d="M 6866,14872 L 7041,14771"/>
        </g>
       </g>
       <g class="com.sun.star.drawing.LineShape">
        <g id="id34">
         <rect class="BoundingBox" stroke="none" fill="none" x="6671" y="14650" width="216" height="142"/>
         <path fill="none" stroke="rgb(229,229,229)" stroke-width="40" stroke-linejoin="round" d="M 6691,14771 L 6866,14670"/>
        </g>
       </g>
       <g class="com.sun.star.drawing.LineShape">
        <g id="id35">
         <rect class="BoundingBox" stroke="none" fill="none" x="6496" y="14549" width="216" height="142"/>
         <path fill="none" stroke="rgb(229,229,229)" stroke-width="40" stroke-linejoin="round" d="M 6516,14670 L 6691,14569"/>
        </g>
       </g>
       <g class="com.sun.star.drawing.LineShape">
        <g id="id36">
         <rect class="BoundingBox" stroke="none" fill="none" x="6409" y="14700" width="216" height="142"/>
         <path fill="none" stroke="rgb(229,229,229)" stroke-width="40" stroke-linejoin="round" d="M 6429,14821 L 6604,14720"/>
        </g>
       </g>
       <g class="com.sun.star.drawing.LineShape">
        <g id="id37">
         <rect class="BoundingBox" stroke="none" fill="none" x="6234" y="14599" width="216" height="142"/>
         <path fill="none" stroke="rgb(229,229,229)" stroke-width="40" stroke-linejoin="round" d="M 6254,14720 L 6429,14619"/>
        </g>
       </g>
       <g class="com.sun.star.drawing.LineShape">
        <g id="id38">
         <rect class="BoundingBox" stroke="none" fill="none" x="6322" y="14448" width="216" height="142"/>
         <path fill="none" stroke="rgb(229,229,229)" stroke-width="40" stroke-linejoin="round" d="M 6342,14569 L 6517,14468"/>
        </g>
       </g>
       <g class="com.sun.star.drawing.LineShape">
        <g id="id39">
         <rect class="BoundingBox" stroke="none" fill="none" x="6147" y="14347" width="216" height="142"/>
         <path fill="none" stroke="rgb(229,229,229)" stroke-width="40" stroke-linejoin="round" d="M 6167,14468 L 6342,14367"/>
        </g>
       </g>
       <g class="com.sun.star.drawing.LineShape">
        <g id="id40">
         <rect class="BoundingBox" stroke="none" fill="none" x="5972" y="14246" width="216" height="142"/>
         <path fill="none" stroke="rgb(229,229,229)" stroke-width="40" stroke-linejoin="round" d="M 5992,14367 L 6167,14266"/>
        </g>
       </g>
       <g class="com.sun.star.drawing.LineShape">
        <g id="id41">
         <rect class="BoundingBox" stroke="none" fill="none" x="5797" y="14145" width="216" height="142"/>
         <path fill="none" stroke="rgb(229,229,229)" stroke-width="40" stroke-linejoin="round" d="M 5817,14266 L 5992,14165"/>
        </g>
       </g>
       <g class="com.sun.star.drawing.LineShape">
        <g id="id42">
         <rect class="BoundingBox" stroke="none" fill="none" x="5535" y="14195" width="216" height="142"/>
         <path fill="none" stroke="rgb(229,229,229)" stroke-width="40" stroke-linejoin="round" d="M 5555,14316 L 5730,14215"/>
        </g>
       </g>
       <g class="com.sun.star.drawing.LineShape">
        <g id="id43">
         <rect class="BoundingBox" stroke="none" fill="none" x="5623" y="14044" width="216" height="142"/>
         <path fill="none" stroke="rgb(229,229,229)" stroke-width="40" stroke-linejoin="round" d="M 5643,14165 L 5818,14064"/>
        </g>
       </g>
       <g class="com.sun.star.drawing.LineShape">
        <g id="id44">
         <rect class="BoundingBox" stroke="none" fill="none" x="5360" y="14094" width="216" height="142"/>
         <path fill="none" stroke="rgb(229,229,229)" stroke-width="40" stroke-linejoin="round" d="M 5380,14215 L 5555,14114"/>
        </g>
       </g>
       <g class="com.sun.star.drawing.LineShape">
        <g id="id45">
         <rect class="BoundingBox" stroke="none" fill="none" x="6759" y="14903" width="216" height="142"/>
         <path fill="none" stroke="rgb(229,229,229)" stroke-width="40" stroke-linejoin="round" d="M 6779,15024 L 6954,14923"/>
        </g>
       </g>
       <g class="com.sun.star.drawing.LineShape">
        <g id="id46">
         <rect class="BoundingBox" stroke="none" fill="none" x="6584" y="14801" width="216" height="142"/>
         <path fill="none" stroke="rgb(229,229,229)" stroke-width="40" stroke-linejoin="round" d="M 6604,14922 L 6779,14821"/>
        </g>
       </g>
       <g class="com.sun.star.drawing.PolyPolygonShape">
        <g id="id47">
         <rect class="BoundingBox" stroke="none" fill="none" x="4137" y="14346" width="2488" height="1709"/>
         <g>
          <defs>
           <linearGradient id="gradient5" x1="4157" y1="15200" x2="6604" y2="15200" gradientUnits="userSpaceOnUse">
            <stop offset="0.1" style="stop-color:rgb(179,179,179)"/>
            <stop offset="1" style="stop-color:rgb(229,229,229)"/>
           </linearGradient>
          </defs>
          <path style="fill:url(#gradient5)" d="M 4157,14620 L 4157,14367 6604,15781 6604,16034 4157,14620 Z"/>
         </g>
         <path fill="none" stroke="rgb(255,255,255)" stroke-width="40" stroke-linejoin="round" d="M 4157,14620 L 4157,14367 6604,15781 6604,16034 4157,14620 Z"/>
        </g>
       </g>
       <g class="com.sun.star.drawing.PolyPolygonShape">
        <g id="id48">
         <rect class="BoundingBox" stroke="none" fill="none" x="4137" y="11114" width="4236" height="4941"/>
         <path fill="none" stroke="rgb(0,0,0)" stroke-width="40" stroke-linejoin="round" d="M 5905,11134 L 8352,12548 8352,14771 8264,14821 8264,15074 6604,16034 4157,14619 4157,14367 5817,13407 5817,11185 5905,11134 Z"/>
        </g>
       </g>
       <g class="com.sun.star.drawing.PolyPolygonShape">
        <g id="id49">
         <rect class="BoundingBox" stroke="none" fill="none" x="5186" y="14498" width="1090" height="647"/>
         <path fill="rgb(179,179,179)" stroke="none" d="M 5206,14771 L 5643,14518 6255,14872 5818,15124 5206,14771 Z"/>
         <path fill="none" stroke="rgb(255,255,255)" stroke-width="40" stroke-linejoin="round" d="M 5206,14771 L 5643,14518 6255,14872 5818,15124 5206,14771 Z"/>
        </g>
       </g>
       <g class="com.sun.star.drawing.LineShape">
        <g id="id50">
         <rect class="BoundingBox" stroke="none" fill="none" x="7283" y="14801" width="216" height="142"/>
         <path fill="none" stroke="rgb(229,229,229)" stroke-width="40" stroke-linejoin="round" d="M 7303,14922 L 7478,14821"/>
        </g>
       </g>
       <g class="com.sun.star.drawing.LineShape">
        <g id="id51">
         <rect class="BoundingBox" stroke="none" fill="none" x="7021" y="14852" width="216" height="142"/>
         <path fill="none" stroke="rgb(229,229,229)" stroke-width="40" stroke-linejoin="round" d="M 7041,14973 L 7216,14872"/>
        </g>
       </g>
      </g>
     </g>
    </g>
   </g>
  </g>
 </g>
</svg>