<?xml version="1.0" encoding="UTF-8" standalone="yes"?>
<!DOCTYPE svg PUBLIC "-//W3C//DTD SVG 1.0//EN" "http://www.w3.org/TR/2001/REC-SVG-20010904/DTD/svg10.dtd">
<svg height="160" width="420" xmlns="http://www.w3.org/2000/svg" xmlns:svg="http://www.w3.org/2000/svg" xmlns:xlink="http://www.w3.org/1999/xlink">
	<g id="lb0">
		<text alignment-baseline="middle" id="t0" style="fill: rgb(50,50,50); font-family: Arial; font-size: 10" text-anchor="middle" type="span" x="7" y="129">0</text>
		<g id="byg0">
			<rect height="10" id="rby0bi0" style="fill: rgb(255,255,255); stroke: rgb(50,50,50)" width="10" x="15" y="124" />
			<rect height="10" id="rby0bi1" style="fill: rgb(255,255,255); stroke: rgb(50,50,50)" width="10" x="25" y="124" />
			<rect height="10" id="rby0bi2" style="fill: rgb(255,255,255); stroke: rgb(50,50,50)" width="10" x="35" y="124" />
			<rect height="10" id="rby0bi3" style="fill: rgb(255,255,255); stroke: rgb(50,50,50)" width="10" x="45" y="124" />
			<rect height="10" id="rby0bi4" style="fill: rgb(255,255,255); stroke: rgb(50,50,50)" width="10" x="55" y="124" />
			<rect height="10" id="rby0bi5" style="fill: rgb(255,255,255); stroke: rgb(50,50,50)" width="10" x="65" y="124" />
			<rect height="10" id="rby0bi6" style="fill: rgb(255,255,255); stroke: rgb(50,50,50)" width="10" x="75" y="124" />
			<rect height="10" id="rby0bi7" style="fill: rgb(255,255,255); stroke: rgb(50,50,50)" width="10" x="85" y="124" />
		</g>
	</g>
	<g id="lb1">
		<text alignment-baseline="middle" id="t1" style="fill: rgb(50,50,50); font-family: Arial; font-size: 10" text-anchor="middle" type="span" x="7" y="116">1</text>
		<g id="byg1">
			<rect height="10" id="rby1bi0" style="fill: rgb(255,255,255); stroke: rgb(50,50,50)" width="10" x="15" y="111" />
			<rect height="10" id="rby1bi1" style="fill: rgb(255,255,255); stroke: rgb(50,50,50)" width="10" x="25" y="111" />
			<rect height="10" id="rby1bi2" style="fill: rgb(255,255,255); stroke: rgb(50,50,50)" width="10" x="35" y="111" />
			<rect height="10" id="rby1bi3" style="fill: rgb(255,255,255); stroke: rgb(50,50,50)" width="10" x="45" y="111" />
			<rect height="10" id="rby1bi4" style="fill: rgb(255,255,255); stroke: rgb(50,50,50)" width="10" x="55" y="111" />
			<rect height="10" id="rby1bi5" style="fill: rgb(255,255,255); stroke: rgb(50,50,50)" width="10" x="65" y="111" />
			<rect height="10" id="rby1bi6" style="fill: rgb(255,255,255); stroke: rgb(50,50,50)" width="10" x="75" y="111" />
			<rect height="10" id="rby1bi7" style="fill: rgb(255,255,255); stroke: rgb(50,50,50)" width="10" x="85" y="111" />
		</g>
	</g>
	<g id="lb2">
		<text alignment-baseline="middle" id="t2" style="fill: rgb(50,50,50); font-family: Arial; font-size: 10" text-anchor="middle" type="span" x="7" y="103">2</text>
		<g id="byg2">
			<rect height="10" id="rby2bi0" style="fill: rgb(255,255,255); stroke: rgb(50,50,50)" width="10" x="15" y="98" />
			<rect height="10" id="rby2bi1" style="fill: rgb(255,255,255); stroke: rgb(50,50,50)" width="10" x="25" y="98" />
			<rect height="10" id="rby2bi2" style="fill: rgb(255,255,255); stroke: rgb(50,50,50)" width="10" x="35" y="98" />
			<rect height="10" id="rby2bi3" style="fill: rgb(255,255,255); stroke: rgb(50,50,50)" width="10" x="45" y="98" />
			<rect height="10" id="rby2bi4" style="fill: rgb(255,255,255); stroke: rgb(50,50,50)" width="10" x="55" y="98" />
			<rect height="10" id="rby2bi5" style="fill: rgb(255,255,255); stroke: rgb(50,50,50)" width="10" x="65" y="98" />
			<rect height="10" id="rby2bi6" style="fill: rgb(255,255,255); stroke: rgb(50,50,50)" width="10" x="75" y="98" />
			<rect height="10" id="rby2bi7" style="fill: rgb(255,255,255); stroke: rgb(50,50,50)" width="10" x="85" y="98" />
		</g>
	</g>
	<g id="lb3">
		<text alignment-baseline="middle" id="t3" style="fill: rgb(50,50,50); font-family: Arial; font-size: 10" text-anchor="middle" type="span" x="7" y="90">3</text>
		<g id="byg3">
			<rect height="10" id="rby3bi0" style="fill: rgb(255,255,255); stroke: rgb(50,50,50)" width="10" x="15" y="85" />
			<rect height="10" id="rby3bi1" style="fill: rgb(255,255,255); stroke: rgb(50,50,50)" width="10" x="25" y="85" />
			<rect height="10" id="rby3bi2" style="fill: rgb(255,255,255); stroke: rgb(50,50,50)" width="10" x="35" y="85" />
			<rect height="10" id="rby3bi3" style="fill: rgb(255,255,255); stroke: rgb(50,50,50)" width="10" x="45" y="85" />
			<rect height="10" id="rby3bi4" style="fill: rgb(255,255,255); stroke: rgb(50,50,50)" width="10" x="55" y="85" />
			<rect height="10" id="rby3bi5" style="fill: rgb(255,255,255); stroke: rgb(50,50,50)" width="10" x="65" y="85" />
			<rect height="10" id="rby3bi6" style="fill: rgb(255,255,255); stroke: rgb(50,50,50)" width="10" x="75" y="85" />
			<rect height="10" id="rby3bi7" style="fill: rgb(255,255,255); stroke: rgb(50,50,50)" width="10" x="85" y="85" />
		</g>
	</g>
	<g id="lb4">
		<text alignment-baseline="middle" id="t4" style="fill: rgb(50,50,50); font-family: Arial; font-size: 10" text-anchor="middle" type="span" x="7" y="77">4</text>
		<g id="byg4">
			<rect height="10" id="rby4bi0" style="fill: rgb(255,255,255); stroke: rgb(50,50,50)" width="10" x="15" y="72" />
			<rect height="10" id="rby4bi1" style="fill: rgb(255,255,255); stroke: rgb(50,50,50)" width="10" x="25" y="72" />
			<rect height="10" id="rby4bi2" style="fill: rgb(255,255,255); stroke: rgb(50,50,50)" width="10" x="35" y="72" />
			<rect height="10" id="rby4bi3" style="fill: rgb(255,255,255); stroke: rgb(50,50,50)" width="10" x="45" y="72" />
			<rect height="10" id="rby4bi4" style="fill: rgb(255,255,255); stroke: rgb(50,50,50)" width="10" x="55" y="72" />
			<rect height="10" id="rby4bi5" style="fill: rgb(255,255,255); stroke: rgb(50,50,50)" width="10" x="65" y="72" />
			<rect height="10" id="rby4bi6" style="fill: rgb(255,255,255); stroke: rgb(50,50,50)" width="10" x="75" y="72" />
			<rect height="10" id="rby4bi7" style="fill: rgb(255,255,255); stroke: rgb(50,50,50)" width="10" x="85" y="72" />
		</g>
	</g>
	<g id="lb5">
		<text alignment-baseline="middle" id="t5" style="fill: rgb(50,50,50); font-family: Arial; font-size: 10" text-anchor="middle" type="span" x="7" y="64">5</text>
		<g id="byg5">
			<rect height="10" id="rby5bi0" style="fill: rgb(255,255,255); stroke: rgb(50,50,50)" width="10" x="15" y="59" />
			<rect height="10" id="rby5bi1" style="fill: rgb(255,255,255); stroke: rgb(50,50,50)" width="10" x="25" y="59" />
			<rect height="10" id="rby5bi2" style="fill: rgb(255,255,255); stroke: rgb(50,50,50)" width="10" x="35" y="59" />
			<rect height="10" id="rby5bi3" style="fill: rgb(255,255,255); stroke: rgb(50,50,50)" width="10" x="45" y="59" />
			<rect height="10" id="rby5bi4" style="fill: rgb(255,255,255); stroke: rgb(50,50,50)" width="10" x="55" y="59" />
			<rect height="10" id="rby5bi5" style="fill: rgb(255,255,255); stroke: rgb(50,50,50)" width="10" x="65" y="59" />
			<rect height="10" id="rby5bi6" style="fill: rgb(255,255,255); stroke: rgb(50,50,50)" width="10" x="75" y="59" />
			<rect height="10" id="rby5bi7" style="fill: rgb(255,255,255); stroke: rgb(50,50,50)" width="10" x="85" y="59" />
		</g>
	</g>
	<g id="lb6">
		<text alignment-baseline="middle" id="t6" style="fill: rgb(50,50,50); font-family: Arial; font-size: 10" text-anchor="middle" type="span" x="7" y="51">6</text>
		<g id="byg6">
			<rect height="10" id="rby6bi0" style="fill: rgb(255,255,255); stroke: rgb(50,50,50)" width="10" x="15" y="46" />
			<rect height="10" id="rby6bi1" style="fill: rgb(255,255,255); stroke: rgb(50,50,50)" width="10" x="25" y="46" />
			<rect height="10" id="rby6bi2" style="fill: rgb(255,255,255); stroke: rgb(50,50,50)" width="10" x="35" y="46" />
			<rect height="10" id="rby6bi3" style="fill: rgb(255,255,255); stroke: rgb(50,50,50)" width="10" x="45" y="46" />
			<rect height="10" id="rby6bi4" style="fill: rgb(255,255,255); stroke: rgb(50,50,50)" width="10" x="55" y="46" />
			<rect height="10" id="rby6bi5" style="fill: rgb(255,255,255); stroke: rgb(50,50,50)" width="10" x="65" y="46" />
			<rect height="10" id="rby6bi6" style="fill: rgb(255,255,255); stroke: rgb(50,50,50)" width="10" x="75" y="46" />
			<rect height="10" id="rby6bi7" style="fill: rgb(255,255,255); stroke: rgb(50,50,50)" width="10" x="85" y="46" />
		</g>
	</g>
	<g id="lb7">
		<text alignment-baseline="middle" id="t7" style="fill: rgb(50,50,50); font-family: Arial; font-size: 10" text-anchor="middle" type="span" x="7" y="38">7</text>
		<g id="byg7">
			<rect height="10" id="rby7bi0" style="fill: rgb(255,255,255); stroke: rgb(50,50,50)" width="10" x="15" y="33" />
			<rect height="10" id="rby7bi1" style="fill: rgb(255,255,255); stroke: rgb(50,50,50)" width="10" x="25" y="33" />
			<rect height="10" id="rby7bi2" style="fill: rgb(255,255,255); stroke: rgb(50,50,50)" width="10" x="35" y="33" />
			<rect height="10" id="rby7bi3" style="fill: rgb(255,255,255); stroke: rgb(50,50,50)" width="10" x="45" y="33" />
			<rect height="10" id="rby7bi4" style="fill: rgb(255,255,255); stroke: rgb(50,50,50)" width="10" x="55" y="33" />
			<rect height="10" id="rby7bi5" style="fill: rgb(255,255,255); stroke: rgb(50,50,50)" width="10" x="65" y="33" />
			<rect height="10" id="rby7bi6" style="fill: rgb(255,255,255); stroke: rgb(50,50,50)" width="10" x="75" y="33" />
			<rect height="10" id="rby7bi7" style="fill: rgb(255,255,255); stroke: rgb(50,50,50)" width="10" x="85" y="33" />
		</g>
	</g>
	<g id="lb8">
		<text alignment-baseline="middle" id="t8" style="fill: rgb(50,50,50); font-family: Arial; font-size: 10" text-anchor="middle" type="span" x="111" y="129">8</text>
		<g id="byg8">
			<rect height="10" id="rby8bi0" style="fill: rgb(255,255,255); stroke: rgb(50,50,50)" width="10" x="119" y="124" />
			<rect height="10" id="rby8bi1" style="fill: rgb(255,255,255); stroke: rgb(50,50,50)" width="10" x="129" y="124" />
			<rect height="10" id="rby8bi2" style="fill: rgb(255,255,255); stroke: rgb(50,50,50)" width="10" x="139" y="124" />
			<rect height="10" id="rby8bi3" style="fill: rgb(255,255,255); stroke: rgb(50,50,50)" width="10" x="149" y="124" />
			<rect height="10" id="rby8bi4" style="fill: rgb(255,255,255); stroke: rgb(50,50,50)" width="10" x="159" y="124" />
			<rect height="10" id="rby8bi5" style="fill: rgb(255,255,255); stroke: rgb(50,50,50)" width="10" x="169" y="124" />
			<rect height="10" id="rby8bi6" style="fill: rgb(255,255,255); stroke: rgb(50,50,50)" width="10" x="179" y="124" />
			<rect height="10" id="rby8bi7" style="fill: rgb(255,255,255); stroke: rgb(50,50,50)" width="10" x="189" y="124" />
		</g>
	</g>
	<g id="lb9">
		<text alignment-baseline="middle" id="t9" style="fill: rgb(50,50,50); font-family: Arial; font-size: 10" text-anchor="middle" type="span" x="111" y="116">9</text>
		<g id="byg9">
			<rect height="10" id="rby9bi0" style="fill: rgb(255,255,255); stroke: rgb(50,50,50)" width="10" x="119" y="111" />
			<rect height="10" id="rby9bi1" style="fill: rgb(255,255,255); stroke: rgb(50,50,50)" width="10" x="129" y="111" />
			<rect height="10" id="rby9bi2" style="fill: rgb(255,255,255); stroke: rgb(50,50,50)" width="10" x="139" y="111" />
			<rect height="10" id="rby9bi3" style="fill: rgb(255,255,255); stroke: rgb(50,50,50)" width="10" x="149" y="111" />
			<rect height="10" id="rby9bi4" style="fill: rgb(255,255,255); stroke: rgb(50,50,50)" width="10" x="159" y="111" />
			<rect height="10" id="rby9bi5" style="fill: rgb(255,255,255); stroke: rgb(50,50,50)" width="10" x="169" y="111" />
			<rect height="10" id="rby9bi6" style="fill: rgb(255,255,255); stroke: rgb(50,50,50)" width="10" x="179" y="111" />
			<rect height="10" id="rby9bi7" style="fill: rgb(255,255,255); stroke: rgb(50,50,50)" width="10" x="189" y="111" />
		</g>
	</g>
	<g id="lb10">
		<text alignment-baseline="middle" id="t10" style="fill: rgb(50,50,50); font-family: Arial; font-size: 10" text-anchor="middle" type="span" x="111" y="103">10</text>
		<g id="byg10">
			<rect height="10" id="rby10bi0" style="fill: rgb(255,255,255); stroke: rgb(50,50,50)" width="10" x="119" y="98" />
			<rect height="10" id="rby10bi1" style="fill: rgb(255,255,255); stroke: rgb(50,50,50)" width="10" x="129" y="98" />
			<rect height="10" id="rby10bi2" style="fill: rgb(255,255,255); stroke: rgb(50,50,50)" width="10" x="139" y="98" />
			<rect height="10" id="rby10bi3" style="fill: rgb(255,255,255); stroke: rgb(50,50,50)" width="10" x="149" y="98" />
			<rect height="10" id="rby10bi4" style="fill: rgb(255,255,255); stroke: rgb(50,50,50)" width="10" x="159" y="98" />
			<rect height="10" id="rby10bi5" style="fill: rgb(255,255,255); stroke: rgb(50,50,50)" width="10" x="169" y="98" />
			<rect height="10" id="rby10bi6" style="fill: rgb(255,255,255); stroke: rgb(50,50,50)" width="10" x="179" y="98" />
			<rect height="10" id="rby10bi7" style="fill: rgb(255,255,255); stroke: rgb(50,50,50)" width="10" x="189" y="98" />
		</g>
	</g>
	<g id="lb11">
		<text alignment-baseline="middle" id="t11" style="fill: rgb(50,50,50); font-family: Arial; font-size: 10" text-anchor="middle" type="span" x="111" y="90">11</text>
		<g id="byg11">
			<rect height="10" id="rby11bi0" style="fill: rgb(255,255,255); stroke: rgb(50,50,50)" width="10" x="119" y="85" />
			<rect height="10" id="rby11bi1" style="fill: rgb(255,255,255); stroke: rgb(50,50,50)" width="10" x="129" y="85" />
			<rect height="10" id="rby11bi2" style="fill: rgb(255,255,255); stroke: rgb(50,50,50)" width="10" x="139" y="85" />
			<rect height="10" id="rby11bi3" style="fill: rgb(255,255,255); stroke: rgb(50,50,50)" width="10" x="149" y="85" />
			<rect height="10" id="rby11bi4" style="fill: rgb(255,255,255); stroke: rgb(50,50,50)" width="10" x="159" y="85" />
			<rect height="10" id="rby11bi5" style="fill: rgb(255,255,255); stroke: rgb(50,50,50)" width="10" x="169" y="85" />
			<rect height="10" id="rby11bi6" style="fill: rgb(255,255,255); stroke: rgb(50,50,50)" width="10" x="179" y="85" />
			<rect height="10" id="rby11bi7" style="fill: rgb(255,255,255); stroke: rgb(50,50,50)" width="10" x="189" y="85" />
		</g>
	</g>
	<g id="lb12">
		<text alignment-baseline="middle" id="t12" style="fill: rgb(50,50,50); font-family: Arial; font-size: 10" text-anchor="middle" type="span" x="111" y="77">12</text>
		<g id="byg12">
			<rect height="10" id="rby12bi0" style="fill: rgb(255,255,255); stroke: rgb(50,50,50)" width="10" x="119" y="72" />
			<rect height="10" id="rby12bi1" style="fill: rgb(255,255,255); stroke: rgb(50,50,50)" width="10" x="129" y="72" />
			<rect height="10" id="rby12bi2" style="fill: rgb(255,255,255); stroke: rgb(50,50,50)" width="10" x="139" y="72" />
			<rect height="10" id="rby12bi3" style="fill: rgb(255,255,255); stroke: rgb(50,50,50)" width="10" x="149" y="72" />
			<rect height="10" id="rby12bi4" style="fill: rgb(255,255,255); stroke: rgb(50,50,50)" width="10" x="159" y="72" />
			<rect height="10" id="rby12bi5" style="fill: rgb(255,255,255); stroke: rgb(50,50,50)" width="10" x="169" y="72" />
			<rect height="10" id="rby12bi6" style="fill: rgb(255,255,255); stroke: rgb(50,50,50)" width="10" x="179" y="72" />
			<rect height="10" id="rby12bi7" style="fill: rgb(255,255,255); stroke: rgb(50,50,50)" width="10" x="189" y="72" />
		</g>
	</g>
	<g id="lb13">
		<text alignment-baseline="middle" id="t13" style="fill: rgb(50,50,50); font-family: Arial; font-size: 10" text-anchor="middle" type="span" x="111" y="64">13</text>
		<g id="byg13">
			<rect height="10" id="rby13bi0" style="fill: rgb(255,255,255); stroke: rgb(50,50,50)" width="10" x="119" y="59" />
			<rect height="10" id="rby13bi1" style="fill: rgb(255,255,255); stroke: rgb(50,50,50)" width="10" x="129" y="59" />
			<rect height="10" id="rby13bi2" style="fill: rgb(255,255,255); stroke: rgb(50,50,50)" width="10" x="139" y="59" />
			<rect height="10" id="rby13bi3" style="fill: rgb(255,255,255); stroke: rgb(50,50,50)" width="10" x="149" y="59" />
			<rect height="10" id="rby13bi4" style="fill: rgb(255,255,255); stroke: rgb(50,50,50)" width="10" x="159" y="59" />
			<rect height="10" id="rby13bi5" style="fill: rgb(255,255,255); stroke: rgb(50,50,50)" width="10" x="169" y="59" />
			<rect height="10" id="rby13bi6" style="fill: rgb(255,255,255); stroke: rgb(50,50,50)" width="10" x="179" y="59" />
			<rect height="10" id="rby13bi7" style="fill: rgb(255,255,255); stroke: rgb(50,50,50)" width="10" x="189" y="59" />
		</g>
	</g>
	<g id="lb14">
		<text alignment-baseline="middle" id="t14" style="fill: rgb(50,50,50); font-family: Arial; font-size: 10" text-anchor="middle" type="span" x="111" y="51">14</text>
		<g id="byg14">
			<rect height="10" id="rby14bi0" style="fill: rgb(255,255,255); stroke: rgb(50,50,50)" width="10" x="119" y="46" />
			<rect height="10" id="rby14bi1" style="fill: rgb(255,255,255); stroke: rgb(50,50,50)" width="10" x="129" y="46" />
			<rect height="10" id="rby14bi2" style="fill: rgb(255,255,255); stroke: rgb(50,50,50)" width="10" x="139" y="46" />
			<rect height="10" id="rby14bi3" style="fill: rgb(255,255,255); stroke: rgb(50,50,50)" width="10" x="149" y="46" />
			<rect height="10" id="rby14bi4" style="fill: rgb(255,255,255); stroke: rgb(50,50,50)" width="10" x="159" y="46" />
			<rect height="10" id="rby14bi5" style="fill: rgb(255,255,255); stroke: rgb(50,50,50)" width="10" x="169" y="46" />
			<rect height="10" id="rby14bi6" style="fill: rgb(255,255,255); stroke: rgb(50,50,50)" width="10" x="179" y="46" />
			<rect height="10" id="rby14bi7" style="fill: rgb(255,255,255); stroke: rgb(50,50,50)" width="10" x="189" y="46" />
		</g>
	</g>
	<g id="lb15">
		<text alignment-baseline="middle" id="t15" style="fill: rgb(50,50,50); font-family: Arial; font-size: 10" text-anchor="middle" type="span" x="111" y="38">15</text>
		<g id="byg15">
			<rect height="10" id="rby15bi0" style="fill: rgb(255,255,255); stroke: rgb(50,50,50)" width="10" x="119" y="33" />
			<rect height="10" id="rby15bi1" style="fill: rgb(255,255,255); stroke: rgb(50,50,50)" width="10" x="129" y="33" />
			<rect height="10" id="rby15bi2" style="fill: rgb(255,255,255); stroke: rgb(50,50,50)" width="10" x="139" y="33" />
			<rect height="10" id="rby15bi3" style="fill: rgb(255,255,255); stroke: rgb(50,50,50)" width="10" x="149" y="33" />
			<rect height="10" id="rby15bi4" style="fill: rgb(255,255,255); stroke: rgb(50,50,50)" width="10" x="159" y="33" />
			<rect height="10" id="rby15bi5" style="fill: rgb(255,255,255); stroke: rgb(50,50,50)" width="10" x="169" y="33" />
			<rect height="10" id="rby15bi6" style="fill: rgb(255,255,255); stroke: rgb(50,50,50)" width="10" x="179" y="33" />
			<rect height="10" id="rby15bi7" style="fill: rgb(255,255,255); stroke: rgb(50,50,50)" width="10" x="189" y="33" />
		</g>
	</g>
	<g id="lb16">
		<text alignment-baseline="middle" id="t16" style="fill: rgb(50,50,50); font-family: Arial; font-size: 10" text-anchor="middle" type="span" x="215" y="129">16</text>
		<g id="byg16">
			<rect height="10" id="rby16bi0" style="fill: rgb(255,255,255); stroke: rgb(50,50,50)" width="10" x="223" y="124" />
			<rect height="10" id="rby16bi1" style="fill: rgb(255,255,255); stroke: rgb(50,50,50)" width="10" x="233" y="124" />
			<rect height="10" id="rby16bi2" style="fill: rgb(255,255,255); stroke: rgb(50,50,50)" width="10" x="243" y="124" />
			<rect height="10" id="rby16bi3" style="fill: rgb(255,255,255); stroke: rgb(50,50,50)" width="10" x="253" y="124" />
			<rect height="10" id="rby16bi4" style="fill: rgb(255,255,255); stroke: rgb(50,50,50)" width="10" x="263" y="124" />
			<rect height="10" id="rby16bi5" style="fill: rgb(255,255,255); stroke: rgb(50,50,50)" width="10" x="273" y="124" />
			<rect height="10" id="rby16bi6" style="fill: rgb(255,255,255); stroke: rgb(50,50,50)" width="10" x="283" y="124" />
			<rect height="10" id="rby16bi7" style="fill: rgb(255,255,255); stroke: rgb(50,50,50)" width="10" x="293" y="124" />
		</g>
	</g>
	<g id="lb17">
		<text alignment-baseline="middle" id="t17" style="fill: rgb(50,50,50); font-family: Arial; font-size: 10" text-anchor="middle" type="span" x="215" y="116">17</text>
		<g id="byg17">
			<rect height="10" id="rby17bi0" style="fill: rgb(255,255,255); stroke: rgb(50,50,50)" width="10" x="223" y="111" />
			<rect height="10" id="rby17bi1" style="fill: rgb(255,255,255); stroke: rgb(50,50,50)" width="10" x="233" y="111" />
			<rect height="10" id="rby17bi2" style="fill: rgb(255,255,255); stroke: rgb(50,50,50)" width="10" x="243" y="111" />
			<rect height="10" id="rby17bi3" style="fill: rgb(255,255,255); stroke: rgb(50,50,50)" width="10" x="253" y="111" />
			<rect height="10" id="rby17bi4" style="fill: rgb(255,255,255); stroke: rgb(50,50,50)" width="10" x="263" y="111" />
			<rect height="10" id="rby17bi5" style="fill: rgb(255,255,255); stroke: rgb(50,50,50)" width="10" x="273" y="111" />
			<rect height="10" id="rby17bi6" style="fill: rgb(255,255,255); stroke: rgb(50,50,50)" width="10" x="283" y="111" />
			<rect height="10" id="rby17bi7" style="fill: rgb(255,255,255); stroke: rgb(50,50,50)" width="10" x="293" y="111" />
		</g>
	</g>
	<g id="lb18">
		<text alignment-baseline="middle" id="t18" style="fill: rgb(50,50,50); font-family: Arial; font-size: 10" text-anchor="middle" type="span" x="215" y="103">18</text>
		<g id="byg18">
			<rect height="10" id="rby18bi0" style="fill: rgb(255,255,255); stroke: rgb(50,50,50)" width="10" x="223" y="98" />
			<rect height="10" id="rby18bi1" style="fill: rgb(255,255,255); stroke: rgb(50,50,50)" width="10" x="233" y="98" />
			<rect height="10" id="rby18bi2" style="fill: rgb(255,255,255); stroke: rgb(50,50,50)" width="10" x="243" y="98" />
			<rect height="10" id="rby18bi3" style="fill: rgb(255,255,255); stroke: rgb(50,50,50)" width="10" x="253" y="98" />
			<rect height="10" id="rby18bi4" style="fill: rgb(255,255,255); stroke: rgb(50,50,50)" width="10" x="263" y="98" />
			<rect height="10" id="rby18bi5" style="fill: rgb(255,255,255); stroke: rgb(50,50,50)" width="10" x="273" y="98" />
			<rect height="10" id="rby18bi6" style="fill: rgb(255,255,255); stroke: rgb(50,50,50)" width="10" x="283" y="98" />
			<rect height="10" id="rby18bi7" style="fill: rgb(255,255,255); stroke: rgb(50,50,50)" width="10" x="293" y="98" />
		</g>
	</g>
	<g id="lb19">
		<text alignment-baseline="middle" id="t19" style="fill: rgb(50,50,50); font-family: Arial; font-size: 10" text-anchor="middle" type="span" x="215" y="90">19</text>
		<g id="byg19">
			<rect height="10" id="rby19bi0" style="fill: rgb(255,255,255); stroke: rgb(50,50,50)" width="10" x="223" y="85" />
			<rect height="10" id="rby19bi1" style="fill: rgb(255,255,255); stroke: rgb(50,50,50)" width="10" x="233" y="85" />
			<rect height="10" id="rby19bi2" style="fill: rgb(255,255,255); stroke: rgb(50,50,50)" width="10" x="243" y="85" />
			<rect height="10" id="rby19bi3" style="fill: rgb(255,255,255); stroke: rgb(50,50,50)" width="10" x="253" y="85" />
			<rect height="10" id="rby19bi4" style="fill: rgb(255,255,255); stroke: rgb(50,50,50)" width="10" x="263" y="85" />
			<rect height="10" id="rby19bi5" style="fill: rgb(255,255,255); stroke: rgb(50,50,50)" width="10" x="273" y="85" />
			<rect height="10" id="rby19bi6" style="fill: rgb(255,255,255); stroke: rgb(50,50,50)" width="10" x="283" y="85" />
			<rect height="10" id="rby19bi7" style="fill: rgb(255,255,255); stroke: rgb(50,50,50)" width="10" x="293" y="85" />
		</g>
	</g>
	<g id="lb20">
		<text alignment-baseline="middle" id="t20" style="fill: rgb(50,50,50); font-family: Arial; font-size: 10" text-anchor="middle" type="span" x="215" y="77">20</text>
		<g id="byg20">
			<rect height="10" id="rby20bi0" style="fill: rgb(255,255,255); stroke: rgb(50,50,50)" width="10" x="223" y="72" />
			<rect height="10" id="rby20bi1" style="fill: rgb(255,255,255); stroke: rgb(50,50,50)" width="10" x="233" y="72" />
			<rect height="10" id="rby20bi2" style="fill: rgb(255,255,255); stroke: rgb(50,50,50)" width="10" x="243" y="72" />
			<rect height="10" id="rby20bi3" style="fill: rgb(255,255,255); stroke: rgb(50,50,50)" width="10" x="253" y="72" />
			<rect height="10" id="rby20bi4" style="fill: rgb(255,255,255); stroke: rgb(50,50,50)" width="10" x="263" y="72" />
			<rect height="10" id="rby20bi5" style="fill: rgb(255,255,255); stroke: rgb(50,50,50)" width="10" x="273" y="72" />
			<rect height="10" id="rby20bi6" style="fill: rgb(255,255,255); stroke: rgb(50,50,50)" width="10" x="283" y="72" />
			<rect height="10" id="rby20bi7" style="fill: rgb(255,255,255); stroke: rgb(50,50,50)" width="10" x="293" y="72" />
		</g>
	</g>
	<g id="lb21">
		<text alignment-baseline="middle" id="t21" style="fill: rgb(50,50,50); font-family: Arial; font-size: 10" text-anchor="middle" type="span" x="215" y="64">21</text>
		<g id="byg21">
			<rect height="10" id="rby21bi0" style="fill: rgb(255,255,255); stroke: rgb(50,50,50)" width="10" x="223" y="59" />
			<rect height="10" id="rby21bi1" style="fill: rgb(255,255,255); stroke: rgb(50,50,50)" width="10" x="233" y="59" />
			<rect height="10" id="rby21bi2" style="fill: rgb(255,255,255); stroke: rgb(50,50,50)" width="10" x="243" y="59" />
			<rect height="10" id="rby21bi3" style="fill: rgb(255,255,255); stroke: rgb(50,50,50)" width="10" x="253" y="59" />
			<rect height="10" id="rby21bi4" style="fill: rgb(255,255,255); stroke: rgb(50,50,50)" width="10" x="263" y="59" />
			<rect height="10" id="rby21bi5" style="fill: rgb(255,255,255); stroke: rgb(50,50,50)" width="10" x="273" y="59" />
			<rect height="10" id="rby21bi6" style="fill: rgb(255,255,255); stroke: rgb(50,50,50)" width="10" x="283" y="59" />
			<rect height="10" id="rby21bi7" style="fill: rgb(255,255,255); stroke: rgb(50,50,50)" width="10" x="293" y="59" />
		</g>
	</g>
	<g id="lb22">
		<text alignment-baseline="middle" id="t22" style="fill: rgb(50,50,50); font-family: Arial; font-size: 10" text-anchor="middle" type="span" x="215" y="51">22</text>
		<g id="byg22">
			<rect height="10" id="rby22bi0" style="fill: rgb(255,255,255); stroke: rgb(50,50,50)" width="10" x="223" y="46" />
			<rect height="10" id="rby22bi1" style="fill: rgb(255,255,255); stroke: rgb(50,50,50)" width="10" x="233" y="46" />
			<rect height="10" id="rby22bi2" style="fill: rgb(255,255,255); stroke: rgb(50,50,50)" width="10" x="243" y="46" />
			<rect height="10" id="rby22bi3" style="fill: rgb(255,255,255); stroke: rgb(50,50,50)" width="10" x="253" y="46" />
			<rect height="10" id="rby22bi4" style="fill: rgb(255,255,255); stroke: rgb(50,50,50)" width="10" x="263" y="46" />
			<rect height="10" id="rby22bi5" style="fill: rgb(255,255,255); stroke: rgb(50,50,50)" width="10" x="273" y="46" />
			<rect height="10" id="rby22bi6" style="fill: rgb(255,255,255); stroke: rgb(50,50,50)" width="10" x="283" y="46" />
			<rect height="10" id="rby22bi7" style="fill: rgb(255,255,255); stroke: rgb(50,50,50)" width="10" x="293" y="46" />
		</g>
	</g>
	<g id="lb23">
		<text alignment-baseline="middle" id="t23" style="fill: rgb(50,50,50); font-family: Arial; font-size: 10" text-anchor="middle" type="span" x="215" y="38">23</text>
		<g id="byg23">
			<rect height="10" id="rby23bi0" style="fill: rgb(255,255,255); stroke: rgb(50,50,50)" width="10" x="223" y="33" />
			<rect height="10" id="rby23bi1" style="fill: rgb(255,255,255); stroke: rgb(50,50,50)" width="10" x="233" y="33" />
			<rect height="10" id="rby23bi2" style="fill: rgb(255,255,255); stroke: rgb(50,50,50)" width="10" x="243" y="33" />
			<rect height="10" id="rby23bi3" style="fill: rgb(255,255,255); stroke: rgb(50,50,50)" width="10" x="253" y="33" />
			<rect height="10" id="rby23bi4" style="fill: rgb(255,255,255); stroke: rgb(50,50,50)" width="10" x="263" y="33" />
			<rect height="10" id="rby23bi5" style="fill: rgb(255,255,255); stroke: rgb(50,50,50)" width="10" x="273" y="33" />
			<rect height="10" id="rby23bi6" style="fill: rgb(255,255,255); stroke: rgb(50,50,50)" width="10" x="283" y="33" />
			<rect height="10" id="rby23bi7" style="fill: rgb(255,255,255); stroke: rgb(50,50,50)" width="10" x="293" y="33" />
		</g>
	</g>
	<g id="lb24">
		<text alignment-baseline="middle" id="t24" style="fill: rgb(50,50,50); font-family: Arial; font-size: 10" text-anchor="middle" type="span" x="319" y="129">24</text>
		<g id="byg24">
			<rect height="10" id="rby24bi0" style="fill: rgb(255,255,255); stroke: rgb(50,50,50)" width="10" x="327" y="124" />
			<rect height="10" id="rby24bi1" style="fill: rgb(255,255,255); stroke: rgb(50,50,50)" width="10" x="337" y="124" />
			<rect height="10" id="rby24bi2" style="fill: rgb(255,255,255); stroke: rgb(50,50,50)" width="10" x="347" y="124" />
			<rect height="10" id="rby24bi3" style="fill: rgb(255,255,255); stroke: rgb(50,50,50)" width="10" x="357" y="124" />
			<rect height="10" id="rby24bi4" style="fill: rgb(255,255,255); stroke: rgb(50,50,50)" width="10" x="367" y="124" />
			<rect height="10" id="rby24bi5" style="fill: rgb(255,255,255); stroke: rgb(50,50,50)" width="10" x="377" y="124" />
			<rect height="10" id="rby24bi6" style="fill: rgb(255,255,255); stroke: rgb(50,50,50)" width="10" x="387" y="124" />
			<rect height="10" id="rby24bi7" style="fill: rgb(255,255,255); stroke: rgb(50,50,50)" width="10" x="397" y="124" />
		</g>
	</g>
	<g id="lb25">
		<text alignment-baseline="middle" id="t25" style="fill: rgb(50,50,50); font-family: Arial; font-size: 10" text-anchor="middle" type="span" x="319" y="116">25</text>
		<g id="byg25">
			<rect height="10" id="rby25bi0" style="fill: rgb(255,255,255); stroke: rgb(50,50,50)" width="10" x="327" y="111" />
			<rect height="10" id="rby25bi1" style="fill: rgb(255,255,255); stroke: rgb(50,50,50)" width="10" x="337" y="111" />
			<rect height="10" id="rby25bi2" style="fill: rgb(255,255,255); stroke: rgb(50,50,50)" width="10" x="347" y="111" />
			<rect height="10" id="rby25bi3" style="fill: rgb(255,255,255); stroke: rgb(50,50,50)" width="10" x="357" y="111" />
			<rect height="10" id="rby25bi4" style="fill: rgb(255,255,255); stroke: rgb(50,50,50)" width="10" x="367" y="111" />
			<rect height="10" id="rby25bi5" style="fill: rgb(255,255,255); stroke: rgb(50,50,50)" width="10" x="377" y="111" />
			<rect height="10" id="rby25bi6" style="fill: rgb(255,255,255); stroke: rgb(50,50,50)" width="10" x="387" y="111" />
			<rect height="10" id="rby25bi7" style="fill: rgb(255,255,255); stroke: rgb(50,50,50)" width="10" x="397" y="111" />
		</g>
	</g>
	<g id="lb26">
		<text alignment-baseline="middle" id="t26" style="fill: rgb(50,50,50); font-family: Arial; font-size: 10" text-anchor="middle" type="span" x="319" y="103">26</text>
		<g id="byg26">
			<rect height="10" id="rby26bi0" style="fill: rgb(255,255,255); stroke: rgb(50,50,50)" width="10" x="327" y="98" />
			<rect height="10" id="rby26bi1" style="fill: rgb(255,255,255); stroke: rgb(50,50,50)" width="10" x="337" y="98" />
			<rect height="10" id="rby26bi2" style="fill: rgb(255,255,255); stroke: rgb(50,50,50)" width="10" x="347" y="98" />
			<rect height="10" id="rby26bi3" style="fill: rgb(255,255,255); stroke: rgb(50,50,50)" width="10" x="357" y="98" />
			<rect height="10" id="rby26bi4" style="fill: rgb(255,255,255); stroke: rgb(50,50,50)" width="10" x="367" y="98" />
			<rect height="10" id="rby26bi5" style="fill: rgb(255,255,255); stroke: rgb(50,50,50)" width="10" x="377" y="98" />
			<rect height="10" id="rby26bi6" style="fill: rgb(255,255,255); stroke: rgb(50,50,50)" width="10" x="387" y="98" />
			<rect height="10" id="rby26bi7" style="fill: rgb(255,255,255); stroke: rgb(50,50,50)" width="10" x="397" y="98" />
		</g>
	</g>
	<g id="lb27">
		<text alignment-baseline="middle" id="t27" style="fill: rgb(50,50,50); font-family: Arial; font-size: 10" text-anchor="middle" type="span" x="319" y="90">27</text>
		<g id="byg27">
			<rect height="10" id="rby27bi0" style="fill: rgb(255,255,255); stroke: rgb(50,50,50)" width="10" x="327" y="85" />
			<rect height="10" id="rby27bi1" style="fill: rgb(255,255,255); stroke: rgb(50,50,50)" width="10" x="337" y="85" />
			<rect height="10" id="rby27bi2" style="fill: rgb(255,255,255); stroke: rgb(50,50,50)" width="10" x="347" y="85" />
			<rect height="10" id="rby27bi3" style="fill: rgb(255,255,255); stroke: rgb(50,50,50)" width="10" x="357" y="85" />
			<rect height="10" id="rby27bi4" style="fill: rgb(255,255,255); stroke: rgb(50,50,50)" width="10" x="367" y="85" />
			<rect height="10" id="rby27bi5" style="fill: rgb(255,255,255); stroke: rgb(50,50,50)" width="10" x="377" y="85" />
			<rect height="10" id="rby27bi6" style="fill: rgb(255,255,255); stroke: rgb(50,50,50)" width="10" x="387" y="85" />
			<rect height="10" id="rby27bi7" style="fill: rgb(255,255,255); stroke: rgb(50,50,50)" width="10" x="397" y="85" />
		</g>
	</g>
	<g id="lb28">
		<text alignment-baseline="middle" id="t28" style="fill: rgb(50,50,50); font-family: Arial; font-size: 10" text-anchor="middle" type="span" x="319" y="77">28</text>
		<g id="byg28">
			<rect height="10" id="rby28bi0" style="fill: rgb(255,255,255); stroke: rgb(50,50,50)" width="10" x="327" y="72" />
			<rect height="10" id="rby28bi1" style="fill: rgb(255,255,255); stroke: rgb(50,50,50)" width="10" x="337" y="72" />
			<rect height="10" id="rby28bi2" style="fill: rgb(255,255,255); stroke: rgb(50,50,50)" width="10" x="347" y="72" />
			<rect height="10" id="rby28bi3" style="fill: rgb(255,255,255); stroke: rgb(50,50,50)" width="10" x="357" y="72" />
			<rect height="10" id="rby28bi4" style="fill: rgb(255,255,255); stroke: rgb(50,50,50)" width="10" x="367" y="72" />
			<rect height="10" id="rby28bi5" style="fill: rgb(255,255,255); stroke: rgb(50,50,50)" width="10" x="377" y="72" />
			<rect height="10" id="rby28bi6" style="fill: rgb(255,255,255); stroke: rgb(50,50,50)" width="10" x="387" y="72" />
			<rect height="10" id="rby28bi7" style="fill: rgb(255,255,255); stroke: rgb(50,50,50)" width="10" x="397" y="72" />
		</g>
	</g>
	<g id="lb29">
		<text alignment-baseline="middle" id="t29" style="fill: rgb(50,50,50); font-family: Arial; font-size: 10" text-anchor="middle" type="span" x="319" y="64">29</text>
		<g id="byg29">
			<rect height="10" id="rby29bi0" style="fill: rgb(255,255,255); stroke: rgb(50,50,50)" width="10" x="327" y="59" />
			<rect height="10" id="rby29bi1" style="fill: rgb(255,255,255); stroke: rgb(50,50,50)" width="10" x="337" y="59" />
			<rect height="10" id="rby29bi2" style="fill: rgb(255,255,255); stroke: rgb(50,50,50)" width="10" x="347" y="59" />
			<rect height="10" id="rby29bi3" style="fill: rgb(255,255,255); stroke: rgb(50,50,50)" width="10" x="357" y="59" />
			<rect height="10" id="rby29bi4" style="fill: rgb(255,255,255); stroke: rgb(50,50,50)" width="10" x="367" y="59" />
			<rect height="10" id="rby29bi5" style="fill: rgb(255,255,255); stroke: rgb(50,50,50)" width="10" x="377" y="59" />
			<rect height="10" id="rby29bi6" style="fill: rgb(255,255,255); stroke: rgb(50,50,50)" width="10" x="387" y="59" />
			<rect height="10" id="rby29bi7" style="fill: rgb(255,255,255); stroke: rgb(50,50,50)" width="10" x="397" y="59" />
		</g>
	</g>
	<g id="lb30">
		<text alignment-baseline="middle" id="t30" style="fill: rgb(50,50,50); font-family: Arial; font-size: 10" text-anchor="middle" type="span" x="319" y="51">30</text>
		<g id="byg30">
			<rect height="10" id="rby30bi0" style="fill: rgb(255,255,255); stroke: rgb(50,50,50)" width="10" x="327" y="46" />
			<rect height="10" id="rby30bi1" style="fill: rgb(255,255,255); stroke: rgb(50,50,50)" width="10" x="337" y="46" />
			<rect height="10" id="rby30bi2" style="fill: rgb(255,255,255); stroke: rgb(50,50,50)" width="10" x="347" y="46" />
			<rect height="10" id="rby30bi3" style="fill: rgb(255,255,255); stroke: rgb(50,50,50)" width="10" x="357" y="46" />
			<rect height="10" id="rby30bi4" style="fill: rgb(255,255,255); stroke: rgb(50,50,50)" width="10" x="367" y="46" />
			<rect height="10" id="rby30bi5" style="fill: rgb(255,255,255); stroke: rgb(50,50,50)" width="10" x="377" y="46" />
			<rect height="10" id="rby30bi6" style="fill: rgb(255,255,255); stroke: rgb(50,50,50)" width="10" x="387" y="46" />
			<rect height="10" id="rby30bi7" style="fill: rgb(255,255,255); stroke: rgb(50,50,50)" width="10" x="397" y="46" />
		</g>
	</g>
	<g id="lb31">
		<text alignment-baseline="middle" id="t31" style="fill: rgb(50,50,50); font-family: Arial; font-size: 10" text-anchor="middle" type="span" x="319" y="38">31</text>
		<g id="byg31">
			<rect height="10" id="rby31bi0" style="fill: rgb(255,255,255); stroke: rgb(50,50,50)" width="10" x="327" y="33" />
			<rect height="10" id="rby31bi1" style="fill: rgb(255,255,255); stroke: rgb(50,50,50)" width="10" x="337" y="33" />
			<rect height="10" id="rby31bi2" style="fill: rgb(255,255,255); stroke: rgb(50,50,50)" width="10" x="347" y="33" />
			<rect height="10" id="rby31bi3" style="fill: rgb(255,255,255); stroke: rgb(50,50,50)" width="10" x="357" y="33" />
			<rect height="10" id="rby31bi4" style="fill: rgb(255,255,255); stroke: rgb(50,50,50)" width="10" x="367" y="33" />
			<rect height="10" id="rby31bi5" style="fill: rgb(255,255,255); stroke: rgb(50,50,50)" width="10" x="377" y="33" />
			<rect height="10" id="rby31bi6" style="fill: rgb(255,255,255); stroke: rgb(50,50,50)" width="10" x="387" y="33" />
			<rect height="10" id="rby31bi7" style="fill: rgb(255,255,255); stroke: rgb(50,50,50)" width="10" x="397" y="33" />
		</g>
	</g>
	<g id="lbpc">
		<text alignment-baseline="middle" id="tpc" style="fill: rgb(50,50,50); font-family: Arial; font-size: 10" text-anchor="middle" type="span" x="7" y="15">PC</text>
		<g id="bygpc">
			<rect height="10" id="rbypcbi0" style="fill: rgb(255,255,255); stroke: rgb(50,50,50)" width="10" x="15" y="10" />
			<rect height="10" id="rbypcbi1" style="fill: rgb(255,255,255); stroke: rgb(50,50,50)" width="10" x="25" y="10" />
			<rect height="10" id="rbypcbi2" style="fill: rgb(255,255,255); stroke: rgb(50,50,50)" width="10" x="35" y="10" />
			<rect height="10" id="rbypcbi3" style="fill: rgb(255,255,255); stroke: rgb(50,50,50)" width="10" x="45" y="10" />
			<rect height="10" id="rbypcbi4" style="fill: rgb(255,255,255); stroke: rgb(50,50,50)" width="10" x="55" y="10" />
			<rect height="10" id="rbypcbi5" style="fill: rgb(255,255,255); stroke: rgb(50,50,50)" width="10" x="65" y="10" />
			<rect height="10" id="rbypcbi6" style="fill: rgb(255,255,255); stroke: rgb(50,50,50)" width="10" x="75" y="10" />
			<rect height="10" id="rbypcbi7" style="fill: rgb(255,255,255); stroke: rgb(50,50,50)" width="10" x="85" y="10" />
		</g>
	</g>
	<g id="lbir">
		<text alignment-baseline="middle" id="tir" style="fill: rgb(50,50,50); font-family: Arial; font-size: 10" text-anchor="middle" type="span" x="111" y="15">IR</text>
		<g id="bygir">
			<rect height="10" id="rbyirbi0" style="fill: rgb(255,255,255); stroke: rgb(50,50,50)" width="10" x="119" y="10" />
			<rect height="10" id="rbyirbi1" style="fill: rgb(255,255,255); stroke: rgb(50,50,50)" width="10" x="129" y="10" />
			<rect height="10" id="rbyirbi2" style="fill: rgb(255,255,255); stroke: rgb(50,50,50)" width="10" x="139" y="10" />
			<rect height="10" id="rbyirbi3" style="fill: rgb(255,255,255); stroke: rgb(50,50,50)" width="10" x="149" y="10" />
			<rect height="10" id="rbyirbi4" style="fill: rgb(255,255,255); stroke: rgb(50,50,50)" width="10" x="159" y="10" />
			<rect height="10" id="rbyirbi5" style="fill: rgb(255,255,255); stroke: rgb(50,50,50)" width="10" x="169" y="10" />
			<rect height="10" id="rbyirbi6" style="fill: rgb(255,255,255); stroke: rgb(50,50,50)" width="10" x="179" y="10" />
			<rect height="10" id="rbyirbi7" style="fill: rgb(255,255,255); stroke: rgb(50,50,50)" width="10" x="189" y="10" />
		</g>
	</g>
	<g id="lbac">
		<text alignment-baseline="middle" id="tac" style="fill: rgb(50,50,50); font-family: Arial; font-size: 10" text-anchor="middle" type="span" x="215" y="15">Ac</text>
		<g id="bygac">
			<rect height="10" id="rbyacbi0" style="fill: rgb(255,255,255); stroke: rgb(50,50,50)" width="10" x="223" y="10" />
			<rect height="10" id="rbyacbi1" style="fill: rgb(255,255,255); stroke: rgb(50,50,50)" width="10" x="233" y="10" />
			<rect height="10" id="rbyacbi2" style="fill: rgb(255,255,255); stroke: rgb(50,50,50)" width="10" x="243" y="10" />
			<rect height="10" id="rbyacbi3" style="fill: rgb(255,255,255); stroke: rgb(50,50,50)" width="10" x="253" y="10" />
			<rect height="10" id="rbyacbi4" style="fill: rgb(255,255,255); stroke: rgb(50,50,50)" width="10" x="263" y="10" />
			<rect height="10" id="rbyacbi5" style="fill: rgb(255,255,255); stroke: rgb(50,50,50)" width="10" x="273" y="10" />
			<rect height="10" id="rbyacbi6" style="fill: rgb(255,255,255); stroke: rgb(50,50,50)" width="10" x="283" y="10" />
			<rect height="10" id="rbyacbi7" style="fill: rgb(255,255,255); stroke: rgb(50,50,50)" width="10" x="293" y="10" />
		</g>
	</g>
	<!-- 
	Generated using the Perl SVG Module V2.64
	by Ronan Oger
	Info: http://www.roitsystems.com/
 -->
</svg>