<?xml version="1.0" encoding="UTF-8"?>
<!DOCTYPE svg PUBLIC "-//W3C//DTD SVG 1.1//EN" "http://www.w3.org/Graphics/SVG/1.1/DTD/svg11.dtd">
<svg version="1.2" width="30.71mm" height="25.61mm" viewBox="9838 5828 3071 2561" preserveAspectRatio="xMidYMid" fill-rule="evenodd" stroke-width="28.222" stroke-linejoin="round" xmlns="http://www.w3.org/2000/svg" xmlns:ooo="http://xml.openoffice.org/svg/export" xmlns:xlink="http://www.w3.org/1999/xlink" xmlns:presentation="http://sun.com/xmlns/staroffice/presentation" xmlns:smil="http://www.w3.org/2001/SMIL20/" xmlns:anim="urn:oasis:names:tc:opendocument:xmlns:animation:1.0" xml:space="preserve">
 <defs class="ClipPathGroup">
  <clipPath id="presentation_clip_path" clipPathUnits="userSpaceOnUse">
   <rect x="9838" y="5828" width="3071" height="2561"/>
  </clipPath>
 </defs>
 <defs class="TextShapeIndex">
  <g ooo:slide="id1" ooo:id-list="id3 id4 id5 id6 id7 id8 id9 id10"/>
 </defs>
 <defs class="EmbeddedBulletChars">
  <g id="bullet-char-template(57356)" transform="scale(0.00048828125,-0.00048828125)">
   <path d="M 580,1141 L 1163,571 580,0 -4,571 580,1141 Z"/>
  </g>
  <g id="bullet-char-template(57354)" transform="scale(0.00048828125,-0.00048828125)">
   <path d="M 8,1128 L 1137,1128 1137,0 8,0 8,1128 Z"/>
  </g>
  <g id="bullet-char-template(10146)" transform="scale(0.00048828125,-0.00048828125)">
   <path d="M 174,0 L 602,739 174,1481 1456,739 174,0 Z M 1358,739 L 309,1346 659,739 1358,739 Z"/>
  </g>
  <g id="bullet-char-template(10132)" transform="scale(0.00048828125,-0.00048828125)">
   <path d="M 2015,739 L 1276,0 717,0 1260,543 174,543 174,936 1260,936 717,1481 1274,1481 2015,739 Z"/>
  </g>
  <g id="bullet-char-template(10007)" transform="scale(0.00048828125,-0.00048828125)">
   <path d="M 0,-2 C -7,14 -16,27 -25,37 L 356,567 C 262,823 215,952 215,954 215,979 228,992 255,992 264,992 276,990 289,987 310,991 331,999 354,1012 L 381,999 492,748 772,1049 836,1024 860,1049 C 881,1039 901,1025 922,1006 886,937 835,863 770,784 769,783 710,716 594,584 L 774,223 C 774,196 753,168 711,139 L 727,119 C 717,90 699,76 672,76 641,76 570,178 457,381 L 164,-76 C 142,-110 111,-127 72,-127 30,-127 9,-110 8,-76 1,-67 -2,-52 -2,-32 -2,-23 -1,-13 0,-2 Z"/>
  </g>
  <g id="bullet-char-template(10004)" transform="scale(0.00048828125,-0.00048828125)">
   <path d="M 285,-33 C 182,-33 111,30 74,156 52,228 41,333 41,471 41,549 55,616 82,672 116,743 169,778 240,778 293,778 328,747 346,684 L 369,508 C 377,444 397,411 428,410 L 1163,1116 C 1174,1127 1196,1133 1229,1133 1271,1133 1292,1118 1292,1087 L 1292,965 C 1292,929 1282,901 1262,881 L 442,47 C 390,-6 338,-33 285,-33 Z"/>
  </g>
  <g id="bullet-char-template(9679)" transform="scale(0.00048828125,-0.00048828125)">
   <path d="M 813,0 C 632,0 489,54 383,161 276,268 223,411 223,592 223,773 276,916 383,1023 489,1130 632,1184 813,1184 992,1184 1136,1130 1245,1023 1353,916 1407,772 1407,592 1407,412 1353,268 1245,161 1136,54 992,0 813,0 Z"/>
  </g>
  <g id="bullet-char-template(8226)" transform="scale(0.00048828125,-0.00048828125)">
   <path d="M 346,457 C 273,457 209,483 155,535 101,586 74,649 74,723 74,796 101,859 155,911 209,963 273,989 346,989 419,989 480,963 531,910 582,859 608,796 608,723 608,648 583,586 532,535 482,483 420,457 346,457 Z"/>
  </g>
  <g id="bullet-char-template(8211)" transform="scale(0.00048828125,-0.00048828125)">
   <path d="M -4,459 L 1135,459 1135,606 -4,606 -4,459 Z"/>
  </g>
 </defs>
 <defs class="TextEmbeddedBitmaps"/>
 <g class="SlideGroup">
  <g>
   <g id="id1" class="Slide" clip-path="url(#presentation_clip_path)">
    <g class="Page">
     <g class="Group">
      <g class="com.sun.star.drawing.ClosedBezierShape">
       <g id="id3">
        <rect class="BoundingBox" stroke="none" fill="none" x="11778" y="7298" width="1133" height="1022"/>
        <path fill="rgb(221,221,221)" stroke="none" d="M 11798,8298 C 12273,8298 12889,8018 12889,7738 12889,7458 12871,7318 12525,7318 12525,7618 11798,7897 11798,8298 Z"/>
        <path fill="none" stroke="rgb(221,221,221)" stroke-width="40" stroke-linejoin="round" d="M 11798,8298 C 12273,8298 12889,8018 12889,7738 12889,7458 12871,7318 12525,7318 12525,7618 11798,7897 11798,8298 Z"/>
       </g>
      </g>
      <g class="com.sun.star.drawing.ClosedBezierShape">
       <g id="id4">
        <rect class="BoundingBox" stroke="none" fill="none" x="9839" y="6668" width="2709" height="1722"/>
        <g>
         <defs>
          <linearGradient id="gradient1" x1="9859" y1="7528" x2="12526" y2="7528" gradientUnits="userSpaceOnUse">
           <stop offset="0" style="stop-color:rgb(0,115,188)"/>
           <stop offset="0.5" style="stop-color:rgb(127,185,221)"/>
           <stop offset="1" style="stop-color:rgb(0,115,188)"/>
          </linearGradient>
         </defs>
         <path style="fill:url(#gradient1)" d="M 12526,6688 L 12526,7213 12526,7515 12525,7573 12525,7573 12525,7573 12525,7573 12525,7573 12525,7572 12525,7565 12525,7528 12519,7618 12499,7705 12468,7788 12424,7867 12369,7941 12304,8010 12229,8074 12144,8133 12050,8186 11948,8232 11838,8273 11721,8307 11598,8333 11468,8353 11334,8365 11194,8369 11054,8365 10920,8353 10790,8333 10667,8307 10550,8273 10440,8232 10337,8186 10243,8133 10158,8074 10083,8010 10017,7941 9962,7867 9918,7788 9886,7705 9866,7618 9859,7528 9859,7528 9859,7528 9859,7528 9859,7528 9859,7527 9859,7524 9859,7512 9859,7466 9859,7292 9859,6688 9866,6778 9886,6865 9920,6947 9965,7026 10022,7100 10089,7169 10166,7233 10253,7292 10348,7345 10451,7391 10561,7432 10677,7466 10800,7492 10927,7512 11058,7524 11193,7528 11328,7524 11459,7512 11586,7492 11708,7466 11825,7432 11935,7391 12038,7345 12133,7292 12219,7233 12296,7169 12363,7100 12420,7026 12465,6947 12499,6865 12519,6778 12526,6688 Z"/>
        </g>
        <path fill="none" stroke="rgb(255,255,255)" stroke-width="40" stroke-linejoin="round" d="M 12526,6688 C 12526,6688 12526,7809 12525,7528 12527,8019 11950,8369 11194,8369 10438,8369 9860,8019 9859,7528 9860,7529 9859,7178 9859,6688 9859,7178 10465,7528 11193,7528 11921,7528 12526,7178 12526,6688 Z"/>
       </g>
      </g>
      <g class="com.sun.star.drawing.ClosedBezierShape">
       <g id="id5">
        <rect class="BoundingBox" stroke="none" fill="none" x="9838" y="5828" width="2708" height="1721"/>
        <g>
         <defs>
          <linearGradient id="gradient2" x1="11191" y1="5848" x2="11191" y2="7527" gradientUnits="userSpaceOnUse">
           <stop offset="0.1" style="stop-color:rgb(0,115,188)"/>
           <stop offset="1" style="stop-color:rgb(127,185,221)"/>
          </linearGradient>
         </defs>
         <path style="fill:url(#gradient2)" d="M 11191,5848 L 11331,5852 11465,5865 11595,5885 11718,5912 11835,5947 11945,5988 12047,6036 12141,6089 12226,6148 12302,6212 12367,6281 12422,6355 12466,6433 12498,6514 12517,6599 12524,6687 12517,6775 12498,6860 12466,6941 12422,7019 12367,7093 12302,7162 12226,7226 12141,7286 12047,7339 11945,7387 11835,7428 11718,7463 11595,7490 11465,7510 11331,7523 11191,7527 11051,7523 10917,7510 10787,7490 10664,7463 10547,7428 10437,7387 10335,7339 10241,7286 10156,7226 10080,7162 10015,7093 9960,7019 9916,6941 9884,6860 9865,6775 9858,6687 9865,6599 9884,6514 9916,6433 9960,6355 10015,6281 10080,6212 10156,6148 10241,6089 10335,6036 10437,5988 10547,5947 10664,5912 10787,5885 10917,5865 11051,5852 11191,5848 Z"/>
        </g>
        <path fill="none" stroke="rgb(255,255,255)" stroke-width="40" stroke-linejoin="round" d="M 11191,5848 C 11947,5848 12524,6211 12524,6687 12524,7163 11947,7527 11191,7527 10435,7527 9858,7163 9858,6687 9858,6211 10435,5848 11191,5848 Z"/>
       </g>
      </g>
      <g class="com.sun.star.drawing.PolyPolygonShape">
       <g id="id6">
        <rect class="BoundingBox" stroke="none" fill="none" x="11293" y="6738" width="770" height="461"/>
        <path fill="rgb(255,255,255)" stroke="none" d="M 11677,6758 L 11556,6828 12041,7108 11919,7178 11434,6898 11313,6968 11313,6758 11677,6758 Z"/>
        <path fill="none" stroke="rgb(255,255,255)" stroke-width="40" stroke-linejoin="round" d="M 11677,6758 L 11556,6828 12041,7108 11919,7178 11434,6898 11313,6968 11313,6758 11677,6758 Z"/>
       </g>
      </g>
      <g class="com.sun.star.drawing.PolyPolygonShape">
       <g id="id7">
        <rect class="BoundingBox" stroke="none" fill="none" x="10323" y="6178" width="768" height="461"/>
        <path fill="rgb(255,255,255)" stroke="none" d="M 10949,6478 L 11070,6408 11070,6618 10706,6618 10827,6548 10343,6268 10464,6198 10949,6478 Z"/>
        <path fill="none" stroke="rgb(255,255,255)" stroke-width="40" stroke-linejoin="round" d="M 10949,6478 L 11070,6408 11070,6618 10706,6618 10827,6548 10343,6268 10464,6198 10949,6478 Z"/>
       </g>
      </g>
      <g class="com.sun.star.drawing.PolyPolygonShape">
       <g id="id8">
        <rect class="BoundingBox" stroke="none" fill="none" x="10323" y="6738" width="770" height="461"/>
        <path fill="rgb(255,255,255)" stroke="none" d="M 10464,7038 L 10950,6758 11071,6828 10585,7108 10706,7178 10343,7178 10343,6968 10464,7038 Z"/>
        <path fill="none" stroke="rgb(255,255,255)" stroke-width="40" stroke-linejoin="round" d="M 10464,7038 L 10950,6758 11071,6828 10585,7108 10706,7178 10343,7178 10343,6968 10464,7038 Z"/>
       </g>
      </g>
      <g class="com.sun.star.drawing.PolyPolygonShape">
       <g id="id9">
        <rect class="BoundingBox" stroke="none" fill="none" x="11293" y="6178" width="769" height="461"/>
        <path fill="rgb(255,255,255)" stroke="none" d="M 11797,6268 L 11676,6198 12040,6198 12040,6408 11919,6338 11434,6618 11313,6548 11797,6268 Z"/>
        <path fill="none" stroke="rgb(255,255,255)" stroke-width="40" stroke-linejoin="round" d="M 11797,6268 L 11676,6198 12040,6198 12040,6408 11919,6338 11434,6618 11313,6548 11797,6268 Z"/>
       </g>
      </g>
      <g class="com.sun.star.drawing.ClosedBezierShape">
       <g id="id10">
        <rect class="BoundingBox" stroke="none" fill="none" x="9838" y="5828" width="2709" height="2561"/>
        <path fill="none" stroke="rgb(0,0,0)" stroke-width="40" stroke-linejoin="round" d="M 11191,5848 C 11947,5848 12526,6212 12526,6688 L 12525,7528 C 12525,8018 11919,8368 11192,8368 10465,8368 9858,8018 9858,7528 9858,7528 9859,6688 9858,6687 9858,6211 10435,5848 11191,5848 Z"/>
       </g>
      </g>
     </g>
    </g>
   </g>
  </g>
 </g>
</svg>