<?xml version="1.0" encoding="UTF-8"?>
<!DOCTYPE svg PUBLIC "-//W3C//DTD SVG 1.1//EN" "http://www.w3.org/Graphics/SVG/1.1/DTD/svg11.dtd">
<svg version="1.2" width="39.84mm" height="48.7mm" viewBox="21535 2501 3984 4870" preserveAspectRatio="xMidYMid" fill-rule="evenodd" stroke-width="28.222" stroke-linejoin="round" xmlns="http://www.w3.org/2000/svg" xmlns:ooo="http://xml.openoffice.org/svg/export" xmlns:xlink="http://www.w3.org/1999/xlink" xmlns:presentation="http://sun.com/xmlns/staroffice/presentation" xmlns:smil="http://www.w3.org/2001/SMIL20/" xmlns:anim="urn:oasis:names:tc:opendocument:xmlns:animation:1.0" xml:space="preserve">
 <defs class="ClipPathGroup">
  <clipPath id="presentation_clip_path" clipPathUnits="userSpaceOnUse">
   <rect x="21535" y="2501" width="3984" height="4870"/>
  </clipPath>
 </defs>
 <defs class="TextShapeIndex">
  <g ooo:slide="id1" ooo:id-list="id3 id4 id5 id6 id7 id8 id9 id10 id11 id12 id13 id14"/>
 </defs>
 <defs class="EmbeddedBulletChars">
  <g id="bullet-char-template(57356)" transform="scale(0.00048828125,-0.00048828125)">
   <path d="M 580,1141 L 1163,571 580,0 -4,571 580,1141 Z"/>
  </g>
  <g id="bullet-char-template(57354)" transform="scale(0.00048828125,-0.00048828125)">
   <path d="M 8,1128 L 1137,1128 1137,0 8,0 8,1128 Z"/>
  </g>
  <g id="bullet-char-template(10146)" transform="scale(0.00048828125,-0.00048828125)">
   <path d="M 174,0 L 602,739 174,1481 1456,739 174,0 Z M 1358,739 L 309,1346 659,739 1358,739 Z"/>
  </g>
  <g id="bullet-char-template(10132)" transform="scale(0.00048828125,-0.00048828125)">
   <path d="M 2015,739 L 1276,0 717,0 1260,543 174,543 174,936 1260,936 717,1481 1274,1481 2015,739 Z"/>
  </g>
  <g id="bullet-char-template(10007)" transform="scale(0.00048828125,-0.00048828125)">
   <path d="M 0,-2 C -7,14 -16,27 -25,37 L 356,567 C 262,823 215,952 215,954 215,979 228,992 255,992 264,992 276,990 289,987 310,991 331,999 354,1012 L 381,999 492,748 772,1049 836,1024 860,1049 C 881,1039 901,1025 922,1006 886,937 835,863 770,784 769,783 710,716 594,584 L 774,223 C 774,196 753,168 711,139 L 727,119 C 717,90 699,76 672,76 641,76 570,178 457,381 L 164,-76 C 142,-110 111,-127 72,-127 30,-127 9,-110 8,-76 1,-67 -2,-52 -2,-32 -2,-23 -1,-13 0,-2 Z"/>
  </g>
  <g id="bullet-char-template(10004)" transform="scale(0.00048828125,-0.00048828125)">
   <path d="M 285,-33 C 182,-33 111,30 74,156 52,228 41,333 41,471 41,549 55,616 82,672 116,743 169,778 240,778 293,778 328,747 346,684 L 369,508 C 377,444 397,411 428,410 L 1163,1116 C 1174,1127 1196,1133 1229,1133 1271,1133 1292,1118 1292,1087 L 1292,965 C 1292,929 1282,901 1262,881 L 442,47 C 390,-6 338,-33 285,-33 Z"/>
  </g>
  <g id="bullet-char-template(9679)" transform="scale(0.00048828125,-0.00048828125)">
   <path d="M 813,0 C 632,0 489,54 383,161 276,268 223,411 223,592 223,773 276,916 383,1023 489,1130 632,1184 813,1184 992,1184 1136,1130 1245,1023 1353,916 1407,772 1407,592 1407,412 1353,268 1245,161 1136,54 992,0 813,0 Z"/>
  </g>
  <g id="bullet-char-template(8226)" transform="scale(0.00048828125,-0.00048828125)">
   <path d="M 346,457 C 273,457 209,483 155,535 101,586 74,649 74,723 74,796 101,859 155,911 209,963 273,989 346,989 419,989 480,963 531,910 582,859 608,796 608,723 608,648 583,586 532,535 482,483 420,457 346,457 Z"/>
  </g>
  <g id="bullet-char-template(8211)" transform="scale(0.00048828125,-0.00048828125)">
   <path d="M -4,459 L 1135,459 1135,606 -4,606 -4,459 Z"/>
  </g>
 </defs>
 <defs class="TextEmbeddedBitmaps"/>
 <g class="SlideGroup">
  <g>
   <g id="id1" class="Slide" clip-path="url(#presentation_clip_path)">
    <g class="Page">
     <g class="Group">
      <g class="com.sun.star.drawing.ClosedBezierShape">
       <g id="id3">
        <rect class="BoundingBox" stroke="none" fill="none" x="23009" y="5880" width="2511" height="1473"/>
        <path fill="rgb(221,221,221)" stroke="none" d="M 23010,7351 C 23720,7351 24833,6887 25313,6581 25793,6275 25313,5881 25071,5881 L 23010,7351 Z"/>
        <path fill="none" stroke="rgb(221,221,221)" d="M 23010,7351 C 23720,7351 24833,6887 25313,6581 25793,6275 25313,5881 25071,5881 L 23010,7351 Z"/>
       </g>
      </g>
      <g class="Group">
       <g class="com.sun.star.drawing.PolyPolygonShape">
        <g id="id4">
         <rect class="BoundingBox" stroke="none" fill="none" x="21535" y="3691" width="1496" height="3681"/>
         <g>
          <defs>
           <linearGradient id="gradient1" x1="21554" y1="5531" x2="23010" y2="5531" gradientUnits="userSpaceOnUse">
            <stop offset="0.1" style="stop-color:rgb(179,179,179)"/>
            <stop offset="1" style="stop-color:rgb(229,229,229)"/>
           </linearGradient>
          </defs>
          <path style="fill:url(#gradient1)" d="M 21555,6511 L 21555,3711 23010,4551 23010,7351 21555,6511 Z"/>
         </g>
         <path fill="none" stroke="rgb(255,255,255)" stroke-width="40" stroke-linejoin="round" d="M 21555,6511 L 21555,3711 23010,4551 23010,7351 21555,6511 Z"/>
        </g>
       </g>
       <g class="com.sun.star.drawing.PolyPolygonShape">
        <g id="id5">
         <rect class="BoundingBox" stroke="none" fill="none" x="22990" y="3341" width="2102" height="4031"/>
         <g>
          <defs>
           <pattern id="pattern1" x="23010" y="3361" width="2062" height="3991" patternUnits="userSpaceOnUse">
            <g transform="translate(-23010,-3361)">
             <path fill="rgb(179,179,179)" stroke="none" d="M 23009,3360 L 25072,3360 25072,7352 23009,7352 23009,3360 Z M 22617,2601 L 24638,2601 24638,6513 22617,6513 22617,2601 Z"/>
             <path fill="rgb(180,180,180)" stroke="none" d="M 22617,2601 L 24638,2601 24638,6513 22617,6513 22617,2601 Z M 22638,2641 L 24617,2641 24617,6473 22638,6473 22638,2641 Z"/>
             <path fill="rgb(181,181,181)" stroke="none" d="M 22638,2641 L 24617,2641 24617,6473 22638,6473 22638,2641 Z M 22658,2681 L 24597,2681 24597,6433 22658,6433 22658,2681 Z"/>
             <path fill="rgb(182,182,182)" stroke="none" d="M 22658,2681 L 24597,2681 24597,6433 22658,6433 22658,2681 Z M 22679,2721 L 24576,2721 24576,6393 22679,6393 22679,2721 Z"/>
             <path fill="rgb(183,183,183)" stroke="none" d="M 22679,2721 L 24576,2721 24576,6393 22679,6393 22679,2721 Z M 22700,2761 L 24555,2761 24555,6353 22700,6353 22700,2761 Z"/>
             <path fill="rgb(184,184,184)" stroke="none" d="M 22700,2761 L 24555,2761 24555,6353 22700,6353 22700,2761 Z M 22720,2801 L 24535,2801 24535,6313 22720,6313 22720,2801 Z"/>
             <path fill="rgb(185,185,185)" stroke="none" d="M 22720,2801 L 24535,2801 24535,6313 22720,6313 22720,2801 Z M 22741,2841 L 24514,2841 24514,6273 22741,6273 22741,2841 Z"/>
             <path fill="rgb(186,186,186)" stroke="none" d="M 22741,2841 L 24514,2841 24514,6273 22741,6273 22741,2841 Z M 22762,2881 L 24493,2881 24493,6233 22762,6233 22762,2881 Z"/>
             <path fill="rgb(187,187,187)" stroke="none" d="M 22762,2881 L 24493,2881 24493,6233 22762,6233 22762,2881 Z M 22782,2921 L 24473,2921 24473,6193 22782,6193 22782,2921 Z"/>
             <path fill="rgb(188,188,188)" stroke="none" d="M 22782,2921 L 24473,2921 24473,6193 22782,6193 22782,2921 Z M 22803,2961 L 24452,2961 24452,6153 22803,6153 22803,2961 Z"/>
             <path fill="rgb(189,189,189)" stroke="none" d="M 22803,2961 L 24452,2961 24452,6153 22803,6153 22803,2961 Z M 22824,3001 L 24431,3001 24431,6113 22824,6113 22824,3001 Z"/>
             <path fill="rgb(190,190,190)" stroke="none" d="M 22824,3001 L 24431,3001 24431,6113 22824,6113 22824,3001 Z M 22844,3041 L 24411,3041 24411,6073 22844,6073 22844,3041 Z"/>
             <path fill="rgb(191,191,191)" stroke="none" d="M 22844,3041 L 24411,3041 24411,6073 22844,6073 22844,3041 Z M 22865,3081 L 24390,3081 24390,6033 22865,6033 22865,3081 Z"/>
             <path fill="rgb(192,192,192)" stroke="none" d="M 22865,3081 L 24390,3081 24390,6033 22865,6033 22865,3081 Z M 22885,3121 L 24370,3121 24370,5993 22885,5993 22885,3121 Z"/>
             <path fill="rgb(193,193,193)" stroke="none" d="M 22885,3121 L 24370,3121 24370,5993 22885,5993 22885,3121 Z M 22906,3160 L 24349,3160 24349,5954 22906,5954 22906,3160 Z"/>
             <path fill="rgb(194,194,194)" stroke="none" d="M 22906,3160 L 24349,3160 24349,5954 22906,5954 22906,3160 Z M 22927,3200 L 24328,3200 24328,5914 22927,5914 22927,3200 Z"/>
             <path fill="rgb(195,195,195)" stroke="none" d="M 22927,3200 L 24328,3200 24328,5914 22927,5914 22927,3200 Z M 22947,3240 L 24308,3240 24308,5874 22947,5874 22947,3240 Z"/>
             <path fill="rgb(196,196,196)" stroke="none" d="M 22947,3240 L 24308,3240 24308,5874 22947,5874 22947,3240 Z M 22968,3280 L 24287,3280 24287,5834 22968,5834 22968,3280 Z"/>
             <path fill="rgb(197,197,197)" stroke="none" d="M 22968,3280 L 24287,3280 24287,5834 22968,5834 22968,3280 Z M 22989,3320 L 24266,3320 24266,5794 22989,5794 22989,3320 Z"/>
             <path fill="rgb(198,198,198)" stroke="none" d="M 22989,3320 L 24266,3320 24266,5794 22989,5794 22989,3320 Z M 23008,3359 L 24246,3359 24246,5754 23008,5754 23008,3359 Z"/>
             <path fill="rgb(199,199,199)" stroke="none" d="M 23008,3359 L 24246,3359 24246,5754 23008,5754 23008,3359 Z M 23029,3399 L 24225,3399 24225,5714 23029,5714 23029,3399 Z"/>
             <path fill="rgb(200,200,200)" stroke="none" d="M 23029,3399 L 24225,3399 24225,5714 23029,5714 23029,3399 Z M 23050,3439 L 24204,3439 24204,5674 23050,5674 23050,3439 Z"/>
             <path fill="rgb(201,201,201)" stroke="none" d="M 23050,3439 L 24204,3439 24204,5674 23050,5674 23050,3439 Z M 23070,3479 L 24184,3479 24184,5634 23070,5634 23070,3479 Z"/>
             <path fill="rgb(202,202,202)" stroke="none" d="M 23070,3479 L 24184,3479 24184,5634 23070,5634 23070,3479 Z M 23091,3519 L 24163,3519 24163,5594 23091,5594 23091,3519 Z"/>
             <path fill="rgb(203,203,203)" stroke="none" d="M 23091,3519 L 24163,3519 24163,5594 23091,5594 23091,3519 Z M 23111,3559 L 24142,3559 24142,5554 23111,5554 23111,3559 Z"/>
             <path fill="rgb(204,204,204)" stroke="none" d="M 23111,3559 L 24142,3559 24142,5554 23111,5554 23111,3559 Z M 23132,3599 L 24122,3599 24122,5514 23132,5514 23132,3599 Z"/>
             <path fill="rgb(205,205,205)" stroke="none" d="M 23132,3599 L 24122,3599 24122,5514 23132,5514 23132,3599 Z M 23153,3639 L 24101,3639 24101,5474 23153,5474 23153,3639 Z"/>
             <path fill="rgb(206,206,206)" stroke="none" d="M 23153,3639 L 24101,3639 24101,5474 23153,5474 23153,3639 Z M 23173,3679 L 24081,3679 24081,5434 23173,5434 23173,3679 Z"/>
             <path fill="rgb(207,207,207)" stroke="none" d="M 23173,3679 L 24081,3679 24081,5434 23173,5434 23173,3679 Z M 23194,3718 L 24060,3718 24060,5395 23194,5395 23194,3718 Z"/>
             <path fill="rgb(208,208,208)" stroke="none" d="M 23194,3718 L 24060,3718 24060,5395 23194,5395 23194,3718 Z M 23215,3758 L 24039,3758 24039,5355 23215,5355 23215,3758 Z"/>
             <path fill="rgb(209,209,209)" stroke="none" d="M 23215,3758 L 24039,3758 24039,5355 23215,5355 23215,3758 Z M 23235,3798 L 24019,3798 24019,5315 23235,5315 23235,3798 Z"/>
             <path fill="rgb(210,210,210)" stroke="none" d="M 23235,3798 L 24019,3798 24019,5315 23235,5315 23235,3798 Z M 23256,3838 L 23998,3838 23998,5275 23256,5275 23256,3838 Z"/>
             <path fill="rgb(211,211,211)" stroke="none" d="M 23256,3838 L 23998,3838 23998,5275 23256,5275 23256,3838 Z M 23277,3878 L 23977,3878 23977,5235 23277,5235 23277,3878 Z"/>
             <path fill="rgb(212,212,212)" stroke="none" d="M 23277,3878 L 23977,3878 23977,5235 23277,5235 23277,3878 Z M 23297,3918 L 23957,3918 23957,5195 23297,5195 23297,3918 Z"/>
             <path fill="rgb(213,213,213)" stroke="none" d="M 23297,3918 L 23957,3918 23957,5195 23297,5195 23297,3918 Z M 23318,3958 L 23936,3958 23936,5155 23318,5155 23318,3958 Z"/>
             <path fill="rgb(214,214,214)" stroke="none" d="M 23318,3958 L 23936,3958 23936,5155 23318,5155 23318,3958 Z M 23339,3998 L 23915,3998 23915,5115 23339,5115 23339,3998 Z"/>
             <path fill="rgb(215,215,215)" stroke="none" d="M 23339,3998 L 23915,3998 23915,5115 23339,5115 23339,3998 Z M 23359,4038 L 23895,4038 23895,5075 23359,5075 23359,4038 Z"/>
             <path fill="rgb(216,216,216)" stroke="none" d="M 23359,4038 L 23895,4038 23895,5075 23359,5075 23359,4038 Z M 23380,4078 L 23874,4078 23874,5035 23380,5035 23380,4078 Z"/>
             <path fill="rgb(217,217,217)" stroke="none" d="M 23380,4078 L 23874,4078 23874,5035 23380,5035 23380,4078 Z M 23400,4118 L 23854,4118 23854,4995 23400,4995 23400,4118 Z"/>
             <path fill="rgb(218,218,218)" stroke="none" d="M 23400,4118 L 23854,4118 23854,4995 23400,4995 23400,4118 Z M 23421,4158 L 23833,4158 23833,4955 23421,4955 23421,4158 Z"/>
             <path fill="rgb(219,219,219)" stroke="none" d="M 23421,4158 L 23833,4158 23833,4955 23421,4955 23421,4158 Z M 23442,4198 L 23812,4198 23812,4915 23442,4915 23442,4198 Z"/>
             <path fill="rgb(220,220,220)" stroke="none" d="M 23442,4198 L 23812,4198 23812,4915 23442,4915 23442,4198 Z M 23462,4238 L 23792,4238 23792,4875 23462,4875 23462,4238 Z"/>
             <path fill="rgb(221,221,221)" stroke="none" d="M 23462,4238 L 23792,4238 23792,4875 23462,4875 23462,4238 Z M 23483,4277 L 23771,4277 23771,4836 23483,4836 23483,4277 Z"/>
             <path fill="rgb(222,222,222)" stroke="none" d="M 23483,4277 L 23771,4277 23771,4836 23483,4836 23483,4277 Z M 23504,4317 L 23750,4317 23750,4796 23504,4796 23504,4317 Z"/>
             <path fill="rgb(223,223,223)" stroke="none" d="M 23504,4317 L 23750,4317 23750,4796 23504,4796 23504,4317 Z M 23524,4357 L 23730,4357 23730,4756 23524,4756 23524,4357 Z"/>
             <path fill="rgb(224,224,224)" stroke="none" d="M 23524,4357 L 23730,4357 23730,4756 23524,4756 23524,4357 Z M 23545,4397 L 23709,4397 23709,4716 23545,4716 23545,4397 Z"/>
             <path fill="rgb(225,225,225)" stroke="none" d="M 23545,4397 L 23709,4397 23709,4716 23545,4716 23545,4397 Z M 23566,4437 L 23688,4437 23688,4676 23566,4676 23566,4437 Z"/>
             <path fill="rgb(226,226,226)" stroke="none" d="M 23566,4437 L 23688,4437 23688,4676 23566,4676 23566,4437 Z M 23586,4477 L 23668,4477 23668,4636 23586,4636 23586,4477 Z"/>
             <path fill="rgb(227,227,227)" stroke="none" d="M 23586,4477 L 23668,4477 23668,4636 23586,4636 23586,4477 Z M 23607,4517 L 23647,4517 23647,4596 23607,4596 23607,4517 Z"/>
             <path fill="rgb(229,229,229)" stroke="none" d="M 23607,4517 L 23647,4517 23647,4596 23607,4596 23607,4517 Z"/>
            </g>
           </pattern>
          </defs>
          <path style="fill:url(#pattern1)" d="M 23010,7351 L 23010,4551 25071,3361 25071,6161 23010,7351 Z"/>
         </g>
         <path fill="none" stroke="rgb(255,255,255)" stroke-width="40" stroke-linejoin="round" d="M 23010,7351 L 23010,4551 25071,3361 25071,6161 23010,7351 Z"/>
        </g>
       </g>
       <g class="com.sun.star.drawing.PolyPolygonShape">
        <g id="id6">
         <rect class="BoundingBox" stroke="none" fill="none" x="21534" y="2501" width="3558" height="2071"/>
         <g>
          <defs>
           <linearGradient id="gradient2" x1="23313" y1="2521" x2="23313" y2="4551" gradientUnits="userSpaceOnUse">
            <stop offset="0.1" style="stop-color:rgb(179,179,179)"/>
            <stop offset="1" style="stop-color:rgb(229,229,229)"/>
           </linearGradient>
          </defs>
          <path style="fill:url(#gradient2)" d="M 23010,4551 L 21555,3711 23616,2521 25071,3361 23010,4551 Z"/>
         </g>
         <path fill="none" stroke="rgb(255,255,255)" stroke-width="40" stroke-linejoin="round" d="M 23010,4551 L 21555,3711 23616,2521 25071,3361 23010,4551 Z"/>
        </g>
       </g>
       <g class="com.sun.star.drawing.PolyPolygonShape">
        <g id="id7">
         <rect class="BoundingBox" stroke="none" fill="none" x="21534" y="2501" width="3558" height="4871"/>
         <path fill="none" stroke="rgb(0,0,0)" stroke-width="40" stroke-linejoin="round" d="M 21555,6511 L 21555,3711 23616,2521 25071,3361 25071,6161 23010,7351 21555,6511 Z"/>
        </g>
       </g>
       <g class="com.sun.star.drawing.LineShape">
        <g id="id8">
         <rect class="BoundingBox" stroke="none" fill="none" x="21777" y="6071" width="1011" height="601"/>
         <path fill="none" stroke="rgb(128,128,128)" stroke-width="40" stroke-linejoin="round" d="M 22767,6651 L 21797,6091"/>
        </g>
       </g>
       <g class="com.sun.star.drawing.LineShape">
        <g id="id9">
         <rect class="BoundingBox" stroke="none" fill="none" x="21777" y="6351" width="1011" height="601"/>
         <path fill="none" stroke="rgb(128,128,128)" stroke-width="40" stroke-linejoin="round" d="M 22767,6931 L 21797,6371"/>
        </g>
       </g>
       <g class="com.sun.star.drawing.LineShape">
        <g id="id10">
         <rect class="BoundingBox" stroke="none" fill="none" x="21777" y="6211" width="1011" height="601"/>
         <path fill="none" stroke="rgb(128,128,128)" stroke-width="40" stroke-linejoin="round" d="M 22767,6791 L 21797,6231"/>
        </g>
       </g>
       <g class="com.sun.star.drawing.PolyLineShape">
        <g id="id11">
         <rect class="BoundingBox" stroke="none" fill="none" x="21656" y="4111" width="1253" height="882"/>
         <path fill="none" stroke="rgb(255,255,255)" stroke-width="40" stroke-linejoin="round" d="M 22888,4971 L 21676,4271 21676,4131"/>
        </g>
       </g>
       <g class="com.sun.star.drawing.PolyLineShape">
        <g id="id12">
         <rect class="BoundingBox" stroke="none" fill="none" x="21677" y="4108" width="1232" height="884"/>
         <path fill="none" stroke="rgb(128,128,128)" stroke-width="40" stroke-linejoin="round" d="M 22888,4971 L 22888,4831 21697,4128"/>
        </g>
       </g>
       <g class="com.sun.star.drawing.PolyPolygonShape">
        <g id="id13">
         <rect class="BoundingBox" stroke="none" fill="none" x="22105" y="5508" width="183" height="288"/>
         <path fill="rgb(57,181,74)" stroke="none" d="M 22125,5693 L 22125,5528 22267,5610 22267,5775 22125,5693 Z"/>
         <path fill="none" stroke="rgb(128,128,128)" stroke-width="40" stroke-linejoin="round" d="M 22125,5693 L 22125,5528 22267,5610 22267,5775 22125,5693 Z"/>
        </g>
       </g>
       <g class="com.sun.star.drawing.LineShape">
        <g id="id14">
         <rect class="BoundingBox" stroke="none" fill="none" x="21777" y="5931" width="1011" height="601"/>
         <path fill="none" stroke="rgb(128,128,128)" stroke-width="40" stroke-linejoin="round" d="M 22767,6511 L 21797,5951"/>
        </g>
       </g>
      </g>
     </g>
    </g>
   </g>
  </g>
 </g>
</svg>