<?xml version="1.0" encoding="UTF-8"?>
<!DOCTYPE svg PUBLIC "-//W3C//DTD SVG 1.1//EN" "http://www.w3.org/Graphics/SVG/1.1/DTD/svg11.dtd">
<svg version="1.2" width="36.78mm" height="28.4mm" viewBox="17748 12283 3678 2840" preserveAspectRatio="xMidYMid" fill-rule="evenodd" stroke-width="28.222" stroke-linejoin="round" xmlns="http://www.w3.org/2000/svg" xmlns:ooo="http://xml.openoffice.org/svg/export" xmlns:xlink="http://www.w3.org/1999/xlink" xmlns:presentation="http://sun.com/xmlns/staroffice/presentation" xmlns:smil="http://www.w3.org/2001/SMIL20/" xmlns:anim="urn:oasis:names:tc:opendocument:xmlns:animation:1.0" xml:space="preserve">
 <defs class="ClipPathGroup">
  <clipPath id="presentation_clip_path" clipPathUnits="userSpaceOnUse">
   <rect x="17748" y="12283" width="3678" height="2840"/>
  </clipPath>
 </defs>
 <defs class="TextShapeIndex">
  <g ooo:slide="id1" ooo:id-list="id3 id4 id5 id6 id7 id8 id9 id10 id11"/>
 </defs>
 <defs class="EmbeddedBulletChars">
  <g id="bullet-char-template(57356)" transform="scale(0.00048828125,-0.00048828125)">
   <path d="M 580,1141 L 1163,571 580,0 -4,571 580,1141 Z"/>
  </g>
  <g id="bullet-char-template(57354)" transform="scale(0.00048828125,-0.00048828125)">
   <path d="M 8,1128 L 1137,1128 1137,0 8,0 8,1128 Z"/>
  </g>
  <g id="bullet-char-template(10146)" transform="scale(0.00048828125,-0.00048828125)">
   <path d="M 174,0 L 602,739 174,1481 1456,739 174,0 Z M 1358,739 L 309,1346 659,739 1358,739 Z"/>
  </g>
  <g id="bullet-char-template(10132)" transform="scale(0.00048828125,-0.00048828125)">
   <path d="M 2015,739 L 1276,0 717,0 1260,543 174,543 174,936 1260,936 717,1481 1274,1481 2015,739 Z"/>
  </g>
  <g id="bullet-char-template(10007)" transform="scale(0.00048828125,-0.00048828125)">
   <path d="M 0,-2 C -7,14 -16,27 -25,37 L 356,567 C 262,823 215,952 215,954 215,979 228,992 255,992 264,992 276,990 289,987 310,991 331,999 354,1012 L 381,999 492,748 772,1049 836,1024 860,1049 C 881,1039 901,1025 922,1006 886,937 835,863 770,784 769,783 710,716 594,584 L 774,223 C 774,196 753,168 711,139 L 727,119 C 717,90 699,76 672,76 641,76 570,178 457,381 L 164,-76 C 142,-110 111,-127 72,-127 30,-127 9,-110 8,-76 1,-67 -2,-52 -2,-32 -2,-23 -1,-13 0,-2 Z"/>
  </g>
  <g id="bullet-char-template(10004)" transform="scale(0.00048828125,-0.00048828125)">
   <path d="M 285,-33 C 182,-33 111,30 74,156 52,228 41,333 41,471 41,549 55,616 82,672 116,743 169,778 240,778 293,778 328,747 346,684 L 369,508 C 377,444 397,411 428,410 L 1163,1116 C 1174,1127 1196,1133 1229,1133 1271,1133 1292,1118 1292,1087 L 1292,965 C 1292,929 1282,901 1262,881 L 442,47 C 390,-6 338,-33 285,-33 Z"/>
  </g>
  <g id="bullet-char-template(9679)" transform="scale(0.00048828125,-0.00048828125)">
   <path d="M 813,0 C 632,0 489,54 383,161 276,268 223,411 223,592 223,773 276,916 383,1023 489,1130 632,1184 813,1184 992,1184 1136,1130 1245,1023 1353,916 1407,772 1407,592 1407,412 1353,268 1245,161 1136,54 992,0 813,0 Z"/>
  </g>
  <g id="bullet-char-template(8226)" transform="scale(0.00048828125,-0.00048828125)">
   <path d="M 346,457 C 273,457 209,483 155,535 101,586 74,649 74,723 74,796 101,859 155,911 209,963 273,989 346,989 419,989 480,963 531,910 582,859 608,796 608,723 608,648 583,586 532,535 482,483 420,457 346,457 Z"/>
  </g>
  <g id="bullet-char-template(8211)" transform="scale(0.00048828125,-0.00048828125)">
   <path d="M -4,459 L 1135,459 1135,606 -4,606 -4,459 Z"/>
  </g>
 </defs>
 <defs class="TextEmbeddedBitmaps"/>
 <g class="SlideGroup">
  <g>
   <g id="id1" class="Slide" clip-path="url(#presentation_clip_path)">
    <g class="Page">
     <g class="Group">
      <g class="com.sun.star.drawing.ClosedBezierShape">
       <g id="id3">
        <rect class="BoundingBox" stroke="none" fill="none" x="19534" y="13823" width="1893" height="1232"/>
        <path fill="rgb(221,221,221)" stroke="none" d="M 19554,15033 C 20029,15033 21252,14473 21373,14263 21494,14053 21252,13843 21131,13843 21131,14143 19554,14533 19554,15033 Z"/>
        <path fill="none" stroke="rgb(221,221,221)" stroke-width="40" stroke-linejoin="round" d="M 19554,15033 C 20029,15033 21252,14473 21373,14263 21494,14053 21252,13843 21131,13843 21131,14143 19554,14533 19554,15033 Z"/>
       </g>
      </g>
      <g class="Group">
       <g class="com.sun.star.drawing.PolyPolygonShape">
        <g id="id4">
         <rect class="BoundingBox" stroke="none" fill="none" x="17748" y="13263" width="1739" height="1861"/>
         <g>
          <defs>
           <linearGradient id="gradient1" x1="17767" y1="14193" x2="19467" y2="14193" gradientUnits="userSpaceOnUse">
            <stop offset="0.1" style="stop-color:rgb(0,115,188)"/>
            <stop offset="1" style="stop-color:rgb(127,185,221)"/>
           </linearGradient>
          </defs>
          <path style="fill:url(#gradient1)" d="M 17768,14123 L 17768,13283 19466,14263 19466,15103 17768,14123 Z"/>
         </g>
         <path fill="none" stroke="rgb(255,255,255)" stroke-width="40" stroke-linejoin="round" d="M 17768,14123 L 17768,13283 19466,14263 19466,15103 17768,14123 Z"/>
        </g>
       </g>
       <g class="com.sun.star.drawing.PolyPolygonShape">
        <g id="id5">
         <rect class="BoundingBox" stroke="none" fill="none" x="19446" y="13263" width="1738" height="1861"/>
         <g>
          <defs>
           <pattern id="pattern1" x="19466" y="13283" width="1698" height="1821" patternUnits="userSpaceOnUse">
            <g transform="translate(-19466,-13283)">
             <path fill="rgb(0,115,188)" stroke="none" d="M 19465,13282 L 21164,13282 21164,15104 19465,15104 19465,13282 Z M 19132,12925 L 20817,12925 20817,14731 19132,14731 19132,12925 Z"/>
             <path fill="rgb(1,115,188)" stroke="none" d="M 19132,12925 L 20817,12925 20817,14731 19132,14731 19132,12925 Z M 19139,12932 L 20810,12932 20810,14724 19139,14724 19139,12932 Z"/>
             <path fill="rgb(2,116,188)" stroke="none" d="M 19139,12932 L 20810,12932 20810,14724 19139,14724 19139,12932 Z M 19146,12939 L 20803,12939 20803,14717 19146,14717 19146,12939 Z"/>
             <path fill="rgb(3,116,188)" stroke="none" d="M 19146,12939 L 20803,12939 20803,14717 19146,14717 19146,12939 Z M 19152,12946 L 20797,12946 20797,14710 19152,14710 19152,12946 Z"/>
             <path fill="rgb(4,117,189)" stroke="none" d="M 19152,12946 L 20797,12946 20797,14710 19152,14710 19152,12946 Z M 19159,12953 L 20790,12953 20790,14703 19159,14703 19159,12953 Z"/>
             <path fill="rgb(5,117,189)" stroke="none" d="M 19159,12953 L 20790,12953 20790,14703 19159,14703 19159,12953 Z M 19166,12961 L 20783,12961 20783,14695 19166,14695 19166,12961 Z"/>
             <path fill="rgb(6,118,189)" stroke="none" d="M 19166,12961 L 20783,12961 20783,14695 19166,14695 19166,12961 Z M 19172,12968 L 20777,12968 20777,14688 19172,14688 19172,12968 Z"/>
             <path fill="rgb(7,118,189)" stroke="none" d="M 19172,12968 L 20777,12968 20777,14688 19172,14688 19172,12968 Z M 19179,12975 L 20770,12975 20770,14681 19179,14681 19179,12975 Z"/>
             <path fill="rgb(8,119,190)" stroke="none" d="M 19179,12975 L 20770,12975 20770,14681 19179,14681 19179,12975 Z M 19186,12982 L 20763,12982 20763,14674 19186,14674 19186,12982 Z"/>
             <path fill="rgb(9,119,190)" stroke="none" d="M 19186,12982 L 20763,12982 20763,14674 19186,14674 19186,12982 Z M 19192,12989 L 20757,12989 20757,14667 19192,14667 19192,12989 Z"/>
             <path fill="rgb(10,120,190)" stroke="none" d="M 19192,12989 L 20757,12989 20757,14667 19192,14667 19192,12989 Z M 19199,12996 L 20750,12996 20750,14660 19199,14660 19199,12996 Z"/>
             <path fill="rgb(11,121,190)" stroke="none" d="M 19199,12996 L 20750,12996 20750,14660 19199,14660 19199,12996 Z M 19206,13004 L 20743,13004 20743,14652 19206,14652 19206,13004 Z"/>
             <path fill="rgb(12,121,191)" stroke="none" d="M 19206,13004 L 20743,13004 20743,14652 19206,14652 19206,13004 Z M 19213,13011 L 20736,13011 20736,14645 19213,14645 19213,13011 Z"/>
             <path fill="rgb(13,122,191)" stroke="none" d="M 19213,13011 L 20736,13011 20736,14645 19213,14645 19213,13011 Z M 19219,13018 L 20730,13018 20730,14638 19219,14638 19219,13018 Z"/>
             <path fill="rgb(14,122,191)" stroke="none" d="M 19219,13018 L 20730,13018 20730,14638 19219,14638 19219,13018 Z M 19226,13025 L 20723,13025 20723,14631 19226,14631 19226,13025 Z"/>
             <path fill="rgb(15,123,191)" stroke="none" d="M 19226,13025 L 20723,13025 20723,14631 19226,14631 19226,13025 Z M 19233,13032 L 20716,13032 20716,14624 19233,14624 19233,13032 Z"/>
             <path fill="rgb(16,123,192)" stroke="none" d="M 19233,13032 L 20716,13032 20716,14624 19233,14624 19233,13032 Z M 19239,13040 L 20710,13040 20710,14616 19239,14616 19239,13040 Z"/>
             <path fill="rgb(17,124,192)" stroke="none" d="M 19239,13040 L 20710,13040 20710,14616 19239,14616 19239,13040 Z M 19246,13047 L 20703,13047 20703,14609 19246,14609 19246,13047 Z"/>
             <path fill="rgb(18,124,192)" stroke="none" d="M 19246,13047 L 20703,13047 20703,14609 19246,14609 19246,13047 Z M 19253,13054 L 20696,13054 20696,14602 19253,14602 19253,13054 Z"/>
             <path fill="rgb(19,125,192)" stroke="none" d="M 19253,13054 L 20696,13054 20696,14602 19253,14602 19253,13054 Z M 19259,13061 L 20690,13061 20690,14595 19259,14595 19259,13061 Z"/>
             <path fill="rgb(20,126,193)" stroke="none" d="M 19259,13061 L 20690,13061 20690,14595 19259,14595 19259,13061 Z M 19266,13068 L 20683,13068 20683,14588 19266,14588 19266,13068 Z"/>
             <path fill="rgb(21,126,193)" stroke="none" d="M 19266,13068 L 20683,13068 20683,14588 19266,14588 19266,13068 Z M 19273,13075 L 20676,13075 20676,14581 19273,14581 19273,13075 Z"/>
             <path fill="rgb(22,127,193)" stroke="none" d="M 19273,13075 L 20676,13075 20676,14581 19273,14581 19273,13075 Z M 19279,13083 L 20670,13083 20670,14573 19279,14573 19279,13083 Z"/>
             <path fill="rgb(23,127,193)" stroke="none" d="M 19279,13083 L 20670,13083 20670,14573 19279,14573 19279,13083 Z M 19286,13090 L 20663,13090 20663,14566 19286,14566 19286,13090 Z"/>
             <path fill="rgb(24,128,194)" stroke="none" d="M 19286,13090 L 20663,13090 20663,14566 19286,14566 19286,13090 Z M 19293,13097 L 20656,13097 20656,14559 19293,14559 19293,13097 Z"/>
             <path fill="rgb(25,128,194)" stroke="none" d="M 19293,13097 L 20656,13097 20656,14559 19293,14559 19293,13097 Z M 19300,13104 L 20649,13104 20649,14552 19300,14552 19300,13104 Z"/>
             <path fill="rgb(26,129,194)" stroke="none" d="M 19300,13104 L 20649,13104 20649,14552 19300,14552 19300,13104 Z M 19306,13111 L 20643,13111 20643,14545 19306,14545 19306,13111 Z"/>
             <path fill="rgb(27,129,195)" stroke="none" d="M 19306,13111 L 20643,13111 20643,14545 19306,14545 19306,13111 Z M 19313,13118 L 20636,13118 20636,14538 19313,14538 19313,13118 Z"/>
             <path fill="rgb(28,130,195)" stroke="none" d="M 19313,13118 L 20636,13118 20636,14538 19313,14538 19313,13118 Z M 19320,13126 L 20629,13126 20629,14530 19320,14530 19320,13126 Z"/>
             <path fill="rgb(29,130,195)" stroke="none" d="M 19320,13126 L 20629,13126 20629,14530 19320,14530 19320,13126 Z M 19326,13133 L 20623,13133 20623,14523 19326,14523 19326,13133 Z"/>
             <path fill="rgb(30,131,195)" stroke="none" d="M 19326,13133 L 20623,13133 20623,14523 19326,14523 19326,13133 Z M 19333,13140 L 20616,13140 20616,14516 19333,14516 19333,13140 Z"/>
             <path fill="rgb(31,132,196)" stroke="none" d="M 19333,13140 L 20616,13140 20616,14516 19333,14516 19333,13140 Z M 19340,13147 L 20609,13147 20609,14509 19340,14509 19340,13147 Z"/>
             <path fill="rgb(32,132,196)" stroke="none" d="M 19340,13147 L 20609,13147 20609,14509 19340,14509 19340,13147 Z M 19346,13154 L 20603,13154 20603,14502 19346,14502 19346,13154 Z"/>
             <path fill="rgb(33,133,196)" stroke="none" d="M 19346,13154 L 20603,13154 20603,14502 19346,14502 19346,13154 Z M 19353,13162 L 20596,13162 20596,14494 19353,14494 19353,13162 Z"/>
             <path fill="rgb(34,133,196)" stroke="none" d="M 19353,13162 L 20596,13162 20596,14494 19353,14494 19353,13162 Z M 19360,13169 L 20589,13169 20589,14487 19360,14487 19360,13169 Z"/>
             <path fill="rgb(35,134,197)" stroke="none" d="M 19360,13169 L 20589,13169 20589,14487 19360,14487 19360,13169 Z M 19366,13176 L 20583,13176 20583,14480 19366,14480 19366,13176 Z"/>
             <path fill="rgb(36,134,197)" stroke="none" d="M 19366,13176 L 20583,13176 20583,14480 19366,14480 19366,13176 Z M 19373,13183 L 20576,13183 20576,14473 19373,14473 19373,13183 Z"/>
             <path fill="rgb(37,135,197)" stroke="none" d="M 19373,13183 L 20576,13183 20576,14473 19373,14473 19373,13183 Z M 19380,13190 L 20569,13190 20569,14466 19380,14466 19380,13190 Z"/>
             <path fill="rgb(38,135,197)" stroke="none" d="M 19380,13190 L 20569,13190 20569,14466 19380,14466 19380,13190 Z M 19387,13197 L 20562,13197 20562,14459 19387,14459 19387,13197 Z"/>
             <path fill="rgb(39,136,198)" stroke="none" d="M 19387,13197 L 20562,13197 20562,14459 19387,14459 19387,13197 Z M 19393,13205 L 20556,13205 20556,14451 19393,14451 19393,13205 Z"/>
             <path fill="rgb(40,137,198)" stroke="none" d="M 19393,13205 L 20556,13205 20556,14451 19393,14451 19393,13205 Z M 19400,13212 L 20549,13212 20549,14444 19400,14444 19400,13212 Z"/>
             <path fill="rgb(41,137,198)" stroke="none" d="M 19400,13212 L 20549,13212 20549,14444 19400,14444 19400,13212 Z M 19407,13219 L 20542,13219 20542,14437 19407,14437 19407,13219 Z"/>
             <path fill="rgb(42,138,198)" stroke="none" d="M 19407,13219 L 20542,13219 20542,14437 19407,14437 19407,13219 Z M 19413,13226 L 20536,13226 20536,14430 19413,14430 19413,13226 Z"/>
             <path fill="rgb(43,138,199)" stroke="none" d="M 19413,13226 L 20536,13226 20536,14430 19413,14430 19413,13226 Z M 19420,13233 L 20529,13233 20529,14423 19420,14423 19420,13233 Z"/>
             <path fill="rgb(44,139,199)" stroke="none" d="M 19420,13233 L 20529,13233 20529,14423 19420,14423 19420,13233 Z M 19427,13240 L 20522,13240 20522,14416 19427,14416 19427,13240 Z"/>
             <path fill="rgb(45,139,199)" stroke="none" d="M 19427,13240 L 20522,13240 20522,14416 19427,14416 19427,13240 Z M 19433,13248 L 20516,13248 20516,14408 19433,14408 19433,13248 Z"/>
             <path fill="rgb(46,140,199)" stroke="none" d="M 19433,13248 L 20516,13248 20516,14408 19433,14408 19433,13248 Z M 19440,13255 L 20509,13255 20509,14401 19440,14401 19440,13255 Z"/>
             <path fill="rgb(47,140,200)" stroke="none" d="M 19440,13255 L 20509,13255 20509,14401 19440,14401 19440,13255 Z M 19446,13262 L 20502,13262 20502,14394 19446,14394 19446,13262 Z"/>
             <path fill="rgb(48,141,200)" stroke="none" d="M 19446,13262 L 20502,13262 20502,14394 19446,14394 19446,13262 Z M 19452,13268 L 20496,13268 20496,14387 19452,14387 19452,13268 Z"/>
             <path fill="rgb(49,142,200)" stroke="none" d="M 19452,13268 L 20496,13268 20496,14387 19452,14387 19452,13268 Z M 19459,13275 L 20489,13275 20489,14380 19459,14380 19459,13275 Z"/>
             <path fill="rgb(50,142,200)" stroke="none" d="M 19459,13275 L 20489,13275 20489,14380 19459,14380 19459,13275 Z M 19466,13283 L 20482,13283 20482,14372 19466,14372 19466,13283 Z"/>
             <path fill="rgb(51,143,201)" stroke="none" d="M 19466,13283 L 20482,13283 20482,14372 19466,14372 19466,13283 Z M 19473,13290 L 20475,13290 20475,14365 19473,14365 19473,13290 Z"/>
             <path fill="rgb(52,143,201)" stroke="none" d="M 19473,13290 L 20475,13290 20475,14365 19473,14365 19473,13290 Z M 19479,13297 L 20469,13297 20469,14358 19479,14358 19479,13297 Z"/>
             <path fill="rgb(53,144,201)" stroke="none" d="M 19479,13297 L 20469,13297 20469,14358 19479,14358 19479,13297 Z M 19486,13304 L 20462,13304 20462,14351 19486,14351 19486,13304 Z"/>
             <path fill="rgb(54,144,202)" stroke="none" d="M 19486,13304 L 20462,13304 20462,14351 19486,14351 19486,13304 Z M 19493,13311 L 20455,13311 20455,14344 19493,14344 19493,13311 Z"/>
             <path fill="rgb(55,145,202)" stroke="none" d="M 19493,13311 L 20455,13311 20455,14344 19493,14344 19493,13311 Z M 19499,13318 L 20449,13318 20449,14337 19499,14337 19499,13318 Z"/>
             <path fill="rgb(56,145,202)" stroke="none" d="M 19499,13318 L 20449,13318 20449,14337 19499,14337 19499,13318 Z M 19506,13326 L 20442,13326 20442,14329 19506,14329 19506,13326 Z"/>
             <path fill="rgb(57,146,202)" stroke="none" d="M 19506,13326 L 20442,13326 20442,14329 19506,14329 19506,13326 Z M 19513,13333 L 20435,13333 20435,14322 19513,14322 19513,13333 Z"/>
             <path fill="rgb(58,146,203)" stroke="none" d="M 19513,13333 L 20435,13333 20435,14322 19513,14322 19513,13333 Z M 19519,13340 L 20429,13340 20429,14315 19519,14315 19519,13340 Z"/>
             <path fill="rgb(59,147,203)" stroke="none" d="M 19519,13340 L 20429,13340 20429,14315 19519,14315 19519,13340 Z M 19526,13347 L 20422,13347 20422,14308 19526,14308 19526,13347 Z"/>
             <path fill="rgb(60,148,203)" stroke="none" d="M 19526,13347 L 20422,13347 20422,14308 19526,14308 19526,13347 Z M 19533,13354 L 20415,13354 20415,14301 19533,14301 19533,13354 Z"/>
             <path fill="rgb(61,148,203)" stroke="none" d="M 19533,13354 L 20415,13354 20415,14301 19533,14301 19533,13354 Z M 19539,13361 L 20409,13361 20409,14294 19539,14294 19539,13361 Z"/>
             <path fill="rgb(62,149,204)" stroke="none" d="M 19539,13361 L 20409,13361 20409,14294 19539,14294 19539,13361 Z M 19546,13369 L 20402,13369 20402,14286 19546,14286 19546,13369 Z"/>
             <path fill="rgb(63,149,204)" stroke="none" d="M 19546,13369 L 20402,13369 20402,14286 19546,14286 19546,13369 Z M 19553,13376 L 20395,13376 20395,14279 19553,14279 19553,13376 Z"/>
             <path fill="rgb(64,150,204)" stroke="none" d="M 19553,13376 L 20395,13376 20395,14279 19553,14279 19553,13376 Z M 19560,13383 L 20388,13383 20388,14272 19560,14272 19560,13383 Z"/>
             <path fill="rgb(65,150,204)" stroke="none" d="M 19560,13383 L 20388,13383 20388,14272 19560,14272 19560,13383 Z M 19566,13390 L 20382,13390 20382,14265 19566,14265 19566,13390 Z"/>
             <path fill="rgb(66,151,205)" stroke="none" d="M 19566,13390 L 20382,13390 20382,14265 19566,14265 19566,13390 Z M 19573,13397 L 20375,13397 20375,14258 19573,14258 19573,13397 Z"/>
             <path fill="rgb(67,151,205)" stroke="none" d="M 19573,13397 L 20375,13397 20375,14258 19573,14258 19573,13397 Z M 19580,13405 L 20368,13405 20368,14250 19580,14250 19580,13405 Z"/>
             <path fill="rgb(68,152,205)" stroke="none" d="M 19580,13405 L 20368,13405 20368,14250 19580,14250 19580,13405 Z M 19586,13412 L 20362,13412 20362,14243 19586,14243 19586,13412 Z"/>
             <path fill="rgb(69,153,205)" stroke="none" d="M 19586,13412 L 20362,13412 20362,14243 19586,14243 19586,13412 Z M 19593,13419 L 20355,13419 20355,14236 19593,14236 19593,13419 Z"/>
             <path fill="rgb(70,153,206)" stroke="none" d="M 19593,13419 L 20355,13419 20355,14236 19593,14236 19593,13419 Z M 19600,13426 L 20348,13426 20348,14229 19600,14229 19600,13426 Z"/>
             <path fill="rgb(71,154,206)" stroke="none" d="M 19600,13426 L 20348,13426 20348,14229 19600,14229 19600,13426 Z M 19606,13433 L 20342,13433 20342,14222 19606,14222 19606,13433 Z"/>
             <path fill="rgb(72,154,206)" stroke="none" d="M 19606,13433 L 20342,13433 20342,14222 19606,14222 19606,13433 Z M 19613,13440 L 20335,13440 20335,14215 19613,14215 19613,13440 Z"/>
             <path fill="rgb(73,155,206)" stroke="none" d="M 19613,13440 L 20335,13440 20335,14215 19613,14215 19613,13440 Z M 19620,13448 L 20328,13448 20328,14207 19620,14207 19620,13448 Z"/>
             <path fill="rgb(74,155,207)" stroke="none" d="M 19620,13448 L 20328,13448 20328,14207 19620,14207 19620,13448 Z M 19626,13455 L 20322,13455 20322,14200 19626,14200 19626,13455 Z"/>
             <path fill="rgb(75,156,207)" stroke="none" d="M 19626,13455 L 20322,13455 20322,14200 19626,14200 19626,13455 Z M 19633,13462 L 20315,13462 20315,14193 19633,14193 19633,13462 Z"/>
             <path fill="rgb(76,156,207)" stroke="none" d="M 19633,13462 L 20315,13462 20315,14193 19633,14193 19633,13462 Z M 19640,13469 L 20308,13469 20308,14186 19640,14186 19640,13469 Z"/>
             <path fill="rgb(77,157,208)" stroke="none" d="M 19640,13469 L 20308,13469 20308,14186 19640,14186 19640,13469 Z M 19647,13476 L 20301,13476 20301,14179 19647,14179 19647,13476 Z"/>
             <path fill="rgb(78,157,208)" stroke="none" d="M 19647,13476 L 20301,13476 20301,14179 19647,14179 19647,13476 Z M 19653,13483 L 20295,13483 20295,14172 19653,14172 19653,13483 Z"/>
             <path fill="rgb(79,158,208)" stroke="none" d="M 19653,13483 L 20295,13483 20295,14172 19653,14172 19653,13483 Z M 19660,13491 L 20288,13491 20288,14164 19660,14164 19660,13491 Z"/>
             <path fill="rgb(80,159,208)" stroke="none" d="M 19660,13491 L 20288,13491 20288,14164 19660,14164 19660,13491 Z M 19667,13498 L 20281,13498 20281,14157 19667,14157 19667,13498 Z"/>
             <path fill="rgb(81,159,209)" stroke="none" d="M 19667,13498 L 20281,13498 20281,14157 19667,14157 19667,13498 Z M 19673,13505 L 20275,13505 20275,14150 19673,14150 19673,13505 Z"/>
             <path fill="rgb(82,160,209)" stroke="none" d="M 19673,13505 L 20275,13505 20275,14150 19673,14150 19673,13505 Z M 19680,13512 L 20268,13512 20268,14143 19680,14143 19680,13512 Z"/>
             <path fill="rgb(83,160,209)" stroke="none" d="M 19680,13512 L 20268,13512 20268,14143 19680,14143 19680,13512 Z M 19687,13519 L 20261,13519 20261,14136 19687,14136 19687,13519 Z"/>
             <path fill="rgb(84,161,209)" stroke="none" d="M 19687,13519 L 20261,13519 20261,14136 19687,14136 19687,13519 Z M 19693,13527 L 20255,13527 20255,14128 19693,14128 19693,13527 Z"/>
             <path fill="rgb(85,161,210)" stroke="none" d="M 19693,13527 L 20255,13527 20255,14128 19693,14128 19693,13527 Z M 19700,13534 L 20248,13534 20248,14121 19700,14121 19700,13534 Z"/>
             <path fill="rgb(86,162,210)" stroke="none" d="M 19700,13534 L 20248,13534 20248,14121 19700,14121 19700,13534 Z M 19707,13541 L 20241,13541 20241,14114 19707,14114 19707,13541 Z"/>
             <path fill="rgb(87,162,210)" stroke="none" d="M 19707,13541 L 20241,13541 20241,14114 19707,14114 19707,13541 Z M 19713,13548 L 20235,13548 20235,14107 19713,14107 19713,13548 Z"/>
             <path fill="rgb(88,163,210)" stroke="none" d="M 19713,13548 L 20235,13548 20235,14107 19713,14107 19713,13548 Z M 19720,13555 L 20228,13555 20228,14100 19720,14100 19720,13555 Z"/>
             <path fill="rgb(89,164,211)" stroke="none" d="M 19720,13555 L 20228,13555 20228,14100 19720,14100 19720,13555 Z M 19727,13562 L 20221,13562 20221,14093 19727,14093 19727,13562 Z"/>
             <path fill="rgb(90,164,211)" stroke="none" d="M 19727,13562 L 20221,13562 20221,14093 19727,14093 19727,13562 Z M 19734,13570 L 20214,13570 20214,14085 19734,14085 19734,13570 Z"/>
             <path fill="rgb(91,165,211)" stroke="none" d="M 19734,13570 L 20214,13570 20214,14085 19734,14085 19734,13570 Z M 19740,13577 L 20208,13577 20208,14078 19740,14078 19740,13577 Z"/>
             <path fill="rgb(92,165,211)" stroke="none" d="M 19740,13577 L 20208,13577 20208,14078 19740,14078 19740,13577 Z M 19747,13584 L 20201,13584 20201,14071 19747,14071 19747,13584 Z"/>
             <path fill="rgb(93,166,212)" stroke="none" d="M 19747,13584 L 20201,13584 20201,14071 19747,14071 19747,13584 Z M 19754,13591 L 20194,13591 20194,14064 19754,14064 19754,13591 Z"/>
             <path fill="rgb(94,166,212)" stroke="none" d="M 19754,13591 L 20194,13591 20194,14064 19754,14064 19754,13591 Z M 19760,13598 L 20188,13598 20188,14057 19760,14057 19760,13598 Z"/>
             <path fill="rgb(95,167,212)" stroke="none" d="M 19760,13598 L 20188,13598 20188,14057 19760,14057 19760,13598 Z M 19767,13606 L 20181,13606 20181,14049 19767,14049 19767,13606 Z"/>
             <path fill="rgb(96,167,212)" stroke="none" d="M 19767,13606 L 20181,13606 20181,14049 19767,14049 19767,13606 Z M 19774,13613 L 20174,13613 20174,14042 19774,14042 19774,13613 Z"/>
             <path fill="rgb(97,168,213)" stroke="none" d="M 19774,13613 L 20174,13613 20174,14042 19774,14042 19774,13613 Z M 19780,13620 L 20168,13620 20168,14035 19780,14035 19780,13620 Z"/>
             <path fill="rgb(98,169,213)" stroke="none" d="M 19780,13620 L 20168,13620 20168,14035 19780,14035 19780,13620 Z M 19787,13627 L 20161,13627 20161,14028 19787,14028 19787,13627 Z"/>
             <path fill="rgb(99,169,213)" stroke="none" d="M 19787,13627 L 20161,13627 20161,14028 19787,14028 19787,13627 Z M 19794,13634 L 20154,13634 20154,14021 19794,14021 19794,13634 Z"/>
             <path fill="rgb(100,170,213)" stroke="none" d="M 19794,13634 L 20154,13634 20154,14021 19794,14021 19794,13634 Z M 19800,13641 L 20148,13641 20148,14014 19800,14014 19800,13641 Z"/>
             <path fill="rgb(101,170,214)" stroke="none" d="M 19800,13641 L 20148,13641 20148,14014 19800,14014 19800,13641 Z M 19807,13649 L 20141,13649 20141,14006 19807,14006 19807,13649 Z"/>
             <path fill="rgb(102,171,214)" stroke="none" d="M 19807,13649 L 20141,13649 20141,14006 19807,14006 19807,13649 Z M 19814,13656 L 20134,13656 20134,13999 19814,13999 19814,13656 Z"/>
             <path fill="rgb(103,171,214)" stroke="none" d="M 19814,13656 L 20134,13656 20134,13999 19814,13999 19814,13656 Z M 19821,13663 L 20127,13663 20127,13992 19821,13992 19821,13663 Z"/>
             <path fill="rgb(104,172,215)" stroke="none" d="M 19821,13663 L 20127,13663 20127,13992 19821,13992 19821,13663 Z M 19827,13670 L 20121,13670 20121,13985 19827,13985 19827,13670 Z"/>
             <path fill="rgb(105,172,215)" stroke="none" d="M 19827,13670 L 20121,13670 20121,13985 19827,13985 19827,13670 Z M 19834,13677 L 20114,13677 20114,13978 19834,13978 19834,13677 Z"/>
             <path fill="rgb(106,173,215)" stroke="none" d="M 19834,13677 L 20114,13677 20114,13978 19834,13978 19834,13677 Z M 19841,13684 L 20107,13684 20107,13971 19841,13971 19841,13684 Z"/>
             <path fill="rgb(107,173,215)" stroke="none" d="M 19841,13684 L 20107,13684 20107,13971 19841,13971 19841,13684 Z M 19847,13692 L 20101,13692 20101,13963 19847,13963 19847,13692 Z"/>
             <path fill="rgb(108,174,216)" stroke="none" d="M 19847,13692 L 20101,13692 20101,13963 19847,13963 19847,13692 Z M 19854,13699 L 20094,13699 20094,13956 19854,13956 19854,13699 Z"/>
             <path fill="rgb(109,175,216)" stroke="none" d="M 19854,13699 L 20094,13699 20094,13956 19854,13956 19854,13699 Z M 19861,13706 L 20087,13706 20087,13949 19861,13949 19861,13706 Z"/>
             <path fill="rgb(110,175,216)" stroke="none" d="M 19861,13706 L 20087,13706 20087,13949 19861,13949 19861,13706 Z M 19867,13713 L 20081,13713 20081,13942 19867,13942 19867,13713 Z"/>
             <path fill="rgb(111,176,216)" stroke="none" d="M 19867,13713 L 20081,13713 20081,13942 19867,13942 19867,13713 Z M 19874,13720 L 20074,13720 20074,13935 19874,13935 19874,13720 Z"/>
             <path fill="rgb(112,176,217)" stroke="none" d="M 19874,13720 L 20074,13720 20074,13935 19874,13935 19874,13720 Z M 19881,13728 L 20067,13728 20067,13927 19881,13927 19881,13728 Z"/>
             <path fill="rgb(113,177,217)" stroke="none" d="M 19881,13728 L 20067,13728 20067,13927 19881,13927 19881,13728 Z M 19887,13735 L 20061,13735 20061,13920 19887,13920 19887,13735 Z"/>
             <path fill="rgb(114,177,217)" stroke="none" d="M 19887,13735 L 20061,13735 20061,13920 19887,13920 19887,13735 Z M 19894,13742 L 20054,13742 20054,13913 19894,13913 19894,13742 Z"/>
             <path fill="rgb(115,178,217)" stroke="none" d="M 19894,13742 L 20054,13742 20054,13913 19894,13913 19894,13742 Z M 19901,13749 L 20047,13749 20047,13906 19901,13906 19901,13749 Z"/>
             <path fill="rgb(116,178,218)" stroke="none" d="M 19901,13749 L 20047,13749 20047,13906 19901,13906 19901,13749 Z M 19908,13756 L 20040,13756 20040,13899 19908,13899 19908,13756 Z"/>
             <path fill="rgb(117,179,218)" stroke="none" d="M 19908,13756 L 20040,13756 20040,13899 19908,13899 19908,13756 Z M 19914,13763 L 20034,13763 20034,13892 19914,13892 19914,13763 Z"/>
             <path fill="rgb(118,180,218)" stroke="none" d="M 19914,13763 L 20034,13763 20034,13892 19914,13892 19914,13763 Z M 19921,13771 L 20027,13771 20027,13884 19921,13884 19921,13771 Z"/>
             <path fill="rgb(119,180,218)" stroke="none" d="M 19921,13771 L 20027,13771 20027,13884 19921,13884 19921,13771 Z M 19928,13778 L 20020,13778 20020,13877 19928,13877 19928,13778 Z"/>
             <path fill="rgb(120,181,219)" stroke="none" d="M 19928,13778 L 20020,13778 20020,13877 19928,13877 19928,13778 Z M 19934,13785 L 20014,13785 20014,13870 19934,13870 19934,13785 Z"/>
             <path fill="rgb(121,181,219)" stroke="none" d="M 19934,13785 L 20014,13785 20014,13870 19934,13870 19934,13785 Z M 19941,13792 L 20007,13792 20007,13863 19941,13863 19941,13792 Z"/>
             <path fill="rgb(122,182,219)" stroke="none" d="M 19941,13792 L 20007,13792 20007,13863 19941,13863 19941,13792 Z M 19948,13799 L 20000,13799 20000,13856 19948,13856 19948,13799 Z"/>
             <path fill="rgb(123,182,219)" stroke="none" d="M 19948,13799 L 20000,13799 20000,13856 19948,13856 19948,13799 Z M 19954,13806 L 19994,13806 19994,13849 19954,13849 19954,13806 Z"/>
             <path fill="rgb(124,183,220)" stroke="none" d="M 19954,13806 L 19994,13806 19994,13849 19954,13849 19954,13806 Z M 19961,13814 L 19987,13814 19987,13841 19961,13841 19961,13814 Z"/>
             <path fill="rgb(125,183,220)" stroke="none" d="M 19961,13814 L 19987,13814 19987,13841 19961,13841 19961,13814 Z M 19968,13821 L 19980,13821 19980,13834 19968,13834 19968,13821 Z"/>
             <path fill="rgb(127,185,221)" stroke="none" d="M 19968,13821 L 19980,13821 19980,13834 19968,13834 19968,13821 Z"/>
            </g>
           </pattern>
          </defs>
          <path style="fill:url(#pattern1)" d="M 19466,15103 L 19466,14263 21163,13283 21163,14123 19466,15103 Z"/>
         </g>
         <path fill="none" stroke="rgb(255,255,255)" stroke-width="40" stroke-linejoin="round" d="M 19466,15103 L 19466,14263 21163,13283 21163,14123 19466,15103 Z"/>
        </g>
       </g>
       <g class="com.sun.star.drawing.PolyPolygonShape">
        <g id="id6">
         <rect class="BoundingBox" stroke="none" fill="none" x="17748" y="12283" width="3436" height="2002"/>
         <g>
          <defs>
           <linearGradient id="gradient2" x1="19465" y1="12303" x2="19465" y2="14263" gradientUnits="userSpaceOnUse">
            <stop offset="0.1" style="stop-color:rgb(0,115,188)"/>
            <stop offset="1" style="stop-color:rgb(127,185,221)"/>
           </linearGradient>
          </defs>
          <path style="fill:url(#gradient2)" d="M 19466,14263 L 17768,13283 19466,12303 21163,13283 19466,14263 Z"/>
         </g>
         <path fill="none" stroke="rgb(255,255,255)" stroke-width="40" stroke-linejoin="round" d="M 19466,14263 L 17768,13283 19466,12303 21163,13283 19466,14263 Z"/>
        </g>
       </g>
       <g class="com.sun.star.drawing.PolyPolygonShape">
        <g id="id7">
         <rect class="BoundingBox" stroke="none" fill="none" x="17748" y="12283" width="3436" height="2841"/>
         <path fill="none" stroke="rgb(0,0,0)" stroke-width="40" stroke-linejoin="round" d="M 17768,14123 L 17768,13283 19466,12303 21163,13283 21163,14123 19466,15103 17768,14123 Z"/>
        </g>
       </g>
       <g class="com.sun.star.drawing.PolyPolygonShape">
        <g id="id8">
         <rect class="BoundingBox" stroke="none" fill="none" x="18233" y="13193" width="890" height="532"/>
         <path fill="rgb(255,255,255)" stroke="none" d="M 18374,13353 L 18981,13703 19102,13633 18495,13283 18616,13213 18253,13213 18253,13423 18374,13353 Z"/>
         <path fill="none" stroke="rgb(255,255,255)" stroke-width="40" stroke-linejoin="round" d="M 18374,13353 L 18981,13703 19102,13633 18495,13283 18616,13213 18253,13213 18253,13423 18374,13353 Z"/>
        </g>
       </g>
       <g class="com.sun.star.drawing.PolyPolygonShape">
        <g id="id9">
         <rect class="BoundingBox" stroke="none" fill="none" x="19081" y="13263" width="890" height="532"/>
         <path fill="rgb(255,255,255)" stroke="none" d="M 19707,13703 L 19586,13773 19950,13773 19950,13563 19829,13633 19223,13283 19102,13353 19707,13703 Z"/>
         <path fill="none" stroke="rgb(255,255,255)" stroke-width="40" stroke-linejoin="round" d="M 19707,13703 L 19586,13773 19950,13773 19950,13563 19829,13633 19223,13283 19102,13353 19707,13703 Z"/>
        </g>
       </g>
       <g class="com.sun.star.drawing.PolyPolygonShape">
        <g id="id10">
         <rect class="BoundingBox" stroke="none" fill="none" x="18961" y="12773" width="889" height="532"/>
         <path fill="rgb(255,255,255)" stroke="none" d="M 19102,12933 L 19708,13283 19829,13213 19223,12863 19344,12793 18981,12793 18981,13003 19102,12933 Z"/>
         <path fill="none" stroke="rgb(255,255,255)" stroke-width="40" stroke-linejoin="round" d="M 19102,12933 L 19708,13283 19829,13213 19223,12863 19344,12793 18981,12793 18981,13003 19102,12933 Z"/>
        </g>
       </g>
       <g class="com.sun.star.drawing.PolyPolygonShape">
        <g id="id11">
         <rect class="BoundingBox" stroke="none" fill="none" x="19810" y="12843" width="889" height="532"/>
         <path fill="rgb(255,255,255)" stroke="none" d="M 20435,13283 L 20314,13353 20678,13353 20678,13143 20557,13213 19951,12863 19830,12933 20435,13283 Z"/>
         <path fill="none" stroke="rgb(255,255,255)" stroke-width="40" stroke-linejoin="round" d="M 20435,13283 L 20314,13353 20678,13353 20678,13143 20557,13213 19951,12863 19830,12933 20435,13283 Z"/>
        </g>
       </g>
      </g>
     </g>
    </g>
   </g>
  </g>
 </g>
</svg>