<?xml version="1.0" encoding="UTF-8"?>
<!DOCTYPE svg PUBLIC "-//W3C//DTD SVG 1.1//EN" "http://www.w3.org/Graphics/SVG/1.1/DTD/svg11.dtd">
<svg version="1.2" width="36.78mm" height="28.4mm" viewBox="18340 7900 3678 2840" preserveAspectRatio="xMidYMid" fill-rule="evenodd" stroke-width="28.222" stroke-linejoin="round" xmlns="http://www.w3.org/2000/svg" xmlns:ooo="http://xml.openoffice.org/svg/export" xmlns:xlink="http://www.w3.org/1999/xlink" xmlns:presentation="http://sun.com/xmlns/staroffice/presentation" xmlns:smil="http://www.w3.org/2001/SMIL20/" xmlns:anim="urn:oasis:names:tc:opendocument:xmlns:animation:1.0" xml:space="preserve">
 <defs class="ClipPathGroup">
  <clipPath id="presentation_clip_path" clipPathUnits="userSpaceOnUse">
   <rect x="18340" y="7900" width="3678" height="2840"/>
  </clipPath>
 </defs>
 <defs class="TextShapeIndex">
  <g ooo:slide="id1" ooo:id-list="id3 id4 id5 id6 id7 id8 id9 id10 id11"/>
 </defs>
 <defs class="EmbeddedBulletChars">
  <g id="bullet-char-template(57356)" transform="scale(0.00048828125,-0.00048828125)">
   <path d="M 580,1141 L 1163,571 580,0 -4,571 580,1141 Z"/>
  </g>
  <g id="bullet-char-template(57354)" transform="scale(0.00048828125,-0.00048828125)">
   <path d="M 8,1128 L 1137,1128 1137,0 8,0 8,1128 Z"/>
  </g>
  <g id="bullet-char-template(10146)" transform="scale(0.00048828125,-0.00048828125)">
   <path d="M 174,0 L 602,739 174,1481 1456,739 174,0 Z M 1358,739 L 309,1346 659,739 1358,739 Z"/>
  </g>
  <g id="bullet-char-template(10132)" transform="scale(0.00048828125,-0.00048828125)">
   <path d="M 2015,739 L 1276,0 717,0 1260,543 174,543 174,936 1260,936 717,1481 1274,1481 2015,739 Z"/>
  </g>
  <g id="bullet-char-template(10007)" transform="scale(0.00048828125,-0.00048828125)">
   <path d="M 0,-2 C -7,14 -16,27 -25,37 L 356,567 C 262,823 215,952 215,954 215,979 228,992 255,992 264,992 276,990 289,987 310,991 331,999 354,1012 L 381,999 492,748 772,1049 836,1024 860,1049 C 881,1039 901,1025 922,1006 886,937 835,863 770,784 769,783 710,716 594,584 L 774,223 C 774,196 753,168 711,139 L 727,119 C 717,90 699,76 672,76 641,76 570,178 457,381 L 164,-76 C 142,-110 111,-127 72,-127 30,-127 9,-110 8,-76 1,-67 -2,-52 -2,-32 -2,-23 -1,-13 0,-2 Z"/>
  </g>
  <g id="bullet-char-template(10004)" transform="scale(0.00048828125,-0.00048828125)">
   <path d="M 285,-33 C 182,-33 111,30 74,156 52,228 41,333 41,471 41,549 55,616 82,672 116,743 169,778 240,778 293,778 328,747 346,684 L 369,508 C 377,444 397,411 428,410 L 1163,1116 C 1174,1127 1196,1133 1229,1133 1271,1133 1292,1118 1292,1087 L 1292,965 C 1292,929 1282,901 1262,881 L 442,47 C 390,-6 338,-33 285,-33 Z"/>
  </g>
  <g id="bullet-char-template(9679)" transform="scale(0.00048828125,-0.00048828125)">
   <path d="M 813,0 C 632,0 489,54 383,161 276,268 223,411 223,592 223,773 276,916 383,1023 489,1130 632,1184 813,1184 992,1184 1136,1130 1245,1023 1353,916 1407,772 1407,592 1407,412 1353,268 1245,161 1136,54 992,0 813,0 Z"/>
  </g>
  <g id="bullet-char-template(8226)" transform="scale(0.00048828125,-0.00048828125)">
   <path d="M 346,457 C 273,457 209,483 155,535 101,586 74,649 74,723 74,796 101,859 155,911 209,963 273,989 346,989 419,989 480,963 531,910 582,859 608,796 608,723 608,648 583,586 532,535 482,483 420,457 346,457 Z"/>
  </g>
  <g id="bullet-char-template(8211)" transform="scale(0.00048828125,-0.00048828125)">
   <path d="M -4,459 L 1135,459 1135,606 -4,606 -4,459 Z"/>
  </g>
 </defs>
 <defs class="TextEmbeddedBitmaps"/>
 <g class="SlideGroup">
  <g>
   <g id="id1" class="Slide" clip-path="url(#presentation_clip_path)">
    <g class="Page">
     <g class="Group">
      <g class="com.sun.star.drawing.ClosedBezierShape">
       <g id="id3">
        <rect class="BoundingBox" stroke="none" fill="none" x="20126" y="9440" width="1893" height="1231"/>
        <path fill="rgb(221,221,221)" stroke="none" d="M 20146,10650 C 20621,10650 21844,10090 21965,9880 22086,9670 21844,9460 21723,9460 21723,9760 20146,10150 20146,10650 Z"/>
        <path fill="none" stroke="rgb(221,221,221)" stroke-width="40" stroke-linejoin="round" d="M 20146,10650 C 20621,10650 21844,10090 21965,9880 22086,9670 21844,9460 21723,9460 21723,9760 20146,10150 20146,10650 Z"/>
       </g>
      </g>
      <g class="Group">
       <g class="com.sun.star.drawing.PolyPolygonShape">
        <g id="id4">
         <rect class="BoundingBox" stroke="none" fill="none" x="18339" y="8880" width="1740" height="1861"/>
         <g>
          <defs>
           <linearGradient id="gradient1" x1="18359" y1="9810" x2="20059" y2="9810" gradientUnits="userSpaceOnUse">
            <stop offset="0.1" style="stop-color:rgb(0,115,188)"/>
            <stop offset="1" style="stop-color:rgb(127,185,221)"/>
           </linearGradient>
          </defs>
          <path style="fill:url(#gradient1)" d="M 18360,9740 L 18360,8900 20058,9880 20058,10720 18360,9740 Z"/>
         </g>
         <path fill="none" stroke="rgb(255,255,255)" stroke-width="40" stroke-linejoin="round" d="M 18360,9740 L 18360,8900 20058,9880 20058,10720 18360,9740 Z"/>
        </g>
       </g>
       <g class="com.sun.star.drawing.PolyPolygonShape">
        <g id="id5">
         <rect class="BoundingBox" stroke="none" fill="none" x="20037" y="8880" width="1739" height="1861"/>
         <g>
          <defs>
           <pattern id="pattern1" x="20058" y="8900" width="1698" height="1821" patternUnits="userSpaceOnUse">
            <g transform="translate(-20058,-8900)">
             <path fill="rgb(0,115,188)" stroke="none" d="M 20057,8899 L 21756,8899 21756,10721 20057,10721 20057,8899 Z M 19724,8542 L 21409,8542 21409,10348 19724,10348 19724,8542 Z"/>
             <path fill="rgb(1,115,188)" stroke="none" d="M 19724,8542 L 21409,8542 21409,10348 19724,10348 19724,8542 Z M 19731,8549 L 21402,8549 21402,10341 19731,10341 19731,8549 Z"/>
             <path fill="rgb(2,116,188)" stroke="none" d="M 19731,8549 L 21402,8549 21402,10341 19731,10341 19731,8549 Z M 19738,8556 L 21395,8556 21395,10334 19738,10334 19738,8556 Z"/>
             <path fill="rgb(3,116,188)" stroke="none" d="M 19738,8556 L 21395,8556 21395,10334 19738,10334 19738,8556 Z M 19744,8563 L 21389,8563 21389,10327 19744,10327 19744,8563 Z"/>
             <path fill="rgb(4,117,189)" stroke="none" d="M 19744,8563 L 21389,8563 21389,10327 19744,10327 19744,8563 Z M 19751,8570 L 21382,8570 21382,10320 19751,10320 19751,8570 Z"/>
             <path fill="rgb(5,117,189)" stroke="none" d="M 19751,8570 L 21382,8570 21382,10320 19751,10320 19751,8570 Z M 19758,8578 L 21375,8578 21375,10312 19758,10312 19758,8578 Z"/>
             <path fill="rgb(6,118,189)" stroke="none" d="M 19758,8578 L 21375,8578 21375,10312 19758,10312 19758,8578 Z M 19764,8585 L 21369,8585 21369,10305 19764,10305 19764,8585 Z"/>
             <path fill="rgb(7,118,189)" stroke="none" d="M 19764,8585 L 21369,8585 21369,10305 19764,10305 19764,8585 Z M 19771,8592 L 21362,8592 21362,10298 19771,10298 19771,8592 Z"/>
             <path fill="rgb(8,119,190)" stroke="none" d="M 19771,8592 L 21362,8592 21362,10298 19771,10298 19771,8592 Z M 19778,8599 L 21355,8599 21355,10291 19778,10291 19778,8599 Z"/>
             <path fill="rgb(9,119,190)" stroke="none" d="M 19778,8599 L 21355,8599 21355,10291 19778,10291 19778,8599 Z M 19784,8606 L 21349,8606 21349,10284 19784,10284 19784,8606 Z"/>
             <path fill="rgb(10,120,190)" stroke="none" d="M 19784,8606 L 21349,8606 21349,10284 19784,10284 19784,8606 Z M 19791,8613 L 21342,8613 21342,10277 19791,10277 19791,8613 Z"/>
             <path fill="rgb(11,121,190)" stroke="none" d="M 19791,8613 L 21342,8613 21342,10277 19791,10277 19791,8613 Z M 19798,8621 L 21335,8621 21335,10269 19798,10269 19798,8621 Z"/>
             <path fill="rgb(12,121,191)" stroke="none" d="M 19798,8621 L 21335,8621 21335,10269 19798,10269 19798,8621 Z M 19805,8628 L 21328,8628 21328,10262 19805,10262 19805,8628 Z"/>
             <path fill="rgb(13,122,191)" stroke="none" d="M 19805,8628 L 21328,8628 21328,10262 19805,10262 19805,8628 Z M 19811,8635 L 21322,8635 21322,10255 19811,10255 19811,8635 Z"/>
             <path fill="rgb(14,122,191)" stroke="none" d="M 19811,8635 L 21322,8635 21322,10255 19811,10255 19811,8635 Z M 19818,8642 L 21315,8642 21315,10248 19818,10248 19818,8642 Z"/>
             <path fill="rgb(15,123,191)" stroke="none" d="M 19818,8642 L 21315,8642 21315,10248 19818,10248 19818,8642 Z M 19825,8649 L 21308,8649 21308,10241 19825,10241 19825,8649 Z"/>
             <path fill="rgb(16,123,192)" stroke="none" d="M 19825,8649 L 21308,8649 21308,10241 19825,10241 19825,8649 Z M 19831,8657 L 21302,8657 21302,10233 19831,10233 19831,8657 Z"/>
             <path fill="rgb(17,124,192)" stroke="none" d="M 19831,8657 L 21302,8657 21302,10233 19831,10233 19831,8657 Z M 19838,8664 L 21295,8664 21295,10226 19838,10226 19838,8664 Z"/>
             <path fill="rgb(18,124,192)" stroke="none" d="M 19838,8664 L 21295,8664 21295,10226 19838,10226 19838,8664 Z M 19845,8671 L 21288,8671 21288,10219 19845,10219 19845,8671 Z"/>
             <path fill="rgb(19,125,192)" stroke="none" d="M 19845,8671 L 21288,8671 21288,10219 19845,10219 19845,8671 Z M 19851,8678 L 21282,8678 21282,10212 19851,10212 19851,8678 Z"/>
             <path fill="rgb(20,126,193)" stroke="none" d="M 19851,8678 L 21282,8678 21282,10212 19851,10212 19851,8678 Z M 19858,8685 L 21275,8685 21275,10205 19858,10205 19858,8685 Z"/>
             <path fill="rgb(21,126,193)" stroke="none" d="M 19858,8685 L 21275,8685 21275,10205 19858,10205 19858,8685 Z M 19865,8692 L 21268,8692 21268,10198 19865,10198 19865,8692 Z"/>
             <path fill="rgb(22,127,193)" stroke="none" d="M 19865,8692 L 21268,8692 21268,10198 19865,10198 19865,8692 Z M 19871,8700 L 21262,8700 21262,10190 19871,10190 19871,8700 Z"/>
             <path fill="rgb(23,127,193)" stroke="none" d="M 19871,8700 L 21262,8700 21262,10190 19871,10190 19871,8700 Z M 19878,8707 L 21255,8707 21255,10183 19878,10183 19878,8707 Z"/>
             <path fill="rgb(24,128,194)" stroke="none" d="M 19878,8707 L 21255,8707 21255,10183 19878,10183 19878,8707 Z M 19885,8714 L 21248,8714 21248,10176 19885,10176 19885,8714 Z"/>
             <path fill="rgb(25,128,194)" stroke="none" d="M 19885,8714 L 21248,8714 21248,10176 19885,10176 19885,8714 Z M 19892,8721 L 21241,8721 21241,10169 19892,10169 19892,8721 Z"/>
             <path fill="rgb(26,129,194)" stroke="none" d="M 19892,8721 L 21241,8721 21241,10169 19892,10169 19892,8721 Z M 19898,8728 L 21235,8728 21235,10162 19898,10162 19898,8728 Z"/>
             <path fill="rgb(27,129,195)" stroke="none" d="M 19898,8728 L 21235,8728 21235,10162 19898,10162 19898,8728 Z M 19905,8735 L 21228,8735 21228,10155 19905,10155 19905,8735 Z"/>
             <path fill="rgb(28,130,195)" stroke="none" d="M 19905,8735 L 21228,8735 21228,10155 19905,10155 19905,8735 Z M 19912,8743 L 21221,8743 21221,10147 19912,10147 19912,8743 Z"/>
             <path fill="rgb(29,130,195)" stroke="none" d="M 19912,8743 L 21221,8743 21221,10147 19912,10147 19912,8743 Z M 19918,8750 L 21215,8750 21215,10140 19918,10140 19918,8750 Z"/>
             <path fill="rgb(30,131,195)" stroke="none" d="M 19918,8750 L 21215,8750 21215,10140 19918,10140 19918,8750 Z M 19925,8757 L 21208,8757 21208,10133 19925,10133 19925,8757 Z"/>
             <path fill="rgb(31,132,196)" stroke="none" d="M 19925,8757 L 21208,8757 21208,10133 19925,10133 19925,8757 Z M 19932,8764 L 21201,8764 21201,10126 19932,10126 19932,8764 Z"/>
             <path fill="rgb(32,132,196)" stroke="none" d="M 19932,8764 L 21201,8764 21201,10126 19932,10126 19932,8764 Z M 19938,8771 L 21195,8771 21195,10119 19938,10119 19938,8771 Z"/>
             <path fill="rgb(33,133,196)" stroke="none" d="M 19938,8771 L 21195,8771 21195,10119 19938,10119 19938,8771 Z M 19945,8779 L 21188,8779 21188,10111 19945,10111 19945,8779 Z"/>
             <path fill="rgb(34,133,196)" stroke="none" d="M 19945,8779 L 21188,8779 21188,10111 19945,10111 19945,8779 Z M 19952,8786 L 21181,8786 21181,10104 19952,10104 19952,8786 Z"/>
             <path fill="rgb(35,134,197)" stroke="none" d="M 19952,8786 L 21181,8786 21181,10104 19952,10104 19952,8786 Z M 19958,8793 L 21175,8793 21175,10097 19958,10097 19958,8793 Z"/>
             <path fill="rgb(36,134,197)" stroke="none" d="M 19958,8793 L 21175,8793 21175,10097 19958,10097 19958,8793 Z M 19965,8800 L 21168,8800 21168,10090 19965,10090 19965,8800 Z"/>
             <path fill="rgb(37,135,197)" stroke="none" d="M 19965,8800 L 21168,8800 21168,10090 19965,10090 19965,8800 Z M 19972,8807 L 21161,8807 21161,10083 19972,10083 19972,8807 Z"/>
             <path fill="rgb(38,135,197)" stroke="none" d="M 19972,8807 L 21161,8807 21161,10083 19972,10083 19972,8807 Z M 19979,8814 L 21154,8814 21154,10076 19979,10076 19979,8814 Z"/>
             <path fill="rgb(39,136,198)" stroke="none" d="M 19979,8814 L 21154,8814 21154,10076 19979,10076 19979,8814 Z M 19985,8822 L 21148,8822 21148,10068 19985,10068 19985,8822 Z"/>
             <path fill="rgb(40,137,198)" stroke="none" d="M 19985,8822 L 21148,8822 21148,10068 19985,10068 19985,8822 Z M 19992,8829 L 21141,8829 21141,10061 19992,10061 19992,8829 Z"/>
             <path fill="rgb(41,137,198)" stroke="none" d="M 19992,8829 L 21141,8829 21141,10061 19992,10061 19992,8829 Z M 19999,8836 L 21134,8836 21134,10054 19999,10054 19999,8836 Z"/>
             <path fill="rgb(42,138,198)" stroke="none" d="M 19999,8836 L 21134,8836 21134,10054 19999,10054 19999,8836 Z M 20005,8843 L 21128,8843 21128,10047 20005,10047 20005,8843 Z"/>
             <path fill="rgb(43,138,199)" stroke="none" d="M 20005,8843 L 21128,8843 21128,10047 20005,10047 20005,8843 Z M 20012,8850 L 21121,8850 21121,10040 20012,10040 20012,8850 Z"/>
             <path fill="rgb(44,139,199)" stroke="none" d="M 20012,8850 L 21121,8850 21121,10040 20012,10040 20012,8850 Z M 20019,8857 L 21114,8857 21114,10033 20019,10033 20019,8857 Z"/>
             <path fill="rgb(45,139,199)" stroke="none" d="M 20019,8857 L 21114,8857 21114,10033 20019,10033 20019,8857 Z M 20025,8865 L 21108,8865 21108,10025 20025,10025 20025,8865 Z"/>
             <path fill="rgb(46,140,199)" stroke="none" d="M 20025,8865 L 21108,8865 21108,10025 20025,10025 20025,8865 Z M 20032,8872 L 21101,8872 21101,10018 20032,10018 20032,8872 Z"/>
             <path fill="rgb(47,140,200)" stroke="none" d="M 20032,8872 L 21101,8872 21101,10018 20032,10018 20032,8872 Z M 20038,8879 L 21094,8879 21094,10011 20038,10011 20038,8879 Z"/>
             <path fill="rgb(48,141,200)" stroke="none" d="M 20038,8879 L 21094,8879 21094,10011 20038,10011 20038,8879 Z M 20044,8885 L 21088,8885 21088,10004 20044,10004 20044,8885 Z"/>
             <path fill="rgb(49,142,200)" stroke="none" d="M 20044,8885 L 21088,8885 21088,10004 20044,10004 20044,8885 Z M 20051,8892 L 21081,8892 21081,9997 20051,9997 20051,8892 Z"/>
             <path fill="rgb(50,142,200)" stroke="none" d="M 20051,8892 L 21081,8892 21081,9997 20051,9997 20051,8892 Z M 20058,8900 L 21074,8900 21074,9989 20058,9989 20058,8900 Z"/>
             <path fill="rgb(51,143,201)" stroke="none" d="M 20058,8900 L 21074,8900 21074,9989 20058,9989 20058,8900 Z M 20065,8907 L 21067,8907 21067,9982 20065,9982 20065,8907 Z"/>
             <path fill="rgb(52,143,201)" stroke="none" d="M 20065,8907 L 21067,8907 21067,9982 20065,9982 20065,8907 Z M 20071,8914 L 21061,8914 21061,9975 20071,9975 20071,8914 Z"/>
             <path fill="rgb(53,144,201)" stroke="none" d="M 20071,8914 L 21061,8914 21061,9975 20071,9975 20071,8914 Z M 20078,8921 L 21054,8921 21054,9968 20078,9968 20078,8921 Z"/>
             <path fill="rgb(54,144,202)" stroke="none" d="M 20078,8921 L 21054,8921 21054,9968 20078,9968 20078,8921 Z M 20085,8928 L 21047,8928 21047,9961 20085,9961 20085,8928 Z"/>
             <path fill="rgb(55,145,202)" stroke="none" d="M 20085,8928 L 21047,8928 21047,9961 20085,9961 20085,8928 Z M 20091,8935 L 21041,8935 21041,9954 20091,9954 20091,8935 Z"/>
             <path fill="rgb(56,145,202)" stroke="none" d="M 20091,8935 L 21041,8935 21041,9954 20091,9954 20091,8935 Z M 20098,8943 L 21034,8943 21034,9946 20098,9946 20098,8943 Z"/>
             <path fill="rgb(57,146,202)" stroke="none" d="M 20098,8943 L 21034,8943 21034,9946 20098,9946 20098,8943 Z M 20105,8950 L 21027,8950 21027,9939 20105,9939 20105,8950 Z"/>
             <path fill="rgb(58,146,203)" stroke="none" d="M 20105,8950 L 21027,8950 21027,9939 20105,9939 20105,8950 Z M 20111,8957 L 21021,8957 21021,9932 20111,9932 20111,8957 Z"/>
             <path fill="rgb(59,147,203)" stroke="none" d="M 20111,8957 L 21021,8957 21021,9932 20111,9932 20111,8957 Z M 20118,8964 L 21014,8964 21014,9925 20118,9925 20118,8964 Z"/>
             <path fill="rgb(60,148,203)" stroke="none" d="M 20118,8964 L 21014,8964 21014,9925 20118,9925 20118,8964 Z M 20125,8971 L 21007,8971 21007,9918 20125,9918 20125,8971 Z"/>
             <path fill="rgb(61,148,203)" stroke="none" d="M 20125,8971 L 21007,8971 21007,9918 20125,9918 20125,8971 Z M 20131,8978 L 21001,8978 21001,9911 20131,9911 20131,8978 Z"/>
             <path fill="rgb(62,149,204)" stroke="none" d="M 20131,8978 L 21001,8978 21001,9911 20131,9911 20131,8978 Z M 20138,8986 L 20994,8986 20994,9903 20138,9903 20138,8986 Z"/>
             <path fill="rgb(63,149,204)" stroke="none" d="M 20138,8986 L 20994,8986 20994,9903 20138,9903 20138,8986 Z M 20145,8993 L 20987,8993 20987,9896 20145,9896 20145,8993 Z"/>
             <path fill="rgb(64,150,204)" stroke="none" d="M 20145,8993 L 20987,8993 20987,9896 20145,9896 20145,8993 Z M 20152,9000 L 20980,9000 20980,9889 20152,9889 20152,9000 Z"/>
             <path fill="rgb(65,150,204)" stroke="none" d="M 20152,9000 L 20980,9000 20980,9889 20152,9889 20152,9000 Z M 20158,9007 L 20974,9007 20974,9882 20158,9882 20158,9007 Z"/>
             <path fill="rgb(66,151,205)" stroke="none" d="M 20158,9007 L 20974,9007 20974,9882 20158,9882 20158,9007 Z M 20165,9014 L 20967,9014 20967,9875 20165,9875 20165,9014 Z"/>
             <path fill="rgb(67,151,205)" stroke="none" d="M 20165,9014 L 20967,9014 20967,9875 20165,9875 20165,9014 Z M 20172,9022 L 20960,9022 20960,9867 20172,9867 20172,9022 Z"/>
             <path fill="rgb(68,152,205)" stroke="none" d="M 20172,9022 L 20960,9022 20960,9867 20172,9867 20172,9022 Z M 20178,9029 L 20954,9029 20954,9860 20178,9860 20178,9029 Z"/>
             <path fill="rgb(69,153,205)" stroke="none" d="M 20178,9029 L 20954,9029 20954,9860 20178,9860 20178,9029 Z M 20185,9036 L 20947,9036 20947,9853 20185,9853 20185,9036 Z"/>
             <path fill="rgb(70,153,206)" stroke="none" d="M 20185,9036 L 20947,9036 20947,9853 20185,9853 20185,9036 Z M 20192,9043 L 20940,9043 20940,9846 20192,9846 20192,9043 Z"/>
             <path fill="rgb(71,154,206)" stroke="none" d="M 20192,9043 L 20940,9043 20940,9846 20192,9846 20192,9043 Z M 20198,9050 L 20934,9050 20934,9839 20198,9839 20198,9050 Z"/>
             <path fill="rgb(72,154,206)" stroke="none" d="M 20198,9050 L 20934,9050 20934,9839 20198,9839 20198,9050 Z M 20205,9057 L 20927,9057 20927,9832 20205,9832 20205,9057 Z"/>
             <path fill="rgb(73,155,206)" stroke="none" d="M 20205,9057 L 20927,9057 20927,9832 20205,9832 20205,9057 Z M 20212,9065 L 20920,9065 20920,9824 20212,9824 20212,9065 Z"/>
             <path fill="rgb(74,155,207)" stroke="none" d="M 20212,9065 L 20920,9065 20920,9824 20212,9824 20212,9065 Z M 20218,9072 L 20914,9072 20914,9817 20218,9817 20218,9072 Z"/>
             <path fill="rgb(75,156,207)" stroke="none" d="M 20218,9072 L 20914,9072 20914,9817 20218,9817 20218,9072 Z M 20225,9079 L 20907,9079 20907,9810 20225,9810 20225,9079 Z"/>
             <path fill="rgb(76,156,207)" stroke="none" d="M 20225,9079 L 20907,9079 20907,9810 20225,9810 20225,9079 Z M 20232,9086 L 20900,9086 20900,9803 20232,9803 20232,9086 Z"/>
             <path fill="rgb(77,157,208)" stroke="none" d="M 20232,9086 L 20900,9086 20900,9803 20232,9803 20232,9086 Z M 20239,9093 L 20893,9093 20893,9796 20239,9796 20239,9093 Z"/>
             <path fill="rgb(78,157,208)" stroke="none" d="M 20239,9093 L 20893,9093 20893,9796 20239,9796 20239,9093 Z M 20245,9100 L 20887,9100 20887,9789 20245,9789 20245,9100 Z"/>
             <path fill="rgb(79,158,208)" stroke="none" d="M 20245,9100 L 20887,9100 20887,9789 20245,9789 20245,9100 Z M 20252,9108 L 20880,9108 20880,9781 20252,9781 20252,9108 Z"/>
             <path fill="rgb(80,159,208)" stroke="none" d="M 20252,9108 L 20880,9108 20880,9781 20252,9781 20252,9108 Z M 20259,9115 L 20873,9115 20873,9774 20259,9774 20259,9115 Z"/>
             <path fill="rgb(81,159,209)" stroke="none" d="M 20259,9115 L 20873,9115 20873,9774 20259,9774 20259,9115 Z M 20265,9122 L 20867,9122 20867,9767 20265,9767 20265,9122 Z"/>
             <path fill="rgb(82,160,209)" stroke="none" d="M 20265,9122 L 20867,9122 20867,9767 20265,9767 20265,9122 Z M 20272,9129 L 20860,9129 20860,9760 20272,9760 20272,9129 Z"/>
             <path fill="rgb(83,160,209)" stroke="none" d="M 20272,9129 L 20860,9129 20860,9760 20272,9760 20272,9129 Z M 20279,9136 L 20853,9136 20853,9753 20279,9753 20279,9136 Z"/>
             <path fill="rgb(84,161,209)" stroke="none" d="M 20279,9136 L 20853,9136 20853,9753 20279,9753 20279,9136 Z M 20285,9144 L 20847,9144 20847,9745 20285,9745 20285,9144 Z"/>
             <path fill="rgb(85,161,210)" stroke="none" d="M 20285,9144 L 20847,9144 20847,9745 20285,9745 20285,9144 Z M 20292,9151 L 20840,9151 20840,9738 20292,9738 20292,9151 Z"/>
             <path fill="rgb(86,162,210)" stroke="none" d="M 20292,9151 L 20840,9151 20840,9738 20292,9738 20292,9151 Z M 20299,9158 L 20833,9158 20833,9731 20299,9731 20299,9158 Z"/>
             <path fill="rgb(87,162,210)" stroke="none" d="M 20299,9158 L 20833,9158 20833,9731 20299,9731 20299,9158 Z M 20305,9165 L 20827,9165 20827,9724 20305,9724 20305,9165 Z"/>
             <path fill="rgb(88,163,210)" stroke="none" d="M 20305,9165 L 20827,9165 20827,9724 20305,9724 20305,9165 Z M 20312,9172 L 20820,9172 20820,9717 20312,9717 20312,9172 Z"/>
             <path fill="rgb(89,164,211)" stroke="none" d="M 20312,9172 L 20820,9172 20820,9717 20312,9717 20312,9172 Z M 20319,9179 L 20813,9179 20813,9710 20319,9710 20319,9179 Z"/>
             <path fill="rgb(90,164,211)" stroke="none" d="M 20319,9179 L 20813,9179 20813,9710 20319,9710 20319,9179 Z M 20326,9187 L 20806,9187 20806,9702 20326,9702 20326,9187 Z"/>
             <path fill="rgb(91,165,211)" stroke="none" d="M 20326,9187 L 20806,9187 20806,9702 20326,9702 20326,9187 Z M 20332,9194 L 20800,9194 20800,9695 20332,9695 20332,9194 Z"/>
             <path fill="rgb(92,165,211)" stroke="none" d="M 20332,9194 L 20800,9194 20800,9695 20332,9695 20332,9194 Z M 20339,9201 L 20793,9201 20793,9688 20339,9688 20339,9201 Z"/>
             <path fill="rgb(93,166,212)" stroke="none" d="M 20339,9201 L 20793,9201 20793,9688 20339,9688 20339,9201 Z M 20346,9208 L 20786,9208 20786,9681 20346,9681 20346,9208 Z"/>
             <path fill="rgb(94,166,212)" stroke="none" d="M 20346,9208 L 20786,9208 20786,9681 20346,9681 20346,9208 Z M 20352,9215 L 20780,9215 20780,9674 20352,9674 20352,9215 Z"/>
             <path fill="rgb(95,167,212)" stroke="none" d="M 20352,9215 L 20780,9215 20780,9674 20352,9674 20352,9215 Z M 20359,9223 L 20773,9223 20773,9666 20359,9666 20359,9223 Z"/>
             <path fill="rgb(96,167,212)" stroke="none" d="M 20359,9223 L 20773,9223 20773,9666 20359,9666 20359,9223 Z M 20366,9230 L 20766,9230 20766,9659 20366,9659 20366,9230 Z"/>
             <path fill="rgb(97,168,213)" stroke="none" d="M 20366,9230 L 20766,9230 20766,9659 20366,9659 20366,9230 Z M 20372,9237 L 20760,9237 20760,9652 20372,9652 20372,9237 Z"/>
             <path fill="rgb(98,169,213)" stroke="none" d="M 20372,9237 L 20760,9237 20760,9652 20372,9652 20372,9237 Z M 20379,9244 L 20753,9244 20753,9645 20379,9645 20379,9244 Z"/>
             <path fill="rgb(99,169,213)" stroke="none" d="M 20379,9244 L 20753,9244 20753,9645 20379,9645 20379,9244 Z M 20386,9251 L 20746,9251 20746,9638 20386,9638 20386,9251 Z"/>
             <path fill="rgb(100,170,213)" stroke="none" d="M 20386,9251 L 20746,9251 20746,9638 20386,9638 20386,9251 Z M 20392,9258 L 20740,9258 20740,9631 20392,9631 20392,9258 Z"/>
             <path fill="rgb(101,170,214)" stroke="none" d="M 20392,9258 L 20740,9258 20740,9631 20392,9631 20392,9258 Z M 20399,9266 L 20733,9266 20733,9623 20399,9623 20399,9266 Z"/>
             <path fill="rgb(102,171,214)" stroke="none" d="M 20399,9266 L 20733,9266 20733,9623 20399,9623 20399,9266 Z M 20406,9273 L 20726,9273 20726,9616 20406,9616 20406,9273 Z"/>
             <path fill="rgb(103,171,214)" stroke="none" d="M 20406,9273 L 20726,9273 20726,9616 20406,9616 20406,9273 Z M 20413,9280 L 20719,9280 20719,9609 20413,9609 20413,9280 Z"/>
             <path fill="rgb(104,172,215)" stroke="none" d="M 20413,9280 L 20719,9280 20719,9609 20413,9609 20413,9280 Z M 20419,9287 L 20713,9287 20713,9602 20419,9602 20419,9287 Z"/>
             <path fill="rgb(105,172,215)" stroke="none" d="M 20419,9287 L 20713,9287 20713,9602 20419,9602 20419,9287 Z M 20426,9294 L 20706,9294 20706,9595 20426,9595 20426,9294 Z"/>
             <path fill="rgb(106,173,215)" stroke="none" d="M 20426,9294 L 20706,9294 20706,9595 20426,9595 20426,9294 Z M 20433,9301 L 20699,9301 20699,9588 20433,9588 20433,9301 Z"/>
             <path fill="rgb(107,173,215)" stroke="none" d="M 20433,9301 L 20699,9301 20699,9588 20433,9588 20433,9301 Z M 20439,9309 L 20693,9309 20693,9580 20439,9580 20439,9309 Z"/>
             <path fill="rgb(108,174,216)" stroke="none" d="M 20439,9309 L 20693,9309 20693,9580 20439,9580 20439,9309 Z M 20446,9316 L 20686,9316 20686,9573 20446,9573 20446,9316 Z"/>
             <path fill="rgb(109,175,216)" stroke="none" d="M 20446,9316 L 20686,9316 20686,9573 20446,9573 20446,9316 Z M 20453,9323 L 20679,9323 20679,9566 20453,9566 20453,9323 Z"/>
             <path fill="rgb(110,175,216)" stroke="none" d="M 20453,9323 L 20679,9323 20679,9566 20453,9566 20453,9323 Z M 20459,9330 L 20673,9330 20673,9559 20459,9559 20459,9330 Z"/>
             <path fill="rgb(111,176,216)" stroke="none" d="M 20459,9330 L 20673,9330 20673,9559 20459,9559 20459,9330 Z M 20466,9337 L 20666,9337 20666,9552 20466,9552 20466,9337 Z"/>
             <path fill="rgb(112,176,217)" stroke="none" d="M 20466,9337 L 20666,9337 20666,9552 20466,9552 20466,9337 Z M 20473,9345 L 20659,9345 20659,9544 20473,9544 20473,9345 Z"/>
             <path fill="rgb(113,177,217)" stroke="none" d="M 20473,9345 L 20659,9345 20659,9544 20473,9544 20473,9345 Z M 20479,9352 L 20653,9352 20653,9537 20479,9537 20479,9352 Z"/>
             <path fill="rgb(114,177,217)" stroke="none" d="M 20479,9352 L 20653,9352 20653,9537 20479,9537 20479,9352 Z M 20486,9359 L 20646,9359 20646,9530 20486,9530 20486,9359 Z"/>
             <path fill="rgb(115,178,217)" stroke="none" d="M 20486,9359 L 20646,9359 20646,9530 20486,9530 20486,9359 Z M 20493,9366 L 20639,9366 20639,9523 20493,9523 20493,9366 Z"/>
             <path fill="rgb(116,178,218)" stroke="none" d="M 20493,9366 L 20639,9366 20639,9523 20493,9523 20493,9366 Z M 20500,9373 L 20632,9373 20632,9516 20500,9516 20500,9373 Z"/>
             <path fill="rgb(117,179,218)" stroke="none" d="M 20500,9373 L 20632,9373 20632,9516 20500,9516 20500,9373 Z M 20506,9380 L 20626,9380 20626,9509 20506,9509 20506,9380 Z"/>
             <path fill="rgb(118,180,218)" stroke="none" d="M 20506,9380 L 20626,9380 20626,9509 20506,9509 20506,9380 Z M 20513,9388 L 20619,9388 20619,9501 20513,9501 20513,9388 Z"/>
             <path fill="rgb(119,180,218)" stroke="none" d="M 20513,9388 L 20619,9388 20619,9501 20513,9501 20513,9388 Z M 20520,9395 L 20612,9395 20612,9494 20520,9494 20520,9395 Z"/>
             <path fill="rgb(120,181,219)" stroke="none" d="M 20520,9395 L 20612,9395 20612,9494 20520,9494 20520,9395 Z M 20526,9402 L 20606,9402 20606,9487 20526,9487 20526,9402 Z"/>
             <path fill="rgb(121,181,219)" stroke="none" d="M 20526,9402 L 20606,9402 20606,9487 20526,9487 20526,9402 Z M 20533,9409 L 20599,9409 20599,9480 20533,9480 20533,9409 Z"/>
             <path fill="rgb(122,182,219)" stroke="none" d="M 20533,9409 L 20599,9409 20599,9480 20533,9480 20533,9409 Z M 20540,9416 L 20592,9416 20592,9473 20540,9473 20540,9416 Z"/>
             <path fill="rgb(123,182,219)" stroke="none" d="M 20540,9416 L 20592,9416 20592,9473 20540,9473 20540,9416 Z M 20546,9423 L 20586,9423 20586,9466 20546,9466 20546,9423 Z"/>
             <path fill="rgb(124,183,220)" stroke="none" d="M 20546,9423 L 20586,9423 20586,9466 20546,9466 20546,9423 Z M 20553,9431 L 20579,9431 20579,9458 20553,9458 20553,9431 Z"/>
             <path fill="rgb(125,183,220)" stroke="none" d="M 20553,9431 L 20579,9431 20579,9458 20553,9458 20553,9431 Z M 20560,9438 L 20572,9438 20572,9451 20560,9451 20560,9438 Z"/>
             <path fill="rgb(127,185,221)" stroke="none" d="M 20560,9438 L 20572,9438 20572,9451 20560,9451 20560,9438 Z"/>
            </g>
           </pattern>
          </defs>
          <path style="fill:url(#pattern1)" d="M 20058,10720 L 20058,9880 21755,8900 21755,9740 20058,10720 Z"/>
         </g>
         <path fill="none" stroke="rgb(255,255,255)" stroke-width="40" stroke-linejoin="round" d="M 20058,10720 L 20058,9880 21755,8900 21755,9740 20058,10720 Z"/>
        </g>
       </g>
       <g class="com.sun.star.drawing.PolyPolygonShape">
        <g id="id6">
         <rect class="BoundingBox" stroke="none" fill="none" x="18339" y="7900" width="3437" height="2002"/>
         <g>
          <defs>
           <linearGradient id="gradient2" x1="20057" y1="7920" x2="20057" y2="9880" gradientUnits="userSpaceOnUse">
            <stop offset="0.1" style="stop-color:rgb(0,115,188)"/>
            <stop offset="1" style="stop-color:rgb(127,185,221)"/>
           </linearGradient>
          </defs>
          <path style="fill:url(#gradient2)" d="M 20058,9880 L 18360,8900 20058,7920 21755,8900 20058,9880 Z"/>
         </g>
         <path fill="none" stroke="rgb(255,255,255)" stroke-width="40" stroke-linejoin="round" d="M 20058,9880 L 18360,8900 20058,7920 21755,8900 20058,9880 Z"/>
        </g>
       </g>
       <g class="com.sun.star.drawing.PolyPolygonShape">
        <g id="id7">
         <rect class="BoundingBox" stroke="none" fill="none" x="18339" y="7900" width="3437" height="2841"/>
         <path fill="none" stroke="rgb(0,0,0)" stroke-width="40" stroke-linejoin="round" d="M 18360,9740 L 18360,8900 20058,7920 21755,8900 21755,9740 20058,10720 18360,9740 Z"/>
        </g>
       </g>
       <g class="com.sun.star.drawing.PolyPolygonShape">
        <g id="id8">
         <rect class="BoundingBox" stroke="none" fill="none" x="20399" y="8810" width="891" height="532"/>
         <path fill="rgb(255,255,255)" stroke="none" d="M 21148,8970 L 20541,9320 20420,9250 21027,8900 20906,8830 21269,8830 21269,9040 21148,8970 Z"/>
         <path fill="none" stroke="rgb(255,255,255)" stroke-width="40" stroke-linejoin="round" d="M 21148,8970 L 20541,9320 20420,9250 21027,8900 20906,8830 21269,8830 21269,9040 21148,8970 Z"/>
        </g>
       </g>
       <g class="com.sun.star.drawing.PolyPolygonShape">
        <g id="id9">
         <rect class="BoundingBox" stroke="none" fill="none" x="19552" y="8880" width="889" height="532"/>
         <path fill="rgb(255,255,255)" stroke="none" d="M 19815,9320 L 19936,9390 19572,9390 19572,9180 19693,9250 20299,8900 20420,8970 19815,9320 Z"/>
         <path fill="none" stroke="rgb(255,255,255)" stroke-width="40" stroke-linejoin="round" d="M 19815,9320 L 19936,9390 19572,9390 19572,9180 19693,9250 20299,8900 20420,8970 19815,9320 Z"/>
        </g>
       </g>
       <g class="com.sun.star.drawing.PolyPolygonShape">
        <g id="id10">
         <rect class="BoundingBox" stroke="none" fill="none" x="19672" y="8390" width="890" height="532"/>
         <path fill="rgb(255,255,255)" stroke="none" d="M 20420,8550 L 19814,8900 19693,8830 20299,8480 20178,8410 20541,8410 20541,8620 20420,8550 Z"/>
         <path fill="none" stroke="rgb(255,255,255)" stroke-width="40" stroke-linejoin="round" d="M 20420,8550 L 19814,8900 19693,8830 20299,8480 20178,8410 20541,8410 20541,8620 20420,8550 Z"/>
        </g>
       </g>
       <g class="com.sun.star.drawing.PolyPolygonShape">
        <g id="id11">
         <rect class="BoundingBox" stroke="none" fill="none" x="18823" y="8460" width="890" height="531"/>
         <path fill="rgb(255,255,255)" stroke="none" d="M 19087,8900 L 19208,8970 18844,8970 18844,8760 18965,8830 19571,8480 19692,8550 19087,8900 Z"/>
         <path fill="none" stroke="rgb(255,255,255)" stroke-width="40" stroke-linejoin="round" d="M 19087,8900 L 19208,8970 18844,8970 18844,8760 18965,8830 19571,8480 19692,8550 19087,8900 Z"/>
        </g>
       </g>
      </g>
     </g>
    </g>
   </g>
  </g>
 </g>
</svg>