<?xml version="1.0" encoding="UTF-8"?>
<!DOCTYPE svg PUBLIC "-//W3C//DTD SVG 1.1//EN" "http://www.w3.org/Graphics/SVG/1.1/DTD/svg11.dtd">
<svg version="1.2" width="17.81mm" height="32.41mm" viewBox="2891 3030 1781 3241" preserveAspectRatio="xMidYMid" fill-rule="evenodd" stroke-width="28.222" stroke-linejoin="round" xmlns="http://www.w3.org/2000/svg" xmlns:ooo="http://xml.openoffice.org/svg/export" xmlns:xlink="http://www.w3.org/1999/xlink" xmlns:presentation="http://sun.com/xmlns/staroffice/presentation" xmlns:smil="http://www.w3.org/2001/SMIL20/" xmlns:anim="urn:oasis:names:tc:opendocument:xmlns:animation:1.0" xml:space="preserve">
 <defs class="ClipPathGroup">
  <clipPath id="presentation_clip_path" clipPathUnits="userSpaceOnUse">
   <rect x="2891" y="3030" width="1781" height="3241"/>
  </clipPath>
 </defs>
 <defs class="TextShapeIndex">
  <g ooo:slide="id1" ooo:id-list="id3 id4 id5 id6 id7 id8 id9 id10 id11 id12 id13 id14 id15"/>
 </defs>
 <defs class="EmbeddedBulletChars">
  <g id="bullet-char-template(57356)" transform="scale(0.00048828125,-0.00048828125)">
   <path d="M 580,1141 L 1163,571 580,0 -4,571 580,1141 Z"/>
  </g>
  <g id="bullet-char-template(57354)" transform="scale(0.00048828125,-0.00048828125)">
   <path d="M 8,1128 L 1137,1128 1137,0 8,0 8,1128 Z"/>
  </g>
  <g id="bullet-char-template(10146)" transform="scale(0.00048828125,-0.00048828125)">
   <path d="M 174,0 L 602,739 174,1481 1456,739 174,0 Z M 1358,739 L 309,1346 659,739 1358,739 Z"/>
  </g>
  <g id="bullet-char-template(10132)" transform="scale(0.00048828125,-0.00048828125)">
   <path d="M 2015,739 L 1276,0 717,0 1260,543 174,543 174,936 1260,936 717,1481 1274,1481 2015,739 Z"/>
  </g>
  <g id="bullet-char-template(10007)" transform="scale(0.00048828125,-0.00048828125)">
   <path d="M 0,-2 C -7,14 -16,27 -25,37 L 356,567 C 262,823 215,952 215,954 215,979 228,992 255,992 264,992 276,990 289,987 310,991 331,999 354,1012 L 381,999 492,748 772,1049 836,1024 860,1049 C 881,1039 901,1025 922,1006 886,937 835,863 770,784 769,783 710,716 594,584 L 774,223 C 774,196 753,168 711,139 L 727,119 C 717,90 699,76 672,76 641,76 570,178 457,381 L 164,-76 C 142,-110 111,-127 72,-127 30,-127 9,-110 8,-76 1,-67 -2,-52 -2,-32 -2,-23 -1,-13 0,-2 Z"/>
  </g>
  <g id="bullet-char-template(10004)" transform="scale(0.00048828125,-0.00048828125)">
   <path d="M 285,-33 C 182,-33 111,30 74,156 52,228 41,333 41,471 41,549 55,616 82,672 116,743 169,778 240,778 293,778 328,747 346,684 L 369,508 C 377,444 397,411 428,410 L 1163,1116 C 1174,1127 1196,1133 1229,1133 1271,1133 1292,1118 1292,1087 L 1292,965 C 1292,929 1282,901 1262,881 L 442,47 C 390,-6 338,-33 285,-33 Z"/>
  </g>
  <g id="bullet-char-template(9679)" transform="scale(0.00048828125,-0.00048828125)">
   <path d="M 813,0 C 632,0 489,54 383,161 276,268 223,411 223,592 223,773 276,916 383,1023 489,1130 632,1184 813,1184 992,1184 1136,1130 1245,1023 1353,916 1407,772 1407,592 1407,412 1353,268 1245,161 1136,54 992,0 813,0 Z"/>
  </g>
  <g id="bullet-char-template(8226)" transform="scale(0.00048828125,-0.00048828125)">
   <path d="M 346,457 C 273,457 209,483 155,535 101,586 74,649 74,723 74,796 101,859 155,911 209,963 273,989 346,989 419,989 480,963 531,910 582,859 608,796 608,723 608,648 583,586 532,535 482,483 420,457 346,457 Z"/>
  </g>
  <g id="bullet-char-template(8211)" transform="scale(0.00048828125,-0.00048828125)">
   <path d="M -4,459 L 1135,459 1135,606 -4,606 -4,459 Z"/>
  </g>
 </defs>
 <defs class="TextEmbeddedBitmaps"/>
 <g class="SlideGroup">
  <g>
   <g id="id1" class="Slide" clip-path="url(#presentation_clip_path)">
    <g class="Page">
     <g class="Group">
      <g class="com.sun.star.drawing.ClosedBezierShape">
       <g id="id3">
        <rect class="BoundingBox" stroke="none" fill="none" x="3662" y="5553" width="1012" height="719"/>
        <path fill="rgb(221,221,221)" stroke="none" d="M 3663,6270 C 3906,6270 4459,6270 4636,5912 4812,5554 4282,5554 4194,5554 4194,5707 3663,6065 3663,6270 Z"/>
        <path fill="none" stroke="rgb(221,221,221)" d="M 3663,6270 C 3906,6270 4459,6270 4636,5912 4812,5554 4282,5554 4194,5554 4194,5707 3663,6065 3663,6270 Z"/>
       </g>
      </g>
      <g class="Group">
       <g class="com.sun.star.drawing.ClosedBezierShape">
        <g id="id4">
         <rect class="BoundingBox" stroke="none" fill="none" x="3024" y="4563" width="1279" height="1703"/>
         <g>
          <defs>
           <pattern id="pattern1" x="3044" y="4583" width="1239" height="1662" patternUnits="userSpaceOnUse">
            <g transform="translate(-3044,-4583)">
             <path fill="rgb(179,179,179)" stroke="none" d="M 3043,4582 L 4283,4582 4283,6245 3043,6245 3043,4582 Z M 2808,4266 L 4022,4266 4022,5895 2808,5895 2808,4266 Z"/>
             <path fill="rgb(180,180,180)" stroke="none" d="M 2808,4266 L 4022,4266 4022,5895 2808,5895 2808,4266 Z M 2820,4283 L 4010,4283 4010,5878 2820,5878 2820,4283 Z"/>
             <path fill="rgb(181,181,181)" stroke="none" d="M 2820,4283 L 4010,4283 4010,5878 2820,5878 2820,4283 Z M 2833,4299 L 3997,4299 3997,5862 2833,5862 2833,4299 Z"/>
             <path fill="rgb(182,182,182)" stroke="none" d="M 2833,4299 L 3997,4299 3997,5862 2833,5862 2833,4299 Z M 2845,4316 L 3985,4316 3985,5845 2845,5845 2845,4316 Z"/>
             <path fill="rgb(183,183,183)" stroke="none" d="M 2845,4316 L 3985,4316 3985,5845 2845,5845 2845,4316 Z M 2858,4333 L 3972,4333 3972,5828 2858,5828 2858,4333 Z"/>
             <path fill="rgb(184,184,184)" stroke="none" d="M 2858,4333 L 3972,4333 3972,5828 2858,5828 2858,4333 Z M 2870,4349 L 3960,4349 3960,5812 2870,5812 2870,4349 Z"/>
             <path fill="rgb(185,185,185)" stroke="none" d="M 2870,4349 L 3960,4349 3960,5812 2870,5812 2870,4349 Z M 2882,4366 L 3948,4366 3948,5795 2882,5795 2882,4366 Z"/>
             <path fill="rgb(186,186,186)" stroke="none" d="M 2882,4366 L 3948,4366 3948,5795 2882,5795 2882,4366 Z M 2895,4383 L 3935,4383 3935,5778 2895,5778 2895,4383 Z"/>
             <path fill="rgb(187,187,187)" stroke="none" d="M 2895,4383 L 3935,4383 3935,5778 2895,5778 2895,4383 Z M 2907,4399 L 3923,4399 3923,5762 2907,5762 2907,4399 Z"/>
             <path fill="rgb(188,188,188)" stroke="none" d="M 2907,4399 L 3923,4399 3923,5762 2907,5762 2907,4399 Z M 2920,4416 L 3910,4416 3910,5745 2920,5745 2920,4416 Z"/>
             <path fill="rgb(189,189,189)" stroke="none" d="M 2920,4416 L 3910,4416 3910,5745 2920,5745 2920,4416 Z M 2932,4433 L 3898,4433 3898,5728 2932,5728 2932,4433 Z"/>
             <path fill="rgb(190,190,190)" stroke="none" d="M 2932,4433 L 3898,4433 3898,5728 2932,5728 2932,4433 Z M 2944,4449 L 3886,4449 3886,5712 2944,5712 2944,4449 Z"/>
             <path fill="rgb(191,191,191)" stroke="none" d="M 2944,4449 L 3886,4449 3886,5712 2944,5712 2944,4449 Z M 2957,4466 L 3873,4466 3873,5695 2957,5695 2957,4466 Z"/>
             <path fill="rgb(192,192,192)" stroke="none" d="M 2957,4466 L 3873,4466 3873,5695 2957,5695 2957,4466 Z M 2969,4482 L 3861,4482 3861,5679 2969,5679 2969,4482 Z"/>
             <path fill="rgb(193,193,193)" stroke="none" d="M 2969,4482 L 3861,4482 3861,5679 2969,5679 2969,4482 Z M 2982,4499 L 3848,4499 3848,5662 2982,5662 2982,4499 Z"/>
             <path fill="rgb(194,194,194)" stroke="none" d="M 2982,4499 L 3848,4499 3848,5662 2982,5662 2982,4499 Z M 2994,4516 L 3836,4516 3836,5645 2994,5645 2994,4516 Z"/>
             <path fill="rgb(195,195,195)" stroke="none" d="M 2994,4516 L 3836,4516 3836,5645 2994,5645 2994,4516 Z M 3006,4532 L 3824,4532 3824,5629 3006,5629 3006,4532 Z"/>
             <path fill="rgb(196,196,196)" stroke="none" d="M 3006,4532 L 3824,4532 3824,5629 3006,5629 3006,4532 Z M 3019,4549 L 3811,4549 3811,5612 3019,5612 3019,4549 Z"/>
             <path fill="rgb(197,197,197)" stroke="none" d="M 3019,4549 L 3811,4549 3811,5612 3019,5612 3019,4549 Z M 3030,4565 L 3799,4565 3799,5595 3030,5595 3030,4565 Z"/>
             <path fill="rgb(198,198,198)" stroke="none" d="M 3030,4565 L 3799,4565 3799,5595 3030,5595 3030,4565 Z M 3043,4581 L 3786,4581 3786,5579 3043,5579 3043,4581 Z"/>
             <path fill="rgb(199,199,199)" stroke="none" d="M 3043,4581 L 3786,4581 3786,5579 3043,5579 3043,4581 Z M 3055,4598 L 3774,4598 3774,5562 3055,5562 3055,4598 Z"/>
             <path fill="rgb(200,200,200)" stroke="none" d="M 3055,4598 L 3774,4598 3774,5562 3055,5562 3055,4598 Z M 3068,4615 L 3761,4615 3761,5545 3068,5545 3068,4615 Z"/>
             <path fill="rgb(201,201,201)" stroke="none" d="M 3068,4615 L 3761,4615 3761,5545 3068,5545 3068,4615 Z M 3080,4631 L 3749,4631 3749,5529 3080,5529 3080,4631 Z"/>
             <path fill="rgb(202,202,202)" stroke="none" d="M 3080,4631 L 3749,4631 3749,5529 3080,5529 3080,4631 Z M 3092,4648 L 3737,4648 3737,5512 3092,5512 3092,4648 Z"/>
             <path fill="rgb(203,203,203)" stroke="none" d="M 3092,4648 L 3737,4648 3737,5512 3092,5512 3092,4648 Z M 3105,4664 L 3724,4664 3724,5495 3105,5495 3105,4664 Z"/>
             <path fill="rgb(204,204,204)" stroke="none" d="M 3105,4664 L 3724,4664 3724,5495 3105,5495 3105,4664 Z M 3117,4681 L 3712,4681 3712,5479 3117,5479 3117,4681 Z"/>
             <path fill="rgb(205,205,205)" stroke="none" d="M 3117,4681 L 3712,4681 3712,5479 3117,5479 3117,4681 Z M 3130,4698 L 3699,4698 3699,5462 3130,5462 3130,4698 Z"/>
             <path fill="rgb(206,206,206)" stroke="none" d="M 3130,4698 L 3699,4698 3699,5462 3130,5462 3130,4698 Z M 3142,4714 L 3687,4714 3687,5446 3142,5446 3142,4714 Z"/>
             <path fill="rgb(207,207,207)" stroke="none" d="M 3142,4714 L 3687,4714 3687,5446 3142,5446 3142,4714 Z M 3154,4731 L 3675,4731 3675,5429 3154,5429 3154,4731 Z"/>
             <path fill="rgb(208,208,208)" stroke="none" d="M 3154,4731 L 3675,4731 3675,5429 3154,5429 3154,4731 Z M 3167,4748 L 3662,4748 3662,5412 3167,5412 3167,4748 Z"/>
             <path fill="rgb(209,209,209)" stroke="none" d="M 3167,4748 L 3662,4748 3662,5412 3167,5412 3167,4748 Z M 3179,4764 L 3650,4764 3650,5396 3179,5396 3179,4764 Z"/>
             <path fill="rgb(210,210,210)" stroke="none" d="M 3179,4764 L 3650,4764 3650,5396 3179,5396 3179,4764 Z M 3192,4781 L 3637,4781 3637,5379 3192,5379 3192,4781 Z"/>
             <path fill="rgb(211,211,211)" stroke="none" d="M 3192,4781 L 3637,4781 3637,5379 3192,5379 3192,4781 Z M 3204,4798 L 3625,4798 3625,5362 3204,5362 3204,4798 Z"/>
             <path fill="rgb(212,212,212)" stroke="none" d="M 3204,4798 L 3625,4798 3625,5362 3204,5362 3204,4798 Z M 3216,4814 L 3613,4814 3613,5346 3216,5346 3216,4814 Z"/>
             <path fill="rgb(213,213,213)" stroke="none" d="M 3216,4814 L 3613,4814 3613,5346 3216,5346 3216,4814 Z M 3229,4831 L 3600,4831 3600,5329 3229,5329 3229,4831 Z"/>
             <path fill="rgb(214,214,214)" stroke="none" d="M 3229,4831 L 3600,4831 3600,5329 3229,5329 3229,4831 Z M 3241,4848 L 3588,4848 3588,5312 3241,5312 3241,4848 Z"/>
             <path fill="rgb(215,215,215)" stroke="none" d="M 3241,4848 L 3588,4848 3588,5312 3241,5312 3241,4848 Z M 3254,4864 L 3575,4864 3575,5296 3254,5296 3254,4864 Z"/>
             <path fill="rgb(216,216,216)" stroke="none" d="M 3254,4864 L 3575,4864 3575,5296 3254,5296 3254,4864 Z M 3266,4881 L 3563,4881 3563,5279 3266,5279 3266,4881 Z"/>
             <path fill="rgb(217,217,217)" stroke="none" d="M 3266,4881 L 3563,4881 3563,5279 3266,5279 3266,4881 Z M 3278,4897 L 3551,4897 3551,5263 3278,5263 3278,4897 Z"/>
             <path fill="rgb(218,218,218)" stroke="none" d="M 3278,4897 L 3551,4897 3551,5263 3278,5263 3278,4897 Z M 3291,4914 L 3538,4914 3538,5246 3291,5246 3291,4914 Z"/>
             <path fill="rgb(219,219,219)" stroke="none" d="M 3291,4914 L 3538,4914 3538,5246 3291,5246 3291,4914 Z M 3303,4931 L 3526,4931 3526,5229 3303,5229 3303,4931 Z"/>
             <path fill="rgb(220,220,220)" stroke="none" d="M 3303,4931 L 3526,4931 3526,5229 3303,5229 3303,4931 Z M 3316,4947 L 3513,4947 3513,5213 3316,5213 3316,4947 Z"/>
             <path fill="rgb(221,221,221)" stroke="none" d="M 3316,4947 L 3513,4947 3513,5213 3316,5213 3316,4947 Z M 3328,4964 L 3501,4964 3501,5196 3328,5196 3328,4964 Z"/>
             <path fill="rgb(222,222,222)" stroke="none" d="M 3328,4964 L 3501,4964 3501,5196 3328,5196 3328,4964 Z M 3341,4981 L 3488,4981 3488,5179 3341,5179 3341,4981 Z"/>
             <path fill="rgb(223,223,223)" stroke="none" d="M 3341,4981 L 3488,4981 3488,5179 3341,5179 3341,4981 Z M 3353,4997 L 3476,4997 3476,5163 3353,5163 3353,4997 Z"/>
             <path fill="rgb(224,224,224)" stroke="none" d="M 3353,4997 L 3476,4997 3476,5163 3353,5163 3353,4997 Z M 3365,5014 L 3464,5014 3464,5146 3365,5146 3365,5014 Z"/>
             <path fill="rgb(225,225,225)" stroke="none" d="M 3365,5014 L 3464,5014 3464,5146 3365,5146 3365,5014 Z M 3378,5031 L 3451,5031 3451,5129 3378,5129 3378,5031 Z"/>
             <path fill="rgb(226,226,226)" stroke="none" d="M 3378,5031 L 3451,5031 3451,5129 3378,5129 3378,5031 Z M 3390,5047 L 3439,5047 3439,5113 3390,5113 3390,5047 Z"/>
             <path fill="rgb(227,227,227)" stroke="none" d="M 3390,5047 L 3439,5047 3439,5113 3390,5113 3390,5047 Z M 3403,5064 L 3426,5064 3426,5096 3403,5096 3403,5064 Z"/>
             <path fill="rgb(229,229,229)" stroke="none" d="M 3403,5064 L 3426,5064 3426,5096 3403,5096 3403,5064 Z"/>
            </g>
           </pattern>
          </defs>
          <path style="fill:url(#pattern1)" d="M 3044,5861 L 3221,4583 3224,4611 3231,4637 3243,4661 3259,4684 3279,4704 3303,4723 3329,4740 3359,4756 3426,4781 3501,4799 3581,4810 3663,4813 3745,4810 3825,4799 3900,4781 3967,4756 3997,4740 4023,4723 4047,4704 4067,4684 4083,4661 4095,4637 4102,4611 4105,4583 4282,5861 4278,5907 4268,5951 4251,5991 4229,6029 4201,6063 4168,6095 4130,6123 4089,6148 3995,6190 3890,6220 3778,6238 3663,6244 3548,6238 3436,6220 3331,6190 3237,6148 3196,6123 3158,6095 3125,6063 3097,6029 3075,5991 3058,5951 3048,5907 3044,5861 Z"/>
         </g>
         <path fill="none" stroke="rgb(128,128,128)" stroke-width="40" stroke-linejoin="round" d="M 3044,5861 L 3221,4583 C 3221,4890 4105,4890 4105,4583 L 4282,5861 C 4282,6372 3044,6372 3044,5861 Z"/>
        </g>
       </g>
       <g class="com.sun.star.drawing.ClosedBezierShape">
        <g id="id5">
         <rect class="BoundingBox" stroke="none" fill="none" x="3201" y="4308" width="925" height="552"/>
         <g>
          <defs>
           <linearGradient id="gradient1" x1="3663" y1="4328" x2="3663" y2="4839" gradientUnits="userSpaceOnUse">
            <stop offset="0.1" style="stop-color:rgb(179,179,179)"/>
            <stop offset="1" style="stop-color:rgb(229,229,229)"/>
           </linearGradient>
          </defs>
          <path style="fill:url(#gradient1)" d="M 3984,4398 L 4012,4416 4037,4437 4057,4459 4074,4482 4088,4506 4097,4531 4103,4557 4105,4583 4103,4609 4097,4635 4088,4660 4074,4685 4057,4708 4037,4730 4012,4750 3984,4769 3952,4785 3917,4799 3878,4811 3838,4821 3796,4829 3752,4834 3662,4839 3573,4834 3529,4829 3487,4821 3447,4811 3409,4799 3374,4785 3342,4769 3313,4750 3289,4730 3268,4708 3251,4685 3238,4660 3229,4635 3223,4609 3221,4583 3223,4557 3229,4531 3238,4506 3251,4482 3268,4459 3289,4437 3313,4416 3342,4398 3374,4381 3409,4367 3447,4355 3487,4345 3530,4338 3573,4332 3663,4328 3753,4332 3796,4338 3839,4345 3879,4355 3917,4367 3952,4381 3984,4398 Z"/>
         </g>
         <path fill="none" stroke="rgb(255,255,255)" stroke-width="40" stroke-linejoin="round" d="M 3984,4398 C 4145,4491 4145,4676 3984,4769 3823,4862 3502,4862 3342,4769 3181,4676 3181,4491 3342,4398 3503,4305 3824,4305 3984,4398 Z"/>
        </g>
       </g>
       <g class="com.sun.star.drawing.ClosedBezierShape">
        <g id="id6">
         <rect class="BoundingBox" stroke="none" fill="none" x="3024" y="4295" width="1279" height="1971"/>
         <path fill="none" stroke="rgb(0,0,0)" stroke-width="40" stroke-linejoin="round" d="M 3044,5861 L 3221,4584 C 3221,4225 4105,4225 4105,4584 L 4282,5861 C 4282,6372 3044,6372 3044,5861 Z"/>
        </g>
       </g>
       <g class="com.sun.star.drawing.PolyPolygonShape">
        <g id="id7">
         <rect class="BoundingBox" stroke="none" fill="none" x="3554" y="3388" width="218" height="1217"/>
         <path fill="rgb(204,204,204)" stroke="none" d="M 3662,4584 L 3662,3612 3574,3510 3662,3408 3751,3510 3662,3612 3662,4584 Z"/>
         <path fill="none" stroke="rgb(0,0,0)" stroke-width="40" stroke-linejoin="round" d="M 3662,4584 L 3662,3612 3574,3510 3662,3408 3751,3510 3662,3612 3662,4584 Z"/>
        </g>
       </g>
       <g class="com.sun.star.drawing.OpenBezierShape">
        <g id="id8">
         <rect class="BoundingBox" stroke="none" fill="none" x="3730" y="3286" width="175" height="450"/>
         <path fill="none" stroke="rgb(51,51,51)" stroke-width="40" stroke-linejoin="round" d="M 3751,3306 C 3928,3408 3928,3613 3751,3715"/>
        </g>
       </g>
       <g class="com.sun.star.drawing.OpenBezierShape">
        <g id="id9">
         <rect class="BoundingBox" stroke="none" fill="none" x="3422" y="3286" width="174" height="450"/>
         <path fill="none" stroke="rgb(51,51,51)" stroke-width="40" stroke-linejoin="round" d="M 3574,3306 C 3398,3408 3398,3613 3574,3715"/>
        </g>
       </g>
       <g class="com.sun.star.drawing.OpenBezierShape">
        <g id="id10">
         <rect class="BoundingBox" stroke="none" fill="none" x="3245" y="3233" width="174" height="553"/>
         <path fill="none" stroke="rgb(51,51,51)" stroke-width="40" stroke-linejoin="round" d="M 3397,3254 C 3221,3356 3221,3662 3398,3765"/>
        </g>
       </g>
       <g class="com.sun.star.drawing.OpenBezierShape">
        <g id="id11">
         <rect class="BoundingBox" stroke="none" fill="none" x="3908" y="3233" width="174" height="553"/>
         <path fill="none" stroke="rgb(51,51,51)" stroke-width="40" stroke-linejoin="round" d="M 3928,3254 C 4105,3356 4105,3662 3928,3765"/>
        </g>
       </g>
       <g class="com.sun.star.drawing.OpenBezierShape">
        <g id="id12">
         <rect class="BoundingBox" stroke="none" fill="none" x="3068" y="3132" width="173" height="757"/>
         <path fill="none" stroke="rgb(51,51,51)" stroke-width="40" stroke-linejoin="round" d="M 3220,3152 C 3044,3254 3044,3765 3220,3868"/>
        </g>
       </g>
       <g class="com.sun.star.drawing.OpenBezierShape">
        <g id="id13">
         <rect class="BoundingBox" stroke="none" fill="none" x="4085" y="3132" width="174" height="757"/>
         <path fill="none" stroke="rgb(51,51,51)" stroke-width="40" stroke-linejoin="round" d="M 4105,3152 C 4282,3254 4282,3765 4105,3868"/>
        </g>
       </g>
       <g class="com.sun.star.drawing.OpenBezierShape">
        <g id="id14">
         <rect class="BoundingBox" stroke="none" fill="none" x="2891" y="3030" width="174" height="961"/>
         <path fill="none" stroke="rgb(51,51,51)" stroke-width="40" stroke-linejoin="round" d="M 3044,3050 C 2867,3152 2867,3868 3043,3970"/>
        </g>
       </g>
       <g class="com.sun.star.drawing.OpenBezierShape">
        <g id="id15">
         <rect class="BoundingBox" stroke="none" fill="none" x="4262" y="3030" width="174" height="960"/>
         <path fill="none" stroke="rgb(51,51,51)" stroke-width="40" stroke-linejoin="round" d="M 4282,3050 C 4459,3152 4459,3868 4282,3969"/>
        </g>
       </g>
      </g>
     </g>
    </g>
   </g>
  </g>
 </g>
</svg>